<svg width="106" height="35" viewBox="0 0 106 35" fill="none" xmlns="http://www.w3.org/2000/svg">
<path fill-rule="evenodd" clip-rule="evenodd" d="M81.9427 33.6702V34.1326L90.4073 34.1326V33.6702H88.9789C87.7092 33.6702 86.8099 32.8842 86.8099 31.8207C86.8099 31.6675 86.8462 31.5143 86.8887 31.3348C86.8975 31.2976 86.9066 31.2593 86.9157 31.2197L93.2052 5.70186L99.1225 32.0982C99.2283 32.2831 99.2283 32.468 99.2283 32.653C99.2283 33.3003 98.6464 33.6702 97.6941 33.6702H95.1547V34.1326H106V33.6702H104.783C103.408 33.6702 102.561 33.1616 102.138 32.0982L93.7657 0L86.3337 31.2197C85.8047 32.8379 84.5879 33.6702 82.6834 33.6702H81.9427ZM26.9047 27.6981C24.2333 31.7529 19.94 34.4243 15.1697 34.4243C7.68024 34.4243 2.76679 27.1256 2.76679 17.6804C2.76679 7.61498 8.01416 0.888813 15.599 0.888813C21.0372 0.888813 26.0937 4.32345 26.1414 11.8606V12.5761H26.6185V1.03192H26.1414V3.27398C26.1414 3.98953 25.8552 4.32345 25.3305 4.32345C24.9488 4.32345 24.5672 4.13264 24.1856 3.79872C21.4188 1.55666 18.4135 0.41178 15.1697 0.41178C6.24914 0.41178 0 7.61498 0 17.6804C0 27.7458 6.20143 34.9013 15.1697 34.9013C20.0831 34.9013 24.5195 32.2299 27.334 27.9843L26.9047 27.6981ZM50.6867 1.03192H28.9816V12.5761H29.4587V5.94537C29.4587 3.41709 31.2714 1.50896 33.7043 1.50896H38.5223V31.9914C38.5223 33.0886 37.8068 33.8041 36.7096 33.8041H33.5135V34.2812H46.1548V33.8041H42.9587C41.8615 33.8041 41.146 33.0886 41.146 31.9914V1.50896H45.8686C48.3492 1.50896 50.2096 3.36939 50.2096 5.84996V12.5761H50.6867V1.03192ZM52.3619 17.6804C52.3619 6.75632 57.8478 0.41178 67.5315 0.41178C77.1199 0.41178 82.7012 6.70862 82.7012 17.6327C82.7012 28.5567 77.2153 34.9013 67.5315 34.9013C57.9432 34.9013 52.3619 28.6045 52.3619 17.6804ZM55.1287 17.6804C55.1287 22.8323 56.2258 26.9348 58.4679 29.9401C60.7099 32.9455 63.7153 34.4243 67.5315 34.4243C75.1641 34.4243 79.9344 27.8889 79.9344 17.6327C79.9344 7.42417 75.1164 0.888813 67.5315 0.888813C59.899 0.888813 55.1287 7.42417 55.1287 17.6804Z" fill="#828282"/>
</svg>
