<svg width="644" height="401" viewBox="0 0 644 401" fill="none" xmlns="http://www.w3.org/2000/svg">
<path d="M79.808 72.54H78.088V107.972C78.088 112.96 75.508 115.54 70.348 115.54H12.728L53.664 66.864C70.348 47.084 75.164 38.828 75.164 26.96C75.164 10.964 64.5 2.88 43 2.88C31.82 2.88 23.392 5.63201 17.544 11.136C15.996 12.684 14.62 13.372 13.244 13.372C11.008 13.372 9.976 12.168 9.976 9.932V5.11601H8.256V46.74H9.976V36.936C9.976 18.876 21.156 4.6 40.592 4.6C56.932 4.6 65.188 13.716 65.188 32.12C65.016 43.988 60.716 55.684 51.428 66.692L2.58 125H79.808V72.54ZM94.5167 17.672C88.1527 27.476 84.8847 43.3 84.8847 65.144C84.8847 109.176 97.0967 127.236 125.821 127.236C154.373 127.236 166.757 108.66 166.757 64.972C166.757 21.456 154.373 2.88 125.821 2.88C111.545 2.88 101.053 7.86801 94.5167 17.672ZM125.821 125.516C103.977 125.516 94.8607 107.284 94.8607 65.144C94.8607 22.66 104.321 4.6 125.821 4.6C147.665 4.6 156.781 22.832 156.781 64.972C156.781 107.456 147.321 125.516 125.821 125.516ZM227.965 123.28H211.625C206.981 123.28 204.745 120.528 204.745 115.196V2.88L171.033 27.304L172.065 28.852L195.285 11.824V115.196C195.285 120.528 192.877 123.28 188.233 123.28H172.065V125H227.965V123.28ZM301.55 48.804V14.576H354.182C359.342 14.576 361.922 17.156 361.922 22.144V46.74H363.642V5.11601H299.83V50.524H331.65C349.538 50.524 358.482 63.08 358.482 88.02C358.482 112.96 349.022 125.516 330.102 125.516C308.602 125.516 296.734 109.004 296.734 80.624V72.54H295.014V125H296.734V118.12C296.734 115.54 297.766 114.336 300.002 114.336C301.55 114.336 303.098 115.196 304.646 116.744C311.354 123.796 320.298 127.236 331.306 127.236C356.762 127.236 368.458 114.852 368.458 88.02C368.458 61.876 356.762 48.804 333.37 48.804H301.55ZM381.397 123.968C382.429 122.936 383.117 121.216 383.117 119.496C383.117 116.056 380.537 113.476 377.097 113.476C373.485 113.476 371.077 115.884 371.077 119.496C371.077 123.28 373.313 125.516 377.097 125.516C378.645 125.516 380.365 125 381.397 123.968Z" fill="black"/>
<path d="M79.808 72.54H80.808V71.54H79.808V72.54ZM78.088 72.54V71.54H77.088V72.54H78.088ZM12.728 115.54L11.9627 114.896L10.5804 116.54H12.728V115.54ZM53.664 66.864L52.8996 66.2192L52.8987 66.2204L53.664 66.864ZM17.544 11.136L16.8586 10.4078L16.8476 10.4182L16.8369 10.4289L17.544 11.136ZM9.976 5.11601H10.976V4.11601H9.976V5.11601ZM8.256 5.11601V4.11601H7.256V5.11601H8.256ZM8.256 46.74H7.256V47.74H8.256V46.74ZM9.976 46.74V47.74H10.976V46.74H9.976ZM65.188 32.12L66.1879 32.1345L66.188 32.1272V32.12H65.188ZM51.428 66.692L50.6637 66.0471L50.6615 66.0498L51.428 66.692ZM2.58 125L1.81345 124.358L0.437698 126H2.58V125ZM79.808 125V126H80.808V125H79.808ZM79.808 71.54H78.088V73.54H79.808V71.54ZM77.088 72.54V107.972H79.088V72.54H77.088ZM77.088 107.972C77.088 110.303 76.4868 111.896 75.4519 112.913C74.414 113.934 72.7738 114.54 70.348 114.54V116.54C73.0822 116.54 75.312 115.856 76.8541 114.34C78.3992 112.82 79.088 110.629 79.088 107.972H77.088ZM70.348 114.54H12.728V116.54H70.348V114.54ZM13.4933 116.184L54.4293 67.5076L52.8987 66.2204L11.9627 114.896L13.4933 116.184ZM54.4284 67.5087C71.1 47.7435 76.164 39.2323 76.164 26.96H74.164C74.164 38.4237 69.596 46.4245 52.8996 66.2192L54.4284 67.5087ZM76.164 26.96C76.164 18.7181 73.4016 12.37 67.745 8.12189C62.1422 3.91413 53.8466 1.88 43 1.88V3.88C53.6534 3.88 61.4398 5.88787 66.544 9.72112C71.5944 13.514 74.164 19.2059 74.164 26.96H76.164ZM43 1.88C31.6635 1.88 22.9531 4.67189 16.8586 10.4078L18.2294 11.8642C23.831 6.59213 31.9765 3.88 43 3.88V1.88ZM16.8369 10.4289C15.3833 11.8824 14.2471 12.372 13.244 12.372V14.372C14.9929 14.372 16.6087 13.4856 18.2511 11.8431L16.8369 10.4289ZM13.244 12.372C12.3 12.372 11.7925 12.1213 11.5053 11.8111C11.2045 11.4862 10.976 10.9149 10.976 9.93201H8.976C8.976 11.1851 9.26352 12.3338 10.0377 13.1699C10.8255 14.0206 11.952 14.372 13.244 14.372V12.372ZM10.976 9.93201V5.11601H8.976V9.93201H10.976ZM9.976 4.11601H8.256V6.11601H9.976V4.11601ZM7.256 5.11601V46.74H9.256V5.11601H7.256ZM8.256 47.74H9.976V45.74H8.256V47.74ZM10.976 46.74V36.936H8.976V46.74H10.976ZM10.976 36.936C10.976 28.1078 13.7076 20.2754 18.74 14.6631C23.7604 9.06419 31.1358 5.6 40.592 5.6V3.6C30.6122 3.6 22.6796 7.27381 17.251 13.3279C11.8344 19.3686 8.976 27.7042 8.976 36.936H10.976ZM40.592 5.6C48.5778 5.6 54.414 7.82261 58.273 12.1261C62.1506 16.4503 64.188 23.047 64.188 32.12H66.188C66.188 22.789 64.0974 15.6257 59.762 10.7909C55.408 5.9354 48.9462 3.6 40.592 3.6V5.6ZM64.1881 32.1055C64.0197 43.7224 59.8162 55.1997 50.6637 66.0471L52.1923 67.3369C61.6158 56.1683 66.0123 44.2536 66.1879 32.1345L64.1881 32.1055ZM50.6615 66.0498L1.81345 124.358L3.34655 125.642L52.1946 67.3342L50.6615 66.0498ZM2.58 126H79.808V124H2.58V126ZM80.808 125V72.54H78.808V125H80.808ZM94.5167 17.672L93.6846 17.1173L93.6779 17.1275L94.5167 17.672ZM93.6779 17.1275C87.1527 27.1799 83.8847 43.245 83.8847 65.144H85.8847C85.8847 43.355 89.1527 27.7721 95.3555 18.2165L93.6779 17.1275ZM83.8847 65.144C83.8847 87.2067 86.935 102.98 93.7478 113.255C100.625 123.627 111.223 128.236 125.821 128.236V126.236C111.695 126.236 101.824 121.815 95.4146 112.149C88.9404 102.386 85.8847 87.1133 85.8847 65.144H83.8847ZM125.821 128.236C140.344 128.236 150.936 123.49 157.83 113.038C164.662 102.68 167.757 86.867 167.757 64.972H165.757C165.757 86.765 162.659 102.084 156.161 111.936C149.725 121.694 139.85 126.236 125.821 126.236V128.236ZM167.757 64.972C167.757 43.1624 164.662 27.3922 157.83 17.0561C150.936 6.62571 140.344 1.88 125.821 1.88V3.88C139.85 3.88 149.726 8.4223 156.161 18.1589C162.659 27.9898 165.757 43.2655 165.757 64.972H167.757ZM125.821 1.88C111.288 1.88 100.446 6.97586 93.6846 17.1173L95.3487 18.2267C101.66 8.76014 111.801 3.88 125.821 3.88V1.88ZM125.821 124.516C120.501 124.516 116.023 123.407 112.284 121.152C108.547 118.899 105.477 115.457 103.04 110.678C98.1439 101.075 95.8607 86.1846 95.8607 65.144H93.8607C93.8607 86.2434 96.1354 101.539 101.258 111.587C103.831 116.633 107.136 120.384 111.251 122.865C115.365 125.346 120.218 126.516 125.821 126.516V124.516ZM95.8607 65.144C95.8607 43.9345 98.2293 29.001 103.167 19.3978C105.625 14.6178 108.706 11.1861 112.429 8.94214C116.153 6.69758 120.588 5.6 125.821 5.6V3.6C120.303 3.6 115.493 4.75993 111.397 7.22924C107.299 9.69919 103.983 13.4377 101.389 18.4832C96.2221 28.531 93.8607 43.8695 93.8607 65.144H95.8607ZM125.821 5.6C131.14 5.6 135.618 6.70883 139.357 8.96354C143.095 11.2174 146.165 14.6585 148.601 19.4377C153.497 29.0409 155.781 43.9314 155.781 64.972H157.781C157.781 43.8726 155.506 28.5771 150.383 18.5293C147.81 13.483 144.505 9.73237 140.39 7.25084C136.276 4.77017 131.423 3.6 125.821 3.6V5.6ZM155.781 64.972C155.781 86.1815 153.412 101.115 148.474 110.718C146.016 115.498 142.935 118.93 139.212 121.174C135.488 123.418 131.053 124.516 125.821 124.516V126.516C131.338 126.516 136.148 125.356 140.245 122.887C144.343 120.417 147.658 116.678 150.253 111.633C155.419 101.585 157.781 86.2465 157.781 64.972H155.781ZM227.965 123.28H228.965V122.28H227.965V123.28ZM204.745 2.88H205.745V0.920654L204.158 2.0702L204.745 2.88ZM171.033 27.304L170.446 26.4942L169.667 27.0585L170.2 27.8587L171.033 27.304ZM172.064 28.852L171.232 29.4067L171.813 30.2768L172.656 29.6584L172.064 28.852ZM195.285 11.824H196.285V9.8506L194.693 11.0176L195.285 11.824ZM172.064 123.28V122.28H171.064V123.28H172.064ZM172.064 125H171.064V126H172.064V125ZM227.965 125V126H228.965V125H227.965ZM227.965 122.28H211.624V124.28H227.965V122.28ZM211.624 122.28C209.506 122.28 208.105 121.66 207.208 120.594C206.283 119.494 205.745 117.747 205.745 115.196H203.745C203.745 117.977 204.324 120.272 205.678 121.881C207.06 123.524 209.1 124.28 211.624 124.28V122.28ZM205.745 115.196V2.88H203.745V115.196H205.745ZM204.158 2.0702L170.446 26.4942L171.619 28.1138L205.331 3.68981L204.158 2.0702ZM170.2 27.8587L171.232 29.4067L172.897 28.2973L171.865 26.7493L170.2 27.8587ZM172.656 29.6584L195.876 12.6304L194.693 11.0176L171.473 28.0456L172.656 29.6584ZM194.285 11.824V115.196H196.285V11.824H194.285ZM194.285 115.196C194.285 117.731 193.71 119.476 192.747 120.58C191.805 121.659 190.353 122.28 188.232 122.28V124.28C190.756 124.28 192.83 123.525 194.253 121.895C195.655 120.29 196.285 117.993 196.285 115.196H194.285ZM188.232 122.28H172.064V124.28H188.232V122.28ZM171.064 123.28V125H173.064V123.28H171.064ZM172.064 126H227.965V124H172.064V126ZM228.965 125V123.28H226.965V125H228.965ZM301.55 48.804H300.55V49.804H301.55V48.804ZM301.55 14.576V13.576H300.55V14.576H301.55ZM361.922 46.74H360.922V47.74H361.922V46.74ZM363.642 46.74V47.74H364.642V46.74H363.642ZM363.642 5.11601H364.642V4.11601H363.642V5.11601ZM299.83 5.11601V4.11601H298.83V5.11601H299.83ZM299.83 50.524H298.83V51.524H299.83V50.524ZM296.734 72.54H297.734V71.54H296.734V72.54ZM295.014 72.54V71.54H294.014V72.54H295.014ZM295.014 125H294.014V126H295.014V125ZM296.734 125V126H297.734V125H296.734ZM304.646 116.744L305.37 116.055L305.362 116.046L305.353 116.037L304.646 116.744ZM302.55 48.804V14.576H300.55V48.804H302.55ZM301.55 15.576H354.182V13.576H301.55V15.576ZM354.182 15.576C356.607 15.576 358.248 16.1819 359.285 17.2025C360.32 18.2202 360.922 19.8128 360.922 22.144H362.922C362.922 19.4872 362.233 17.2958 360.688 15.7765C359.146 14.2601 356.916 13.576 354.182 13.576V15.576ZM360.922 22.144V46.74H362.922V22.144H360.922ZM361.922 47.74H363.642V45.74H361.922V47.74ZM364.642 46.74V5.11601H362.642V46.74H364.642ZM363.642 4.11601H299.83V6.11601H363.642V4.11601ZM298.83 5.11601V50.524H300.83V5.11601H298.83ZM299.83 51.524H331.65V49.524H299.83V51.524ZM331.65 51.524C340.33 51.524 346.708 54.5519 350.96 60.501C355.256 66.5116 357.482 75.6396 357.482 88.02H359.482C359.482 75.4604 357.235 65.8404 352.587 59.338C347.895 52.7741 340.857 49.524 331.65 49.524V51.524ZM357.482 88.02C357.482 100.392 355.13 109.51 350.589 115.517C346.087 121.472 339.32 124.516 330.102 124.516V126.516C339.804 126.516 347.226 123.282 352.184 116.724C357.103 110.218 359.482 100.588 359.482 88.02H357.482ZM330.102 124.516C319.64 124.516 311.61 120.516 306.16 113.119C300.679 105.679 297.734 94.6952 297.734 80.624H295.734C295.734 94.9328 298.722 106.395 304.55 114.306C310.41 122.26 319.063 126.516 330.102 126.516V124.516ZM297.734 80.624V72.54H295.734V80.624H297.734ZM296.734 71.54H295.014V73.54H296.734V71.54ZM294.014 72.54V125H296.014V72.54H294.014ZM295.014 126H296.734V124H295.014V126ZM297.734 125V118.12H295.734V125H297.734ZM297.734 118.12C297.734 116.934 297.976 116.274 298.286 115.913C298.57 115.585 299.059 115.336 300.002 115.336V113.336C298.708 113.336 297.563 113.689 296.772 114.608C296.007 115.494 295.734 116.726 295.734 118.12H297.734ZM300.002 115.336C301.165 115.336 302.473 115.985 303.938 117.451L305.353 116.037C303.722 114.407 301.934 113.336 300.002 113.336V115.336ZM303.921 117.433C310.849 124.716 320.072 128.236 331.306 128.236V126.236C320.523 126.236 311.858 122.876 305.37 116.055L303.921 117.433ZM331.306 128.236C344.181 128.236 353.786 125.104 360.154 118.377C366.51 111.663 369.458 101.557 369.458 88.02H367.458C367.458 101.315 364.557 110.817 358.701 117.003C352.857 123.176 343.887 126.236 331.306 126.236V128.236ZM369.458 88.02C369.458 74.8196 366.507 64.7325 360.431 57.9412C354.335 51.1287 345.25 47.804 333.37 47.804V49.804C344.881 49.804 353.34 53.0153 358.94 59.2748C364.56 65.5555 367.458 75.0764 367.458 88.02H369.458ZM333.37 47.804H301.55V49.804H333.37V47.804ZM381.397 123.968L382.104 124.675L381.397 123.968ZM382.104 124.675C383.345 123.434 384.117 121.449 384.117 119.496H382.117C382.117 120.983 381.512 122.438 380.689 123.261L382.104 124.675ZM384.117 119.496C384.117 115.504 381.089 112.476 377.097 112.476V114.476C379.984 114.476 382.117 116.608 382.117 119.496H384.117ZM377.097 112.476C375.063 112.476 373.291 113.158 372.025 114.424C370.759 115.691 370.077 117.463 370.077 119.496H372.077C372.077 117.917 372.598 116.679 373.439 115.839C374.28 114.998 375.518 114.476 377.097 114.476V112.476ZM370.077 119.496C370.077 121.585 370.697 123.369 371.96 124.632C373.223 125.895 375.008 126.516 377.097 126.516V124.516C375.401 124.516 374.176 124.019 373.375 123.218C372.574 122.417 372.077 121.191 372.077 119.496H370.077ZM377.097 126.516C378.813 126.516 380.825 125.953 382.104 124.675L380.689 123.261C379.904 124.047 378.476 124.516 377.097 124.516V126.516Z" fill="black"/>
<path d="M210.674 277.116L209.126 276.6L168.018 397L169.566 397.516L210.674 277.116ZM385.835 344.54H384.115V379.972C384.115 384.96 381.535 387.54 376.375 387.54H318.755L359.691 338.864C376.375 319.084 381.191 310.828 381.191 298.96C381.191 282.964 370.527 274.88 349.027 274.88C337.847 274.88 329.419 277.632 323.571 283.136C322.023 284.684 320.647 285.372 319.271 285.372C317.035 285.372 316.003 284.168 316.003 281.932V277.116H314.283V318.74H316.003V308.936C316.003 290.876 327.183 276.6 346.619 276.6C362.959 276.6 371.215 285.716 371.215 304.12C371.043 315.988 366.743 327.684 357.455 338.692L308.607 397H385.835V344.54ZM400.544 289.672C394.18 299.476 390.912 315.3 390.912 337.144C390.912 381.176 403.124 399.236 431.848 399.236C460.4 399.236 472.784 380.66 472.784 336.972C472.784 293.456 460.4 274.88 431.848 274.88C417.572 274.88 407.08 279.868 400.544 289.672ZM431.848 397.516C410.004 397.516 400.888 379.284 400.888 337.144C400.888 294.66 410.348 276.6 431.848 276.6C453.692 276.6 462.808 294.832 462.808 336.972C462.808 379.456 453.348 397.516 431.848 397.516ZM555.148 344.54H553.428V379.972C553.428 384.96 550.848 387.54 545.688 387.54H488.068L529.004 338.864C545.688 319.084 550.504 310.828 550.504 298.96C550.504 282.964 539.84 274.88 518.34 274.88C507.16 274.88 498.732 277.632 492.884 283.136C491.336 284.684 489.96 285.372 488.584 285.372C486.348 285.372 485.316 284.168 485.316 281.932V277.116H483.596V318.74H485.316V308.936C485.316 290.876 496.496 276.6 515.932 276.6C532.272 276.6 540.528 285.716 540.528 304.12C540.356 315.988 536.056 327.684 526.768 338.692L477.92 397H555.148V344.54ZM569.857 289.672C563.493 299.476 560.225 315.3 560.225 337.144C560.225 381.176 572.437 399.236 601.161 399.236C629.713 399.236 642.097 380.66 642.097 336.972C642.097 293.456 629.713 274.88 601.161 274.88C586.885 274.88 576.393 279.868 569.857 289.672ZM601.161 397.516C579.317 397.516 570.201 379.284 570.201 337.144C570.201 294.66 579.661 276.6 601.161 276.6C623.005 276.6 632.121 294.832 632.121 336.972C632.121 379.456 622.661 397.516 601.161 397.516Z" fill="black"/>
<path d="M210.674 277.116L211.62 277.439L211.945 276.486L210.99 276.167L210.674 277.116ZM209.126 276.6L209.442 275.651L208.5 275.337L208.179 276.277L209.126 276.6ZM168.018 397L167.071 396.677L166.746 397.63L167.701 397.949L168.018 397ZM169.566 397.516L169.249 398.465L170.191 398.779L170.512 397.839L169.566 397.516ZM210.99 276.167L209.442 275.651L208.809 277.549L210.357 278.065L210.99 276.167ZM208.179 276.277L167.071 396.677L168.964 397.323L210.072 276.923L208.179 276.277ZM167.701 397.949L169.249 398.465L169.882 396.567L168.334 396.051L167.701 397.949ZM170.512 397.839L211.62 277.439L209.727 276.793L168.619 397.193L170.512 397.839ZM385.835 344.54H386.835V343.54H385.835V344.54ZM384.115 344.54V343.54H383.115V344.54H384.115ZM318.755 387.54L317.99 386.896L316.608 388.54H318.755V387.54ZM359.691 338.864L358.927 338.219L358.926 338.22L359.691 338.864ZM323.571 283.136L322.886 282.408L322.875 282.418L322.864 282.429L323.571 283.136ZM316.003 277.116H317.003V276.116H316.003V277.116ZM314.283 277.116V276.116H313.283V277.116H314.283ZM314.283 318.74H313.283V319.74H314.283V318.74ZM316.003 318.74V319.74H317.003V318.74H316.003ZM371.215 304.12L372.215 304.134V304.127V304.12H371.215ZM357.455 338.692L356.691 338.047L356.689 338.05L357.455 338.692ZM308.607 397L307.841 396.358L306.465 398H308.607V397ZM385.835 397V398H386.835V397H385.835ZM385.835 343.54H384.115V345.54H385.835V343.54ZM383.115 344.54V379.972H385.115V344.54H383.115ZM383.115 379.972C383.115 382.303 382.514 383.896 381.479 384.913C380.441 385.934 378.801 386.54 376.375 386.54V388.54C379.11 388.54 381.339 387.856 382.882 386.34C384.427 384.82 385.115 382.629 385.115 379.972H383.115ZM376.375 386.54H318.755V388.54H376.375V386.54ZM319.521 388.184L360.457 339.508L358.926 338.22L317.99 386.896L319.521 388.184ZM360.456 339.509C377.127 319.743 382.191 311.232 382.191 298.96H380.191C380.191 310.424 375.623 318.424 358.927 338.219L360.456 339.509ZM382.191 298.96C382.191 290.718 379.429 284.37 373.772 280.122C368.17 275.914 359.874 273.88 349.027 273.88V275.88C359.681 275.88 367.467 277.888 372.571 281.721C377.622 285.514 380.191 291.206 380.191 298.96H382.191ZM349.027 273.88C337.691 273.88 328.98 276.672 322.886 282.408L324.257 283.864C329.858 278.592 338.004 275.88 349.027 275.88V273.88ZM322.864 282.429C321.411 283.882 320.274 284.372 319.271 284.372V286.372C321.02 286.372 322.636 285.486 324.278 283.843L322.864 282.429ZM319.271 284.372C318.327 284.372 317.82 284.121 317.533 283.811C317.232 283.486 317.003 282.915 317.003 281.932H315.003C315.003 283.185 315.291 284.334 316.065 285.17C316.853 286.021 317.979 286.372 319.271 286.372V284.372ZM317.003 281.932V277.116H315.003V281.932H317.003ZM316.003 276.116H314.283V278.116H316.003V276.116ZM313.283 277.116V318.74H315.283V277.116H313.283ZM314.283 319.74H316.003V317.74H314.283V319.74ZM317.003 318.74V308.936H315.003V318.74H317.003ZM317.003 308.936C317.003 300.108 319.735 292.275 324.767 286.663C329.788 281.064 337.163 277.6 346.619 277.6V275.6C336.64 275.6 328.707 279.274 323.278 285.328C317.862 291.369 315.003 299.704 315.003 308.936H317.003ZM346.619 277.6C354.605 277.6 360.441 279.823 364.3 284.126C368.178 288.45 370.215 295.047 370.215 304.12H372.215C372.215 294.789 370.125 287.626 365.789 282.791C361.435 277.935 354.974 275.6 346.619 275.6V277.6ZM370.215 304.105C370.047 315.722 365.844 327.2 356.691 338.047L358.22 339.337C367.643 328.168 372.04 316.254 372.215 304.134L370.215 304.105ZM356.689 338.05L307.841 396.358L309.374 397.642L358.222 339.334L356.689 338.05ZM308.607 398H385.835V396H308.607V398ZM386.835 397V344.54H384.835V397H386.835ZM400.544 289.672L399.712 289.117L399.705 289.128L400.544 289.672ZM399.705 289.128C393.18 299.18 389.912 315.245 389.912 337.144H391.912C391.912 315.355 395.18 299.772 401.383 290.216L399.705 289.128ZM389.912 337.144C389.912 359.207 392.962 374.98 399.775 385.255C406.653 395.627 417.25 400.236 431.848 400.236V398.236C417.722 398.236 407.851 393.815 401.442 384.149C394.968 374.386 391.912 359.113 391.912 337.144H389.912ZM431.848 400.236C446.371 400.236 456.964 395.49 463.858 385.038C470.689 374.68 473.784 358.867 473.784 336.972H471.784C471.784 358.765 468.687 374.084 462.188 383.936C455.752 393.694 445.877 398.236 431.848 398.236V400.236ZM473.784 336.972C473.784 315.162 470.689 299.392 463.857 289.056C456.963 278.626 446.371 273.88 431.848 273.88V275.88C445.877 275.88 455.753 280.422 462.189 290.159C468.687 299.99 471.784 315.266 471.784 336.972H473.784ZM431.848 273.88C417.316 273.88 406.473 278.976 399.712 289.117L401.376 290.227C407.687 280.76 417.828 275.88 431.848 275.88V273.88ZM431.848 396.516C426.528 396.516 422.051 395.407 418.311 393.152C414.574 390.899 411.504 387.457 409.067 382.678C404.171 373.075 401.888 358.185 401.888 337.144H399.888C399.888 358.243 402.163 373.539 407.286 383.587C409.858 388.633 413.163 392.384 417.279 394.865C421.392 397.346 426.246 398.516 431.848 398.516V396.516ZM401.888 337.144C401.888 315.935 404.257 301.001 409.195 291.398C411.653 286.618 414.734 283.186 418.456 280.942C422.18 278.698 426.616 277.6 431.848 277.6V275.6C426.331 275.6 421.521 276.76 417.424 279.229C413.326 281.699 410.011 285.438 407.416 290.483C402.249 300.531 399.888 315.869 399.888 337.144H401.888ZM431.848 277.6C437.168 277.6 441.646 278.709 445.385 280.964C449.122 283.217 452.192 286.659 454.629 291.438C459.525 301.041 461.808 315.931 461.808 336.972H463.808C463.808 315.873 461.533 300.577 456.41 290.529C453.838 285.483 450.533 281.732 446.417 279.251C442.304 276.77 437.45 275.6 431.848 275.6V277.6ZM461.808 336.972C461.808 358.181 459.439 373.115 454.501 382.718C452.043 387.498 448.962 390.93 445.24 393.174C441.516 395.418 437.081 396.516 431.848 396.516V398.516C437.366 398.516 442.175 397.356 446.272 394.887C450.37 392.417 453.685 388.678 456.28 383.633C461.447 373.585 463.808 358.247 463.808 336.972H461.808ZM555.148 344.54H556.148V343.54H555.148V344.54ZM553.428 344.54V343.54H552.428V344.54H553.428ZM488.068 387.54L487.303 386.896L485.92 388.54H488.068V387.54ZM529.004 338.864L528.239 338.219V338.22L529.004 338.864ZM492.884 283.136L492.198 282.408L492.187 282.418L492.177 282.429L492.884 283.136ZM485.316 277.116H486.316V276.116H485.316V277.116ZM483.596 277.116V276.116H482.596V277.116H483.596ZM483.596 318.74H482.596V319.74H483.596V318.74ZM485.316 318.74V319.74H486.316V318.74H485.316ZM540.528 304.12L541.528 304.134V304.127V304.12H540.528ZM526.768 338.692L526.004 338.047L526.001 338.05L526.768 338.692ZM477.92 397L477.153 396.358L475.778 398H477.92V397ZM555.148 397V398H556.148V397H555.148ZM555.148 343.54H553.428V345.54H555.148V343.54ZM552.428 344.54V379.972H554.428V344.54H552.428ZM552.428 379.972C552.428 382.303 551.827 383.896 550.792 384.913C549.754 385.934 548.114 386.54 545.688 386.54V388.54C548.422 388.54 550.652 387.856 552.194 386.34C553.739 384.82 554.428 382.629 554.428 379.972H552.428ZM545.688 386.54H488.068V388.54H545.688V386.54ZM488.833 388.184L529.769 339.508L528.239 338.22L487.303 386.896L488.833 388.184ZM529.768 339.509C546.44 319.743 551.504 311.232 551.504 298.96H549.504C549.504 310.424 544.936 318.424 528.239 338.219L529.768 339.509ZM551.504 298.96C551.504 290.718 548.741 284.37 543.085 280.122C537.482 275.914 529.186 273.88 518.34 273.88V275.88C528.993 275.88 536.78 277.888 541.884 281.721C546.934 285.514 549.504 291.206 549.504 298.96H551.504ZM518.34 273.88C507.003 273.88 498.293 276.672 492.198 282.408L493.569 283.864C499.171 278.592 507.316 275.88 518.34 275.88V273.88ZM492.177 282.429C490.723 283.882 489.587 284.372 488.584 284.372V286.372C490.333 286.372 491.948 285.486 493.591 283.843L492.177 282.429ZM488.584 284.372C487.64 284.372 487.132 284.121 486.845 283.811C486.544 283.486 486.316 282.915 486.316 281.932H484.316C484.316 283.185 484.603 284.334 485.378 285.17C486.165 286.021 487.292 286.372 488.584 286.372V284.372ZM486.316 281.932V277.116H484.316V281.932H486.316ZM485.316 276.116H483.596V278.116H485.316V276.116ZM482.596 277.116V318.74H484.596V277.116H482.596ZM483.596 319.74H485.316V317.74H483.596V319.74ZM486.316 318.74V308.936H484.316V318.74H486.316ZM486.316 308.936C486.316 300.108 489.047 292.275 494.08 286.663C499.1 281.064 506.476 277.6 515.932 277.6V275.6C505.952 275.6 498.019 279.274 492.591 285.328C487.174 291.369 484.316 299.704 484.316 308.936H486.316ZM515.932 277.6C523.918 277.6 529.754 279.823 533.613 284.126C537.49 288.45 539.528 295.047 539.528 304.12H541.528C541.528 294.789 539.437 287.626 535.102 282.791C530.748 277.935 524.286 275.6 515.932 275.6V277.6ZM539.528 304.105C539.36 315.722 535.156 327.2 526.004 338.047L527.532 339.337C536.956 328.168 541.352 316.254 541.528 304.134L539.528 304.105ZM526.001 338.05L477.153 396.358L478.686 397.642L527.534 339.334L526.001 338.05ZM477.92 398H555.148V396H477.92V398ZM556.148 397V344.54H554.148V397H556.148ZM569.857 289.672L569.024 289.117L569.018 289.128L569.857 289.672ZM569.018 289.128C562.492 299.18 559.225 315.245 559.225 337.144H561.225C561.225 315.355 564.493 299.772 570.695 290.216L569.018 289.128ZM559.225 337.144C559.225 359.207 562.275 374.98 569.088 385.255C575.965 395.627 586.563 400.236 601.161 400.236V398.236C587.034 398.236 577.164 393.815 570.754 384.149C564.28 374.386 561.225 359.113 561.225 337.144H559.225ZM601.161 400.236C615.684 400.236 626.276 395.49 633.17 385.038C640.002 374.68 643.097 358.867 643.097 336.972H641.097C641.097 358.765 637.999 374.084 631.501 383.936C625.065 393.694 615.189 398.236 601.161 398.236V400.236ZM643.097 336.972C643.097 315.162 640.002 299.392 633.17 289.056C626.276 278.626 615.683 273.88 601.161 273.88V275.88C615.19 275.88 625.066 280.422 631.501 290.159C637.999 299.99 641.097 315.266 641.097 336.972H643.097ZM601.161 273.88C586.628 273.88 575.785 278.976 569.024 289.117L570.689 290.227C577 280.76 587.141 275.88 601.161 275.88V273.88ZM601.161 396.516C595.841 396.516 591.363 395.407 587.624 393.152C583.886 390.899 580.817 387.457 578.38 382.678C573.484 373.075 571.201 358.185 571.201 337.144H569.201C569.201 358.243 571.475 373.539 576.598 383.587C579.171 388.633 582.476 392.384 586.591 394.865C590.705 397.346 595.558 398.516 601.161 398.516V396.516ZM571.201 337.144C571.201 315.935 573.569 301.001 578.507 291.398C580.965 286.618 584.046 283.186 587.769 280.942C591.493 278.698 595.928 277.6 601.161 277.6V275.6C595.643 275.6 590.833 276.76 586.737 279.229C582.639 281.699 579.323 285.438 576.729 290.483C571.562 300.531 569.201 315.869 569.201 337.144H571.201ZM601.161 277.6C606.48 277.6 610.958 278.709 614.697 280.964C618.435 283.217 621.505 286.659 623.941 291.438C628.837 301.041 631.121 315.931 631.121 336.972H633.121C633.121 315.873 630.846 300.577 625.723 290.529C623.15 285.483 619.845 281.732 615.73 279.251C611.616 276.77 606.763 275.6 601.161 275.6V277.6ZM631.121 336.972C631.121 358.181 628.752 373.115 623.814 382.718C621.356 387.498 618.275 390.93 614.552 393.174C610.828 395.418 606.393 396.516 601.161 396.516V398.516C606.678 398.516 611.488 397.356 615.585 394.887C619.682 392.417 622.998 388.678 625.592 383.633C630.759 373.585 633.121 358.247 633.121 336.972H631.121Z" fill="black"/>
</svg>
