<svg width="608" height="133" viewBox="0 0 608 133" fill="none" xmlns="http://www.w3.org/2000/svg">
<g clip-path="url(#clip0)">
<path d="M161.377 3C124.757 3 104.012 26.9143 104.012 68.0899C104.012 109.266 125.118 133 161.377 133C197.997 133 218.743 109.086 218.743 67.9101C218.743 26.7345 197.637 3 161.377 3ZM127.102 114.3C118.624 102.972 114.475 87.509 114.475 68.0899C114.475 29.4315 132.514 4.79806 161.377 4.79806C190.06 4.79806 208.28 29.4315 208.28 67.9101C208.28 106.568 190.24 131.202 161.377 131.202C146.946 131.202 135.581 125.628 127.102 114.3Z" fill="black"/>
<path d="M322.557 128.864H317.867C312.816 128.864 310.651 127.426 307.765 122.931L257.435 46.1535L293.153 13.7884C298.024 9.29326 303.255 7.13558 308.847 7.13558H312.455V5.33752H278.36V7.13558H285.035C288.823 7.13558 290.627 9.29326 290.627 11.4509C290.627 12.8894 290.086 14.3278 288.643 15.4066L249.497 51.0083H244.085V13.6086C244.085 9.83267 246.972 7.13558 250.76 7.13558H257.615V5.33752H220.634V7.13558H227.489C231.277 7.13558 234.164 9.83267 234.164 13.6086V122.391C234.164 126.167 231.277 128.864 227.489 128.864H220.634V130.663H257.615V128.864H250.76C246.972 128.864 244.085 126.167 244.085 122.391V52.8064H249.678L297.482 125.448C298.024 126.347 298.204 127.066 298.204 127.606C298.204 128.505 297.482 128.864 295.859 128.864H285.576V130.663H322.557V128.864Z" fill="black"/>
<path d="M413.455 105.849C403.353 121.133 387.117 131.202 369.078 131.202C340.756 131.202 322.175 103.692 322.175 68.0899C322.175 30.1508 342.019 4.79806 370.701 4.79806C391.266 4.79806 410.388 17.7441 410.569 46.1535V48.8506H412.373V5.33749H410.569V13.7884C410.569 16.4855 409.486 17.7441 407.502 17.7441C406.059 17.7441 404.616 17.0249 403.173 15.7663C392.71 7.31536 381.345 3 369.078 3C335.344 3 311.712 30.1508 311.712 68.0899C311.712 106.029 335.164 133 369.078 133C387.659 133 404.435 122.931 415.079 106.928L413.455 105.849Z" fill="black"/>
<path d="M608.001 5.33753L606.377 4.7981L563.263 130.663L564.886 131.202L608.001 5.33753Z" fill="black"/>
<path fill-rule="evenodd" clip-rule="evenodd" d="M0 0H3H43.6555H82.4838V43.5131H80.6774V18.1604C80.6774 8.6307 73.6322 1.79806 64.2387 1.79806H43.6555H26.4838H23.4513V45.6708H43.6555L52.8557 46.5698C77.9306 48.9073 90.5582 61.8534 90.5582 85.408C90.5582 112.559 75.5854 125.325 44.0163 125.325H0V123.527H6.855C11.7257 123.527 13.5296 121.909 13.5296 117.054V8.27109C13.5296 3.41632 11.7257 1.79806 6.855 1.79806H3H0V0ZM24 123.058V47H44.565C68.9183 47 80.644 59.2268 80.644 84.9391C80.644 110.831 68.9183 123.058 44.565 123.058H24Z" fill="black"/>
<path fill-rule="evenodd" clip-rule="evenodd" d="M420 129.192V131H464.149C490.236 131 501 124.311 501 107.138C501 89.9641 490.236 83.2755 464.149 83.2755H443.716V13.4964C443.716 9.3386 446.635 6.80775 450.466 6.80775H457.399V5H420V6.80775H426.932C431.858 6.80775 433.682 8.43473 433.682 13.4964V122.684C433.682 127.023 431.493 129.192 426.932 129.192H420ZM443.716 129.192V85.0832H464.149C482.939 85.0832 490.419 91.2296 490.419 107.138C490.419 123.046 482.939 129.192 464.149 129.192H443.716ZM540 5.00001V6.80775H533.141C529.351 6.80775 522.463 9.51937 522.463 13.3156V122.684C522.463 126.481 529.351 129.192 533.141 129.192H540V131H503V129.192H509.859C513.649 129.192 519.537 126.481 519.537 122.684V13.3156C519.537 9.51937 513.649 6.80775 509.859 6.80775H503V5.00001H540Z" fill="black"/>
</g>
<defs>
<clipPath id="clip0">
<rect width="608" height="133" fill="white"/>
</clipPath>
</defs>
</svg>
