<svg width="1140" height="114" viewBox="0 0 1140 114" fill="none" xmlns="http://www.w3.org/2000/svg">
<path d="M66.187 28.873C64.8963 28.873 63.8073 29.2763 62.92 30.083C62.1133 30.8897 61.71 31.9383 61.71 33.229V106.434C61.71 107.725 62.1133 108.773 62.92 109.58C63.8073 110.387 64.8963 110.79 66.187 110.79H70.785V112H45.98V110.79H50.578C51.8687 110.79 52.9173 110.387 53.724 109.58C54.6113 108.773 55.055 107.725 55.055 106.434V33.229C55.055 31.9383 54.6113 30.8897 53.724 30.083C52.9173 29.2763 51.8687 28.873 50.578 28.873H23.837C22.5463 28.873 21.4573 29.2763 20.57 30.083C19.7633 30.8897 19.36 31.9383 19.36 33.229V106.434C19.36 107.725 19.7633 108.773 20.57 109.58C21.4573 110.387 22.5463 110.79 23.837 110.79H28.435V112H3.63V110.79H8.228C9.51867 110.79 10.5673 110.387 11.374 109.58C12.2613 108.773 12.705 107.725 12.705 106.434V33.229C12.705 31.9383 12.2613 30.8897 11.374 30.083C10.5673 29.2763 9.51867 28.873 8.228 28.873H3.63V27.663H70.785V28.873H66.187ZM112.181 26.09C124.443 26.09 133.921 29.8813 140.616 37.464C147.312 45.0467 150.659 55.8157 150.659 69.771C150.659 76.7083 149.812 82.8793 148.118 88.284C146.424 93.6887 143.924 98.2867 140.616 102.078C137.39 105.789 133.356 108.652 128.516 110.669C123.757 112.605 118.312 113.573 112.181 113.573C99.9199 113.573 90.4415 109.782 83.7462 102.199C77.0509 94.6163 73.7032 83.8473 73.7032 69.892C73.7032 62.9547 74.5502 56.7837 76.2442 51.379C77.9382 45.9743 80.3985 41.4167 83.6252 37.706C86.9325 33.9147 90.9659 31.051 95.7252 29.115C100.565 27.0983 106.051 26.09 112.181 26.09ZM112.181 112.363C117.021 112.363 121.377 111.355 125.249 109.338C129.121 107.321 132.429 104.498 135.171 100.868C137.914 97.1573 140.011 92.6803 141.463 87.437C142.915 82.1937 143.641 76.305 143.641 69.771C143.641 63.3177 142.875 57.4693 141.342 52.226C139.89 46.9827 137.793 42.5057 135.05 38.795C132.388 35.0843 129.121 32.261 125.249 30.325C121.377 28.3083 117.021 27.3 112.181 27.3C107.341 27.3 102.985 28.3083 99.1132 30.325C95.2412 32.3417 91.9339 35.2053 89.1912 38.916C86.4485 42.546 84.3512 46.9827 82.8992 52.226C81.4472 57.4693 80.7212 63.358 80.7212 69.892C80.7212 74.8933 81.2455 79.935 82.2942 85.017C83.3429 90.0183 85.0772 94.576 87.4972 98.69C89.9979 102.723 93.2649 106.031 97.2982 108.612C101.332 111.113 106.293 112.363 112.181 112.363ZM186.927 27.663C192.654 27.663 197.857 28.6713 202.536 30.688C207.295 32.7047 211.369 35.5683 214.757 39.279C218.145 42.909 220.767 47.3457 222.622 52.589C224.477 57.7517 225.405 63.5193 225.405 69.892C225.405 76.2647 224.477 82.0323 222.622 87.195C220.767 92.3577 218.145 96.7943 214.757 100.505C211.369 104.135 207.295 106.958 202.536 108.975C197.857 110.992 192.654 112 186.927 112H149.175V110.79H153.773C155.064 110.79 156.112 110.387 156.919 109.58C157.806 108.773 158.25 107.725 158.25 106.434V33.229C158.25 31.9383 157.806 30.8897 156.919 30.083C156.112 29.2763 155.064 28.873 153.773 28.873H149.175V27.663H186.927ZM186.927 110.79C191.686 110.79 196.002 109.782 199.874 107.765C203.746 105.748 207.053 102.925 209.796 99.295C212.539 95.665 214.636 91.3493 216.088 86.348C217.621 81.3467 218.387 75.8613 218.387 69.892C218.387 63.9227 217.621 58.4373 216.088 53.436C214.636 48.354 212.539 43.998 209.796 40.368C207.053 36.738 203.746 33.9147 199.874 31.898C196.002 29.8813 191.686 28.873 186.927 28.873H164.905V110.79H186.927ZM299.869 112H275.064V110.79H281.235C283.333 110.79 284.381 109.903 284.381 108.128C284.381 107.725 284.341 107.402 284.26 107.16L276.516 83.807H245.54L239.732 104.377C239.571 104.78 239.49 105.143 239.49 105.466C239.49 105.708 239.49 105.99 239.49 106.313C239.49 107.684 239.894 108.773 240.7 109.58C241.588 110.387 242.717 110.79 244.088 110.79H247.113V112H227.753V110.79H230.899C232.755 110.79 234.328 110.266 235.618 109.217C236.909 108.088 237.877 106.434 238.522 104.256L258.487 33.592C258.568 33.2693 258.608 32.987 258.608 32.745C258.689 32.503 258.729 32.261 258.729 32.019C258.729 30.9703 258.407 30.204 257.761 29.72C257.116 29.1553 256.269 28.873 255.22 28.873H246.992V27.663H264.779L291.278 107.402C292.004 109.661 293.819 110.79 296.723 110.79H299.869V112ZM259.818 33.955L245.903 82.597H276.032L259.818 33.955ZM325.935 27.663C334.567 27.663 340.778 28.9133 344.569 31.414C348.441 33.834 350.377 37.9077 350.377 43.635C350.377 49.3623 348.441 53.4763 344.569 55.977C340.778 58.397 334.567 59.607 325.935 59.607H312.383V106.313C312.383 107.684 312.787 108.773 313.593 109.58C314.481 110.387 315.57 110.79 316.86 110.79H321.458V112H296.653V110.79H301.251C302.865 110.79 303.994 110.467 304.639 109.822C305.365 109.177 305.728 108.007 305.728 106.313V33.229C305.728 30.325 304.236 28.873 301.251 28.873H296.653V27.663H325.935ZM325.935 58.397C332.227 58.397 336.704 57.2677 339.366 55.009C342.028 52.7503 343.359 48.959 343.359 43.635C343.359 38.311 342.028 34.5197 339.366 32.261C336.704 30.0023 332.227 28.873 325.935 28.873H312.383V58.397H325.935ZM389.295 26.09C401.556 26.09 411.034 29.8813 417.73 37.464C424.425 45.0467 427.773 55.8157 427.773 69.771C427.773 76.7083 426.926 82.8793 425.232 88.284C423.538 93.6887 421.037 98.2867 417.73 102.078C414.503 105.789 410.47 108.652 405.63 110.669C400.87 112.605 395.425 113.573 389.295 113.573C377.033 113.573 367.555 109.782 360.86 102.199C354.164 94.6163 350.817 83.8473 350.817 69.892C350.817 62.9547 351.664 56.7837 353.358 51.379C355.052 45.9743 357.512 41.4167 360.739 37.706C364.046 33.9147 368.079 31.051 372.839 29.115C377.679 27.0983 383.164 26.09 389.295 26.09ZM389.295 112.363C394.135 112.363 398.491 111.355 402.363 109.338C406.235 107.321 409.542 104.498 412.285 100.868C415.027 97.1573 417.125 92.6803 418.577 87.437C420.029 82.1937 420.755 76.305 420.755 69.771C420.755 63.3177 419.988 57.4693 418.456 52.226C417.004 46.9827 414.906 42.5057 412.164 38.795C409.502 35.0843 406.235 32.261 402.363 30.325C398.491 28.3083 394.135 27.3 389.295 27.3C384.455 27.3 380.099 28.3083 376.227 30.325C372.355 32.3417 369.047 35.2053 366.305 38.916C363.562 42.546 361.465 46.9827 360.013 52.226C358.561 57.4693 357.835 63.358 357.835 69.892C357.835 74.8933 358.359 79.935 359.408 85.017C360.456 90.0183 362.191 94.576 364.611 98.69C367.111 102.723 370.378 106.031 374.412 108.612C378.445 111.113 383.406 112.363 389.295 112.363ZM452.667 27.663V28.873H448.069C446.778 28.873 445.649 29.3167 444.681 30.204C443.793 31.0107 443.35 32.0593 443.35 33.35L442.987 52.831C442.825 62.027 444.358 68.7627 447.585 73.038C450.892 77.2327 455.692 79.33 461.984 79.33H474.447V33.229C474.447 31.9383 474.003 30.8897 473.116 30.083C472.309 29.2763 471.26 28.873 469.97 28.873H465.372V27.663H490.177V28.873H485.579C484.288 28.873 483.199 29.2763 482.312 30.083C481.505 30.8897 481.102 31.9383 481.102 33.229V106.434C481.102 107.725 481.505 108.773 482.312 109.58C483.199 110.387 484.288 110.79 485.579 110.79H490.177V112H465.372V110.79H469.97C471.26 110.79 472.309 110.387 473.116 109.58C474.003 108.773 474.447 107.725 474.447 106.434V80.54H461.984C453.352 80.54 447.101 78.362 443.229 74.006C439.437 69.5693 437.461 62.5513 437.3 52.952V33.35C437.3 32.0593 436.816 31.0107 435.848 30.204C434.88 29.3167 433.75 28.873 432.46 28.873H427.862V27.663H452.667ZM552.659 28.873C551.368 28.873 550.279 29.2763 549.392 30.083C548.585 30.8897 548.182 31.9383 548.182 33.229V106.434C548.182 107.725 548.585 108.773 549.392 109.58C550.279 110.387 551.368 110.79 552.659 110.79H557.257V112H532.452V110.79H537.05C538.341 110.79 539.389 110.387 540.196 109.58C541.083 108.773 541.527 107.725 541.527 106.434V59.607H505.832V106.434C505.832 107.725 506.235 108.773 507.042 109.58C507.929 110.387 509.018 110.79 510.309 110.79H514.907V112H490.102V110.79H494.7C495.991 110.79 497.039 110.387 497.846 109.58C498.733 108.773 499.177 107.725 499.177 106.434V33.229C499.177 31.9383 498.733 30.8897 497.846 30.083C497.039 29.2763 495.991 28.873 494.7 28.873H490.102V27.663H514.907V28.873H510.309C509.018 28.873 507.929 29.2763 507.042 30.083C506.235 30.8897 505.832 31.9383 505.832 33.229V58.397H541.527V33.229C541.527 31.9383 541.083 30.8897 540.196 30.083C539.389 29.2763 538.341 28.873 537.05 28.873H532.452V27.663H557.257V28.873H552.659ZM625.738 28.873C624.448 28.873 623.359 29.2763 622.471 30.083C621.665 30.8897 621.261 31.9383 621.261 33.229V106.434C621.261 107.725 621.665 108.773 622.471 109.58C623.359 110.387 624.448 110.79 625.738 110.79H630.336V112H605.531V110.79H610.129C611.42 110.79 612.469 110.387 613.275 109.58C614.163 108.773 614.606 107.725 614.606 106.434V33.229C614.606 31.9383 614.163 30.8897 613.275 30.083C612.469 29.2763 611.42 28.873 610.129 28.873H605.531V27.663H630.336V28.873H625.738ZM589.801 56.582C596.819 57.4693 601.942 60.1313 605.168 64.568C608.395 69.0047 610.008 75.7 610.008 84.654C610.008 94.334 607.992 101.392 603.958 105.829C599.925 110.185 593.391 112.363 584.356 112.363H559.914V111.153H564.512C566.126 111.153 567.255 110.83 567.9 110.185C568.626 109.459 568.989 108.289 568.989 106.676V33.713C568.989 32.0997 568.626 30.9703 567.9 30.325C567.255 29.599 566.126 29.236 564.512 29.236H559.914V28.026H584.719V29.236H580.121C578.831 29.236 577.742 29.6797 576.854 30.567C576.048 31.3737 575.644 32.4223 575.644 33.713V56.219H583.751C584.8 56.219 585.728 56.219 586.534 56.219C587.422 56.219 588.511 56.34 589.801 56.582ZM575.644 57.429V111.153H584.356C590.89 111.153 595.609 109.056 598.513 104.861C601.498 100.666 602.99 93.971 602.99 84.775C602.99 75.2563 601.458 68.319 598.392 63.963C595.408 59.607 590.729 57.429 584.356 57.429H575.644ZM691.51 112H634.035V110.79H638.633C639.924 110.79 640.973 110.387 641.779 109.58C642.667 108.773 643.11 107.725 643.11 106.434V33.229C643.11 31.9383 642.667 30.8897 641.779 30.083C640.973 29.2763 639.924 28.873 638.633 28.873H634.035V27.663H687.275V56.945H686.065V39.884C686.065 36.6573 685.017 34.0357 682.919 32.019C680.822 29.9217 678.2 28.873 675.054 28.873H649.765V58.397H678.805V59.607H649.765V110.79H676.99C678.926 110.79 680.701 110.427 682.314 109.701C683.928 108.975 685.339 108.007 686.549 106.797C687.759 105.587 688.687 104.135 689.332 102.441C689.978 100.747 690.3 98.932 690.3 96.996V75.095H691.51V112Z" fill="black"/>
<path d="M793.372 28.873C792.081 28.873 790.992 29.2763 790.105 30.083C789.298 30.8897 788.895 31.9383 788.895 33.229V106.434C788.895 107.725 789.298 108.773 790.105 109.58C790.992 110.387 792.081 110.79 793.372 110.79H797.97V112H773.165V110.79H777.763C779.054 110.79 780.102 110.387 780.909 109.58C781.796 108.773 782.24 107.725 782.24 106.434V59.607H746.545V106.434C746.545 107.725 746.948 108.773 747.755 109.58C748.642 110.387 749.731 110.79 751.022 110.79H755.62V112H730.815V110.79H735.413C736.704 110.79 737.752 110.387 738.559 109.58C739.446 108.773 739.89 107.725 739.89 106.434V33.229C739.89 31.9383 739.446 30.8897 738.559 30.083C737.752 29.2763 736.704 28.873 735.413 28.873H730.815V27.663H755.62V28.873H751.022C749.731 28.873 748.642 29.2763 747.755 30.083C746.948 30.8897 746.545 31.9383 746.545 33.229V58.397H782.24V33.229C782.24 31.9383 781.796 30.8897 780.909 30.083C780.102 29.2763 779.054 28.873 777.763 28.873H773.165V27.663H797.97V28.873H793.372ZM868.629 112H843.824V110.79H849.995C852.093 110.79 853.141 109.903 853.141 108.128C853.141 107.725 853.101 107.402 853.02 107.16L845.276 83.807H814.3L808.492 104.377C808.331 104.78 808.25 105.143 808.25 105.466C808.25 105.708 808.25 105.99 808.25 106.313C808.25 107.684 808.654 108.773 809.46 109.58C810.348 110.387 811.477 110.79 812.848 110.79H815.873V112H796.513V110.79H799.659C801.515 110.79 803.088 110.266 804.378 109.217C805.669 108.088 806.637 106.434 807.282 104.256L827.247 33.592C827.328 33.2693 827.368 32.987 827.368 32.745C827.449 32.503 827.489 32.261 827.489 32.019C827.489 30.9703 827.167 30.204 826.521 29.72C825.876 29.1553 825.029 28.873 823.98 28.873H815.752V27.663H833.539L860.038 107.402C860.764 109.661 862.579 110.79 865.483 110.79H868.629V112ZM828.578 33.955L814.663 82.597H844.792L828.578 33.955ZM924.945 56.945H923.735V39.884C923.735 38.2707 923.332 36.8187 922.525 35.528C921.719 34.1567 920.67 32.987 919.379 32.019C918.089 31.051 916.637 30.2847 915.023 29.72C913.491 29.1553 911.918 28.873 910.304 28.873H885.015V57.55H898.083C908.086 57.55 915.911 59.728 921.557 64.084C927.204 68.44 930.027 75.2967 930.027 84.654C930.027 88.768 929.624 92.4787 928.817 95.786C928.091 99.0933 926.559 101.917 924.219 104.256C921.961 106.595 918.734 108.41 914.539 109.701C910.345 110.992 904.859 111.637 898.083 111.637H897.72V112H869.285V110.79H873.883C875.174 110.79 876.223 110.387 877.029 109.58C877.917 108.693 878.36 107.523 878.36 106.071V33.35C878.36 31.9787 877.917 30.8897 877.029 30.083C876.223 29.2763 875.174 28.873 873.883 28.873H869.285V27.663H924.945V56.945ZM898.083 110.911C904.295 110.911 909.135 110.266 912.603 108.975C916.153 107.684 918.774 105.869 920.468 103.53C922.243 101.191 923.332 98.4077 923.735 95.181C924.139 91.9543 924.34 88.4453 924.34 84.654C924.34 80.782 923.776 77.2327 922.646 74.006C921.598 70.7793 919.984 67.9963 917.806 65.657C915.628 63.3177 912.886 61.5027 909.578 60.212C906.271 58.9213 902.439 58.276 898.083 58.276H885.015V106.071C885.015 107.523 885.419 108.693 886.225 109.58C887.113 110.387 888.202 110.79 889.492 110.79H897.72V110.911H898.083ZM969.399 26.09C981.66 26.09 991.138 29.8813 997.834 37.464C1004.53 45.0467 1007.88 55.8157 1007.88 69.771C1007.88 76.7083 1007.03 82.8793 1005.34 88.284C1003.64 93.6887 1001.14 98.2867 997.834 102.078C994.607 105.789 990.574 108.652 985.734 110.669C980.974 112.605 975.529 113.573 969.399 113.573C957.137 113.573 947.659 109.782 940.964 102.199C934.268 94.6163 930.921 83.8473 930.921 69.892C930.921 62.9547 931.768 56.7837 933.462 51.379C935.156 45.9743 937.616 41.4167 940.843 37.706C944.15 33.9147 948.183 31.051 952.943 29.115C957.783 27.0983 963.268 26.09 969.399 26.09ZM969.399 112.363C974.239 112.363 978.595 111.355 982.467 109.338C986.339 107.321 989.646 104.498 992.389 100.868C995.131 97.1573 997.229 92.6803 998.681 87.437C1000.13 82.1937 1000.86 76.305 1000.86 69.771C1000.86 63.3177 1000.09 57.4693 998.56 52.226C997.108 46.9827 995.01 42.5057 992.268 38.795C989.606 35.0843 986.339 32.261 982.467 30.325C978.595 28.3083 974.239 27.3 969.399 27.3C964.559 27.3 960.203 28.3083 956.331 30.325C952.459 32.3417 949.151 35.2053 946.409 38.916C943.666 42.546 941.569 46.9827 940.117 52.226C938.665 57.4693 937.939 63.358 937.939 69.892C937.939 74.8933 938.463 79.935 939.512 85.017C940.56 90.0183 942.295 94.576 944.715 98.69C947.215 102.723 950.482 106.031 954.516 108.612C958.549 111.113 963.51 112.363 969.399 112.363ZM1035.67 27.663C1044.31 27.663 1050.52 28.9133 1054.31 31.414C1058.18 33.834 1060.12 37.9077 1060.12 43.635C1060.12 49.3623 1058.18 53.4763 1054.31 55.977C1050.52 58.397 1044.31 59.607 1035.67 59.607H1022.12V106.313C1022.12 107.684 1022.53 108.773 1023.33 109.58C1024.22 110.387 1025.31 110.79 1026.6 110.79H1031.2V112H1006.39V110.79H1010.99C1012.6 110.79 1013.73 110.467 1014.38 109.822C1015.1 109.177 1015.47 108.007 1015.47 106.313V33.229C1015.47 30.325 1013.98 28.873 1010.99 28.873H1006.39V27.663H1035.67ZM1035.67 58.397C1041.97 58.397 1046.44 57.2677 1049.11 55.009C1051.77 52.7503 1053.1 48.959 1053.1 43.635C1053.1 38.311 1051.77 34.5197 1049.11 32.261C1046.44 30.0023 1041.97 28.873 1035.67 28.873H1022.12V58.397H1035.67ZM1128.56 28.873C1127.27 28.873 1126.18 29.2763 1125.29 30.083C1124.48 30.8897 1124.08 31.9383 1124.08 33.229V106.434C1124.08 107.725 1124.48 108.773 1125.29 109.58C1126.18 110.387 1127.27 110.79 1128.56 110.79H1133.16V112H1108.35V110.79H1112.95C1114.24 110.79 1115.29 110.387 1116.1 109.58C1116.98 108.773 1117.43 107.725 1117.43 106.434V33.229C1117.43 31.9383 1116.98 30.8897 1116.1 30.083C1115.29 29.2763 1114.24 28.873 1112.95 28.873H1108.35V27.663H1133.16V28.873H1128.56ZM1092.62 56.582C1099.64 57.4693 1104.76 60.1313 1107.99 64.568C1111.21 69.0047 1112.83 75.7 1112.83 84.654C1112.83 94.334 1110.81 101.392 1106.78 105.829C1102.74 110.185 1096.21 112.363 1087.18 112.363H1062.73V111.153H1067.33C1068.95 111.153 1070.07 110.83 1070.72 110.185C1071.45 109.459 1071.81 108.289 1071.81 106.676V33.713C1071.81 32.0997 1071.45 30.9703 1070.72 30.325C1070.07 29.599 1068.95 29.236 1067.33 29.236H1062.73V28.026H1087.54V29.236H1082.94C1081.65 29.236 1080.56 29.6797 1079.67 30.567C1078.87 31.3737 1078.46 32.4223 1078.46 33.713V56.219H1086.57C1087.62 56.219 1088.55 56.219 1089.35 56.219C1090.24 56.219 1091.33 56.34 1092.62 56.582ZM1078.46 57.429V111.153H1087.18C1093.71 111.153 1098.43 109.056 1101.33 104.861C1104.32 100.666 1105.81 93.971 1105.81 84.775C1105.81 75.2563 1104.28 68.319 1101.21 63.963C1098.23 59.607 1093.55 57.429 1087.18 57.429H1078.46Z" fill="black"/>
</svg>
