<svg width="79" height="1669" viewBox="0 0 79 1669" fill="none" xmlns="http://www.w3.org/2000/svg">
<path d="M39.6108 40.0002L41.1636 1668.5" stroke="url(#paint0_linear)"/>
<g filter="url(#filter0_f)">
<path d="M39.5 687C58.0015 687 73 672.002 73 653.5C73 634.998 58.0015 620 39.5 620C20.9985 620 6 634.998 6 653.5C6 672.002 20.9985 687 39.5 687Z" fill="#BABABA" fill-opacity="0.1"/>
</g>
<path d="M39.5 59C50.2696 59 59 50.2696 59 39.5C59 28.7304 50.2696 20 39.5 20C28.7304 20 20 28.7304 20 39.5C20 50.2696 28.7304 59 39.5 59Z" fill="#828282" fill-opacity="0.1"/>
<g filter="url(#filter1_f)">
<path d="M39.5 73C58.0015 73 73 58.0015 73 39.5C73 20.9985 58.0015 6 39.5 6C20.9985 6 6 20.9985 6 39.5C6 58.0015 20.9985 73 39.5 73Z" fill="#BABABA" fill-opacity="0.1"/>
</g>
<path d="M39.5 43C41.433 43 43 41.433 43 39.5C43 37.567 41.433 36 39.5 36C37.567 36 36 37.567 36 39.5C36 41.433 37.567 43 39.5 43Z" fill="#828282"/>
<path d="M39.5 673C50.2696 673 59 664.27 59 653.5C59 642.73 50.2696 634 39.5 634C28.7304 634 20 642.73 20 653.5C20 664.27 28.7304 673 39.5 673Z" fill="#828282" fill-opacity="0.1"/>
<path d="M39.5 657C41.433 657 43 655.433 43 653.5C43 651.567 41.433 650 39.5 650C37.567 650 36 651.567 36 653.5C36 655.433 37.567 657 39.5 657Z" fill="#828282"/>
<path d="M39.5 1314C50.2696 1314 59 1305.27 59 1294.5C59 1283.73 50.2696 1275 39.5 1275C28.7304 1275 20 1283.73 20 1294.5C20 1305.27 28.7304 1314 39.5 1314Z" fill="#828282" fill-opacity="0.1"/>
<g filter="url(#filter2_f)">
<path d="M39.5 1328C58.0015 1328 73 1313 73 1294.5C73 1276 58.0015 1261 39.5 1261C20.9985 1261 6 1276 6 1294.5C6 1313 20.9985 1328 39.5 1328Z" fill="#BABABA" fill-opacity="0.1"/>
</g>
<path d="M39.5 1298C41.433 1298 43 1296.43 43 1294.5C43 1292.57 41.433 1291 39.5 1291C37.567 1291 36 1292.57 36 1294.5C36 1296.43 37.567 1298 39.5 1298Z" fill="#828282"/>
<defs>
<filter id="filter0_f" x="0" y="614" width="79" height="79" filterUnits="userSpaceOnUse" color-interpolation-filters="sRGB">
<feFlood flood-opacity="0" result="BackgroundImageFix"/>
<feBlend mode="normal" in="SourceGraphic" in2="BackgroundImageFix" result="shape"/>
<feGaussianBlur stdDeviation="3" result="effect1_foregroundBlur"/>
</filter>
<filter id="filter1_f" x="0" y="0" width="79" height="79" filterUnits="userSpaceOnUse" color-interpolation-filters="sRGB">
<feFlood flood-opacity="0" result="BackgroundImageFix"/>
<feBlend mode="normal" in="SourceGraphic" in2="BackgroundImageFix" result="shape"/>
<feGaussianBlur stdDeviation="3" result="effect1_foregroundBlur"/>
</filter>
<filter id="filter2_f" x="0" y="1255" width="79" height="79" filterUnits="userSpaceOnUse" color-interpolation-filters="sRGB">
<feFlood flood-opacity="0" result="BackgroundImageFix"/>
<feBlend mode="normal" in="SourceGraphic" in2="BackgroundImageFix" result="shape"/>
<feGaussianBlur stdDeviation="3" result="effect1_foregroundBlur"/>
</filter>
<linearGradient id="paint0_linear" x1="40" y1="1284" x2="40" y2="1637.5" gradientUnits="userSpaceOnUse">
<stop stop-color="#828282"/>
<stop offset="1" stop-color="#828282" stop-opacity="0"/>
</linearGradient>
</defs>
</svg>
