<svg width="1951" height="533" viewBox="0 0 1951 533" fill="none" xmlns="http://www.w3.org/2000/svg">
<path d="M126.896 297.065C184.301 302.559 213.004 332.223 213.004 386.057C213.004 417.369 204.352 440.441 187.048 455.273C169.744 470.105 142.964 477.521 106.708 477.521H6.18V473.401H21.836C27.3293 473.401 31.1747 472.303 33.372 470.105C35.844 467.908 37.08 464.063 37.08 458.569V209.309C37.08 203.816 35.844 199.971 33.372 197.773C31.1747 195.576 27.3293 194.477 21.836 194.477H6.18V190.357H105.884C124.561 190.357 140.08 192.829 152.44 197.773C164.8 202.717 174.276 209.035 180.868 216.725C187.46 224.141 191.031 232.381 191.58 241.445C192.404 250.235 190.481 258.612 185.812 266.577C181.417 274.543 174.139 281.409 163.976 287.177C154.088 292.671 141.728 295.967 126.896 297.065ZM59.74 295.005H105.884C127.308 295.005 142.552 291.16 151.616 283.469C160.68 275.779 165.212 262.869 165.212 244.741C165.212 226.613 160.68 213.704 151.616 206.013C142.552 198.323 127.308 194.477 105.884 194.477H59.74V295.005ZM106.708 473.401C134.724 473.401 155.461 466.397 168.92 452.389C182.379 438.107 189.108 415.996 189.108 386.057C189.108 356.393 182.379 334.557 168.92 320.549C155.461 306.267 134.724 299.125 106.708 299.125H59.74V473.401H106.708ZM468.949 477.521H384.489V473.401H405.501C412.643 473.401 416.213 470.38 416.213 464.337C416.213 462.964 416.076 461.865 415.801 461.041L389.433 381.525L332.577 213.841L264.185 451.565C263.636 452.939 263.361 454.175 263.361 455.273C263.361 456.097 263.361 457.059 263.361 458.157C263.361 462.827 264.735 466.535 267.481 469.281C270.503 472.028 274.348 473.401 279.017 473.401H289.317V477.521H223.397V473.401H234.109C240.427 473.401 245.783 471.616 250.177 468.045C254.572 464.2 257.868 458.569 260.065 451.153L328.045 210.545C328.32 209.447 328.457 208.485 328.457 207.661C328.732 206.837 328.869 206.013 328.869 205.189C328.869 201.619 327.771 199.009 325.573 197.361C323.376 195.439 320.492 194.477 316.921 194.477H288.905V190.357H349.469L439.697 461.865C442.169 469.556 448.349 473.401 458.237 473.401H468.949V477.521ZM729.697 477.521H645.237V473.401H666.249C673.39 473.401 676.961 470.38 676.961 464.337C676.961 462.964 676.824 461.865 676.549 461.041L650.181 381.525H544.709L524.933 451.565C524.384 452.939 524.109 454.175 524.109 455.273C524.109 456.097 524.109 457.059 524.109 458.157C524.109 462.827 525.482 466.535 528.229 469.281C531.25 472.028 535.096 473.401 539.765 473.401H550.065V477.521H484.145V473.401H494.857C501.174 473.401 506.53 471.616 510.925 468.045C515.32 464.2 518.616 458.569 520.813 451.153L588.793 210.545C589.068 209.447 589.205 208.485 589.205 207.661C589.48 206.837 589.617 206.013 589.617 205.189C589.617 201.619 588.518 199.009 586.321 197.361C584.124 195.439 581.24 194.477 577.669 194.477H549.653V190.357H610.217L700.445 461.865C702.917 469.556 709.097 473.401 718.985 473.401H729.697V477.521ZM593.325 211.781L545.945 377.405H648.533L593.325 211.781ZM971.303 423.137C958.943 441.54 943.699 456.097 925.571 466.809C907.443 477.521 887.667 482.877 866.243 482.877C847.016 482.877 829.3 479.307 813.095 472.165C797.164 464.749 783.431 454.449 771.895 441.265C760.359 428.081 751.295 412.425 744.703 394.297C738.386 375.895 735.227 355.844 735.227 334.145C735.227 312.447 738.386 292.533 744.703 274.405C751.295 256.003 760.359 240.209 771.895 227.025C783.431 213.841 797.164 203.541 813.095 196.125C829.3 188.709 847.016 185.001 866.243 185.001C893.984 185.001 919.94 194.752 944.111 214.253C947.682 217.275 950.978 218.785 953.999 218.785C958.668 218.785 961.003 215.764 961.003 209.721V190.357H965.123V290.061H961.003V283.881C961.003 267.676 958.394 253.668 953.175 241.857C948.231 229.772 941.502 219.884 932.987 212.193C924.472 204.228 914.722 198.46 903.735 194.889C893.023 191.044 881.762 189.121 869.951 189.121C853.471 189.121 838.364 192.692 824.631 199.833C811.172 206.7 799.499 216.451 789.611 229.085C779.998 241.72 772.444 256.964 766.951 274.817C761.732 292.671 759.123 312.447 759.123 334.145C759.123 354.471 761.595 373.423 766.539 391.001C771.758 408.58 779.036 423.961 788.375 437.145C797.714 450.055 808.975 460.217 822.159 467.633C835.343 475.049 850.038 478.757 866.243 478.757C886.843 478.757 905.932 473.539 923.511 463.101C941.364 452.389 956.059 438.244 967.595 420.665L971.303 423.137ZM1179.17 477.521H983.473V473.401H999.129C1003.52 473.401 1007.09 472.028 1009.84 469.281C1012.86 466.535 1014.37 462.964 1014.37 458.569V209.309C1014.37 204.915 1012.86 201.344 1009.84 198.597C1007.09 195.851 1003.52 194.477 999.129 194.477H983.473V190.357H1164.75V290.061H1160.63V231.969C1160.63 220.983 1157.06 212.056 1149.92 205.189C1142.78 198.048 1133.85 194.477 1123.14 194.477H1037.03V295.005H1135.91V299.125H1037.03V473.401H1129.73C1136.32 473.401 1142.37 472.165 1147.86 469.693C1153.35 467.221 1158.16 463.925 1162.28 459.805C1166.4 455.685 1169.56 450.741 1171.76 444.973C1173.95 439.205 1175.05 433.025 1175.05 426.433V351.861H1179.17V477.521ZM1404.49 194.477C1400.09 194.477 1396.39 195.851 1393.36 198.597C1390.62 201.344 1389.24 204.915 1389.24 209.309V458.569C1389.24 462.964 1390.62 466.535 1393.36 469.281C1396.39 472.028 1400.09 473.401 1404.49 473.401H1420.14V477.521H1335.68V473.401H1351.34C1355.74 473.401 1359.31 472.028 1362.05 469.281C1365.07 466.535 1366.58 462.964 1366.58 458.569V299.125H1245.04V458.569C1245.04 462.964 1246.42 466.535 1249.16 469.281C1252.19 472.028 1255.89 473.401 1260.29 473.401H1275.94V477.521H1191.48V473.401H1207.14C1211.54 473.401 1215.11 472.028 1217.85 469.281C1220.87 466.535 1222.38 462.964 1222.38 458.569V209.309C1222.38 204.915 1220.87 201.344 1217.85 198.597C1215.11 195.851 1211.54 194.477 1207.14 194.477H1191.48V190.357H1275.94V194.477H1260.29C1255.89 194.477 1252.19 195.851 1249.16 198.597C1246.42 201.344 1245.04 204.915 1245.04 209.309V295.005H1366.58V209.309C1366.58 204.915 1365.07 201.344 1362.05 198.597C1359.31 195.851 1355.74 194.477 1351.34 194.477H1335.68V190.357H1420.14V194.477H1404.49ZM1665.27 477.521H1580.81V473.401H1604.29C1607.86 473.401 1609.65 472.44 1609.65 470.517C1609.65 469.144 1609.1 467.496 1608 465.573L1498.82 299.125H1486.05V458.569C1486.05 462.964 1487.42 466.535 1490.17 469.281C1493.19 472.028 1496.9 473.401 1501.29 473.401H1516.95V477.521H1432.49V473.401H1448.14C1452.54 473.401 1456.11 472.028 1458.86 469.281C1461.88 466.535 1463.39 462.964 1463.39 458.569V209.309C1463.39 204.915 1461.88 201.344 1458.86 198.597C1456.11 195.851 1452.54 194.477 1448.14 194.477H1432.49V190.357H1516.95V194.477H1501.29C1496.9 194.477 1493.19 195.851 1490.17 198.597C1487.42 201.344 1486.05 204.915 1486.05 209.309V295.005H1498.41L1587.81 213.429C1590.83 211.232 1592.34 208.211 1592.34 204.365C1592.34 201.893 1591.25 199.696 1589.05 197.773C1587.13 195.576 1583.97 194.477 1579.57 194.477H1564.33V190.357H1642.2V194.477H1633.96C1621.05 194.477 1609.1 199.559 1598.11 209.721L1516.54 283.881L1631.48 459.805C1634.78 465.024 1637.94 468.595 1640.96 470.517C1644.26 472.44 1648.79 473.401 1654.56 473.401H1665.27V477.521ZM1814.3 185.001C1856.05 185.001 1888.32 197.911 1911.12 223.729C1933.92 249.548 1945.32 286.216 1945.32 333.733C1945.32 357.355 1942.43 378.367 1936.66 396.769C1930.9 415.172 1922.38 430.828 1911.12 443.737C1900.13 456.372 1886.4 466.123 1869.92 472.989C1853.71 479.581 1835.17 482.877 1814.3 482.877C1772.55 482.877 1740.28 469.968 1717.48 444.149C1694.68 418.331 1683.28 381.663 1683.28 334.145C1683.28 310.524 1686.17 289.512 1691.94 271.109C1697.7 252.707 1706.08 237.188 1717.07 224.553C1728.33 211.644 1742.06 201.893 1758.27 195.301C1774.75 188.435 1793.43 185.001 1814.3 185.001ZM1814.3 478.757C1830.78 478.757 1845.61 475.324 1858.8 468.457C1871.98 461.591 1883.24 451.977 1892.58 439.617C1901.92 426.983 1909.06 411.739 1914 393.885C1918.95 376.032 1921.42 355.981 1921.42 333.733C1921.42 311.76 1918.81 291.847 1913.59 273.993C1908.65 256.14 1901.51 240.896 1892.17 228.261C1883.1 215.627 1871.98 206.013 1858.8 199.421C1845.61 192.555 1830.78 189.121 1814.3 189.121C1797.82 189.121 1782.99 192.555 1769.8 199.421C1756.62 206.288 1745.36 216.039 1736.02 228.673C1726.68 241.033 1719.54 256.14 1714.6 273.993C1709.65 291.847 1707.18 311.897 1707.18 334.145C1707.18 351.175 1708.97 368.341 1712.54 385.645C1716.11 402.675 1722.01 418.193 1730.25 432.201C1738.77 445.935 1749.89 457.196 1763.62 465.985C1777.36 474.5 1794.25 478.757 1814.3 478.757Z" fill="#9E9987"/>
<path fill-rule="evenodd" clip-rule="evenodd" d="M508.209 141.183C494.387 162.163 472.173 175.986 447.49 175.986C408.739 175.986 383.316 138.222 383.316 89.3503C383.316 37.2704 410.466 2.46824 449.712 2.46824C477.849 2.46824 504.013 20.2396 504.26 59.2378V62.9402H506.728V3.20872H504.26V14.8094C504.26 18.5118 502.779 20.2396 500.064 20.2396C498.089 20.2396 496.114 19.2523 494.14 17.5245C479.824 5.92377 464.274 0 447.49 0C401.334 0 369 37.2704 369 89.3503C369 141.43 401.087 178.454 447.49 178.454C472.913 178.454 495.868 164.632 510.43 142.664L508.209 141.183ZM665.378 3.20872V5.67695H674.757C680.928 5.67695 683.89 8.63885 683.89 14.5626V163.644C683.89 170.556 681.422 172.777 674.757 172.777H665.378V175.245H715.977V172.777H706.598C701.414 172.777 697.465 169.321 697.465 163.644V68.3703H725.109C760.405 68.3703 774.968 59.2378 774.968 35.7895C774.968 12.3412 760.405 3.20872 725.109 3.20872H665.378ZM697.465 65.902V5.67695H725.109C750.532 5.67695 760.652 14.069 760.652 35.7895C760.652 57.51 750.532 65.902 725.109 65.902H697.465ZM782.282 89.3503C782.282 32.8276 810.667 0 860.772 0C910.384 0 939.262 32.5808 939.262 89.1035C939.262 145.626 910.877 178.454 860.772 178.454C811.16 178.454 782.282 145.873 782.282 89.3503ZM796.598 89.3503C796.598 116.007 802.275 137.234 813.875 152.784C825.476 168.334 841.026 175.986 860.772 175.986C900.264 175.986 924.946 142.171 924.946 89.1035C924.946 36.2831 900.017 2.46824 860.772 2.46824C821.28 2.46824 796.598 36.2831 796.598 89.3503ZM1014.17 67.1362C1040.58 65.1616 1051.44 56.2759 1051.44 35.7895C1051.44 12.3412 1036.88 3.20872 1001.58 3.20872H941.85V5.67695H951.229C957.894 5.67695 960.362 7.89837 960.362 14.5626V163.891C960.362 170.556 957.894 172.777 951.229 172.777H941.85V175.245H1002.08C1045.27 175.245 1065.76 157.721 1065.76 120.45C1065.76 88.1162 1048.48 70.3449 1014.17 67.1362ZM973.937 5.67695H1001.58C1027 5.67695 1037.12 14.069 1037.12 35.7895C1037.12 57.51 1027 65.902 1001.58 65.902H973.937V5.67695ZM973.937 172.777V68.3703H1002.08C1035.4 68.3703 1051.44 85.1544 1051.44 120.45C1051.44 155.993 1035.4 172.777 1002.08 172.777H973.937ZM1199.2 172.777H1205.62V175.245H1155.02V172.777H1167.61C1171.56 172.777 1174.03 170.556 1174.03 167.347C1174.03 166.853 1174.03 166.113 1173.78 165.372L1157.98 117.735H1094.8L1082.95 159.695C1082.45 161.176 1082.45 162.41 1082.45 163.644C1082.45 169.075 1086.4 172.777 1091.83 172.777H1098V175.245H1058.51V172.777H1064.93C1072.34 172.777 1078.01 168.334 1080.48 159.448L1121.21 15.3031C1121.22 15.2141 1121.24 15.1263 1121.26 15.0397C1121.28 14.9347 1121.3 14.8314 1121.32 14.7298L1121.33 14.7001L1121.33 14.6879C1121.53 13.7299 1121.7 12.9121 1121.7 12.0944C1121.7 7.89837 1118.74 5.67695 1114.54 5.67695H1097.76V3.20872H1134.04L1188.1 165.866C1189.58 170.556 1193.28 172.777 1199.2 172.777ZM1095.54 115.267H1157L1123.92 16.0436L1095.54 115.267ZM1213.02 3.20872V5.67695H1222.4C1228.57 5.67695 1231.53 8.63885 1231.53 14.5626V163.644C1231.53 170.556 1229.06 172.777 1222.4 172.777H1213.02V175.245H1263.62V172.777H1254.24C1249.06 172.777 1245.11 169.321 1245.11 163.644V68.3703H1272.75C1308.05 68.3703 1322.61 59.2378 1322.61 35.7895C1322.61 12.3412 1308.05 3.20872 1272.75 3.20872H1213.02ZM1245.11 5.67695H1272.75C1298.17 5.67695 1308.29 14.069 1308.29 35.7895C1308.29 57.51 1298.17 65.902 1272.75 65.902H1245.11V5.67695ZM615.945 3.23275H655.436V5.70099H649.513C642.355 5.70099 636.925 10.8843 636.925 18.7827L636.925 31.2134V161.29L636.925 161.322C636.939 169.202 642.365 174.371 649.513 174.371H655.436V176.84H615.944L615.945 174.371L621.868 174.371C629.026 174.371 634.456 169.188 634.456 161.29L634.456 148.859V18.7827L634.456 18.7503C634.441 10.8701 629.016 5.70099 621.868 5.70099H615.945V3.23275ZM514.922 178.522V176.015H524.409C530.651 176.015 533.647 173.006 533.647 166.989L533.647 15.562C533.647 8.54223 531.15 6.28587 524.409 6.28587L514.922 6.28587V3.77882L566.103 3.77882V6.28587L556.616 6.28587C551.373 6.28587 547.378 9.79577 547.378 15.562V112.335H575.341C611.044 112.335 625.774 121.611 625.774 145.428C625.774 169.245 611.044 178.522 575.341 178.522H514.922ZM547.378 114.842L547.378 176.015H575.341C601.057 176.015 611.293 167.491 611.293 145.428C611.293 123.366 601.057 114.842 575.341 114.842H547.378ZM1464.34 3.27643V5.74466H1454.96C1449.78 5.74466 1445.83 9.44702 1445.83 14.6303V163.959C1445.83 169.142 1449.78 172.845 1454.96 172.845H1464.34V175.313H1413.74V172.845H1423.12C1428.31 172.845 1432.26 169.142 1432.26 163.959V68.438H1359.44V163.959C1359.44 169.142 1363.39 172.845 1368.57 172.845H1377.95V175.313H1327.35V172.845H1336.73C1341.92 172.845 1345.87 169.142 1345.87 163.959V14.6303C1345.87 9.44702 1341.92 5.74466 1336.73 5.74466H1327.35V3.27643H1377.95V5.74466H1368.57C1363.39 5.74466 1359.44 9.44702 1359.44 14.6303V65.9698H1432.26V14.6303C1432.26 9.44702 1428.31 5.74466 1423.12 5.74466H1413.74V3.27643H1464.34ZM1580.85 3.84642V6.29864H1571.55C1565.43 6.29864 1562.5 9.24131 1562.5 15.1267V163.241C1562.5 170.107 1564.94 172.314 1571.55 172.314H1580.85V174.767H1530.68V172.314H1539.98C1545.12 172.314 1549.04 168.881 1549.04 163.241V68.5852H1524.19L1510.3 115.278L1509.56 117.746L1497.71 159.706C1497.22 161.187 1497.22 162.421 1497.22 163.656C1497.22 169.086 1501.17 172.788 1506.6 172.788H1512.77V175.256H1473.28V172.788H1479.69C1487.1 172.788 1492.78 168.345 1495.24 159.46L1521.28 68.5849C1486.53 68.5257 1472.18 59.4357 1472.18 36.2158C1472.18 12.9197 1486.62 3.84642 1521.62 3.84642H1580.85ZM1549.04 6.29864H1521.62C1496.41 6.29864 1486.38 14.6362 1486.38 36.2158C1486.38 57.7954 1496.41 66.133 1521.62 66.133H1549.04V6.29864Z" fill="#9E9987"/>
</svg>
