<svg width="820" height="130" viewBox="0 0 820 130" fill="none" xmlns="http://www.w3.org/2000/svg">
<path d="M102.076 125.864H97.3786C92.32 125.864 90.152 124.426 87.2614 119.931L36.8557 43.1535L72.6275 10.7884C77.5054 6.29323 82.7447 4.13555 88.3454 4.13555H91.9587V2.33749H57.8129V4.13555H64.4975C68.2915 4.13555 70.0982 6.29323 70.0982 8.4509C70.0982 9.88936 69.5562 11.3278 68.1108 12.4066L28.9065 48.0083H23.4865V10.6086C23.4865 6.83264 26.3771 4.13555 30.1711 4.13555H37.0364V2.33749H0V4.13555H6.86528C10.6593 4.13555 13.5499 6.83264 13.5499 10.6086V119.391C13.5499 123.167 10.6593 125.864 6.86528 125.864H0V127.663H37.0364V125.864H30.1711C26.3771 125.864 23.4865 123.167 23.4865 119.391V49.8064H29.0871L76.9634 122.448C77.5054 123.347 77.6861 124.066 77.6861 124.606C77.6861 125.505 76.9634 125.864 75.3374 125.864H65.0395V127.663H102.076V125.864Z" fill="black"/>
<path d="M148.666 0C111.991 0 91.2148 23.9143 91.2148 65.0899C91.2148 106.266 112.353 130 148.666 130C185.341 130 206.118 106.086 206.118 64.9101C206.118 23.7345 184.98 0 148.666 0ZM114.34 111.3C105.849 99.9723 101.693 84.509 101.693 65.0899C101.693 26.4315 119.76 1.79806 148.666 1.79806C177.392 1.79806 195.639 26.4315 195.639 64.9101C195.639 103.568 177.573 128.202 148.666 128.202C134.213 128.202 122.831 122.628 114.34 111.3Z" fill="black"/>
<path d="M308.281 4.13555V2.33749H271.245V4.13555H278.11C281.904 4.13555 284.795 6.83264 284.795 10.6086V48.0083H231.499V10.6086C231.499 6.83264 234.389 4.13555 238.183 4.13555H245.049V2.33749H208.012V4.13555H214.877C218.671 4.13555 221.562 6.83264 221.562 10.6086V119.391C221.562 123.167 218.671 125.864 214.877 125.864H208.012V127.663H245.049V125.864H238.183C234.389 125.864 231.499 123.167 231.499 119.391V49.8064H284.795V119.391C284.795 123.167 281.904 125.864 278.11 125.864H271.245V127.663H308.281V125.864H301.416C297.622 125.864 294.732 123.167 294.732 119.391V10.6086C294.732 6.83264 297.622 4.13555 301.416 4.13555H308.281Z" fill="black"/>
<path d="M396.8 2.33749H314.598V45.8506H316.404V20.8575C316.404 11.3278 323.27 4.13555 332.484 4.13555H350.731V119.032C350.731 123.167 348.021 125.864 343.865 125.864H331.761V127.663H379.637V125.864H367.533C363.377 125.864 360.667 123.167 360.667 119.032V4.13555H378.553C387.948 4.13555 394.994 11.148 394.994 20.4979V45.8506H396.8V2.33749Z" fill="black"/>
<path d="M495.472 125.864H490.775C486.439 125.864 483.729 124.246 482.645 120.83L443.079 2.33749H416.521V4.13555H428.806C431.878 4.13555 434.046 5.75381 434.046 8.81052C434.046 9.52975 433.865 10.249 433.684 11.148L403.875 116.155C402.068 122.628 397.913 125.864 392.493 125.864H387.795V127.663H416.702V125.864H412.185C408.211 125.864 405.32 123.167 405.32 119.212C405.32 118.313 405.32 117.414 405.681 116.335L414.353 85.7676H460.603L472.166 120.47C472.347 121.01 472.347 121.549 472.347 121.909C472.347 124.246 470.54 125.864 467.649 125.864H458.435V127.663H495.472V125.864ZM459.881 83.9696H414.895L435.672 11.6874L459.881 83.9696Z" fill="black"/>
<path d="M602.964 125.864H598.266C593.208 125.864 591.04 124.426 588.149 119.931L537.743 43.1535L573.515 10.7884C578.393 6.29323 583.632 4.13555 589.233 4.13555H592.846V2.33749H558.701V4.13555H565.385C569.179 4.13555 570.986 6.29323 570.986 8.4509C570.986 9.88936 570.444 11.3278 568.998 12.4066L529.794 48.0083H524.374V10.6086C524.374 6.83264 527.265 4.13555 531.059 4.13555H537.924V2.33749H500.888V4.13555H507.753C511.547 4.13555 514.438 6.83264 514.438 10.6086V119.391C514.438 123.167 511.547 125.864 507.753 125.864H500.888V127.663H537.924V125.864H531.059C527.265 125.864 524.374 123.167 524.374 119.391V49.8064H529.975L577.851 122.448C578.393 123.347 578.574 124.066 578.574 124.606C578.574 125.505 577.851 125.864 576.225 125.864H565.927V127.663H602.964V125.864Z" fill="black"/>
<path d="M691.44 2.33749H609.237V45.8506H611.044V20.8575C611.044 11.3278 617.909 4.13555 627.123 4.13555H645.37V119.032C645.37 123.167 642.66 125.864 638.505 125.864H626.401V127.663H674.277V125.864H662.172C658.017 125.864 655.307 123.167 655.307 119.032V4.13555H673.193C682.587 4.13555 689.633 11.148 689.633 20.4979V45.8506H691.44V2.33749Z" fill="black"/>
<path fill-rule="evenodd" clip-rule="evenodd" d="M700 127.192V129L744.149 129C770.236 129 781 122.311 781 105.138C781 87.9641 770.236 81.2755 744.149 81.2755H723.716L723.716 11.4964C723.716 7.3386 726.635 4.80775 730.466 4.80775L737.399 4.80775V3L700 3L700 4.80775L706.932 4.80775C711.858 4.80775 713.682 6.43473 713.682 11.4964L713.682 120.684C713.682 125.023 711.493 127.192 706.932 127.192H700ZM723.716 127.192L723.716 83.0832H744.149C762.939 83.0832 770.419 89.2296 770.419 105.138C770.419 121.046 762.939 127.192 744.149 127.192H723.716ZM820 3.00001V4.80775H813.141C809.351 4.80775 802.463 7.51937 802.463 11.3156V120.684C802.463 124.481 809.351 127.192 813.141 127.192H820V129H783V127.192H789.859C793.649 127.192 799.537 124.481 799.537 120.684V11.3156C799.537 7.51937 793.649 4.80775 789.859 4.80775H783V3.00001H820Z" fill="black"/>
</svg>
