<svg width="1980" height="527" viewBox="0 0 1980 527" fill="none" xmlns="http://www.w3.org/2000/svg">
<path d="M253.9 210.476V205.956H181.58V210.476H193.784C204.632 210.476 212.316 218.16 212.316 228.556C212.316 230.364 211.864 232.172 211.412 234.432L142.708 474.896L59.54 225.844C58.636 224.036 58.636 222.228 58.636 220.42C58.636 214.092 63.608 210.476 71.744 210.476H93.44V205.956H0.779999V210.476H11.176C22.928 210.476 30.16 215.448 33.776 225.844L133.668 526.424L216.384 234.432C220.904 218.612 231.3 210.476 247.572 210.476H253.9ZM459.489 521V383.14H454.969V464.952C454.969 495.236 433.725 516.48 404.345 516.48H326.149V227.652C326.149 216.804 332.929 210.476 343.325 210.476H373.609V205.956H267.389V210.476H284.565C294.057 210.476 301.289 216.804 301.289 227.652V499.304C301.289 510.152 294.057 516.48 284.565 516.48H267.389V521H459.489ZM742.477 516.48H730.725C719.877 516.48 713.097 512.412 710.385 503.824L611.397 205.956H544.953V210.476H575.689C583.373 210.476 588.797 214.544 588.797 222.228C588.797 224.036 588.345 225.844 587.893 228.104L513.313 492.072C508.793 508.344 498.397 516.48 484.837 516.48H473.085V521H545.405V516.48H534.105C524.161 516.48 516.929 509.7 516.929 499.756C516.929 497.496 516.929 495.236 517.833 492.524L539.529 415.684H655.241L684.169 502.92C684.621 504.276 684.621 505.632 684.621 506.536C684.621 512.412 680.101 516.48 672.869 516.48H649.817V521H742.477V516.48ZM653.433 411.164H540.885L592.865 229.46L653.433 411.164ZM856.37 318.504C851.398 316.696 844.166 315.34 835.126 312.628L798.966 301.78C775.914 292.74 767.326 282.344 767.326 264.716C767.326 229.912 799.418 204.6 848.234 204.6C906.09 204.6 931.854 243.472 931.854 289.576V315.34H936.374V205.956H931.854V216.352C931.854 223.132 929.142 226.748 923.266 226.748C919.198 226.748 914.678 224.94 910.61 220.872C895.694 206.86 874.45 200.08 847.782 200.08C790.378 200.08 760.094 228.104 760.094 276.468C760.546 314.436 792.186 328.448 815.238 334.776L851.85 344.72C913.774 361.444 944.51 394.44 944.51 439.64C944.51 488.908 910.61 521.904 856.37 521.904C793.542 521.904 762.806 479.868 762.806 404.384V383.14H758.286V521H762.806V502.468C762.806 495.688 765.97 492.524 771.846 492.524C775.914 492.524 779.982 494.332 783.598 498.4C800.322 517.384 825.182 526.876 857.274 526.876C915.582 526.876 951.29 492.524 951.29 431.052C951.29 349.692 894.338 329.804 856.37 318.504ZM1179.51 383.14H1174.99V464.952C1174.99 493.88 1154.2 516.48 1125.27 516.48H1023.57V325.284H1132.05V320.764H1023.57V210.476H1118.04C1141.54 210.476 1159.17 227.652 1159.17 251.608V315.34H1163.69V205.956H964.811V210.476H981.987C991.479 210.476 998.711 217.256 998.711 226.748V500.208C998.711 509.7 991.479 516.48 981.987 516.48H964.811V521H1179.51V383.14ZM1450.66 205.956H1378.34V210.476H1389.19C1402.29 210.476 1412.24 219.968 1412.24 234.432V472.636L1248.61 205.956H1193.02V210.476H1210.19C1219.69 210.476 1226.92 217.256 1226.92 225.844V492.524C1226.92 506.988 1216.97 516.48 1203.87 516.48H1193.02V521H1265.34V516.48H1254.49C1241.38 516.48 1231.44 506.988 1231.44 492.524V225.844L1416.76 526.876V234.432C1416.76 219.968 1426.7 210.476 1439.81 210.476H1450.66V205.956ZM1719.42 516.48H1707.67C1695.01 516.48 1689.59 512.864 1682.36 501.564L1556.25 308.56L1645.75 227.2C1657.95 215.9 1671.06 210.476 1685.07 210.476H1694.11V205.956H1608.68V210.476H1625.41C1634.9 210.476 1639.42 215.9 1639.42 221.324C1639.42 224.94 1638.06 228.556 1634.45 231.268L1536.36 320.764H1522.8V226.748C1522.8 217.256 1530.03 210.476 1539.53 210.476H1556.7V205.956H1464.04V210.476H1481.22C1490.71 210.476 1497.94 217.256 1497.94 226.748V500.208C1497.94 509.7 1490.71 516.48 1481.22 516.48H1464.04V521H1556.7V516.48H1539.53C1530.03 516.48 1522.8 509.7 1522.8 500.208V325.284H1536.81L1656.59 507.892C1657.95 510.152 1658.4 511.96 1658.4 513.316C1658.4 515.576 1656.59 516.48 1652.53 516.48H1626.76V521H1719.42V516.48ZM1835.98 200.08C1744.23 200.08 1692.25 260.196 1692.25 363.704C1692.25 467.212 1745.13 526.876 1835.98 526.876C1927.74 526.876 1979.72 466.76 1979.72 363.252C1979.72 259.744 1926.84 200.08 1835.98 200.08ZM1750.1 479.868C1728.86 451.392 1718.46 412.52 1718.46 363.704C1718.46 266.524 1763.66 204.6 1835.98 204.6C1907.85 204.6 1953.5 266.524 1953.5 363.252C1953.5 460.432 1908.3 522.356 1835.98 522.356C1799.82 522.356 1771.35 508.344 1750.1 479.868Z" fill="white"/>
<path fill-rule="evenodd" clip-rule="evenodd" d="M523.209 141.662C509.387 162.642 487.173 176.464 462.49 176.464C423.739 176.464 398.316 138.7 398.316 89.8289C398.316 37.749 425.466 2.94675 464.712 2.94675C492.849 2.94675 519.013 20.7181 519.26 59.7163V63.4187H521.728V3.68723H519.26V15.288C519.26 18.9903 517.779 20.7181 515.064 20.7181C513.089 20.7181 511.114 19.7308 509.14 18.003C494.824 6.40229 479.274 0.478516 462.49 0.478516C416.334 0.478516 384 37.749 384 89.8289C384 141.909 416.087 178.932 462.49 178.932C487.913 178.932 510.868 165.11 525.43 143.143L523.209 141.662ZM680.378 3.68723V6.15547H689.757C695.928 6.15547 698.89 9.11736 698.89 15.0411V164.123C698.89 171.034 696.422 173.255 689.757 173.255H680.378V175.724H730.977V173.255H721.598C716.414 173.255 712.465 169.8 712.465 164.123V68.8488H740.109C775.405 68.8488 789.968 59.7163 789.968 36.268C789.968 12.8197 775.405 3.68723 740.109 3.68723H680.378ZM712.465 66.3806V6.15547H740.109C765.532 6.15547 775.652 14.5475 775.652 36.268C775.652 57.9885 765.532 66.3806 740.109 66.3806H712.465ZM797.282 89.8289C797.282 33.3061 825.667 0.478516 875.772 0.478516C925.384 0.478516 954.262 33.0593 954.262 89.582C954.262 146.105 925.877 178.932 875.772 178.932C826.16 178.932 797.282 146.352 797.282 89.8289ZM811.598 89.8289C811.598 116.486 817.275 137.713 828.875 153.263C840.476 168.813 856.026 176.464 875.772 176.464C915.264 176.464 939.946 142.649 939.946 89.582C939.946 36.7617 915.017 2.94675 875.772 2.94675C836.28 2.94675 811.598 36.7617 811.598 89.8289ZM1029.17 67.6147C1055.58 65.6401 1066.44 56.7544 1066.44 36.268C1066.44 12.8197 1051.88 3.68723 1016.58 3.68723H956.85V6.15547H966.229C972.894 6.15547 975.362 8.37689 975.362 15.0411V164.37C975.362 171.034 972.894 173.255 966.229 173.255H956.85V175.724H1017.08C1060.27 175.724 1080.76 158.199 1080.76 120.929C1080.76 88.5948 1063.48 70.8234 1029.17 67.6147ZM988.937 6.15547H1016.58C1042 6.15547 1052.12 14.5475 1052.12 36.268C1052.12 57.9885 1042 66.3806 1016.58 66.3806H988.937V6.15547ZM988.937 173.255V68.8488H1017.08C1050.4 68.8488 1066.44 85.6329 1066.44 120.929C1066.44 156.471 1050.4 173.255 1017.08 173.255H988.937ZM1214.2 173.255H1220.62V175.724H1170.02V173.255H1182.61C1186.56 173.255 1189.03 171.034 1189.03 167.825C1189.03 167.332 1189.03 166.591 1188.78 165.851L1172.98 118.214H1109.8L1097.95 160.174C1097.45 161.655 1097.45 162.889 1097.45 164.123C1097.45 169.553 1101.4 173.255 1106.83 173.255H1113V175.724H1073.51V173.255H1079.93C1087.34 173.255 1093.01 168.813 1095.48 159.927L1136.21 15.7816C1136.22 15.6926 1136.24 15.6048 1136.26 15.5182C1136.28 15.4132 1136.3 15.31 1136.32 15.2083L1136.33 15.1786V15.1664C1136.53 14.2084 1136.7 13.3907 1136.7 12.5729C1136.7 8.37689 1133.74 6.15547 1129.54 6.15547H1112.76V3.68723H1149.04L1203.1 166.344C1204.58 171.034 1208.28 173.255 1214.2 173.255ZM1110.54 115.745H1172L1138.92 16.5221L1110.54 115.745ZM1228.02 3.68723V6.15547H1237.4C1243.57 6.15547 1246.53 9.11736 1246.53 15.0411V164.123C1246.53 171.034 1244.06 173.255 1237.4 173.255H1228.02V175.724H1278.62V173.255H1269.24C1264.06 173.255 1260.11 169.8 1260.11 164.123V68.8488H1287.75C1323.05 68.8488 1337.61 59.7163 1337.61 36.268C1337.61 12.8197 1323.05 3.68723 1287.75 3.68723H1228.02ZM1260.11 6.15547H1287.75C1313.17 6.15547 1323.29 14.5475 1323.29 36.268C1323.29 57.9885 1313.17 66.3806 1287.75 66.3806H1260.11V6.15547ZM630.945 3.71127H670.436V6.1795H664.513C657.355 6.1795 651.925 11.3628 651.925 19.2612V31.6919V161.768V161.801C651.939 169.681 657.365 174.85 664.513 174.85H670.436V177.318H630.944L630.945 174.85H636.868C644.026 174.85 649.456 169.667 649.456 161.768V149.338V19.2612V19.2288C649.441 11.3486 644.016 6.1795 636.868 6.1795H630.945V3.71127ZM529.922 179V176.493H539.409C545.651 176.493 548.647 173.485 548.647 167.468V16.0405C548.647 9.02075 546.15 6.76438 539.409 6.76438H529.922V4.25733L581.103 4.25734V6.76439L571.616 6.76438C566.373 6.76438 562.378 10.2743 562.378 16.0405V112.813H590.341C626.044 112.813 640.774 122.09 640.774 145.907C640.774 169.724 626.044 179 590.341 179H529.922ZM562.378 115.321V176.493H590.341C616.057 176.493 626.293 167.969 626.293 145.907C626.293 123.845 616.057 115.321 590.341 115.321H562.378ZM1479.34 3.75494V6.22318H1469.96C1464.78 6.22318 1460.83 9.92554 1460.83 15.1089V164.437C1460.83 169.621 1464.78 173.323 1469.96 173.323H1479.34V175.791H1428.74V173.323H1438.12C1443.31 173.323 1447.26 169.621 1447.26 164.437V68.9165H1374.44V164.437C1374.44 169.621 1378.39 173.323 1383.57 173.323H1392.95V175.791H1342.35V173.323H1351.73C1356.92 173.323 1360.87 169.621 1360.87 164.437V15.1089C1360.87 9.92554 1356.92 6.22318 1351.73 6.22318H1342.35V3.75494H1392.95V6.22318H1383.57C1378.39 6.22318 1374.44 9.92554 1374.44 15.1089V66.4483H1447.26V15.1089C1447.26 9.92554 1443.31 6.22318 1438.12 6.22318H1428.74V3.75494H1479.34ZM1595.85 4.32493V6.77715H1586.55C1580.43 6.77715 1577.5 9.71983 1577.5 15.6052V163.72C1577.5 170.586 1579.94 172.793 1586.55 172.793H1595.85V175.245H1545.68V172.793H1554.98C1560.12 172.793 1564.04 169.36 1564.04 163.72V69.0637H1539.19L1525.3 115.757L1524.56 118.225L1512.71 160.185C1512.22 161.666 1512.22 162.9 1512.22 164.134C1512.22 169.564 1516.17 173.267 1521.6 173.267H1527.77V175.735H1488.28V173.267H1494.69C1502.1 173.267 1507.78 168.824 1510.24 159.938L1536.28 69.0635C1501.53 69.0042 1487.18 59.9142 1487.18 36.6943C1487.18 13.3982 1501.62 4.32493 1536.62 4.32493H1595.85ZM1564.04 6.77715H1536.62C1511.41 6.77715 1501.38 15.1147 1501.38 36.6943C1501.38 58.2739 1511.41 66.6115 1536.62 66.6115H1564.04V6.77715Z" fill="white"/>
</svg>
