<svg width="790" height="428" viewBox="0 0 790 428" fill="none" xmlns="http://www.w3.org/2000/svg">
<path d="M79.808 98.54H80.808V97.54H79.808V98.54ZM78.088 98.54V97.54H77.088V98.54H78.088ZM12.728 141.54L11.9627 140.896L10.5804 142.54H12.728V141.54ZM53.664 92.864L52.8996 92.2192L52.8987 92.2204L53.664 92.864ZM17.544 37.136L16.8586 36.4078L16.8476 36.4182L16.8369 36.4289L17.544 37.136ZM9.976 31.116H10.976V30.116H9.976V31.116ZM8.256 31.116V30.116H7.256V31.116H8.256ZM8.256 72.74H7.256V73.74H8.256V72.74ZM9.976 72.74V73.74H10.976V72.74H9.976ZM65.188 58.12L66.1879 58.1345L66.188 58.1272V58.12H65.188ZM51.428 92.692L50.6637 92.0471L50.6615 92.0498L51.428 92.692ZM2.58 151L1.81345 150.358L0.437697 152H2.58V151ZM79.808 151V152H80.808V151H79.808ZM79.808 97.54H78.088V99.54H79.808V97.54ZM77.088 98.54V133.972H79.088V98.54H77.088ZM77.088 133.972C77.088 136.303 76.4868 137.896 75.4519 138.913C74.414 139.934 72.7738 140.54 70.348 140.54V142.54C73.0822 142.54 75.312 141.856 76.8541 140.34C78.3992 138.82 79.088 136.629 79.088 133.972H77.088ZM70.348 140.54H12.728V142.54H70.348V140.54ZM13.4933 142.184L54.4293 93.5076L52.8987 92.2204L11.9627 140.896L13.4933 142.184ZM54.4284 93.5087C71.1 73.7435 76.164 65.2323 76.164 52.96H74.164C74.164 64.4237 69.596 72.4245 52.8996 92.2192L54.4284 93.5087ZM76.164 52.96C76.164 44.7181 73.4016 38.37 67.745 34.1219C62.1422 29.9141 53.8466 27.88 43 27.88V29.88C53.6534 29.88 61.4398 31.8879 66.544 35.7211C71.5944 39.514 74.164 45.2059 74.164 52.96H76.164ZM43 27.88C31.6635 27.88 22.9531 30.6719 16.8586 36.4078L18.2294 37.8642C23.831 32.5921 31.9765 29.88 43 29.88V27.88ZM16.8369 36.4289C15.3833 37.8824 14.2471 38.372 13.244 38.372V40.372C14.9929 40.372 16.6087 39.4856 18.2511 37.8431L16.8369 36.4289ZM13.244 38.372C12.3 38.372 11.7925 38.1213 11.5053 37.8111C11.2045 37.4862 10.976 36.9149 10.976 35.932H8.976C8.976 37.1851 9.26352 38.3337 10.0377 39.1699C10.8255 40.0206 11.952 40.372 13.244 40.372V38.372ZM10.976 35.932V31.116H8.976V35.932H10.976ZM9.976 30.116H8.256V32.116H9.976V30.116ZM7.256 31.116V72.74H9.256V31.116H7.256ZM8.256 73.74H9.976V71.74H8.256V73.74ZM10.976 72.74V62.936H8.976V72.74H10.976ZM10.976 62.936C10.976 54.1078 13.7076 46.2754 18.74 40.6631C23.7604 35.0642 31.1358 31.6 40.592 31.6V29.6C30.6122 29.6 22.6796 33.2738 17.251 39.3279C11.8344 45.3686 8.976 53.7042 8.976 62.936H10.976ZM40.592 31.6C48.5778 31.6 54.414 33.8226 58.273 38.1261C62.1506 42.4503 64.188 49.047 64.188 58.12H66.188C66.188 48.789 64.0974 41.6257 59.762 36.7909C55.408 31.9354 48.9462 29.6 40.592 29.6V31.6ZM64.1881 58.1055C64.0197 69.7224 59.8162 81.1997 50.6637 92.0471L52.1923 93.3369C61.6158 82.1682 66.0123 70.2536 66.1879 58.1345L64.1881 58.1055ZM50.6615 92.0498L1.81345 150.358L3.34655 151.642L52.1946 93.3342L50.6615 92.0498ZM2.58 152H79.808V150H2.58V152ZM80.808 151V98.54H78.808V151H80.808ZM94.5167 43.672L93.6846 43.1173L93.6779 43.1275L94.5167 43.672ZM93.6779 43.1275C87.1527 53.1799 83.8847 69.245 83.8847 91.144H85.8847C85.8847 69.355 89.1527 53.7721 95.3555 44.2165L93.6779 43.1275ZM83.8847 91.144C83.8847 113.207 86.935 128.98 93.7478 139.255C100.625 149.627 111.223 154.236 125.821 154.236V152.236C111.695 152.236 101.824 147.815 95.4146 138.149C88.9404 128.386 85.8847 113.113 85.8847 91.144H83.8847ZM125.821 154.236C140.344 154.236 150.936 149.49 157.83 139.038C164.662 128.68 167.757 112.867 167.757 90.972H165.757C165.757 112.765 162.659 128.084 156.161 137.936C149.725 147.694 139.85 152.236 125.821 152.236V154.236ZM167.757 90.972C167.757 69.1624 164.662 53.3922 157.83 43.0561C150.936 32.6257 140.344 27.88 125.821 27.88V29.88C139.85 29.88 149.726 34.4223 156.161 44.1589C162.659 53.9898 165.757 69.2655 165.757 90.972H167.757ZM125.821 27.88C111.288 27.88 100.446 32.9759 93.6846 43.1173L95.3487 44.2267C101.66 34.7601 111.801 29.88 125.821 29.88V27.88ZM125.821 150.516C120.501 150.516 116.023 149.407 112.284 147.152C108.547 144.899 105.477 141.457 103.04 136.678C98.1439 127.075 95.8607 112.185 95.8607 91.144H93.8607C93.8607 112.243 96.1354 127.539 101.258 137.587C103.831 142.633 107.136 146.384 111.251 148.865C115.365 151.346 120.218 152.516 125.821 152.516V150.516ZM95.8607 91.144C95.8607 69.9345 98.2293 55.001 103.167 45.3978C105.625 40.6178 108.706 37.1861 112.429 34.9421C116.153 32.6976 120.588 31.6 125.821 31.6V29.6C120.303 29.6 115.493 30.7599 111.397 33.2292C107.299 35.6992 103.983 39.4377 101.389 44.4832C96.2221 54.531 93.8607 69.8695 93.8607 91.144H95.8607ZM125.821 31.6C131.14 31.6 135.618 32.7088 139.357 34.9635C143.095 37.2174 146.165 40.6585 148.601 45.4377C153.497 55.0409 155.781 69.9314 155.781 90.972H157.781C157.781 69.8726 155.506 54.5771 150.383 44.5293C147.81 39.483 144.505 35.7324 140.39 33.2508C136.276 30.7702 131.423 29.6 125.821 29.6V31.6ZM155.781 90.972C155.781 112.181 153.412 127.115 148.474 136.718C146.016 141.498 142.935 144.93 139.212 147.174C135.488 149.418 131.053 150.516 125.821 150.516V152.516C131.338 152.516 136.148 151.356 140.245 148.887C144.343 146.417 147.658 142.678 150.253 137.633C155.419 127.585 157.781 112.247 157.781 90.972H155.781ZM227.965 149.28H228.965V148.28H227.965V149.28ZM204.745 28.88H205.745V26.9206L204.158 28.0702L204.745 28.88ZM171.033 53.304L170.446 52.4942L169.667 53.0585L170.2 53.8587L171.033 53.304ZM172.065 54.852L171.232 55.4067L171.813 56.2768L172.656 55.6584L172.065 54.852ZM195.285 37.824H196.285V35.8506L194.693 37.0176L195.285 37.824ZM172.065 149.28V148.28H171.065V149.28H172.065ZM172.065 151H171.065V152H172.065V151ZM227.965 151V152H228.965V151H227.965ZM227.965 148.28H211.625V150.28H227.965V148.28ZM211.625 148.28C209.506 148.28 208.105 147.66 207.208 146.594C206.283 145.494 205.745 143.747 205.745 141.196H203.745C203.745 143.977 204.324 146.272 205.678 147.881C207.06 149.524 209.099 150.28 211.625 150.28V148.28ZM205.745 141.196V28.88H203.745V141.196H205.745ZM204.158 28.0702L170.446 52.4942L171.619 54.1138L205.331 29.6898L204.158 28.0702ZM170.2 53.8587L171.232 55.4067L172.897 54.2973L171.865 52.7493L170.2 53.8587ZM172.656 55.6584L195.876 38.6304L194.693 37.0176L171.473 54.0456L172.656 55.6584ZM194.285 37.824V141.196H196.285V37.824H194.285ZM194.285 141.196C194.285 143.731 193.71 145.476 192.747 146.58C191.805 147.659 190.353 148.28 188.233 148.28V150.28C190.756 150.28 192.83 149.525 194.253 147.895C195.655 146.29 196.285 143.993 196.285 141.196H194.285ZM188.233 148.28H172.065V150.28H188.233V148.28ZM171.065 149.28V151H173.065V149.28H171.065ZM172.065 152H227.965V150H172.065V152ZM228.965 151V149.28H226.965V151H228.965ZM239.737 74.804H238.737V75.804H239.737V74.804ZM239.737 40.576V39.576H238.737V40.576H239.737ZM300.109 72.74H299.109V73.74H300.109V72.74ZM301.829 72.74V73.74H302.829V72.74H301.829ZM301.829 31.116H302.829V30.116H301.829V31.116ZM238.017 31.116V30.116H237.017V31.116H238.017ZM238.017 76.524H237.017V77.524H238.017V76.524ZM234.921 98.54H235.921V97.54H234.921V98.54ZM233.201 98.54V97.54H232.201V98.54H233.201ZM233.201 151H232.201V152H233.201V151ZM234.921 151V152H235.921V151H234.921ZM242.833 142.744L243.558 142.055L243.549 142.046L243.54 142.037L242.833 142.744ZM240.737 74.804V40.576H238.737V74.804H240.737ZM239.737 41.576H292.369V39.576H239.737V41.576ZM292.369 41.576C294.795 41.576 296.435 42.1819 297.473 43.2025C298.508 44.2202 299.109 45.8128 299.109 48.144H301.109C301.109 45.4872 300.42 43.2958 298.875 41.7765C297.333 40.2601 295.103 39.576 292.369 39.576V41.576ZM299.109 48.144V72.74H301.109V48.144H299.109ZM300.109 73.74H301.829V71.74H300.109V73.74ZM302.829 72.74V31.116H300.829V72.74H302.829ZM301.829 30.116H238.017V32.116H301.829V30.116ZM237.017 31.116V76.524H239.017V31.116H237.017ZM238.017 77.524H269.837V75.524H238.017V77.524ZM269.837 77.524C278.517 77.524 284.895 80.5519 289.148 86.501C293.444 92.5116 295.669 101.64 295.669 114.02H297.669C297.669 101.46 295.422 91.8404 290.775 85.338C286.083 78.7741 279.045 75.524 269.837 75.524V77.524ZM295.669 114.02C295.669 126.392 293.318 135.51 288.776 141.517C284.275 147.472 277.507 150.516 268.289 150.516V152.516C277.991 152.516 285.414 149.282 290.372 142.724C295.29 136.218 297.669 126.588 297.669 114.02H295.669ZM268.289 150.516C257.828 150.516 249.797 146.516 244.348 139.119C238.866 131.679 235.921 120.695 235.921 106.624H233.921C233.921 120.933 236.91 132.395 242.737 140.306C248.597 148.26 257.251 152.516 268.289 152.516V150.516ZM235.921 106.624V98.54H233.921V106.624H235.921ZM234.921 97.54H233.201V99.54H234.921V97.54ZM232.201 98.54V151H234.201V98.54H232.201ZM233.201 152H234.921V150H233.201V152ZM235.921 151V144.12H233.921V151H235.921ZM235.921 144.12C235.921 142.934 236.163 142.274 236.474 141.913C236.757 141.585 237.246 141.336 238.189 141.336V139.336C236.896 139.336 235.751 139.689 234.959 140.608C234.195 141.494 233.921 142.726 233.921 144.12H235.921ZM238.189 141.336C239.353 141.336 240.66 141.985 242.126 143.451L243.54 142.037C241.91 140.407 240.121 139.336 238.189 139.336V141.336ZM242.109 143.433C249.036 150.716 258.26 154.236 269.493 154.236V152.236C258.711 152.236 250.046 148.876 243.558 142.055L242.109 143.433ZM269.493 154.236C282.368 154.236 291.974 151.104 298.341 144.377C304.698 137.663 307.645 127.557 307.645 114.02H305.645C305.645 127.315 302.744 136.817 296.889 143.003C291.044 149.176 282.074 152.236 269.493 152.236V154.236ZM307.645 114.02C307.645 100.82 304.695 90.7325 298.618 83.9412C292.523 77.1287 283.438 73.804 271.557 73.804V75.804C283.068 75.804 291.527 79.0153 297.128 85.2748C302.747 91.5555 305.645 101.076 305.645 114.02H307.645ZM271.557 73.804H239.737V75.804H271.557V73.804ZM319.584 149.968L320.291 150.675L320.291 150.675L319.584 149.968ZM320.291 150.675C321.532 149.434 322.304 147.449 322.304 145.496H320.304C320.304 146.983 319.7 148.438 318.877 149.261L320.291 150.675ZM322.304 145.496C322.304 141.504 319.276 138.476 315.284 138.476V140.476C318.172 140.476 320.304 142.608 320.304 145.496H322.304ZM315.284 138.476C313.251 138.476 311.479 139.158 310.212 140.424C308.946 141.691 308.264 143.463 308.264 145.496H310.264C310.264 143.917 310.786 142.679 311.627 141.839C312.467 140.998 313.705 140.476 315.284 140.476V138.476ZM308.264 145.496C308.264 147.585 308.885 149.369 310.148 150.632C311.411 151.895 313.195 152.516 315.284 152.516V150.516C313.589 150.516 312.363 150.019 311.562 149.218C310.761 148.417 310.264 147.191 310.264 145.496H308.264ZM315.284 152.516C317 152.516 319.013 151.953 320.291 150.675L318.877 149.261C318.091 150.047 316.664 150.516 315.284 150.516V152.516Z" fill="#9E9987"/>
<path d="M355.674 276.116L354.126 275.6L313.018 396L314.566 396.516L355.674 276.116ZM530.835 343.54H529.115V378.972C529.115 383.96 526.535 386.54 521.375 386.54H463.755L504.691 337.864C521.375 318.084 526.191 309.828 526.191 297.96C526.191 281.964 515.527 273.88 494.027 273.88C482.847 273.88 474.419 276.632 468.571 282.136C467.023 283.684 465.647 284.372 464.271 284.372C462.035 284.372 461.003 283.168 461.003 280.932V276.116H459.283V317.74H461.003V307.936C461.003 289.876 472.183 275.6 491.619 275.6C507.959 275.6 516.215 284.716 516.215 303.12C516.043 314.988 511.743 326.684 502.455 337.692L453.607 396H530.835V343.54ZM545.544 288.672C539.18 298.476 535.912 314.3 535.912 336.144C535.912 380.176 548.124 398.236 576.848 398.236C605.4 398.236 617.784 379.66 617.784 335.972C617.784 292.456 605.4 273.88 576.848 273.88C562.572 273.88 552.08 278.868 545.544 288.672ZM576.848 396.516C555.004 396.516 545.888 378.284 545.888 336.144C545.888 293.66 555.348 275.6 576.848 275.6C598.692 275.6 607.808 293.832 607.808 335.972C607.808 378.456 598.348 396.516 576.848 396.516ZM700.148 343.54H698.428V378.972C698.428 383.96 695.848 386.54 690.688 386.54H633.068L674.004 337.864C690.688 318.084 695.504 309.828 695.504 297.96C695.504 281.964 684.84 273.88 663.34 273.88C652.16 273.88 643.732 276.632 637.884 282.136C636.336 283.684 634.96 284.372 633.584 284.372C631.348 284.372 630.316 283.168 630.316 280.932V276.116H628.596V317.74H630.316V307.936C630.316 289.876 641.496 275.6 660.932 275.6C677.272 275.6 685.528 284.716 685.528 303.12C685.356 314.988 681.056 326.684 671.768 337.692L622.92 396H700.148V343.54ZM714.857 288.672C708.493 298.476 705.225 314.3 705.225 336.144C705.225 380.176 717.437 398.236 746.161 398.236C774.713 398.236 787.097 379.66 787.097 335.972C787.097 292.456 774.713 273.88 746.161 273.88C731.885 273.88 721.393 278.868 714.857 288.672ZM746.161 396.516C724.317 396.516 715.201 378.284 715.201 336.144C715.201 293.66 724.661 275.6 746.161 275.6C768.005 275.6 777.121 293.832 777.121 335.972C777.121 378.456 767.661 396.516 746.161 396.516Z" fill="#524827"/>
</svg>
