<svg width="244" height="59" viewBox="0 0 244 59" fill="none" xmlns="http://www.w3.org/2000/svg">
<path d="M4.68001 7.08C1.72001 11.64 0.200012 19 0.200012 29.16C0.200012 49.64 5.88001 58.04 19.24 58.04C32.52 58.04 38.28 49.4 38.28 29.08C38.28 8.84 32.52 0.199997 19.24 0.199997C12.6 0.199997 7.72001 2.52 4.68001 7.08ZM19.24 57.24C9.08001 57.24 4.84001 48.76 4.84001 29.16C4.84001 9.4 9.24001 0.999996 19.24 0.999996C29.4 0.999996 33.64 9.48 33.64 29.08C33.64 48.84 29.24 57.24 19.24 57.24ZM69.4688 38.36H78.6688V37.56H69.4688V0.199997L40.6688 38.36H65.0688V52.92C65.0688 54.92 63.8688 56.2 62.0288 56.2H56.6688V57H77.8688V56.2H72.5088C70.6688 56.2 69.4688 54.92 69.4688 52.92V38.36ZM65.0688 37.56H42.2688L65.0688 7.32V37.56Z" fill="black"/>
<path d="M116 36H243.5" stroke="#828282"/>
</svg>
