<svg width="218" height="99" viewBox="0 0 218 99" fill="none" xmlns="http://www.w3.org/2000/svg">
<path d="M5.68 38.08C2.72 42.64 1.2 50 1.2 60.16C1.2 80.64 6.88 89.04 20.24 89.04C33.52 89.04 39.28 80.4 39.28 60.08C39.28 39.84 33.52 31.2 20.24 31.2C13.6 31.2 8.72 33.52 5.68 38.08ZM20.24 88.24C10.08 88.24 5.84 79.76 5.84 60.16C5.84 40.4 10.24 32 20.24 32C30.4 32 34.64 40.48 34.64 60.08C34.64 79.84 30.24 88.24 20.24 88.24ZM67.7488 87.2H60.1488C57.9888 87.2 56.9488 85.92 56.9488 83.44V31.2L41.2688 42.56L41.7488 43.28L52.5488 35.36V83.44C52.5488 85.92 51.4288 87.2 49.2688 87.2H41.7488V88H67.7488V87.2Z" fill="black"/>
<path d="M90.5 59H218" stroke="#828282"/>
</svg>
