<svg width="229" height="26" viewBox="0 0 229 26" fill="none" xmlns="http://www.w3.org/2000/svg">
<path d="M133.46 21.2617L133.46 21.5659L139.267 21.5659L139.267 21.2617L138.287 21.2617C137.416 21.2617 136.799 20.7446 136.799 20.045C136.799 19.9234 136.835 19.8017 136.871 19.6496L142.388 3.4676L149.065 20.2276C149.138 20.3492 149.138 20.4709 149.138 20.5926C149.138 21.0184 148.739 21.2617 148.085 21.2617L146.343 21.2617L146.343 21.5659L153.783 21.5659L153.783 21.2617L152.948 21.2617C152.005 21.2617 151.424 20.9272 151.134 20.2276L143.114 2.57701e-05L136.472 19.6496C136.109 20.7142 135.275 21.2617 133.968 21.2617L133.46 21.2617Z" fill="#828282"/>
<path fill-rule="evenodd" clip-rule="evenodd" d="M58.3008 0.000488281H63.8719V0.366686H63.0363C62.0265 0.366686 61.2605 1.1357 61.2605 2.30753V21.6061L73.8652 0.000488281H78.148V0.366686H76.8249C76.0937 0.366686 75.5365 0.915982 75.5365 1.61176V23.2174C75.5365 24.3892 76.3026 25.1582 77.3123 25.1582H78.148V25.5244H72.5769V25.1582H73.4125C74.4223 25.1582 75.1883 24.3892 75.1883 23.2174V1.61176L60.9123 26.0005V2.30753C60.9123 1.1357 60.1462 0.366686 59.1365 0.366686H58.3008V0.000488281ZM37.7166 12.8843C37.7166 4.74575 41.5886 0.0189872 48.4235 0.0189872C55.1911 0.0189872 59.1304 4.71021 59.1304 12.8488C59.1304 20.9873 55.2584 25.7141 48.4235 25.7141C41.656 25.7141 37.7166 21.0229 37.7166 12.8843ZM39.6695 12.8843C39.6695 16.7226 40.4439 19.779 42.0263 22.018C43.6088 24.257 45.73 25.3587 48.4235 25.3587C53.8106 25.3587 57.1776 20.4898 57.1776 12.8488C57.1776 5.24331 53.7769 0.374383 48.4235 0.374383C43.0364 0.374383 39.6695 5.2433 39.6695 12.8843ZM21.7697 0.836398V0.481002H29.9177C34.7324 0.481002 36.7189 1.79597 36.7189 5.17223C36.7189 8.54848 34.7324 9.86345 29.9177 9.86345H26.1467V23.5817C26.1467 24.3991 26.6854 24.8967 27.3925 24.8967H28.6719V25.2521H21.7697V24.8967H23.0492C23.9582 24.8967 24.2949 24.5768 24.2949 23.5817V2.11582C24.2949 1.26287 23.8909 0.836398 23.0492 0.836398H21.7697ZM26.1467 0.836398V9.50805H29.9177C33.3857 9.50805 34.7661 8.29971 34.7661 5.17223C34.7661 2.04474 33.3857 0.836398 29.9177 0.836398H26.1467ZM93.7457 0.481002H80.6146V9.08158H80.9513V4.2482C80.9513 2.11582 82.2307 0.836398 84.2509 0.836398H91.1531L84.9243 9.86345H87.1801C90.3787 9.86345 92.0959 12.6355 92.0959 17.6111C92.0959 22.7643 90.2777 25.3587 86.6751 25.3587C82.2644 25.3587 80.0086 22.018 80.0086 16.0829V14.4125H79.6719V25.2521H80.0086V23.7239C80.0086 23.1908 80.2442 22.9065 80.6819 22.9065C80.9513 22.9065 81.2543 23.1197 81.591 23.5106C82.7694 24.9678 84.5203 25.7141 86.7761 25.7141C91.7592 25.7141 94.0487 23.1552 94.0487 17.6111C94.0487 12.3157 91.8602 9.61467 87.4832 9.50805L93.7457 0.481002ZM110.009 5.17223C110.009 8.12201 108.528 9.40143 104.925 9.68575C109.605 10.1478 111.962 12.7066 111.962 17.3623C111.962 22.7288 109.167 25.2521 103.275 25.2521H95.0598V24.8967H96.3393C97.2483 24.8967 97.585 24.5768 97.585 23.6173V2.11582C97.585 1.15625 97.2483 0.836398 96.3393 0.836398H95.0598V0.481002H103.208C108.023 0.481002 110.009 1.79597 110.009 5.17223ZM103.208 0.836398H99.4369V9.50805H103.208C106.676 9.50805 108.056 8.29971 108.056 5.17223C108.056 2.04474 106.676 0.836398 103.208 0.836398ZM99.4369 9.86345V24.8967H103.275C107.821 24.8967 110.009 22.48 110.009 17.3623C110.009 12.2801 107.821 9.86345 103.275 9.86345H99.4369ZM123.686 0.0189872C116.852 0.0189872 112.98 4.74575 112.98 12.8843C112.98 21.0229 116.919 25.7141 123.686 25.7141C130.521 25.7141 134.393 20.9873 134.393 12.8488C134.393 4.71021 130.454 0.0189872 123.686 0.0189872ZM117.289 22.018C115.707 19.779 114.932 16.7226 114.932 12.8843C114.932 5.2433 118.299 0.374383 123.686 0.374383C129.04 0.374383 132.44 5.24331 132.44 12.8488C132.44 20.4898 129.074 25.3587 123.686 25.3587C120.993 25.3587 118.872 24.257 117.289 22.018ZM163.176 25.3587C166.543 25.3587 169.573 23.3685 171.458 20.3476L171.761 20.5609C169.775 23.7239 166.644 25.7141 163.176 25.7141C156.846 25.7141 152.469 20.3832 152.469 12.8843C152.469 5.38546 156.879 0.0189872 163.176 0.0189872C165.465 0.0189872 167.586 0.871937 169.539 2.5423C169.809 2.79107 170.078 2.93323 170.347 2.93323C170.718 2.93323 170.92 2.68445 170.92 2.15136V0.481002H171.256V9.08158H170.92V8.54848C170.886 2.93323 167.317 0.374383 163.479 0.374383C158.125 0.374383 154.422 5.38546 154.422 12.8843C154.422 19.9211 157.89 25.3587 163.176 25.3587ZM188.244 0.481002H172.924V9.08158H173.261V4.14158C173.261 2.25798 174.54 0.836398 176.258 0.836398H179.658V23.5462C179.658 24.3636 179.153 24.8967 178.379 24.8967H176.123V25.2521H185.045V24.8967H182.789C182.015 24.8967 181.51 24.3636 181.51 23.5462V0.836398H184.843C186.594 0.836398 187.907 2.22244 187.907 4.0705V9.08158H188.244V0.481002ZM204.375 5.17223C204.375 8.12201 202.894 9.40143 199.291 9.68575C203.971 10.1478 206.328 12.7066 206.328 17.3623C206.328 22.7288 203.534 25.2521 197.642 25.2521H189.426V24.8967H190.706C191.615 24.8967 191.951 24.5768 191.951 23.6173V2.11582C191.951 1.15625 191.615 0.836398 190.706 0.836398H189.426V0.481002H197.574C202.389 0.481002 204.375 1.79597 204.375 5.17223ZM197.574 0.836398H193.803V9.50805H197.574C201.042 9.50805 202.423 8.29971 202.423 5.17223C202.423 2.04474 201.042 0.836398 197.574 0.836398ZM193.803 9.86345V24.8967H197.642C202.187 24.8967 204.375 22.48 204.375 17.3623C204.375 12.2801 202.187 9.86345 197.642 9.86345H193.803ZM218.053 0.0189872C211.218 0.0189872 207.346 4.74575 207.346 12.8843C207.346 21.0229 211.285 25.7141 218.053 25.7141C224.888 25.7141 228.76 20.9873 228.76 12.8488C228.76 4.71021 224.82 0.0189872 218.053 0.0189872ZM211.656 22.018C210.073 19.779 209.299 16.7226 209.299 12.8843C209.299 5.2433 212.666 0.374383 218.053 0.374383C223.406 0.374383 226.807 5.24331 226.807 12.8488C226.807 20.4898 223.44 25.3587 218.053 25.3587C215.359 25.3587 213.238 24.257 211.656 22.018ZM18.6865 0.561621V0.917017H17.4071C16.7 0.917017 16.1613 1.45011 16.1613 2.19644V23.6979C16.1613 24.4442 16.7 24.9773 17.4071 24.9773H18.6865V25.3327H11.7843V24.9773H13.0637C13.7708 24.9773 14.3095 24.4442 14.3095 23.6979V2.19644C14.3095 1.45011 13.7708 0.917017 13.0637 0.917017H11.9615H6.90223H6.46807H5.62279C4.91573 0.917017 4.37702 1.45011 4.37702 2.19644V9.58867V9.94407V23.6979C4.37702 24.4442 4.91573 24.9773 5.62279 24.9773H6.90223V25.3327H0V24.9773H1.27944C1.98649 24.9773 2.5252 24.4442 2.5252 23.6979V2.19644C2.5252 1.45011 1.98649 0.917017 1.27944 0.917017H0V0.561621H6.46807H6.90223H11.9615H18.6865Z" fill="#828282"/>
</svg>
