<svg width="171" height="30" viewBox="0 0 171 30" fill="none" xmlns="http://www.w3.org/2000/svg">
<path d="M0.6 1.12V1.52H2.12C3.12 1.52 3.6 2 3.6 2.96V27.12C3.6 28.24 3.2 28.6 2.12 28.6H0.6V29H8.8V28.6H7.28C6.44 28.6 5.8 28.04 5.8 27.12V11.68H10.28C16 11.68 18.36 10.2 18.36 6.4C18.36 2.6 16 1.12 10.28 1.12H0.6ZM5.8 11.28V1.52H10.28C14.4 1.52 16.04 2.88 16.04 6.4C16.04 9.92 14.4 11.28 10.28 11.28H5.8ZM37.3344 16.8H36.9344V24.04C36.9344 26.6 35.0944 28.6 32.5344 28.6H23.5344V11.68H33.1344V11.28H23.5344V1.52H31.8944C33.9744 1.52 35.5344 3.04 35.5344 5.16V10.8H35.9344V1.12H18.3344V1.52H19.8544C20.6944 1.52 21.3344 2.12 21.3344 2.96V27.16C21.3344 28 20.6944 28.6 19.8544 28.6H18.3344V29H37.3344V16.8ZM61.0897 23.48C58.8497 26.88 55.2497 29.12 51.2497 29.12C44.9697 29.12 40.8497 23 40.8497 15.08C40.8497 6.64 45.2497 0.999998 51.6097 0.999998C56.1697 0.999998 60.4097 3.88 60.4497 10.2V10.8H60.8497V1.12H60.4497V3C60.4497 3.6 60.2097 3.88 59.7697 3.88C59.4497 3.88 59.1297 3.72 58.8097 3.44C56.4897 1.56 53.9697 0.599998 51.2497 0.599998C43.7697 0.599998 38.5297 6.64 38.5297 15.08C38.5297 23.52 43.7297 29.52 51.2497 29.52C55.3697 29.52 59.0897 27.28 61.4497 23.72L61.0897 23.48ZM81.0313 1.12H62.8313V10.8H63.2313V5.24C63.2313 3.12 64.7513 1.52 66.7913 1.52H70.8313V27.08C70.8313 28 70.2313 28.6 69.3113 28.6H66.6313V29H77.2313V28.6H74.5513C73.6313 28.6 73.0313 28 73.0313 27.08V1.52H76.9913C79.0713 1.52 80.6313 3.08 80.6313 5.16V10.8H81.0313V1.12ZM95.1559 0.599998C87.0359 0.599998 82.4359 5.92 82.4359 15.08C82.4359 24.24 87.1159 29.52 95.1559 29.52C103.276 29.52 107.876 24.2 107.876 15.04C107.876 5.88 103.196 0.599998 95.1559 0.599998ZM87.5559 25.36C85.6759 22.84 84.7559 19.4 84.7559 15.08C84.7559 6.48 88.7559 0.999998 95.1559 0.999998C101.516 0.999998 105.556 6.48 105.556 15.04C105.556 23.64 101.556 29.12 95.1559 29.12C91.9559 29.12 89.4359 27.88 87.5559 25.36ZM108.295 1.12V1.52H109.815C110.815 1.52 111.295 2 111.295 2.96V27.12C111.295 28.24 110.895 28.6 109.815 28.6H108.295V29H116.495V28.6H114.975C114.135 28.6 113.495 28.04 113.495 27.12V11.68H117.975C123.695 11.68 126.055 10.2 126.055 6.4C126.055 2.6 123.695 1.12 117.975 1.12H108.295ZM113.495 11.28V1.52H117.975C122.095 1.52 123.735 2.88 123.735 6.4C123.735 9.92 122.095 11.28 117.975 11.28H113.495ZM146.667 28.6H145.627C144.667 28.6 144.067 28.24 143.827 27.48L135.067 1.12H129.187V1.52H131.907C132.587 1.52 133.067 1.88 133.067 2.56C133.067 2.72 133.027 2.88 132.987 3.08L126.387 26.44C125.987 27.88 125.067 28.6 123.867 28.6H122.827V29H129.227V28.6H128.227C127.347 28.6 126.707 28 126.707 27.12C126.707 26.92 126.707 26.72 126.787 26.48L128.707 19.68H138.947L141.507 27.4C141.547 27.52 141.547 27.64 141.547 27.72C141.547 28.24 141.147 28.6 140.507 28.6H138.467V29H146.667V28.6ZM138.787 19.28H128.827L133.427 3.2L138.787 19.28ZM170.066 1.52V1.12H161.866V1.52H163.386C164.226 1.52 164.866 2.12 164.866 2.96V11.28H153.066V2.96C153.066 2.12 153.706 1.52 154.546 1.52H156.066V1.12H147.866V1.52H149.386C150.226 1.52 150.866 2.12 150.866 2.96V27.16C150.866 28 150.226 28.6 149.386 28.6H147.866V29H156.066V28.6H154.546C153.706 28.6 153.066 28 153.066 27.16V11.68H164.866V27.16C164.866 28 164.226 28.6 163.386 28.6H161.866V29H170.066V28.6H168.546C167.706 28.6 167.066 28 167.066 27.16V2.96C167.066 2.12 167.706 1.52 168.546 1.52H170.066Z" fill="black"/>
</svg>
