<svg width="1286" height="131" viewBox="0 0 1286 131" fill="none" xmlns="http://www.w3.org/2000/svg">
<path fill-rule="evenodd" clip-rule="evenodd" d="M297.583 129.188C315.629 129.188 331.87 119.042 341.975 103.64L343.599 104.728C332.952 120.853 316.17 131 297.583 131C263.657 131 240.198 103.822 240.198 65.5906C240.198 27.3596 263.837 0 297.583 0C309.854 0 321.223 4.34855 331.689 12.8645C333.133 14.1328 334.577 14.8575 336.02 14.8575C338.005 14.8575 339.088 13.5892 339.088 10.8714V2.35547H340.892V46.2033H339.088V43.4855C338.907 14.8575 319.779 1.81189 299.207 1.81189C270.514 1.81189 250.664 27.3596 250.664 65.5906C250.664 101.466 269.251 129.188 297.583 129.188ZM132.636 4.16736V2.35547H110.981L67.6712 112.881L22.1962 2.35547H0V4.16736H6.85735C10.6469 4.16736 13.5342 6.70401 13.5342 11.0526V116.867C13.5342 123.209 9.5642 126.833 4.33096 126.833H0V128.645H28.8731V126.833H24.5421C19.3089 126.833 15.3388 123.209 15.3388 116.867V11.5961L63.1598 128.826L109.176 11.7773V119.766C109.176 124.115 106.289 126.833 102.499 126.833H95.642V128.645H132.636V126.833H125.778C121.989 126.833 119.101 124.115 119.101 119.766V10.8714C119.101 6.70401 121.989 4.16736 125.778 4.16736H132.636ZM245.538 126.833H240.846C236.515 126.833 233.808 125.202 232.726 121.759L193.206 2.35547H166.678V4.16736H178.95C182.017 4.16736 184.183 5.79807 184.183 8.87829C184.183 9.47857 184.059 10.0788 183.914 10.7821L183.914 10.7824L183.914 10.7837L183.913 10.7871C183.883 10.9313 183.853 11.0799 183.822 11.2338L154.047 117.048C152.242 123.571 148.091 126.833 142.678 126.833H137.986V128.645H166.859V126.833H162.348C158.377 126.833 155.49 124.115 155.49 120.129C155.49 119.223 155.49 118.317 155.851 117.23L164.513 86.4274H210.71L222.259 121.397C222.44 121.941 222.44 122.484 222.44 122.846C222.44 125.202 220.635 126.833 217.748 126.833H208.544V128.645H245.538V126.833ZM209.988 84.6155H165.054L185.807 11.7773L209.988 84.6155ZM431.94 2.35547H349.832V46.2033H351.637V21.018C351.637 11.4149 358.494 4.16736 367.697 4.16736H385.923V119.947C385.923 124.115 383.217 126.833 379.066 126.833H366.975V128.645H414.797V126.833H402.706C398.555 126.833 395.849 124.115 395.849 119.947V4.16736H413.714C423.098 4.16736 430.135 11.2338 430.135 20.6556V46.2033H431.94V2.35547ZM522.189 73.3817H523.994V128.645H438.277V126.833H445.134C448.924 126.833 451.811 124.115 451.811 120.31V10.6902C451.811 6.8852 448.924 4.16736 445.134 4.16736H438.277V2.35547H517.678V46.2033H515.873V20.6556C515.873 11.0526 508.836 4.16736 499.452 4.16736H461.736V48.3776H505.046V50.1895H461.736V126.833H502.339C513.888 126.833 522.189 117.773 522.189 106.177V73.3817ZM529.386 2.35547V4.16736H536.244C540.755 4.16736 542.921 6.34164 542.921 10.6902V120.129C542.921 125.202 541.116 126.833 536.244 126.833H529.386V128.645H566.38V126.833H559.523C555.733 126.833 552.846 124.296 552.846 120.129V50.1895H573.057C598.862 50.1895 609.509 43.4855 609.509 26.2725C609.509 9.05948 598.862 2.35547 573.057 2.35547H529.386ZM552.846 48.3776V4.16736H573.057C591.644 4.16736 599.043 10.3278 599.043 26.2725C599.043 42.2172 591.644 48.3776 573.057 48.3776H552.846ZM754.155 117.048C752.365 123.337 748.269 126.596 741.867 126.651C738.613 126.141 736.761 124.489 734.443 120.853L684.096 43.4855L719.826 10.8714C724.698 6.34164 729.932 4.16736 735.526 4.16736H739.135V2.35547H705.029V4.16736H711.706C715.495 4.16736 717.3 6.34164 717.3 8.51591C717.3 9.96543 716.758 11.4149 715.315 12.5021L676.156 48.3776H670.742V10.6902C670.742 6.8852 673.629 4.16736 677.419 4.16736H684.276V2.35547H647.282V4.16736H654.14C657.929 4.16736 660.817 6.8852 660.817 10.6902V120.31C660.817 124.115 657.929 126.833 654.14 126.833H647.282V128.645H684.276V126.833H677.419C673.629 126.833 670.742 124.115 670.742 120.31V50.1895H676.336L724.157 123.39C724.698 124.296 724.879 125.021 724.879 125.564C724.879 126.47 724.157 126.833 722.533 126.833H712.247V128.645H749.24V128.463L768.05 128.463V126.651H763.177C758.847 126.651 755.779 123.571 755.779 119.404C755.779 118.803 755.903 118.203 756.048 117.499L756.048 117.497C756.078 117.352 756.109 117.203 756.14 117.048L783.569 20.6556L816.773 120.491C817.134 121.216 817.134 121.941 817.134 122.665C817.134 125.202 815.149 126.651 811.901 126.651H803.239V128.463H832.145V128.645H861.018V126.833H856.506C852.536 126.833 849.649 124.115 849.649 120.129C849.649 119.223 849.649 118.317 850.01 117.23L858.672 86.4274H904.869L916.418 121.397C916.599 121.941 916.599 122.484 916.599 122.846C916.599 125.202 914.794 126.833 911.907 126.833H902.703V128.645H939.697V126.833H935.005C930.674 126.833 927.967 125.202 926.885 121.759L887.365 2.35547H860.837V4.16736H873.108C876.176 4.16736 878.342 5.79807 878.342 8.87829C878.342 9.47862 878.218 10.0789 878.073 10.7822V10.7825L878.02 11.0368C878.01 11.0905 877.999 11.1449 877.988 11.1999L877.981 11.2338L848.205 117.048C846.646 122.684 843.336 125.885 838.974 126.651H836.082C831.39 126.651 828.503 124.658 827.059 120.491L787.178 2.58794e-05L754.155 117.048ZM904.147 84.6155H859.213L879.966 11.7773L904.147 84.6155ZM991.742 129.188C1009.79 129.188 1026.03 119.042 1036.13 103.64L1037.76 104.728C1027.11 120.853 1010.33 131 991.742 131C957.816 131 934.357 103.822 934.357 65.5906C934.357 27.3596 957.996 0 991.742 0C1004.01 0 1015.38 4.34855 1025.85 12.8645C1027.29 14.1328 1028.74 14.8575 1030.18 14.8575C1032.16 14.8575 1033.25 13.5892 1033.25 10.8714V2.35547H1035.05V46.2033H1033.25V43.4855C1033.07 14.8575 1013.94 1.81189 993.366 1.81189C964.673 1.81189 944.823 27.3596 944.823 65.5906C944.823 101.466 963.41 129.188 991.742 129.188ZM1144.87 103.64C1134.76 119.042 1118.52 129.188 1100.47 129.188C1072.14 129.188 1053.56 101.466 1053.56 65.5906C1053.56 27.3596 1073.41 1.81189 1102.1 1.81189C1122.67 1.81189 1141.8 14.8575 1141.98 43.4855V46.2033H1143.78V2.35547H1141.98V10.8714C1141.98 13.5892 1140.9 14.8575 1138.91 14.8575C1137.47 14.8575 1136.02 14.1328 1134.58 12.8645C1124.11 4.34855 1112.74 0 1100.47 0C1066.73 0 1043.09 27.3596 1043.09 65.5906C1043.09 103.822 1066.55 131 1100.47 131C1119.06 131 1135.84 120.853 1146.49 104.728L1144.87 103.64ZM1166 129V127.192H1172.93C1177.49 127.192 1179.68 125.023 1179.68 120.684V11.4964C1179.68 6.43473 1177.86 4.80775 1172.93 4.80775L1166 4.80775V3L1203.4 3V4.80775L1196.47 4.80775C1192.64 4.80775 1189.72 7.3386 1189.72 11.4964V81.2755H1210.15C1236.24 81.2755 1247 87.9641 1247 105.138C1247 122.311 1236.24 129 1210.15 129L1166 129ZM1189.72 83.0832V127.192H1210.15C1228.94 127.192 1236.42 121.046 1236.42 105.138C1236.42 89.2296 1228.94 83.0832 1210.15 83.0832H1189.72ZM1286 4.80775V3.00001H1249V4.80775H1255.86C1259.65 4.80775 1265.54 7.51937 1265.54 11.3156V120.684C1265.54 124.481 1259.65 127.192 1255.86 127.192H1249V129H1286V127.192H1279.14C1275.35 127.192 1268.46 124.481 1268.46 120.684V11.3156C1268.46 7.51937 1275.35 4.80775 1279.14 4.80775H1286Z" fill="black"/>
</svg>
