<svg width="1803" height="915" viewBox="0 0 1803 915" fill="none" xmlns="http://www.w3.org/2000/svg">
<path opacity="0.9" fill-rule="evenodd" clip-rule="evenodd" d="M480.301 393.718C502.332 393.718 522.16 381.331 534.497 362.528L536.48 363.856C523.482 383.543 502.993 395.93 480.301 395.93C438.883 395.93 410.243 362.749 410.243 316.076C410.243 269.402 439.103 236 480.301 236C495.282 236 509.161 241.309 521.939 251.705C523.702 253.254 525.464 254.139 527.227 254.139C529.65 254.139 530.972 252.59 530.972 249.272V238.876H533.175V292.407H530.972V289.089C530.752 254.139 507.399 238.212 482.284 238.212C447.255 238.212 423.021 269.402 423.021 316.076C423.021 359.874 445.713 393.718 480.301 393.718ZM278.927 241.088V238.876H252.49L199.616 373.81L144.098 238.876H117V241.088H125.372C129.998 241.088 133.523 244.185 133.523 249.493V378.676C133.523 386.418 128.676 390.842 122.287 390.842H117V393.054H152.249V390.842H146.962C140.573 390.842 135.726 386.418 135.726 378.676V250.157L194.108 393.276L250.287 250.378V382.215C250.287 387.524 246.762 390.842 242.135 390.842H233.764V393.054H278.927V390.842H270.555C265.929 390.842 262.404 387.524 262.404 382.215V249.272C262.404 244.185 265.929 241.088 270.555 241.088H278.927ZM416.763 390.842H411.035C405.747 390.842 402.443 388.852 401.121 384.649L352.873 238.876H320.488V241.088H335.469C339.214 241.088 341.858 243.079 341.858 246.839C341.858 247.572 341.706 248.305 341.529 249.164V249.165C341.492 249.343 341.455 249.525 341.417 249.715L305.066 378.897C302.863 386.861 297.796 390.842 291.187 390.842H285.459V393.054H320.708V390.842H315.2C310.354 390.842 306.829 387.524 306.829 382.658C306.829 381.552 306.829 380.446 307.269 379.119L317.844 341.514H374.243L388.343 384.206C388.563 384.87 388.563 385.533 388.563 385.976C388.563 388.852 386.36 390.842 382.835 390.842H371.599V393.054H416.763V390.842ZM373.362 339.302H318.505L343.84 250.378L373.362 339.302ZM644.329 238.876H544.089V292.407H546.292V261.66C546.292 249.936 554.664 241.088 565.9 241.088H588.151V382.437C588.151 387.524 584.846 390.842 579.779 390.842H565.018V393.054H623.4V390.842H608.639C603.572 390.842 600.268 387.524 600.268 382.437V241.088H622.078C633.534 241.088 642.126 249.715 642.126 261.217V292.407H644.329V238.876ZM754.51 325.587H756.713V393.054H652.066V390.842H660.438C665.064 390.842 668.589 387.524 668.589 382.879V249.051C668.589 244.406 665.064 241.088 660.438 241.088H652.066V238.876H749.002V292.407H746.799V261.217C746.799 249.493 738.207 241.088 726.751 241.088H680.706V295.061H733.58V297.273H680.706V390.842H730.276C744.375 390.842 754.51 379.782 754.51 365.625V325.587ZM763.296 238.876V241.088H771.668C777.176 241.088 779.819 243.742 779.819 249.051V382.658C779.819 388.852 777.616 390.842 771.668 390.842H763.296V393.054H808.459V390.842H800.088C795.461 390.842 791.936 387.745 791.936 382.658V297.273H816.611C848.115 297.273 861.113 289.089 861.113 268.074C861.113 247.06 848.115 238.876 816.611 238.876H763.296ZM791.936 295.061V241.088H816.611C839.303 241.088 848.335 248.609 848.335 268.074C848.335 287.54 839.303 295.061 816.611 295.061H791.936ZM1037.7 378.897C1035.52 386.574 1030.52 390.554 1022.7 390.62C1018.73 389.998 1016.47 387.981 1013.64 383.543L952.171 289.089L995.792 249.272C1001.74 243.742 1008.13 241.088 1014.96 241.088H1019.37V238.876H977.727V241.088H985.878C990.505 241.088 992.708 243.742 992.708 246.397C992.708 248.166 992.047 249.936 990.285 251.263L942.478 295.061H935.868V249.051C935.868 244.406 939.393 241.088 944.02 241.088H952.391V238.876H907.228V241.088H915.6C920.226 241.088 923.751 244.406 923.751 249.051V382.879C923.751 387.524 920.226 390.842 915.6 390.842H907.228V393.054H952.391V390.842H944.02C939.393 390.842 935.868 387.524 935.868 382.879V297.273H942.698L1001.08 386.639C1001.74 387.745 1001.96 388.63 1001.96 389.294C1001.96 390.4 1001.08 390.842 999.097 390.842H986.539V393.054H1031.7V392.833H1054.67V390.621H1048.72C1043.43 390.621 1039.68 386.861 1039.68 381.773C1039.68 381.04 1039.84 380.308 1040.01 379.45V379.449L1040.06 379.196C1040.08 379.098 1040.11 378.999 1040.13 378.897L1073.61 261.217L1114.15 383.1C1114.59 383.985 1114.59 384.87 1114.59 385.755C1114.59 388.852 1112.17 390.621 1108.2 390.621H1097.63V392.833H1132.92V393.054H1168.16V390.842H1162.66C1157.81 390.842 1154.29 387.524 1154.29 382.658C1154.29 381.552 1154.29 380.446 1154.73 379.119L1165.3 341.514H1221.7L1235.8 384.206C1236.02 384.87 1236.02 385.533 1236.02 385.976C1236.02 388.852 1233.82 390.842 1230.29 390.842H1219.06V393.054H1264.22V390.842H1258.49C1253.2 390.842 1249.9 388.852 1248.58 384.649L1200.33 238.876H1167.94V241.088H1182.93C1186.67 241.088 1189.31 243.079 1189.31 246.839C1189.31 247.572 1189.16 248.305 1188.99 249.164L1188.95 249.318L1188.93 249.437L1188.9 249.562L1188.87 249.715L1152.52 378.897C1150.62 385.777 1146.58 389.685 1141.25 390.621H1137.72C1131.99 390.621 1128.47 388.188 1126.71 383.1L1078.02 236L1037.7 378.897ZM1220.82 339.302H1165.96L1191.3 250.378L1220.82 339.302ZM1327.76 393.718C1349.79 393.718 1369.62 381.331 1381.95 362.528L1383.94 363.856C1370.94 383.543 1350.45 395.93 1327.76 395.93C1286.34 395.93 1257.7 362.749 1257.7 316.076C1257.7 269.402 1286.56 236 1327.76 236C1342.74 236 1356.62 241.309 1369.4 251.705C1371.16 253.254 1372.92 254.139 1374.68 254.139C1377.11 254.139 1378.43 252.59 1378.43 249.272V238.876H1380.63V292.407H1378.43V289.089C1378.21 254.139 1354.86 238.212 1329.74 238.212C1294.71 238.212 1270.48 269.402 1270.48 316.076C1270.48 359.874 1293.17 393.718 1327.76 393.718ZM1514.7 362.528C1502.36 381.331 1482.53 393.718 1460.5 393.718C1425.91 393.718 1403.22 359.874 1403.22 316.076C1403.22 269.402 1427.46 238.212 1462.49 238.212C1487.6 238.212 1510.95 254.139 1511.17 289.089V292.407H1513.38V238.876H1511.17V249.272C1511.17 252.59 1509.85 254.139 1507.43 254.139C1505.67 254.139 1503.9 253.254 1502.14 251.705C1489.36 241.309 1475.48 236 1460.5 236C1419.3 236 1390.44 269.402 1390.44 316.076C1390.44 362.749 1419.08 395.93 1460.5 395.93C1483.19 395.93 1503.68 383.543 1516.68 363.856L1514.7 362.528ZM1540.5 393.488V391.281H1548.96C1554.53 391.281 1557.2 388.633 1557.2 383.336V250.035C1557.2 243.856 1554.98 241.869 1548.96 241.869H1540.5V239.663H1586.16V241.869H1577.69C1573.02 241.869 1569.45 244.959 1569.45 250.035V335.224H1594.4C1626.25 335.224 1639.39 343.39 1639.39 364.356C1639.39 385.323 1626.25 393.488 1594.4 393.488H1540.5ZM1569.45 337.431V391.281H1594.4C1617.34 391.281 1626.47 383.778 1626.47 364.356C1626.47 344.935 1617.34 337.431 1594.4 337.431H1569.45ZM1687 241.869V239.663H1641.83V241.869H1650.2C1654.83 241.869 1662.02 245.18 1662.02 249.815V383.336C1662.02 387.971 1654.83 391.281 1650.2 391.281H1641.83V393.488H1687V391.281H1678.63C1674 391.281 1665.59 387.971 1665.59 383.336V249.815C1665.59 245.18 1674 241.869 1678.63 241.869H1687Z" fill="#9E9987"/>
<path d="M148.572 509.705C201.154 514.74 227.445 541.927 227.445 591.266C227.445 619.963 219.52 641.108 203.67 654.701C187.82 668.295 163.29 675.091 130.081 675.091H38V671.315H52.3404C57.3722 671.315 60.8944 670.308 62.9071 668.295C65.1713 666.281 66.3035 662.757 66.3035 657.722V429.278C66.3035 424.243 65.1713 420.719 62.9071 418.705C60.8944 416.692 57.3722 415.685 52.3404 415.685H38V411.909H129.326C146.434 411.909 160.648 414.174 171.97 418.705C183.291 423.237 191.971 429.026 198.009 436.075C204.047 442.871 207.318 450.423 207.821 458.73C208.576 466.786 206.814 474.463 202.538 481.763C198.512 489.064 191.845 495.357 182.536 500.643C173.479 505.678 162.158 508.698 148.572 509.705ZM87.0594 507.817H129.326C148.95 507.817 162.913 504.293 171.215 497.245C179.517 490.196 183.669 478.365 183.669 461.751C183.669 445.137 179.517 433.306 171.215 426.257C162.913 419.209 148.95 415.685 129.326 415.685H87.0594V507.817ZM130.081 671.315C155.742 671.315 174.737 664.896 187.065 652.058C199.393 638.968 205.557 618.704 205.557 591.266C205.557 564.079 199.393 544.066 187.065 531.228C174.737 518.138 155.742 511.593 130.081 511.593H87.0594V671.315H130.081Z" fill="#524827"/>
<path d="M444.901 675.091H367.538V671.315H386.784C393.326 671.315 396.596 668.546 396.596 663.008C396.596 661.75 396.47 660.743 396.219 659.988L372.066 587.112L319.988 433.432L257.343 651.303C256.84 652.562 256.588 653.694 256.588 654.701C256.588 655.456 256.588 656.337 256.588 657.344C256.588 661.624 257.846 665.022 260.362 667.539C263.13 670.057 266.652 671.315 270.929 671.315H280.363V675.091H219.982V671.315H229.794C235.581 671.315 240.487 669.679 244.512 666.407C248.538 662.882 251.557 657.722 253.569 650.925L315.837 430.411C316.088 429.404 316.214 428.523 316.214 427.768C316.466 427.012 316.592 426.257 316.592 425.502C316.592 422.23 315.585 419.838 313.573 418.328C311.56 416.566 308.918 415.685 305.648 415.685H279.986V411.909H335.461L418.107 660.743C420.371 667.791 426.032 671.315 435.089 671.315H444.901V675.091Z" fill="#524827"/>
<path d="M672.416 675.091H595.054V671.315H614.3C620.841 671.315 624.112 668.546 624.112 663.008C624.112 661.75 623.986 660.743 623.734 659.988L599.582 587.112H502.973L484.859 651.303C484.356 652.562 484.104 653.694 484.104 654.701C484.104 655.456 484.104 656.337 484.104 657.344C484.104 661.624 485.362 665.022 487.878 667.539C490.645 670.057 494.167 671.315 498.444 671.315H507.879V675.091H447.498V671.315H457.31C463.097 671.315 468.002 669.679 472.028 666.407C476.053 662.882 479.072 657.722 481.085 650.925L543.353 430.411C543.604 429.404 543.73 428.523 543.73 427.768C543.982 427.012 544.107 426.257 544.107 425.502C544.107 422.23 543.101 419.838 541.088 418.328C539.076 416.566 536.434 415.685 533.163 415.685H507.502V411.909H562.976L645.623 660.743C647.887 667.791 653.548 671.315 662.605 671.315H672.416V675.091ZM547.504 431.544L504.105 583.336H598.073L547.504 431.544Z" fill="#524827"/>
<path d="M882.399 625.249C871.077 642.115 857.114 655.456 840.51 665.274C823.905 675.091 805.791 680 786.167 680C768.556 680 752.329 676.728 737.485 670.183C722.893 663.386 710.314 653.946 699.747 641.863C689.18 629.78 680.878 615.432 674.84 598.817C669.053 581.952 666.16 563.575 666.16 543.689C666.16 523.802 669.053 505.552 674.84 488.938C680.878 472.072 689.18 457.598 699.747 445.515C710.314 433.432 722.893 423.992 737.485 417.195C752.329 410.398 768.556 407 786.167 407C811.577 407 835.352 415.936 857.492 433.809C860.762 436.578 863.781 437.963 866.549 437.963C870.826 437.963 872.964 435.194 872.964 429.656V411.909H876.738V503.286H872.964V497.622C872.964 482.77 870.574 469.932 865.794 459.108C861.265 448.032 855.102 438.97 847.302 431.921C839.503 424.621 830.572 419.335 820.508 416.062C810.697 412.538 800.382 410.776 789.563 410.776C774.468 410.776 760.631 414.048 748.052 420.593C735.724 426.887 725.031 435.823 715.974 447.402C707.169 458.982 700.25 472.953 695.218 489.315C690.438 505.678 688.048 523.802 688.048 543.689C688.048 562.317 690.313 579.686 694.841 595.797C699.621 611.907 706.288 626.004 714.842 638.087C723.396 649.918 733.711 659.232 745.787 666.029C757.863 672.826 771.323 676.224 786.167 676.224C805.036 676.224 822.521 671.441 838.623 661.876C854.976 652.058 868.436 639.094 879.002 622.983L882.399 625.249Z" fill="#524827"/>
<path d="M1076.58 675.091H897.32V671.315H911.66C915.686 671.315 918.956 670.057 921.472 667.539C924.24 665.022 925.623 661.75 925.623 657.722V429.278C925.623 425.25 924.24 421.978 921.472 419.461C918.956 416.943 915.686 415.685 911.66 415.685H897.32V411.909H1063.37V503.286H1059.59V450.046C1059.59 439.976 1056.32 431.795 1049.78 425.502C1043.24 418.957 1035.06 415.685 1025.25 415.685H946.379V507.817H1036.95V511.593H946.379V671.315H1031.29C1037.33 671.315 1042.86 670.183 1047.89 667.917C1052.93 665.651 1057.33 662.631 1061.1 658.855C1064.88 655.079 1067.77 650.548 1069.78 645.261C1071.8 639.975 1072.8 634.311 1072.8 628.27V559.925H1076.58V675.091Z" fill="#524827"/>
<path d="M1284.84 415.685C1280.82 415.685 1277.42 416.943 1274.66 419.461C1272.14 421.978 1270.88 425.25 1270.88 429.278V657.722C1270.88 661.75 1272.14 665.022 1274.66 667.539C1277.42 670.057 1280.82 671.315 1284.84 671.315H1299.19V675.091H1221.82V671.315H1236.16C1240.19 671.315 1243.46 670.057 1245.97 667.539C1248.74 665.022 1250.13 661.75 1250.13 657.722V511.593H1138.8V657.722C1138.8 661.75 1140.06 665.022 1142.57 667.539C1145.34 670.057 1148.74 671.315 1152.76 671.315H1167.1V675.091H1089.74V671.315H1104.08C1108.11 671.315 1111.38 670.057 1113.89 667.539C1116.66 665.022 1118.04 661.75 1118.04 657.722V429.278C1118.04 425.25 1116.66 421.978 1113.89 419.461C1111.38 416.943 1108.11 415.685 1104.08 415.685H1089.74V411.909H1167.1V415.685H1152.76C1148.74 415.685 1145.34 416.943 1142.57 419.461C1140.06 421.978 1138.8 425.25 1138.8 429.278V507.817H1250.13V429.278C1250.13 425.25 1248.74 421.978 1245.97 419.461C1243.46 416.943 1240.19 415.685 1236.16 415.685H1221.82V411.909H1299.19V415.685H1284.84Z" fill="#524827"/>
<path d="M1525.6 675.091H1448.24V671.315H1469.75C1473.02 671.315 1474.65 670.434 1474.65 668.672C1474.65 667.414 1474.15 665.903 1473.14 664.141L1373.14 511.593H1361.44V657.722C1361.44 661.75 1362.7 665.022 1365.21 667.539C1367.98 670.057 1371.38 671.315 1375.4 671.315H1389.74V675.091H1312.38V671.315H1326.72C1330.74 671.315 1334.01 670.057 1336.53 667.539C1339.3 665.022 1340.68 661.75 1340.68 657.722V429.278C1340.68 425.25 1339.3 421.978 1336.53 419.461C1334.01 416.943 1330.74 415.685 1326.72 415.685H1312.38V411.909H1389.74V415.685H1375.4C1371.38 415.685 1367.98 416.943 1365.21 419.461C1362.7 421.978 1361.44 425.25 1361.44 429.278V507.817H1372.76L1454.65 433.054C1457.42 431.04 1458.8 428.271 1458.8 424.747C1458.8 422.481 1457.8 420.467 1455.78 418.705C1454.02 416.692 1451.13 415.685 1447.1 415.685H1433.14V411.909H1504.46V415.685H1496.92C1485.09 415.685 1474.15 420.342 1464.09 429.656L1389.36 497.622L1494.65 658.855C1497.67 663.638 1500.57 666.91 1503.33 668.672C1506.35 670.434 1510.5 671.315 1515.79 671.315H1525.6V675.091Z" fill="#524827"/>
<path d="M1643.99 407C1682.23 407 1711.8 418.831 1732.68 442.494C1753.56 466.156 1764 499.762 1764 543.311C1764 564.96 1761.36 584.217 1756.07 601.083C1750.79 617.949 1742.99 632.297 1732.68 644.129C1722.61 655.708 1710.03 664.645 1694.94 670.938C1680.1 676.979 1663.11 680 1643.99 680C1605.75 680 1576.19 668.169 1555.31 644.506C1534.43 620.844 1523.99 587.238 1523.99 543.689C1523.99 522.04 1526.63 502.783 1531.91 485.917C1537.19 469.051 1544.87 454.828 1554.93 443.249C1565.25 431.418 1577.83 422.481 1592.67 416.44C1607.76 410.147 1624.87 407 1643.99 407ZM1643.99 676.224C1659.09 676.224 1672.67 673.077 1684.75 666.784C1696.83 660.491 1707.14 651.68 1715.7 640.353C1724.25 628.773 1730.79 614.802 1735.32 598.44C1739.85 582.077 1742.11 563.701 1742.11 543.311C1742.11 523.173 1739.72 504.923 1734.94 488.56C1730.41 472.198 1723.87 458.227 1715.32 446.647C1707.02 435.068 1696.83 426.257 1684.75 420.216C1672.67 413.923 1659.09 410.776 1643.99 410.776C1628.9 410.776 1615.31 413.923 1603.24 420.216C1591.16 426.509 1580.85 435.445 1572.29 447.025C1563.74 458.353 1557.2 472.198 1552.67 488.56C1548.14 504.923 1545.87 523.299 1545.87 543.689C1545.87 559.296 1547.51 575.029 1550.78 590.888C1554.05 606.495 1559.46 620.718 1567.01 633.556C1574.81 646.142 1585 656.463 1597.58 664.519C1610.15 672.322 1625.63 676.224 1643.99 676.224Z" fill="#524827"/>
</svg>
