<svg width="1803" height="915" viewBox="0 0 1803 915" fill="none" xmlns="http://www.w3.org/2000/svg">
<g opacity="0.9">
<path d="M301.314 408.494V404.801H242.367V408.494H252.314C261.156 408.494 267.419 414.772 267.419 423.266C267.419 424.743 267.051 426.22 266.682 428.066L210.683 624.531L142.894 421.05C142.157 419.573 142.157 418.095 142.157 416.618C142.157 411.448 146.21 408.494 152.842 408.494H170.526V404.801H95V408.494H103.474C113.052 408.494 118.947 412.556 121.894 421.05L203.315 666.631L270.735 428.066C274.419 415.141 282.893 408.494 296.156 408.494H301.314Z" fill="#D3CEBC"/>
<path d="M468.886 662.199V549.564H465.202V616.407C465.202 641.149 447.886 658.506 423.939 658.506H360.203V422.527C360.203 413.664 365.729 408.494 374.203 408.494H398.887V404.801H312.309V408.494H326.309C334.045 408.494 339.94 413.664 339.94 422.527V644.473C339.94 653.336 334.045 658.506 326.309 658.506H312.309V662.199H468.886Z" fill="#D3CEBC"/>
<path d="M699.544 658.506H689.965C681.123 658.506 675.597 655.183 673.386 648.166L592.703 404.801H538.546V408.494H563.598C569.861 408.494 574.282 411.817 574.282 418.095C574.282 419.573 573.914 421.05 573.545 422.896L512.756 638.564C509.072 651.859 500.599 658.506 489.546 658.506H479.967V662.199H538.914V658.506H529.704C521.598 658.506 515.704 652.967 515.704 644.842C515.704 642.996 515.704 641.149 516.441 638.934L534.125 576.154H628.439L652.018 647.427C652.387 648.535 652.387 649.643 652.387 650.382C652.387 655.183 648.702 658.506 642.808 658.506H624.018V662.199H699.544V658.506ZM626.966 572.461H535.23L577.598 424.004L626.966 572.461Z" fill="#D3CEBC"/>
<path d="M792.377 496.755C788.324 495.278 782.429 494.17 775.061 491.954L745.588 483.091C726.798 475.705 719.798 467.212 719.798 452.809C719.798 424.373 745.956 403.693 785.745 403.693C832.902 403.693 853.902 435.452 853.902 473.12V494.17H857.586V404.801H853.902V413.295C853.902 418.834 851.692 421.788 846.902 421.788C843.587 421.788 839.902 420.311 836.587 416.988C824.429 405.539 807.113 400 785.377 400C738.588 400 713.904 422.896 713.904 462.411C714.272 493.432 740.061 504.88 758.851 510.05L788.692 518.174C839.166 531.838 864.218 558.797 864.218 595.726C864.218 635.979 836.587 662.938 792.377 662.938C741.167 662.938 716.114 628.593 716.114 566.921V549.564H712.43V662.199H716.114V647.058C716.114 641.519 718.693 638.934 723.482 638.934C726.798 638.934 730.114 640.411 733.061 643.734C746.693 659.245 766.956 667 793.113 667C840.639 667 869.744 638.934 869.744 588.71C869.744 522.237 823.324 505.988 792.377 496.755Z" fill="#D3CEBC"/>
<path d="M1055.76 549.564H1052.08V616.407C1052.08 640.041 1035.13 658.506 1011.55 658.506H928.659V502.295H1017.08V498.602H928.659V408.494H1005.66C1024.82 408.494 1039.18 422.527 1039.18 442.1V494.17H1042.87V404.801H880.765V408.494H894.765C902.502 408.494 908.396 414.033 908.396 421.788V645.212C908.396 652.967 902.502 658.506 894.765 658.506H880.765V662.199H1055.76V549.564Z" fill="#D3CEBC"/>
<path d="M1276.77 404.801H1217.82V408.494H1226.67C1237.35 408.494 1245.45 416.249 1245.45 428.066V622.685L1112.09 404.801H1066.77V408.494H1080.77C1088.51 408.494 1094.4 414.033 1094.4 421.05V638.934C1094.4 650.751 1086.3 658.506 1075.61 658.506H1066.77V662.199H1125.72V658.506H1116.88C1106.19 658.506 1098.09 650.751 1098.09 638.934V421.05L1249.14 667V428.066C1249.14 416.249 1257.24 408.494 1267.93 408.494H1276.77V404.801Z" fill="#D3CEBC"/>
<path d="M1495.83 658.506H1486.26C1475.94 658.506 1471.52 655.552 1465.62 646.319L1362.84 488.631L1435.78 422.158C1445.73 412.925 1456.41 408.494 1467.84 408.494H1475.2V404.801H1405.57V408.494H1419.2C1426.94 408.494 1430.62 412.925 1430.62 417.357C1430.62 420.311 1429.52 423.266 1426.57 425.481L1346.63 498.602H1335.57V421.788C1335.57 414.033 1341.47 408.494 1349.2 408.494H1363.2V404.801H1287.68V408.494H1301.68C1309.42 408.494 1315.31 414.033 1315.31 421.788V645.212C1315.31 652.967 1309.42 658.506 1301.68 658.506H1287.68V662.199H1363.2V658.506H1349.2C1341.47 658.506 1335.57 652.967 1335.57 645.212V502.295H1346.99L1444.62 651.49C1445.73 653.336 1446.1 654.813 1446.1 655.921C1446.1 657.768 1444.62 658.506 1441.31 658.506H1420.31V662.199H1495.83V658.506Z" fill="#D3CEBC"/>
<path d="M1590.84 400C1516.05 400 1473.69 449.116 1473.69 533.685C1473.69 618.253 1516.79 667 1590.84 667C1665.63 667 1708 617.884 1708 533.315C1708 448.747 1664.9 400 1590.84 400ZM1520.84 628.593C1503.53 605.328 1495.05 573.568 1495.05 533.685C1495.05 454.286 1531.9 403.693 1590.84 403.693C1649.42 403.693 1686.63 454.286 1686.63 533.315C1686.63 612.714 1649.79 663.307 1590.84 663.307C1561.37 663.307 1538.16 651.859 1520.84 628.593Z" fill="#D3CEBC"/>
</g>
<path opacity="0.9" fill-rule="evenodd" clip-rule="evenodd" d="M558.392 377.553C576.349 377.553 592.51 367.456 602.566 352.131L604.182 353.213C593.588 369.259 576.888 379.356 558.392 379.356C524.633 379.356 501.289 352.311 501.289 314.268C501.289 276.225 524.812 249 558.392 249C570.603 249 581.915 253.327 592.331 261.801C593.767 263.063 595.204 263.785 596.64 263.785C598.615 263.785 599.693 262.522 599.693 259.818V251.344H601.489V294.976H599.693V292.272C599.513 263.785 580.479 250.803 560.008 250.803C531.456 250.803 511.704 276.225 511.704 314.268C511.704 349.967 530.199 377.553 558.392 377.553ZM394.255 253.147V251.344H372.707L329.61 361.326L284.359 251.344H262.271V253.147H269.095C272.866 253.147 275.739 255.671 275.739 259.998V365.293C275.739 371.603 271.789 375.209 266.581 375.209H262.271V377.012H291.003V375.209H286.693C281.485 375.209 277.535 371.603 277.535 365.293V260.539L325.121 377.193L370.911 260.719V368.178C370.911 372.505 368.038 375.209 364.267 375.209H357.443V377.012H394.255V375.209H387.432C383.661 375.209 380.788 372.505 380.788 368.178V259.818C380.788 255.671 383.661 253.147 387.432 253.147H394.255ZM506.603 375.209H501.934C497.624 375.209 494.931 373.587 493.853 370.161L454.528 251.344H428.131V253.147H440.342C443.394 253.147 445.549 254.77 445.549 257.835C445.549 258.432 445.426 259.029 445.282 259.729L445.282 259.729L445.281 259.729C445.252 259.874 445.221 260.024 445.19 260.179L415.561 365.473C413.765 371.964 409.635 375.209 404.248 375.209H399.579V377.012H428.31V375.209H423.821C419.871 375.209 416.997 372.505 416.997 368.538C416.997 367.637 416.997 366.735 417.357 365.653L425.976 335.003H471.946L483.438 369.8C483.618 370.341 483.618 370.882 483.618 371.243C483.618 373.587 481.822 375.209 478.949 375.209H469.791V377.012H506.603V375.209ZM471.228 333.2H426.515L447.165 260.719L471.228 333.2ZM692.089 251.344H610.384V294.976H612.18V269.915C612.18 260.359 619.004 253.147 628.162 253.147H646.298V368.358C646.298 372.505 643.605 375.209 639.475 375.209H627.443V377.012H675.029V375.209H662.998C658.868 375.209 656.175 372.505 656.175 368.358V253.147H673.952C683.29 253.147 690.293 260.179 690.293 269.554V294.976H692.089V251.344ZM781.894 322.021H783.69V377.012H698.395V375.209H705.218C708.989 375.209 711.862 372.505 711.862 368.719V259.638C711.862 255.851 708.989 253.147 705.218 253.147H698.395V251.344H777.405V294.976H775.61V269.554C775.61 259.998 768.606 253.147 759.269 253.147H721.739V297.14H764.835V298.943H721.739V375.209H762.142C773.634 375.209 781.894 366.194 781.894 354.655V322.021ZM789.056 251.344V253.147H795.88C800.369 253.147 802.524 255.31 802.524 259.638V368.538C802.524 373.587 800.728 375.209 795.88 375.209H789.056V377.012H825.868V375.209H819.044C815.273 375.209 812.4 372.685 812.4 368.538V298.943H832.512C858.191 298.943 868.785 292.272 868.785 275.143C868.785 258.015 858.191 251.344 832.512 251.344H789.056ZM812.4 297.14V253.147H832.512C851.008 253.147 858.37 259.277 858.37 275.143C858.37 291.01 851.008 297.14 832.512 297.14H812.4ZM1012.72 365.473C1010.94 371.73 1006.86 374.974 1000.49 375.028C997.255 374.521 995.411 372.878 993.105 369.259L943.005 292.272L978.56 259.818C983.408 255.31 988.616 253.147 994.182 253.147H997.774V251.344H963.835V253.147H970.479C974.25 253.147 976.046 255.31 976.046 257.474C976.046 258.916 975.507 260.359 974.071 261.441L935.104 297.14H929.717V259.638C929.717 255.851 932.59 253.147 936.361 253.147H943.185V251.344H906.373V253.147H913.196C916.967 253.147 919.84 255.851 919.84 259.638V368.719C919.84 372.505 916.967 375.209 913.196 375.209H906.373V377.012H943.185V375.209H936.361C932.59 375.209 929.717 372.505 929.717 368.719V298.943H935.284L982.87 371.784C983.408 372.685 983.588 373.406 983.588 373.947C983.588 374.849 982.869 375.209 981.253 375.209H971.018V377.012H1007.83V376.832H1026.55V375.029H1021.7C1017.39 375.029 1014.34 371.964 1014.34 367.817C1014.34 367.219 1014.46 366.622 1014.6 365.922C1014.63 365.777 1014.66 365.628 1014.69 365.473L1041.99 269.554L1075.03 368.899C1075.39 369.62 1075.39 370.341 1075.39 371.062C1075.39 373.587 1073.41 375.029 1070.18 375.029H1061.56V376.832H1090.33V377.012H1119.06V375.209H1114.57C1110.62 375.209 1107.74 372.505 1107.74 368.538V368.538C1107.74 367.636 1107.74 366.735 1108.1 365.653L1116.72 335.003H1162.69L1174.19 369.8C1174.37 370.341 1174.37 370.882 1174.37 371.243C1174.37 373.587 1172.57 375.209 1169.7 375.209H1160.54V377.012H1197.35V375.209H1192.68C1188.37 375.209 1185.68 373.587 1184.6 370.161L1145.27 251.344H1118.88V253.147H1131.09C1134.14 253.147 1136.3 254.77 1136.3 257.835C1136.3 258.432 1136.17 259.029 1136.03 259.729L1136.03 259.731L1136.03 259.736L1136 259.878L1135.98 259.973C1135.96 260.041 1135.95 260.109 1135.94 260.179L1106.31 365.473C1104.76 371.081 1101.46 374.266 1097.12 375.029H1094.24C1089.58 375.029 1086.7 373.046 1085.27 368.899L1045.58 249L1012.72 365.473ZM1161.97 333.2H1117.26L1137.91 260.719L1161.97 333.2ZM1249.14 377.553C1267.1 377.553 1283.26 367.456 1293.31 352.131L1294.93 353.213C1284.33 369.259 1267.63 379.356 1249.14 379.356C1215.38 379.356 1192.04 352.311 1192.04 314.268C1192.04 276.225 1215.56 249 1249.14 249C1261.35 249 1272.66 253.327 1283.08 261.801C1284.51 263.063 1285.95 263.785 1287.39 263.785C1289.36 263.785 1290.44 262.522 1290.44 259.818V251.344H1292.24V294.976H1290.44V292.272C1290.26 263.785 1271.23 250.803 1250.76 250.803C1222.2 250.803 1202.45 276.225 1202.45 314.268C1202.45 349.967 1220.95 377.553 1249.14 377.553ZM1401.51 352.131C1391.46 367.456 1375.29 377.553 1357.34 377.553C1329.14 377.553 1310.65 349.967 1310.65 314.268C1310.65 276.225 1330.4 250.803 1358.95 250.803C1379.42 250.803 1398.46 263.785 1398.64 292.272V294.976H1400.43V251.344H1398.64V259.818C1398.64 262.522 1397.56 263.785 1395.59 263.785C1394.15 263.785 1392.71 263.063 1391.28 261.801C1380.86 253.327 1369.55 249 1357.34 249C1323.76 249 1300.23 276.225 1300.23 314.268C1300.23 352.311 1323.58 379.356 1357.34 379.356C1375.83 379.356 1392.53 369.259 1403.13 353.213L1401.51 352.131ZM1541.95 253.784V251.985H1505.13V253.784H1511.96C1515.73 253.784 1521.59 256.482 1521.59 260.26V369.091C1521.59 372.869 1515.73 375.567 1511.96 375.567H1505.13V377.366H1541.95V375.567H1535.13C1531.35 375.567 1524.5 372.869 1524.5 369.091V260.26C1524.5 256.482 1531.35 253.784 1535.13 253.784H1541.95ZM1422.54 377.366V375.567H1429.44C1433.98 375.567 1436.16 373.409 1436.16 369.091L1436.16 260.44C1436.16 255.403 1434.34 253.784 1429.44 253.784L1422.54 253.784V251.985L1459.76 251.985V253.784L1452.86 253.784C1449.04 253.784 1446.14 256.303 1446.14 260.44V329.876L1466.47 329.876C1492.43 329.876 1503.14 336.532 1503.14 353.621C1503.14 370.71 1492.43 377.366 1466.47 377.366H1422.54ZM1446.14 331.675V375.567L1466.47 375.567C1485.17 375.567 1492.61 369.451 1492.61 353.621C1492.61 337.791 1485.17 331.675 1466.47 331.675H1446.14Z" fill="#E8E6E1"/>
</svg>
