<svg width="848" height="130" viewBox="0 0 848 130" fill="none" xmlns="http://www.w3.org/2000/svg">
<path d="M0 2.33749V4.13555H6.86451C11.3806 4.13555 13.5484 6.29323 13.5484 10.6086V119.212C13.5484 124.246 11.7419 125.864 6.86451 125.864H0V127.663H37.0322V125.864H30.1677C26.3742 125.864 23.4839 123.347 23.4839 119.212V49.8064H43.7161C69.5483 49.8064 80.2064 43.1535 80.2064 26.0719C80.2064 8.99032 69.5483 2.33749 43.7161 2.33749H0ZM23.4839 48.0083V4.13555H43.7161C62.3225 4.13555 69.729 10.249 69.729 26.0719C69.729 41.8949 62.3225 48.0083 43.7161 48.0083H23.4839Z" fill="black"/>
<path d="M165.897 72.8216H164.091V105.367C164.091 116.874 155.781 125.864 144.22 125.864H103.575V49.8064H146.929V48.0083H103.575V4.13555H141.329C150.723 4.13555 157.768 10.9682 157.768 20.4979V45.8506H159.574V2.33749H80.0907V4.13555H86.9552C90.7487 4.13555 93.639 6.83264 93.639 10.6086V119.391C93.639 123.167 90.7487 125.864 86.9552 125.864H80.0907V127.663H165.897V72.8216Z" fill="black"/>
<path d="M273.179 102.849C263.063 118.133 246.805 128.202 228.74 128.202C200.379 128.202 181.773 100.692 181.773 65.0899C181.773 27.1508 201.644 1.79806 230.366 1.79806C250.96 1.79806 270.108 14.7441 270.289 43.1535V45.8506H272.095V2.33749H270.289V10.7884C270.289 13.4855 269.205 14.7441 267.218 14.7441C265.773 14.7441 264.327 14.0249 262.882 12.7663C252.405 4.31536 241.024 0 228.74 0C194.96 0 171.295 27.1508 171.295 65.0899C171.295 103.029 194.779 130 228.74 130C247.347 130 264.147 119.931 274.805 103.928L273.179 102.849Z" fill="black"/>
<path d="M363.238 2.33749H281.044V45.8506H282.851V20.8575C282.851 11.3278 289.715 4.13555 298.928 4.13555H317.173V119.032C317.173 123.167 314.463 125.864 310.309 125.864H298.205V127.663H346.076V125.864H333.973C329.818 125.864 327.109 123.167 327.109 119.032V4.13555H344.992C354.386 4.13555 361.431 11.148 361.431 20.4979V45.8506H363.238V2.33749Z" fill="black"/>
<path d="M427.027 0C390.356 0 369.581 23.9142 369.581 65.0899C369.581 106.266 390.717 130 427.027 130C463.697 130 484.472 106.086 484.472 64.9101C484.472 23.7345 463.336 0 427.027 0ZM392.704 111.3C384.214 99.9723 380.059 84.509 380.059 65.0899C380.059 26.4315 398.123 1.79806 427.027 1.79806C455.749 1.79806 473.994 26.4315 473.994 64.9101C473.994 103.568 455.93 128.202 427.027 128.202C412.575 128.202 401.194 122.628 392.704 111.3Z" fill="black"/>
<path d="M486.366 2.33749V4.13555H493.23C497.746 4.13555 499.914 6.29323 499.914 10.6086V119.212C499.914 124.246 498.108 125.864 493.23 125.864H486.366V127.663H523.398V125.864H516.533C512.74 125.864 509.849 123.347 509.849 119.212V49.8064H530.082C555.914 49.8064 566.572 43.1535 566.572 26.0719C566.572 8.99032 555.914 2.33749 530.082 2.33749H486.366ZM509.849 48.0083V4.13555H530.082C548.688 4.13555 556.095 10.249 556.095 26.0719C556.095 41.8949 548.688 48.0083 530.082 48.0083H509.849Z" fill="black"/>
<path d="M659.655 125.864H654.958C650.623 125.864 647.913 124.246 646.829 120.83L607.268 2.33749H580.713V4.13555H592.997C596.068 4.13555 598.236 5.75381 598.236 8.81052C598.236 9.52975 598.055 10.249 597.874 11.148L568.068 116.155C566.261 122.628 562.107 125.864 556.687 125.864H551.991V127.663H580.894V125.864H576.378C572.403 125.864 569.513 123.167 569.513 119.212C569.513 118.313 569.513 117.414 569.874 116.335L578.545 85.7676H624.79L636.352 120.47C636.532 121.01 636.532 121.549 636.532 121.909C636.532 124.246 634.726 125.864 631.836 125.864H622.623V127.663H659.655V125.864ZM624.068 83.9696H579.087L599.861 11.6874L624.068 83.9696Z" fill="black"/>
<path d="M765.328 4.13555V2.33749H728.296V4.13555H735.16C738.954 4.13555 741.844 6.83264 741.844 10.6086V48.0083H688.554V10.6086C688.554 6.83264 691.444 4.13555 695.238 4.13555H702.102V2.33749H665.07V4.13555H671.935C675.728 4.13555 678.618 6.83264 678.618 10.6086V119.391C678.618 123.167 675.728 125.864 671.935 125.864H665.07V127.663H702.102V125.864H695.238C691.444 125.864 688.554 123.167 688.554 119.391V49.8064H741.844V119.391C741.844 123.167 738.954 125.864 735.16 125.864H728.296V127.663H765.328V125.864H758.464C754.67 125.864 751.78 123.167 751.78 119.391V10.6086C751.78 6.83264 754.67 4.13555 758.464 4.13555H765.328Z" fill="black"/>
<path d="M848 2.33749L846.374 1.79806L803.2 127.663L804.826 128.202L848 2.33749Z" fill="black"/>
</svg>
