<svg width="847" height="81" viewBox="0 0 847 81" fill="none" xmlns="http://www.w3.org/2000/svg">
<path d="M77.32 3.43C76.1467 3.43 75.1567 3.79666 74.35 4.52999C73.6167 5.26333 73.25 6.25333 73.25 7.5V73.61C73.25 74.93 73.6167 75.9933 74.35 76.8C75.1567 77.5333 76.1467 77.9 77.32 77.9H81.5V79H58.95V77.9H63.13C64.3033 77.9 65.2567 77.5333 65.99 76.8C66.7967 75.9933 67.2 74.93 67.2 73.61V8.05L39.15 79.11L10 7.94V71.85C10 73.7567 10.5133 75.26 11.54 76.36C12.64 77.3867 13.9967 77.9 15.61 77.9H18.25V79H0.65V77.9H3.29C4.90333 77.9 6.22333 77.3867 7.25 76.36C8.35 75.26 8.9 73.7567 8.9 71.85V7.60999C8.9 6.28999 8.49667 5.26333 7.69 4.52999C6.95667 3.79666 6.00333 3.43 4.83 3.43H0.65V2.33H14.18L41.9 69.43L68.3 2.33H81.5V3.43H77.32ZM140.311 79H88.0613V77.9H92.2413C93.4147 77.9 94.368 77.5333 95.1013 76.8C95.908 76.0667 96.3113 75.1133 96.3113 73.94V7.39C96.3113 6.21666 95.908 5.26333 95.1013 4.52999C94.368 3.79666 93.4147 3.43 92.2413 3.43H88.0613V2.33H136.461V28.95H135.361V13.44C135.361 10.5067 134.408 8.12333 132.501 6.29C130.595 4.38333 128.211 3.43 125.351 3.43H102.361V30.27H128.761V31.37H102.361V77.9H127.111C128.871 77.9 130.485 77.57 131.951 76.91C133.418 76.25 134.701 75.37 135.801 74.27C136.901 73.17 137.745 71.85 138.331 70.31C138.918 68.77 139.211 67.12 139.211 65.36V45.45H140.311V79ZM203.768 3.43C202.595 3.43 201.605 3.79666 200.798 4.52999C200.065 5.26333 199.698 6.21666 199.698 7.39V73.94C199.698 75.1133 200.065 76.0667 200.798 76.8C201.605 77.5333 202.595 77.9 203.768 77.9H207.948V79H185.398V77.9H189.578C190.752 77.9 191.705 77.5333 192.438 76.8C193.245 76.0667 193.648 75.1133 193.648 73.94V31.37H161.198V73.94C161.198 75.1133 161.565 76.0667 162.298 76.8C163.105 77.5333 164.095 77.9 165.268 77.9H169.448V79H146.898V77.9H151.078C152.252 77.9 153.205 77.5333 153.938 76.8C154.745 76.0667 155.148 75.1133 155.148 73.94V7.39C155.148 6.21666 154.745 5.26333 153.938 4.52999C153.205 3.79666 152.252 3.43 151.078 3.43H146.898V2.33H169.448V3.43H165.268C164.095 3.43 163.105 3.79666 162.298 4.52999C161.565 5.26333 161.198 6.21666 161.198 7.39V30.27H193.648V7.39C193.648 6.21666 193.245 5.26333 192.438 4.52999C191.705 3.79666 190.752 3.43 189.578 3.43H185.398V2.33H207.948V3.43H203.768ZM270.974 0.899996C282.121 0.899996 290.737 4.34666 296.824 11.24C302.911 18.1333 305.954 27.9233 305.954 40.61C305.954 46.9167 305.184 52.5267 303.644 57.44C302.104 62.3533 299.831 66.5333 296.824 69.98C293.891 73.3533 290.224 75.9567 285.824 77.79C281.497 79.55 276.547 80.43 270.974 80.43C259.827 80.43 251.211 76.9833 245.124 70.09C239.037 63.1967 235.994 53.4067 235.994 40.72C235.994 34.4133 236.764 28.8033 238.304 23.89C239.844 18.9767 242.081 14.8333 245.014 11.46C248.021 8.01333 251.687 5.41 256.014 3.64999C260.414 1.81666 265.401 0.899996 270.974 0.899996ZM270.974 79.33C275.374 79.33 279.334 78.4133 282.854 76.58C286.374 74.7467 289.381 72.18 291.874 68.88C294.367 65.5067 296.274 61.4367 297.594 56.67C298.914 51.9033 299.574 46.55 299.574 40.61C299.574 34.7433 298.877 29.4267 297.484 24.66C296.164 19.8933 294.257 15.8233 291.764 12.45C289.344 9.07666 286.374 6.51 282.854 4.75C279.334 2.91666 275.374 1.99999 270.974 1.99999C266.574 1.99999 262.614 2.91666 259.094 4.75C255.574 6.58333 252.567 9.18666 250.074 12.56C247.581 15.86 245.674 19.8933 244.354 24.66C243.034 29.4267 242.374 34.78 242.374 40.72C242.374 45.2667 242.851 49.85 243.804 54.47C244.757 59.0167 246.334 63.16 248.534 66.9C250.807 70.5667 253.777 73.5733 257.444 75.92C261.111 78.1933 265.621 79.33 270.974 79.33ZM230.714 3.43C229.541 3.43 228.367 3.79666 227.194 4.52999C226.094 5.26333 225.544 6.21666 225.544 7.39V41.6H235.994V42.26H225.544V73.94C225.544 75.1133 226.094 76.0667 227.194 76.8C228.367 77.5333 229.541 77.9 230.714 77.9H234.894V79H212.344V77.9H216.524C217.697 77.9 218.834 77.5333 219.934 76.8C221.107 76.0667 221.694 75.1133 221.694 73.94V7.39C221.694 6.21666 221.107 5.26333 219.934 4.52999C218.834 3.79666 217.697 3.43 216.524 3.43H212.344V2.33H234.894V3.43H230.714ZM365.477 2.33C373.324 2.33 378.97 3.46666 382.417 5.74C385.937 7.94 387.697 11.6433 387.697 16.85C387.697 22.0567 385.937 25.7967 382.417 28.07C378.97 30.27 373.324 31.37 365.477 31.37H353.157V73.83C353.157 75.0767 353.524 76.0667 354.257 76.8C355.064 77.5333 356.054 77.9 357.227 77.9H361.407V79H338.857V77.9H343.037C344.504 77.9 345.53 77.6067 346.117 77.02C346.777 76.4333 347.107 75.37 347.107 73.83V7.39C347.107 4.75 345.75 3.43 343.037 3.43H338.857V2.33H365.477ZM365.477 30.27C371.197 30.27 375.267 29.2433 377.687 27.19C380.107 25.1367 381.317 21.69 381.317 16.85C381.317 12.01 380.107 8.56333 377.687 6.51C375.267 4.45666 371.197 3.43 365.477 3.43H353.157V30.27H365.477ZM446.507 79H394.257V77.9H398.437C399.61 77.9 400.563 77.5333 401.297 76.8C402.103 76.0667 402.507 75.1133 402.507 73.94V7.39C402.507 6.21666 402.103 5.26333 401.297 4.52999C400.563 3.79666 399.61 3.43 398.437 3.43H394.257V2.33H442.657V28.95H441.557V13.44C441.557 10.5067 440.603 8.12333 438.697 6.29C436.79 4.38333 434.407 3.43 431.547 3.43H408.557V30.27H434.957V31.37H408.557V77.9H433.307C435.067 77.9 436.68 77.57 438.147 76.91C439.613 76.25 440.897 75.37 441.997 74.27C443.097 73.17 443.94 71.85 444.527 70.31C445.113 68.77 445.407 67.12 445.407 65.36V45.45H446.507V79ZM516.124 64.48C512.824 69.3933 508.754 73.28 503.914 76.14C499.074 79 493.794 80.43 488.074 80.43C482.94 80.43 478.21 79.4767 473.884 77.57C469.63 75.59 465.964 72.84 462.884 69.32C459.804 65.8 457.384 61.62 455.624 56.78C453.937 51.8667 453.094 46.5133 453.094 40.72C453.094 34.9267 453.937 29.61 455.624 24.77C457.384 19.8567 459.804 15.64 462.884 12.12C465.964 8.6 469.63 5.85 473.884 3.87C478.21 1.89 482.94 0.899996 488.074 0.899996C495.48 0.899996 502.41 3.50333 508.864 8.70999C509.817 9.51666 510.697 9.92 511.504 9.92C512.75 9.92 513.374 9.11333 513.374 7.5V2.33H514.474V28.95H513.374V27.3C513.374 22.9733 512.677 19.2333 511.284 16.08C509.964 12.8533 508.167 10.2133 505.894 8.15999C503.62 6.03333 501.017 4.49333 498.084 3.53999C495.224 2.51333 492.217 1.99999 489.064 1.99999C484.664 1.99999 480.63 2.95333 476.964 4.86C473.37 6.69333 470.254 9.29666 467.614 12.67C465.047 16.0433 463.03 20.1133 461.564 24.88C460.17 29.6467 459.474 34.9267 459.474 40.72C459.474 46.1467 460.134 51.2067 461.454 55.9C462.847 60.5933 464.79 64.7 467.284 68.22C469.777 71.6667 472.784 74.38 476.304 76.36C479.824 78.34 483.747 79.33 488.074 79.33C493.574 79.33 498.67 77.9367 503.364 75.15C508.13 72.29 512.054 68.5133 515.134 63.82L516.124 64.48ZM573.273 28.95H572.173V13.44C572.173 10.58 571.22 8.19666 569.313 6.29C567.406 4.38333 565.023 3.43 562.163 3.43H551.273V73.72C551.273 74.9667 551.64 75.9933 552.373 76.8C553.18 77.5333 554.206 77.9 555.453 77.9H562.823V79H533.673V77.9H541.043C542.29 77.9 543.28 77.5333 544.013 76.8C544.82 75.9933 545.223 74.9667 545.223 73.72V3.43H534.113C531.326 3.43 528.98 4.42 527.073 6.4C525.24 8.30667 524.323 10.7267 524.323 13.66V28.95H523.223V2.33H573.273V28.95ZM616.956 0.899996C628.103 0.899996 636.719 4.34666 642.806 11.24C648.893 18.1333 651.936 27.9233 651.936 40.61C651.936 46.9167 651.166 52.5267 649.626 57.44C648.086 62.3533 645.813 66.5333 642.806 69.98C639.873 73.3533 636.206 75.9567 631.806 77.79C627.479 79.55 622.529 80.43 616.956 80.43C605.809 80.43 597.193 76.9833 591.106 70.09C585.019 63.1967 581.976 53.4067 581.976 40.72C581.976 34.4133 582.746 28.8033 584.286 23.89C585.826 18.9767 588.063 14.8333 590.996 11.46C594.003 8.01333 597.669 5.41 601.996 3.64999C606.396 1.81666 611.383 0.899996 616.956 0.899996ZM616.956 79.33C621.356 79.33 625.316 78.4133 628.836 76.58C632.356 74.7467 635.363 72.18 637.856 68.88C640.349 65.5067 642.256 61.4367 643.576 56.67C644.896 51.9033 645.556 46.55 645.556 40.61C645.556 34.7433 644.859 29.4267 643.466 24.66C642.146 19.8933 640.239 15.8233 637.746 12.45C635.326 9.07666 632.356 6.51 628.836 4.75C625.316 2.91666 621.356 1.99999 616.956 1.99999C612.556 1.99999 608.596 2.91666 605.076 4.75C601.556 6.58333 598.549 9.18666 596.056 12.56C593.563 15.86 591.656 19.8933 590.336 24.66C589.016 29.4267 588.356 34.78 588.356 40.72C588.356 45.2667 588.833 49.85 589.786 54.47C590.739 59.0167 592.316 63.16 594.516 66.9C596.789 70.5667 599.759 73.5733 603.426 75.92C607.093 78.1933 611.603 79.33 616.956 79.33ZM684.907 2.33C692.753 2.33 698.4 3.46666 701.847 5.74C705.367 7.94 707.127 11.6433 707.127 16.85C707.127 22.0567 705.367 25.7967 701.847 28.07C698.4 30.27 692.753 31.37 684.907 31.37H672.587V73.83C672.587 75.0767 672.953 76.0667 673.687 76.8C674.493 77.5333 675.483 77.9 676.657 77.9H680.837V79H658.287V77.9H662.467C663.933 77.9 664.96 77.6067 665.547 77.02C666.207 76.4333 666.537 75.37 666.537 73.83V7.39C666.537 4.75 665.18 3.43 662.467 3.43H658.287V2.33H684.907ZM684.907 30.27C690.627 30.27 694.697 29.2433 697.117 27.19C699.537 25.1367 700.747 21.69 700.747 16.85C700.747 12.01 699.537 8.56333 697.117 6.51C694.697 4.45666 690.627 3.43 684.907 3.43H672.587V30.27H684.907ZM770.556 3.43C769.383 3.43 768.393 3.79666 767.586 4.52999C766.853 5.26333 766.486 6.21666 766.486 7.39V73.94C766.486 75.1133 766.853 76.0667 767.586 76.8C768.393 77.5333 769.383 77.9 770.556 77.9H774.736V79H752.186V77.9H756.366C757.54 77.9 758.493 77.5333 759.226 76.8C760.033 76.0667 760.436 75.1133 760.436 73.94V31.37H727.986V73.94C727.986 75.1133 728.353 76.0667 729.086 76.8C729.893 77.5333 730.883 77.9 732.056 77.9H736.236V79H713.686V77.9H717.866C719.04 77.9 719.993 77.5333 720.726 76.8C721.533 76.0667 721.936 75.1133 721.936 73.94V7.39C721.936 6.21666 721.533 5.26333 720.726 4.52999C719.993 3.79666 719.04 3.43 717.866 3.43H713.686V2.33H736.236V3.43H732.056C730.883 3.43 729.893 3.79666 729.086 4.52999C728.353 5.26333 727.986 6.21666 727.986 7.39V30.27H760.436V7.39C760.436 6.21666 760.033 5.26333 759.226 4.52999C758.493 3.79666 757.54 3.43 756.366 3.43H752.186V2.33H774.736V3.43H770.556ZM846.672 79H824.122V77.9H829.732C831.639 77.9 832.592 77.0933 832.592 75.48C832.592 75.1133 832.555 74.82 832.482 74.6L825.442 53.37H797.282L792.002 72.07C791.855 72.4367 791.782 72.7667 791.782 73.06C791.782 73.28 791.782 73.5367 791.782 73.83C791.782 75.0767 792.149 76.0667 792.882 76.8C793.689 77.5333 794.715 77.9 795.962 77.9H798.712V79H781.112V77.9H783.972C785.659 77.9 787.089 77.4233 788.262 76.47C789.435 75.4433 790.315 73.94 790.902 71.96L809.052 7.72C809.125 7.42667 809.162 7.17 809.162 6.95C809.235 6.73 809.272 6.51 809.272 6.29C809.272 5.33666 808.979 4.64 808.392 4.2C807.805 3.68666 807.035 3.43 806.082 3.43H798.602V2.33H814.772L838.862 74.82C839.522 76.8733 841.172 77.9 843.812 77.9H846.672V79ZM810.262 8.05L797.612 52.27H825.002L810.262 8.05Z" fill="black"/>
</svg>
