<svg width="601" height="250" viewBox="0 0 601 250" fill="none" xmlns="http://www.w3.org/2000/svg">
<path d="M111.72 3.496V1.976L93.48 1.976L57 94.696L18.696 1.976L0 1.976L0 3.496L5.776 3.496C8.968 3.496 11.4 5.624 11.4 9.272L11.4 98.04C11.4 103.36 8.056 106.4 3.648 106.4H0L0 107.92H24.32V106.4H20.672C16.264 106.4 12.92 103.36 12.92 98.04L12.92 9.728L53.2 108.072L91.96 9.88L91.96 100.472C91.96 104.12 89.528 106.4 86.336 106.4H80.56V107.92H111.72V106.4H105.944C102.752 106.4 100.32 104.12 100.32 100.472L100.32 9.12C100.32 5.624 102.752 3.496 105.944 3.496L111.72 3.496Z" fill="#9E9987"/>
<path d="M206.819 106.4H202.867C199.219 106.4 196.939 105.032 196.027 102.144L162.739 1.976L140.395 1.976V3.496L150.731 3.496C153.315 3.496 155.139 4.864 155.139 7.448C155.139 8.05601 154.987 8.664 154.835 9.42401L129.755 98.192C128.235 103.664 124.739 106.4 120.179 106.4H116.227V107.92L140.547 107.92V106.4H136.747C133.403 106.4 130.971 104.12 130.971 100.776C130.971 100.016 130.971 99.256 131.275 98.344L138.571 72.504H177.483L187.211 101.84C187.363 102.296 187.363 102.752 187.363 103.056C187.363 105.032 185.843 106.4 183.411 106.4H175.659V107.92H206.819V106.4ZM176.875 70.984H139.027L156.507 9.88L176.875 70.984Z" fill="#9E9987"/>
<path d="M288.048 86.944C279.536 99.864 265.856 108.376 250.656 108.376C226.792 108.376 211.136 85.12 211.136 55.024C211.136 22.952 227.856 1.52 252.024 1.52C269.352 1.52 285.464 12.464 285.616 36.48V38.76H287.136V1.976L285.616 1.976V9.12C285.616 11.4 284.704 12.464 283.032 12.464C281.816 12.464 280.6 11.856 279.384 10.792C270.568 3.648 260.992 0 250.656 0C222.232 0 202.32 22.952 202.32 55.024C202.32 87.096 222.08 109.896 250.656 109.896C266.312 109.896 280.448 101.384 289.416 87.856L288.048 86.944Z" fill="#9E9987"/>
<path d="M363.826 1.976L294.666 1.976V38.76H296.186V17.632C296.186 9.576 301.962 3.496 309.714 3.496L325.066 3.496V100.624C325.066 104.12 322.786 106.4 319.29 106.4L309.106 106.4V107.92L349.386 107.92V106.4H339.202C335.706 106.4 333.426 104.12 333.426 100.624V3.496L348.474 3.496C356.378 3.496 362.306 9.42401 362.306 17.328V38.76H363.826V1.976Z" fill="#9E9987"/>
<path d="M441.364 61.56H439.844V89.072C439.844 98.8 432.852 106.4 423.124 106.4L388.924 106.4V42.104L425.404 42.104V40.584L388.924 40.584V3.496L420.692 3.496C428.596 3.496 434.524 9.272 434.524 17.328V38.76H436.044V1.976L369.164 1.976V3.496L374.94 3.496C378.132 3.496 380.564 5.776 380.564 8.968V100.928C380.564 104.12 378.132 106.4 374.94 106.4H369.164V107.92L441.364 107.92V61.56Z" fill="#9E9987"/>
<path d="M445.906 1.976V3.496L451.682 3.496C455.482 3.496 457.306 5.32 457.306 8.968V100.776C457.306 105.032 455.786 106.4 451.682 106.4H445.906V107.92H477.066V106.4H471.29C468.098 106.4 465.666 104.272 465.666 100.776V42.104H482.69C504.426 42.104 513.394 36.48 513.394 22.04C513.394 7.6 504.426 1.976 482.69 1.976L445.906 1.976ZM465.666 40.584V3.496L482.69 3.496C498.346 3.496 504.578 8.664 504.578 22.04C504.578 35.416 498.346 40.584 482.69 40.584H465.666Z" fill="#9E9987"/>
<path d="M242.88 246.4H238.928C234.672 246.4 232.848 245.184 230.416 241.384L188.008 176.48L218.104 149.12C222.208 145.32 226.616 143.496 231.328 143.496H234.368V141.976H205.64V143.496H211.264C214.456 143.496 215.976 145.32 215.976 147.144C215.976 148.36 215.52 149.576 214.304 150.488L181.32 180.584H176.76V148.968C176.76 145.776 179.192 143.496 182.384 143.496H188.16V141.976H157V143.496H162.776C165.968 143.496 168.4 145.776 168.4 148.968L168.4 240.928C168.4 244.12 165.968 246.4 162.776 246.4H157V247.92H188.16V246.4H182.384C179.192 246.4 176.76 244.12 176.76 240.928L176.76 182.104H181.472L221.752 243.512C222.208 244.272 222.36 244.88 222.36 245.336C222.36 246.096 221.752 246.4 220.384 246.4H211.72V247.92H242.88V246.4Z" fill="#9E9987"/>
<path d="M426.303 246.4H422.351C418.703 246.4 416.423 245.032 415.511 242.144L382.223 141.976H359.879V143.496H370.215C372.799 143.496 374.623 144.864 374.623 147.448C374.623 148.056 374.471 148.664 374.319 149.424L349.239 238.192C347.719 243.664 344.223 246.4 339.663 246.4H335.711V247.92H360.031V246.4H356.231C352.887 246.4 350.455 244.12 350.455 240.776C350.455 240.016 350.455 239.256 350.759 238.344L358.055 212.504L396.967 212.504L406.695 241.84C406.847 242.296 406.847 242.752 406.847 243.056C406.847 245.032 405.327 246.4 402.895 246.4H395.143V247.92H426.303V246.4ZM396.359 210.984L358.511 210.984L375.991 149.88L396.359 210.984Z" fill="#9E9987"/>
<path d="M507.533 226.944C499.021 239.864 485.341 248.376 470.141 248.376C446.277 248.376 430.621 225.12 430.621 195.024C430.621 162.952 447.341 141.52 471.509 141.52C488.837 141.52 504.949 152.464 505.101 176.48V178.76H506.621V141.976H505.101V149.12C505.101 151.4 504.189 152.464 502.517 152.464C501.301 152.464 500.085 151.856 498.869 150.792C490.053 143.648 480.477 140 470.141 140C441.717 140 421.805 162.952 421.805 195.024C421.805 227.096 441.565 249.896 470.141 249.896C485.797 249.896 499.933 241.384 508.901 227.856L507.533 226.944Z" fill="#9E9987"/>
<path d="M599.119 226.944C590.607 239.864 576.927 248.376 561.727 248.376C537.863 248.376 522.207 225.12 522.207 195.024C522.207 162.952 538.927 141.52 563.095 141.52C580.423 141.52 596.535 152.464 596.687 176.48V178.76H598.207V141.976H596.687V149.12C596.687 151.4 595.775 152.464 594.103 152.464C592.887 152.464 591.671 151.856 590.455 150.792C581.639 143.648 572.063 140 561.727 140C533.303 140 513.391 162.952 513.391 195.024C513.391 227.096 533.151 249.896 561.727 249.896C577.383 249.896 591.519 241.384 600.487 227.856L599.119 226.944Z" fill="#9E9987"/>
<path d="M246.399 246.224L246.399 247.744L270.719 247.744L270.719 246.224L266.615 246.224C262.967 246.224 260.383 243.64 260.383 240.144C260.383 239.536 260.535 238.928 260.687 238.168L283.791 157.304L311.759 241.056C312.063 241.664 312.063 242.272 312.063 242.88C312.063 245.008 310.391 246.224 307.655 246.224L300.359 246.224L300.359 247.744L331.519 247.744L331.519 246.224L328.023 246.224C324.071 246.224 321.639 244.552 320.423 241.056L286.831 139.976L259.015 238.168C257.495 243.488 253.999 246.224 248.527 246.224L246.399 246.224Z" fill="#9E9987"/>
</svg>
