<svg width="582" height="261" viewBox="0 0 582 261" fill="none" xmlns="http://www.w3.org/2000/svg">
<path d="M114 14.576V13.056L95.76 13.056L59.28 105.776L20.976 13.056L2.28 13.056V14.576L8.056 14.576C11.248 14.576 13.68 16.704 13.68 20.352L13.68 109.12C13.68 114.44 10.336 117.48 5.928 117.48H2.28V119H26.6V117.48H22.952C18.544 117.48 15.2 114.44 15.2 109.12L15.2 20.808L55.48 119.152L94.24 20.96L94.24 111.552C94.24 115.2 91.808 117.48 88.616 117.48H82.84V119H114V117.48H108.224C105.032 117.48 102.6 115.2 102.6 111.552L102.6 20.2C102.6 16.704 105.032 14.576 108.224 14.576H114ZM209.099 117.48H205.147C201.499 117.48 199.219 116.112 198.307 113.224L165.019 13.056L142.675 13.056V14.576L153.011 14.576C155.595 14.576 157.419 15.944 157.419 18.528C157.419 19.136 157.267 19.744 157.115 20.504L132.035 109.272C130.515 114.744 127.019 117.48 122.459 117.48H118.507V119L142.827 119V117.48H139.027C135.683 117.48 133.251 115.2 133.251 111.856C133.251 111.096 133.251 110.336 133.555 109.424L140.851 83.584H179.763L189.491 112.92C189.643 113.376 189.643 113.832 189.643 114.136C189.643 116.112 188.123 117.48 185.691 117.48H177.939V119H209.099V117.48ZM179.155 82.064H141.307L158.787 20.96L179.155 82.064ZM290.328 98.024C281.816 110.944 268.136 119.456 252.936 119.456C229.072 119.456 213.416 96.2 213.416 66.104C213.416 34.032 230.136 12.6 254.304 12.6C271.632 12.6 287.744 23.544 287.896 47.56V49.84H289.416V13.056H287.896V20.2C287.896 22.48 286.984 23.544 285.312 23.544C284.096 23.544 282.88 22.936 281.664 21.872C272.848 14.728 263.272 11.08 252.936 11.08C224.512 11.08 204.6 34.032 204.6 66.104C204.6 98.176 224.36 120.976 252.936 120.976C268.592 120.976 282.728 112.464 291.696 98.936L290.328 98.024ZM366.106 13.056L296.946 13.056V49.84H298.466V28.712C298.466 20.656 304.242 14.576 311.994 14.576L327.346 14.576V111.704C327.346 115.2 325.066 117.48 321.57 117.48H311.386V119H351.666V117.48H341.482C337.986 117.48 335.706 115.2 335.706 111.704V14.576L350.754 14.576C358.658 14.576 364.586 20.504 364.586 28.408V49.84H366.106V13.056ZM443.644 72.64H442.124V100.152C442.124 109.88 435.132 117.48 425.404 117.48L391.204 117.48V53.184L427.684 53.184V51.664L391.204 51.664V14.576L422.972 14.576C430.876 14.576 436.804 20.352 436.804 28.408V49.84H438.324V13.056L371.444 13.056V14.576H377.22C380.412 14.576 382.844 16.856 382.844 20.048V112.008C382.844 115.2 380.412 117.48 377.22 117.48H371.444V119L443.644 119V72.64ZM448.186 13.056V14.576H453.962C457.762 14.576 459.586 16.4 459.586 20.048V111.856C459.586 116.112 458.066 117.48 453.962 117.48H448.186V119H479.346V117.48H473.57C470.378 117.48 467.946 115.352 467.946 111.856V53.184H484.97C506.706 53.184 515.674 47.56 515.674 33.12C515.674 18.68 506.706 13.056 484.97 13.056L448.186 13.056ZM467.946 51.664V14.576L484.97 14.576C500.626 14.576 506.858 19.744 506.858 33.12C506.858 46.496 500.626 51.664 484.97 51.664H467.946Z" fill="#363636"/>
<path d="M245.16 257.48H241.208C236.952 257.48 235.128 256.264 232.696 252.464L190.288 187.56L220.384 160.2C224.488 156.4 228.896 154.576 233.608 154.576H236.648V153.056H207.92V154.576H213.544C216.736 154.576 218.256 156.4 218.256 158.224C218.256 159.44 217.8 160.656 216.584 161.568L183.6 191.664H179.04V160.048C179.04 156.856 181.472 154.576 184.664 154.576H190.44V153.056H159.28V154.576H165.056C168.248 154.576 170.68 156.856 170.68 160.048L170.68 252.008C170.68 255.2 168.248 257.48 165.056 257.48H159.28V259H190.44V257.48H184.664C181.472 257.48 179.04 255.2 179.04 252.008L179.04 193.184H183.752L224.032 254.592C224.488 255.352 224.64 255.96 224.64 256.416C224.64 257.176 224.032 257.48 222.664 257.48H214V259H245.16V257.48ZM334.798 154.576V153.056H310.478V154.576H314.582C318.23 154.576 320.814 157.16 320.814 160.656C320.814 161.264 320.662 161.872 320.51 162.632L297.406 243.496L269.438 159.744C269.134 159.136 269.134 158.528 269.134 157.92C269.134 155.792 270.806 154.576 273.542 154.576H280.838V153.056L249.678 153.056V154.576L253.174 154.576C257.126 154.576 259.558 156.248 260.774 159.744L294.366 260.824L322.182 162.632C323.702 157.312 327.198 154.576 332.67 154.576H334.798ZM405.583 257.48H401.631C397.983 257.48 395.703 256.112 394.791 253.224L361.503 153.056H339.159V154.576H349.495C352.079 154.576 353.903 155.944 353.903 158.528C353.903 159.136 353.751 159.744 353.599 160.504L328.519 249.272C326.999 254.744 323.503 257.48 318.943 257.48H314.991V259H339.311V257.48H335.511C332.167 257.48 329.735 255.2 329.735 251.856C329.735 251.096 329.735 250.336 330.039 249.424L337.335 223.584H376.247L385.975 252.92C386.127 253.376 386.127 253.832 386.127 254.136C386.127 256.112 384.607 257.48 382.175 257.48L374.423 257.48V259L405.583 259V257.48ZM375.639 222.064H337.791L355.271 160.96L375.639 222.064ZM486.813 238.024C478.301 250.944 464.621 259.456 449.421 259.456C425.557 259.456 409.901 236.2 409.901 206.104C409.901 174.032 426.621 152.6 450.789 152.6C468.117 152.6 484.229 163.544 484.381 187.56V189.84H485.901V153.056H484.381V160.2C484.381 162.48 483.469 163.544 481.797 163.544C480.581 163.544 479.365 162.936 478.149 161.872C469.333 154.728 459.757 151.08 449.421 151.08C420.997 151.08 401.085 174.032 401.085 206.104C401.085 238.176 420.845 260.976 449.421 260.976C465.077 260.976 479.213 252.464 488.181 238.936L486.813 238.024ZM578.399 238.024C569.887 250.944 556.207 259.456 541.007 259.456C517.143 259.456 501.487 236.2 501.487 206.104C501.487 174.032 518.207 152.6 542.375 152.6C559.703 152.6 575.815 163.544 575.967 187.56V189.84H577.487V153.056H575.967V160.2C575.967 162.48 575.055 163.544 573.383 163.544C572.167 163.544 570.951 162.936 569.735 161.872C560.919 154.728 551.343 151.08 541.007 151.08C512.583 151.08 492.671 174.032 492.671 206.104C492.671 238.176 512.431 260.976 541.007 260.976C556.663 260.976 570.799 252.464 579.767 238.936L578.399 238.024Z" fill="#363636"/>
</svg>
