<svg width="1387" height="205" viewBox="0 0 1387 205" fill="none" xmlns="http://www.w3.org/2000/svg">
<path fill-rule="evenodd" clip-rule="evenodd" d="M159.312 161.572C143.494 185.582 118.072 201.4 89.8251 201.4C45.4775 201.4 16.3832 158.182 16.3832 102.254C16.3832 42.6528 47.4548 2.82468 92.3673 2.82468C124.569 2.82468 154.51 23.1624 154.793 67.7925V72.0295H157.618V3.6721H154.793V16.9481C154.793 21.1851 153.098 23.1624 149.991 23.1624C147.731 23.1624 145.471 22.0326 143.212 20.0553C126.828 6.77924 109.033 0 89.8251 0C37.0034 0 0 42.6528 0 102.254C0 161.855 36.7209 204.225 89.8251 204.225C118.919 204.225 145.189 188.407 161.855 163.267L159.312 161.572ZM339.179 3.6721V6.49678H349.913C356.974 6.49678 360.364 9.88641 360.364 16.6657V187.277C360.364 195.186 357.539 197.728 349.913 197.728H339.179V200.553H397.085V197.728H386.351C380.419 197.728 375.9 193.774 375.9 187.277V78.2439H407.536C447.929 78.2439 464.595 67.7925 464.595 40.958C464.595 14.1234 447.929 3.6721 407.536 3.6721H339.179ZM375.9 75.4192V6.49678H407.536C436.63 6.49678 448.212 16.1007 448.212 40.958C448.212 65.8152 436.63 75.4192 407.536 75.4192H375.9ZM472.965 102.254C472.965 37.5683 505.449 0 562.79 0C619.567 0 652.615 37.2859 652.615 101.971C652.615 166.657 620.131 204.225 562.79 204.225C506.014 204.225 472.965 166.939 472.965 102.254ZM489.348 102.254C489.348 132.76 495.845 157.053 509.121 174.848C522.397 192.644 540.193 201.4 562.79 201.4C607.985 201.4 636.232 162.702 636.232 101.971C636.232 41.5229 607.703 2.82468 562.79 2.82468C517.595 2.82468 489.348 41.5229 489.348 102.254ZM738.34 76.8315C768.564 74.5718 780.993 64.4029 780.993 40.958C780.993 14.1234 764.327 3.6721 723.934 3.6721H655.577V6.49678H666.311C673.937 6.49678 676.762 9.039 676.762 16.6657V187.559C676.762 195.186 673.937 197.728 666.311 197.728H655.577V200.553H724.499C773.931 200.553 797.376 180.498 797.376 137.845C797.376 100.841 777.603 80.5036 738.34 76.8315ZM692.298 6.49678H723.934C753.029 6.49678 764.61 16.1007 764.61 40.958C764.61 65.8152 753.029 75.4192 723.934 75.4192H692.298V6.49678ZM692.298 197.728V78.2439H724.499C762.633 78.2439 780.993 97.4517 780.993 137.845C780.993 178.52 762.633 197.728 724.499 197.728H692.298ZM950.095 197.728H957.439V200.553H899.533V197.728H913.939C918.458 197.728 921.283 195.186 921.283 191.514C921.283 190.949 921.283 190.101 921 189.254L902.922 134.738H830.61L817.052 182.757C816.487 184.452 816.487 185.864 816.487 187.277C816.487 193.491 821.006 197.728 827.221 197.728H834.282V200.553H789.088V197.728H796.432C804.906 197.728 811.403 192.644 814.227 182.475L860.835 17.5131C860.88 17.2879 860.925 17.0699 860.969 16.8579L860.976 16.8231L860.979 16.8091L860.979 16.8084C861.206 15.7123 861.4 14.7766 861.4 13.841C861.4 9.039 858.01 6.49678 853.208 6.49678H834V3.6721H875.523L937.384 189.819C939.078 195.186 943.315 197.728 950.095 197.728ZM831.458 131.913H901.793L863.942 18.3605L831.458 131.913ZM965.906 3.6721V6.49678H976.64C983.702 6.49678 987.091 9.88641 987.091 16.6657V187.277C987.091 195.186 984.267 197.728 976.64 197.728H965.906V200.553H1023.81V197.728H1013.08C1007.15 197.728 1002.63 193.774 1002.63 187.277V78.2439H1034.26C1074.66 78.2439 1091.32 67.7925 1091.32 40.958C1091.32 14.1234 1074.66 3.6721 1034.26 3.6721H965.906ZM1002.63 6.49678H1034.26C1063.36 6.49678 1074.94 16.1007 1074.94 40.958C1074.94 65.8152 1063.36 75.4192 1034.26 75.4192H1002.63V6.49678ZM282.607 3.69953H327.802V6.52421H321.022C312.831 6.52421 306.617 12.4561 306.617 21.4951V185.504H303.792V170.356V21.4951C303.792 12.4561 297.578 6.52421 289.386 6.52421H282.607V3.69953ZM1253.52 3.74958V6.57426H1242.79C1236.86 6.57426 1232.34 10.8113 1232.34 16.7431V187.637C1232.34 193.569 1236.86 197.806 1242.79 197.806H1253.52V200.63H1195.62V197.806H1206.35C1212.28 197.806 1216.8 193.569 1216.8 187.637V78.3213H1133.47V187.637C1133.47 193.569 1137.99 197.806 1143.93 197.806H1154.66V200.63H1096.75V197.806H1107.49C1113.42 197.806 1117.94 193.569 1117.94 187.637V16.7431C1117.94 10.8113 1113.42 6.57426 1107.49 6.57426H1096.75V3.74958H1154.66V6.57426H1143.93C1137.99 6.57426 1133.47 10.8113 1133.47 16.7431V75.4966H1216.8V16.7431C1216.8 10.8113 1212.28 6.57426 1206.35 6.57426H1195.62V3.74958H1253.52ZM1386.86 4.40197V7.20832H1376.22C1369.21 7.20832 1365.85 10.576 1365.85 17.3112V186.815C1365.85 194.673 1368.65 197.199 1376.22 197.199H1386.86V200.005H1329.44V197.199H1340.08C1345.97 197.199 1350.45 193.27 1350.45 186.815V78.4899H1322.02L1306.12 131.926L1305.27 134.75L1291.71 182.77C1291.15 184.465 1291.15 185.877 1291.15 187.29C1291.15 193.504 1295.67 197.741 1301.88 197.741H1308.94V200.565H1263.75V197.741H1271.09C1279.57 197.741 1286.06 192.656 1288.89 182.488L1318.68 78.4896C1278.92 78.4218 1262.5 68.0191 1262.5 41.4459C1262.5 14.7855 1279.02 4.40197 1319.08 4.40197H1386.86ZM1350.45 7.20832H1319.08C1290.23 7.20832 1278.74 16.7499 1278.74 41.4459C1278.74 66.1419 1290.23 75.6835 1319.08 75.6835H1350.45V7.20832Z" fill="#9E9987"/>
<path d="M328.53 202.587L283.335 202.587L283.335 199.762L290.114 199.762C298.306 199.762 304.52 193.83 304.52 184.791L304.52 14.5327L307.345 14.5327L307.345 35.9304L307.345 184.791C307.345 193.83 313.559 199.762 321.75 199.762L328.53 199.762L328.53 202.587Z" fill="#9E9987"/>
<path d="M167.722 204.512L167.722 201.643L178.58 201.643C185.723 201.643 189.151 198.2 189.151 191.314L189.152 18.0187C189.152 9.98514 186.294 7.40293 178.58 7.40293L167.722 7.40293L167.722 4.53383L226.295 4.53384L226.295 7.40294L215.438 7.40293C209.438 7.40293 204.866 11.4197 204.866 18.0187L204.866 128.767L236.867 128.767C277.726 128.767 294.583 139.383 294.583 166.639C294.583 193.896 277.726 204.512 236.867 204.512L167.722 204.512ZM204.866 131.636L204.866 201.643L236.867 201.643C266.297 201.643 278.011 191.888 278.011 166.639C278.011 141.391 266.297 131.636 236.867 131.636L204.866 131.636Z" fill="#9E9987"/>
<path d="M561.681 72.5339C543.921 72.5339 531.722 84.8161 531.722 102.492C531.722 120.252 543.921 132.534 561.681 132.534C579.357 132.534 591.722 120.252 591.722 102.492C591.722 84.8161 579.357 72.5339 561.681 72.5339ZM561.681 131.704C544.419 131.704 532.552 119.92 532.552 102.492C532.552 85.314 544.502 73.3638 561.681 73.3638C578.859 73.3638 590.892 85.397 590.892 102.492C590.892 119.837 578.942 131.704 561.681 131.704ZM574.378 112.949C571.639 117.181 566.909 119.837 562.345 119.837C555.125 119.837 550.892 113.115 550.892 102.409C550.892 91.7041 555.125 85.148 562.76 85.148C569.067 85.148 573.631 89.5464 573.631 96.4343V98.841H574.461V85.148H573.631V87.4717C573.631 88.2186 573.382 88.6335 572.801 88.6335C572.469 88.6335 572.054 88.3846 571.639 87.9696C569.067 85.563 565.747 84.3182 561.847 84.3182C552.469 84.3182 546.079 91.4551 546.079 102.492C546.079 113.447 552.303 120.667 561.681 120.667C567.241 120.667 571.722 118.26 575.125 113.447L574.378 112.949Z" fill="#9E9987"/>
</svg>
