<svg width="355" height="58" viewBox="0 0 355 58" fill="none" xmlns="http://www.w3.org/2000/svg">
<path fill-rule="evenodd" clip-rule="evenodd" d="M280.713 0H267.801V0.802816H269.738C272.078 0.802816 273.853 2.48873 273.853 5.05775V57L306.941 3.53239V50.8986C306.941 53.4676 305.166 55.1535 302.825 55.1535H300.889V55.9563H313.801V55.1535H311.864C309.524 55.1535 307.748 53.4676 307.748 50.8986V3.53239C307.748 2.00704 309.039 0.802816 310.734 0.802816H313.801V0H303.874L274.66 47.3662V5.05775C274.66 2.48873 276.436 0.802816 278.776 0.802816H280.713V0ZM44.4 1.04023V0.240234H28V1.04023H31.04C32.72 1.04023 34 2.24023 34 3.92023V20.5602H10.4V3.92023C10.4 2.24023 11.68 1.04023 13.36 1.04023H16.4V0.240234H0V1.04023H3.04C4.72 1.04023 6 2.24023 6 3.92023V52.3202C6 54.0002 4.72 55.2002 3.04 55.2002H0V56.0002H16.4V55.2002H13.36C11.68 55.2002 10.4 54.0002 10.4 52.3202V21.3602H34V52.3202C34 54.0002 32.72 55.2002 31.04 55.2002H28V56.0002H44.4V55.2002H41.36C39.68 55.2002 38.4 54.0002 38.4 52.3202V3.92023C38.4 2.24023 39.68 1.04023 41.36 1.04023H44.4ZM94.4769 55.2002H92.3969C90.4769 55.2002 89.2769 54.4802 88.7969 52.9602L71.2769 0.240234H59.5169V1.04023H64.9569C66.3169 1.04023 67.2769 1.76023 67.2769 3.12024C67.2769 3.38531 67.222 3.65039 67.1577 3.96094L67.1576 3.96106C67.1443 4.02537 67.1306 4.09162 67.1169 4.16024L53.9169 50.8802C53.1169 53.7602 51.2769 55.2002 48.8769 55.2002H46.7969V56.0002H59.5969V55.2002H57.5969C55.8369 55.2002 54.5569 54.0002 54.5569 52.2402C54.5569 51.8402 54.5569 51.4402 54.7169 50.9602L58.5569 37.3602H79.0369L84.1569 52.8002C84.2369 53.0402 84.2369 53.2802 84.2369 53.4402C84.2369 54.4802 83.4369 55.2002 82.1569 55.2002H78.0769V56.0002H94.4769V55.2002ZM78.7169 36.5602H58.7969L67.9969 4.40023L78.7169 36.5602ZM99.115 0.240234H130.315L115.435 20.5602C125.835 20.8002 131.035 26.8802 131.035 38.8002C131.035 51.2802 125.595 57.0402 113.755 57.0402C108.395 57.0402 104.235 55.3602 101.435 52.0802C100.635 51.2002 99.915 50.7202 99.275 50.7202C98.235 50.7202 97.675 51.3602 97.675 52.5602V56.0002H96.875V31.6002H97.675V35.3602C97.675 48.7202 103.035 56.2402 113.515 56.2402C122.075 56.2402 126.395 50.4002 126.395 38.8002C126.395 27.6002 122.315 21.3602 114.715 21.3602H109.355L124.155 1.04023H107.755C102.955 1.04023 99.915 3.92023 99.915 8.72023V19.6002H99.115V0.240234ZM156.878 20.9602C165.438 20.3202 168.958 17.4402 168.958 10.8002C168.958 3.20023 164.238 0.240234 152.798 0.240234H133.438V1.04023H136.478C138.638 1.04023 139.438 1.76023 139.438 3.92023V52.3202C139.438 54.4802 138.638 55.2002 136.478 55.2002H133.438V56.0002H152.958C166.958 56.0002 173.598 50.3202 173.598 38.2402C173.598 27.7602 167.997 22.0002 156.878 20.9602ZM143.838 1.04023H152.798C161.038 1.04023 164.318 3.76023 164.318 10.8002C164.318 17.8402 161.038 20.5602 152.798 20.5602H143.838V1.04023ZM143.838 55.2002V21.3602H152.958C163.758 21.3602 168.958 26.8002 168.958 38.2402C168.958 49.7602 163.758 55.2002 152.958 55.2002H143.838ZM216.85 55.2002H218.93V56.0002H202.53V55.2002H206.61C207.89 55.2002 208.69 54.4802 208.69 53.4402C208.69 53.2802 208.69 53.0402 208.61 52.8002L203.49 37.3602H183.01L179.17 50.9602C179.01 51.4402 179.01 51.8402 179.01 52.2401V52.2402C179.01 54.0002 180.29 55.2002 182.05 55.2002H184.05V56.0002H171.25V55.2002H173.33C175.73 55.2002 177.57 53.7602 178.37 50.8802L191.57 4.16024C191.583 4.09542 191.596 4.03271 191.609 3.97176L191.61 3.96406L191.611 3.96099V3.96091C191.675 3.65037 191.73 3.38531 191.73 3.12024C191.73 1.76023 190.77 1.04023 189.41 1.04023H183.97V0.240234H195.73L213.25 52.9602C213.73 54.4802 214.93 55.2002 216.85 55.2002ZM183.25 36.5602H203.17L192.45 4.40023L183.25 36.5602ZM265.728 1.04023V0.240234H249.328V1.04023H252.368C254.048 1.04023 255.328 2.24023 255.328 3.92023V20.5602H231.728V3.92023C231.728 2.24023 233.008 1.04023 234.688 1.04023H237.728V0.240234H221.328V1.04023H224.368C226.048 1.04023 227.328 2.24023 227.328 3.92023V52.3202C227.328 54.0002 226.048 55.2002 224.368 55.2002H221.328V56.0002H237.728V55.2002H234.688C233.008 55.2002 231.728 54.0002 231.728 52.3202V21.3602H255.328V52.3202C255.328 54.0002 254.048 55.2002 252.368 55.2002H249.328V56.0002H265.728V55.2002H262.688C261.008 55.2002 259.728 54.0002 259.728 52.3202V3.92023C259.728 2.24023 261.008 1.04023 262.688 1.04023H265.728ZM353.294 31.6002H354.094V56.0002H316.094V55.2002H319.134C320.814 55.2002 322.094 54.0002 322.094 52.3202V3.92023C322.094 2.24023 320.814 1.04023 319.134 1.04023H316.094V0.240234H351.294V19.6002H350.494V8.32024C350.494 4.08023 347.374 1.04023 343.214 1.04023H326.494V20.5602H345.694V21.3602H326.494V55.2002H344.494C349.614 55.2002 353.294 51.2002 353.294 46.0802V31.6002Z" fill="black"/>
</svg>
