<svg width="491" height="59" viewBox="0 0 491 59" fill="none" xmlns="http://www.w3.org/2000/svg">
<path d="M0.2 1.24V2.04H3.24C5.4 2.04 6.2 2.84 6.2 5V53.08C6.2 55.32 5.4 56.2 3.24 56.2H0.2V57H16.6V56.2H13.56C11.88 56.2 10.6 55 10.6 53.08V38.36H18.76C30.36 38.36 35.72 32.68 35.72 19.56C35.72 6.84 30.68 1.24 18.76 1.24H0.2ZM10.6 37.56V2.04H18.76C27.4 2.04 31.08 7.32 31.08 19.48C31.08 32.04 27.16 37.56 18.76 37.56H10.6ZM76.9425 56.2H74.8625C72.9425 56.2 71.7425 55.48 71.2625 53.96L53.7425 1.24H41.9825V2.04H47.4225C48.7825 2.04 49.7425 2.76 49.7425 4.12C49.7425 4.44 49.6625 4.76 49.5825 5.16L36.3825 51.88C35.5825 54.76 33.7425 56.2 31.3425 56.2H29.2625V57H42.0625V56.2H40.0625C38.3025 56.2 37.0225 55 37.0225 53.24C37.0225 52.84 37.0225 52.44 37.1825 51.96L41.0225 38.36H61.5025L66.6225 53.8C66.7025 54.04 66.7025 54.28 66.7025 54.44C66.7025 55.48 65.9025 56.2 64.6225 56.2H60.5425V57H76.9425V56.2ZM61.1825 37.56H41.2625L50.4625 5.4L61.1825 37.56ZM97.1006 21.16C96.2206 20.84 94.9406 20.6 93.3406 20.12L86.9406 18.2C82.8606 16.6 81.3406 14.76 81.3406 11.64C81.3406 5.48 87.0206 0.999996 95.6606 0.999996C105.901 0.999996 110.461 7.88 110.461 16.04V20.6H111.261V1.24H110.461V3.08C110.461 4.28 109.981 4.92 108.941 4.92C108.221 4.92 107.421 4.6 106.701 3.88C104.061 1.4 100.301 0.199997 95.5806 0.199997C85.4206 0.199997 80.0606 5.16 80.0606 13.72C80.1406 20.44 85.7406 22.92 89.8206 24.04L96.3006 25.8C107.261 28.76 112.701 34.6 112.701 42.6C112.701 51.32 106.701 57.16 97.1006 57.16C85.9806 57.16 80.5406 49.72 80.5406 36.36V32.6H79.7406V57H80.5406V53.72C80.5406 52.52 81.1006 51.96 82.1406 51.96C82.8606 51.96 83.5806 52.28 84.2206 53C87.1806 56.36 91.5806 58.04 97.2606 58.04C107.581 58.04 113.901 51.96 113.901 41.08C113.901 26.68 103.821 23.16 97.1006 21.16ZM153.094 1.24H116.694V20.6H117.494V9.48C117.494 5.24 120.534 2.04 124.614 2.04H132.694V53.16C132.694 55 131.494 56.2 129.654 56.2H124.294V57H145.494V56.2H140.134C138.294 56.2 137.094 55 137.094 53.16V2.04H145.014C149.174 2.04 152.294 5.16 152.294 9.32V20.6H153.094V1.24ZM193.903 32.6H193.103V47.08C193.103 52.2 189.423 56.2 184.303 56.2H166.303V22.36H185.503V21.56H166.303V2.04H183.023C187.183 2.04 190.303 5.08 190.303 9.32V20.6H191.103V1.24H155.903V2.04H158.943C160.623 2.04 161.903 3.24 161.903 4.92V53.32C161.903 55 160.623 56.2 158.943 56.2H155.903V57H193.903V32.6ZM236.534 56.2H234.454C231.494 56.2 230.694 53.64 230.694 46.04V33.72C230.694 26.76 226.694 22.92 218.614 22.04C227.814 21.48 231.494 18.44 231.494 11.8C231.494 4.36 226.774 1.24 214.854 1.24H196.294V2.04H199.174C201.014 2.04 202.294 3.16 202.294 5V53.24C202.294 54.92 201.014 56.2 199.334 56.2H196.294V57H212.694V56.2H209.654C207.974 56.2 206.694 54.92 206.694 53.24V22.36H214.294C222.294 22.36 226.294 26.12 226.294 33.72V46.04C226.294 53.32 228.294 57 233.494 57H236.534V56.2ZM206.694 21.56V2.04H214.854C223.494 2.04 226.854 4.84 226.854 11.8C226.854 18.76 223.494 21.56 214.854 21.56H206.694ZM254.959 2.04V1.24H238.559V2.04H241.599C243.279 2.04 244.559 3.24 244.559 4.92V53.32C244.559 55 243.279 56.2 241.599 56.2H238.559V57H254.959V56.2H251.919C250.239 56.2 248.959 55 248.959 53.32V4.92C248.959 3.24 250.239 2.04 251.919 2.04H254.959ZM292.508 32.6H291.708V47.08C291.708 52.2 287.948 56.2 282.908 56.2H262.748L291.308 1.24H260.108V20.6H260.908V9.32C260.908 5.08 264.108 2.04 268.348 2.04H285.788L257.388 57H292.508V32.6ZM342.568 56.2H340.488C338.568 56.2 337.368 55.48 336.888 53.96L319.368 1.24H307.608V2.04H313.048C314.408 2.04 315.368 2.76 315.368 4.12C315.368 4.44 315.288 4.76 315.208 5.16L302.008 51.88C301.208 54.76 299.368 56.2 296.968 56.2H294.888V57H307.688V56.2H305.688C303.928 56.2 302.648 55 302.648 53.24C302.648 52.84 302.648 52.44 302.808 51.96L306.648 38.36H327.128L332.248 53.8C332.328 54.04 332.328 54.28 332.328 54.44C332.328 55.48 331.528 56.2 330.248 56.2H326.168V57H342.568V56.2ZM326.808 37.56H306.888L316.088 5.4L326.808 37.56ZM385.32 45.96C380.84 52.76 373.64 57.24 365.64 57.24C353.08 57.24 344.84 45 344.84 29.16C344.84 12.28 353.64 0.999996 366.36 0.999996C375.48 0.999996 383.96 6.76 384.04 19.4V20.6H384.84V1.24H384.04V5C384.04 6.2 383.56 6.76 382.68 6.76C382.04 6.76 381.4 6.44 380.76 5.88C376.12 2.12 371.08 0.199997 365.64 0.199997C350.68 0.199997 340.2 12.28 340.2 29.16C340.2 46.04 350.6 58.04 365.64 58.04C373.88 58.04 381.32 53.56 386.04 46.44L385.32 45.96ZM404.803 2.04V1.24H388.403V2.04H391.443C393.123 2.04 394.403 3.24 394.403 4.92V53.32C394.403 55 393.123 56.2 391.443 56.2H388.403V57H404.803V56.2H401.763C400.083 56.2 398.803 55 398.803 53.32V4.92C398.803 3.24 400.083 2.04 401.763 2.04H404.803ZM451.951 1.24H439.391V2.04H441.391C443.151 2.04 444.191 3.24 444.191 4.84C444.191 5.32 444.111 5.8 443.951 6.28L432.271 36.44L417.791 4.76C417.551 4.28 417.471 3.88 417.471 3.48C417.471 2.6 418.111 2.04 419.231 2.04H423.391V1.24H407.231V2.04H408.831C410.831 2.04 412.191 2.92 412.991 4.68L428.111 38.04V53.48C428.111 55 426.831 56.2 425.311 56.2H422.111V57H438.511V56.2H435.311C433.791 56.2 432.511 55 432.511 53.48V38.2L444.831 6.28C445.871 3.48 447.951 2.04 450.911 2.04H451.951V1.24ZM490.849 56.2H488.769C486.849 56.2 485.649 55.48 485.169 53.96L467.649 1.24H455.889V2.04H461.329C462.689 2.04 463.649 2.76 463.649 4.12C463.649 4.44 463.569 4.76 463.489 5.16L450.289 51.88C449.489 54.76 447.649 56.2 445.249 56.2H443.169V57H455.969V56.2H453.969C452.209 56.2 450.929 55 450.929 53.24C450.929 52.84 450.929 52.44 451.089 51.96L454.929 38.36H475.409L480.529 53.8C480.609 54.04 480.609 54.28 480.609 54.44C480.609 55.48 479.809 56.2 478.529 56.2H474.449V57H490.849V56.2ZM475.089 37.56H455.169L464.369 5.4L475.089 37.56Z" fill="black"/>
</svg>
