<svg width="518" height="62" viewBox="0 0 518 62" fill="none" xmlns="http://www.w3.org/2000/svg">
<path d="M41.76 2.04C40.9067 2.04 40.1867 2.30666 39.6 2.84C39.0667 3.37333 38.8 4.06666 38.8 4.92V53.32C38.8 54.1733 39.0667 54.8667 39.6 55.4C40.1867 55.9333 40.9067 56.2 41.76 56.2H44.8V57H28.4V56.2H31.44C32.2933 56.2 32.9867 55.9333 33.52 55.4C34.1067 54.8667 34.4 54.1733 34.4 53.32V4.92C34.4 4.06666 34.1067 3.37333 33.52 2.84C32.9867 2.30666 32.2933 2.04 31.44 2.04H13.76C12.9067 2.04 12.1867 2.30666 11.6 2.84C11.0667 3.37333 10.8 4.06666 10.8 4.92V53.32C10.8 54.1733 11.0667 54.8667 11.6 55.4C12.1867 55.9333 12.9067 56.2 13.76 56.2H16.8V57H0.4V56.2H3.44C4.29333 56.2 4.98667 55.9333 5.52 55.4C6.10667 54.8667 6.4 54.1733 6.4 53.32V4.92C6.4 4.06666 6.10667 3.37333 5.52 2.84C4.98667 2.30666 4.29333 2.04 3.44 2.04H0.4V1.24H44.8V2.04H41.76ZM91.5294 57H75.1294V56.2H79.2094C80.596 56.2 81.2894 55.6133 81.2894 54.44C81.2894 54.1733 81.2627 53.96 81.2094 53.8L76.0894 38.36H55.6094L51.7694 51.96C51.6627 52.2267 51.6094 52.4667 51.6094 52.68C51.6094 52.84 51.6094 53.0267 51.6094 53.24C51.6094 54.1467 51.876 54.8667 52.4094 55.4C52.996 55.9333 53.7427 56.2 54.6494 56.2H56.6494V57H43.8494V56.2H45.9294C47.156 56.2 48.196 55.8533 49.0494 55.16C49.9027 54.4133 50.5427 53.32 50.9694 51.88L64.1694 5.16C64.2227 4.94667 64.2494 4.76 64.2494 4.6C64.3027 4.44 64.3294 4.28 64.3294 4.12C64.3294 3.42666 64.116 2.92 63.6894 2.6C63.2627 2.22666 62.7027 2.04 62.0094 2.04H56.5694V1.24H68.3294L85.8494 53.96C86.3294 55.4533 87.5294 56.2 89.4494 56.2H91.5294V57ZM65.0494 5.4L55.8494 37.56H75.7694L65.0494 5.4ZM132.843 46.44C130.443 50.0133 127.483 52.84 123.963 54.92C120.443 57 116.603 58.04 112.443 58.04C108.71 58.04 105.27 57.3467 102.123 55.96C99.0298 54.52 96.3631 52.52 94.1231 49.96C91.8831 47.4 90.1231 44.36 88.8431 40.84C87.6165 37.2667 87.0031 33.3733 87.0031 29.16C87.0031 24.9467 87.6165 21.08 88.8431 17.56C90.1231 13.9867 91.8831 10.92 94.1231 8.36C96.3631 5.8 99.0298 3.8 102.123 2.36C105.27 0.919997 108.71 0.199997 112.443 0.199997C117.83 0.199997 122.87 2.09333 127.563 5.88C128.256 6.46666 128.896 6.76 129.483 6.76C130.39 6.76 130.843 6.17333 130.843 5V1.24H131.643V20.6H130.843V19.4C130.843 16.2533 130.336 13.5333 129.323 11.24C128.363 8.89333 127.056 6.97333 125.403 5.48C123.75 3.93333 121.856 2.81333 119.723 2.12C117.643 1.37333 115.456 0.999996 113.163 0.999996C109.963 0.999996 107.03 1.69333 104.363 3.08C101.75 4.41333 99.4831 6.30666 97.5631 8.76C95.6965 11.2133 94.2298 14.1733 93.1631 17.64C92.1498 21.1067 91.6431 24.9467 91.6431 29.16C91.6431 33.1067 92.1231 36.7867 93.0831 40.2C94.0965 43.6133 95.5098 46.6 97.3231 49.16C99.1365 51.6667 101.323 53.64 103.883 55.08C106.443 56.52 109.296 57.24 112.443 57.24C116.443 57.24 120.15 56.2267 123.563 54.2C127.03 52.12 129.883 49.3733 132.123 45.96L132.843 46.44ZM172.006 20.6H171.206V9.32C171.206 7.24 170.513 5.50666 169.126 4.12C167.74 2.73333 166.006 2.04 163.926 2.04H156.006V53.16C156.006 54.0667 156.273 54.8133 156.806 55.4C157.393 55.9333 158.14 56.2 159.046 56.2H164.406V57H143.206V56.2H148.566C149.473 56.2 150.193 55.9333 150.726 55.4C151.313 54.8133 151.606 54.0667 151.606 53.16V2.04H143.526C141.5 2.04 139.793 2.76 138.406 4.2C137.073 5.58667 136.406 7.34667 136.406 9.48V20.6H135.606V1.24H172.006V20.6ZM212.816 57H174.816V56.2H177.856C178.709 56.2 179.402 55.9333 179.936 55.4C180.522 54.8667 180.816 54.1733 180.816 53.32V4.92C180.816 4.06666 180.522 3.37333 179.936 2.84C179.402 2.30666 178.709 2.04 177.856 2.04H174.816V1.24H210.016V20.6H209.216V9.32C209.216 7.18666 208.522 5.45333 207.136 4.12C205.749 2.73333 204.016 2.04 201.936 2.04H185.216V21.56H204.416V22.36H185.216V56.2H203.216C204.496 56.2 205.669 55.96 206.736 55.48C207.802 55 208.736 54.36 209.536 53.56C210.336 52.76 210.949 51.8 211.376 50.68C211.802 49.56 212.016 48.36 212.016 47.08V32.6H212.816V57ZM234.566 1.24C240.273 1.24 244.38 2.06667 246.886 3.72C249.446 5.32 250.726 8.01333 250.726 11.8C250.726 15.5867 249.446 18.3067 246.886 19.96C244.38 21.56 240.273 22.36 234.566 22.36H225.606V53.24C225.606 54.1467 225.873 54.8667 226.406 55.4C226.993 55.9333 227.713 56.2 228.566 56.2H231.606V57H215.206V56.2H218.246C219.313 56.2 220.06 55.9867 220.486 55.56C220.966 55.1333 221.206 54.36 221.206 53.24V4.92C221.206 3 220.22 2.04 218.246 2.04H215.206V1.24H234.566ZM234.566 21.56C238.726 21.56 241.686 20.8133 243.446 19.32C245.206 17.8267 246.086 15.32 246.086 11.8C246.086 8.28 245.206 5.77333 243.446 4.28C241.686 2.78666 238.726 2.04 234.566 2.04H225.606V21.56H234.566ZM253.097 2.04H255.017C256.19 2.04 257.15 2.44 257.897 3.24C258.697 3.98666 259.097 5 259.097 6.28V58.04L291.897 4.76V51.96C291.897 53.24 291.497 54.28 290.697 55.08C289.95 55.8267 288.99 56.2 287.817 56.2H285.897V57H298.697V56.2H296.777C295.604 56.2 294.617 55.8267 293.817 55.08C293.07 54.28 292.697 53.24 292.697 51.96V4.76C292.697 4.01333 292.964 3.37333 293.497 2.84C294.084 2.30666 294.804 2.04 295.657 2.04H298.697V1.24H288.857L259.897 48.44V6.28C259.897 5 260.27 3.98666 261.017 3.24C261.817 2.44 262.804 2.04 263.977 2.04H265.897V1.24H253.097V2.04ZM319.626 21.56C330.026 21.7733 335.226 27.8533 335.226 39.8C335.226 46.0933 333.839 50.7067 331.066 53.64C328.292 56.5733 323.919 58.04 317.946 58.04C312.559 58.04 308.452 56.3867 305.626 53.08C304.826 52.1733 304.106 51.72 303.466 51.72C302.399 51.72 301.866 52.3333 301.866 53.56V57H301.066V32.6H301.866V36.36C301.866 43.08 303.172 48.2533 305.786 51.88C308.452 55.4533 312.426 57.24 317.706 57.24C326.292 57.24 330.586 51.4267 330.586 39.8C330.586 34.1467 329.599 29.8267 327.626 26.84C325.652 23.8533 322.746 22.36 318.906 22.36H313.546L328.346 2.04H311.946C309.546 2.04 307.626 2.73333 306.186 4.12C304.799 5.45333 304.106 7.32 304.106 9.72V20.6H303.306V1.24H334.506L319.626 21.56ZM385.148 57H368.748V56.2H372.828C374.215 56.2 374.908 55.6133 374.908 54.44C374.908 54.1733 374.881 53.96 374.828 53.8L369.708 38.36H349.228L345.388 51.96C345.281 52.2267 345.228 52.4667 345.228 52.68C345.228 52.84 345.228 53.0267 345.228 53.24C345.228 54.1467 345.495 54.8667 346.028 55.4C346.615 55.9333 347.361 56.2 348.268 56.2H350.268V57H337.468V56.2H339.548C340.775 56.2 341.815 55.8533 342.668 55.16C343.521 54.4133 344.161 53.32 344.588 51.88L357.788 5.16C357.841 4.94667 357.868 4.76 357.868 4.6C357.921 4.44 357.948 4.28 357.948 4.12C357.948 3.42666 357.735 2.92 357.308 2.6C356.881 2.22666 356.321 2.04 355.628 2.04H350.188V1.24H361.948L379.468 53.96C379.948 55.4533 381.148 56.2 383.068 56.2H385.148V57ZM358.668 5.4L349.468 37.56H369.388L358.668 5.4ZM429.262 2.04C428.409 2.04 427.689 2.30666 427.102 2.84C426.569 3.37333 426.302 4.06666 426.302 4.92V53.32C426.302 54.3867 426.729 55.1867 427.582 55.72H432.462V61.96H431.662C431.662 61.1067 431.609 60.3867 431.502 59.8C431.395 59.2667 431.155 58.8133 430.782 58.44C430.462 58.12 429.982 57.8533 429.342 57.64C428.702 57.4267 427.875 57.2133 426.862 57H391.422V4.92C391.422 4.06666 391.129 3.37333 390.542 2.84C390.009 2.30666 389.315 2.04 388.462 2.04H385.422V1.24H401.822V2.04H398.782C397.929 2.04 397.209 2.30666 396.622 2.84C396.089 3.37333 395.822 4.06666 395.822 4.92V55.72H421.902V4.92C421.902 4.06666 421.609 3.37333 421.022 2.84C420.489 2.30666 419.795 2.04 418.942 2.04H415.902V1.24H432.302V2.04H429.262ZM429.591 2.04H431.511C432.684 2.04 433.644 2.44 434.391 3.24C435.191 3.98666 435.591 5 435.591 6.28V58.04L468.391 4.76V51.96C468.391 53.24 467.991 54.28 467.191 55.08C466.444 55.8267 465.484 56.2 464.311 56.2H462.391V57H475.191V56.2H473.271C472.097 56.2 471.111 55.8267 470.311 55.08C469.564 54.28 469.191 53.24 469.191 51.96V4.76C469.191 4.01333 469.457 3.37333 469.991 2.84C470.577 2.30666 471.297 2.04 472.151 2.04H475.191V1.24H465.351L436.391 48.44V6.28C436.391 5 436.764 3.98666 437.511 3.24C438.311 2.44 439.297 2.04 440.471 2.04H442.391V1.24H429.591V2.04ZM477.559 57H480.599C483.213 57 485.053 56.0933 486.119 54.28C487.239 52.4667 487.799 49.72 487.799 46.04V33.72C487.799 26.1467 491.799 22.36 499.799 22.36H507.399V53.24C507.399 54.0933 507.106 54.8133 506.519 55.4C505.986 55.9333 505.293 56.2 504.439 56.2H501.399V57H517.799V56.2H514.759C513.906 56.2 513.186 55.9333 512.599 55.4C512.066 54.8133 511.799 54.0933 511.799 53.24V5C511.799 4.09333 512.093 3.37333 512.679 2.84C513.266 2.30666 514.013 2.04 514.919 2.04H517.799V1.24H499.239C493.266 1.24 488.999 2.06667 486.439 3.72C483.879 5.37333 482.599 8.06666 482.599 11.8C482.599 15.16 483.586 17.64 485.559 19.24C487.533 20.84 490.839 21.7733 495.479 22.04C487.426 22.8933 483.399 26.7867 483.399 33.72V46.04C483.399 49.8267 483.133 52.4667 482.599 53.96C482.119 55.4533 481.133 56.2 479.639 56.2H477.559V57ZM499.239 21.56C494.919 21.56 491.826 20.8133 489.959 19.32C488.146 17.8267 487.239 15.32 487.239 11.8C487.239 8.28 488.146 5.77333 489.959 4.28C491.826 2.78666 494.919 2.04 499.239 2.04H507.399V21.56H499.239Z" fill="black"/>
</svg>
