<svg width="262" height="135" viewBox="0 0 262 135" fill="none" xmlns="http://www.w3.org/2000/svg">
<path d="M17.96 21.16C17.08 20.84 15.8 20.6 14.2 20.12L7.8 18.2C3.72 16.6 2.2 14.76 2.2 11.64C2.2 5.48 7.88 0.999996 16.52 0.999996C26.76 0.999996 31.32 7.88 31.32 16.04V20.6H32.12V1.24H31.32V3.08C31.32 4.28 30.84 4.92 29.8 4.92C29.08 4.92 28.28 4.6 27.56 3.88C24.92 1.4 21.16 0.199997 16.44 0.199997C6.28 0.199997 0.92 5.16 0.92 13.72C1 20.44 6.6 22.92 10.68 24.04L17.16 25.8C28.12 28.76 33.56 34.6 33.56 42.6C33.56 51.32 27.56 57.16 17.96 57.16C6.84 57.16 1.4 49.72 1.4 36.36V32.6H0.6V57H1.4V53.72C1.4 52.52 1.96 51.96 3 51.96C3.72 51.96 4.44 52.28 5.08 53C8.04 56.36 12.44 58.04 18.12 58.04C28.44 58.04 34.76 51.96 34.76 41.08C34.76 26.68 24.68 23.16 17.96 21.16ZM73.9531 1.24H37.5531V20.6H38.3531V9.48C38.3531 5.24 41.3931 2.04 45.4731 2.04H53.5531V53.16C53.5531 55 52.3531 56.2 50.5131 56.2H45.1531V57H66.3531V56.2H60.9931C59.1531 56.2 57.9531 55 57.9531 53.16V2.04H65.8731C70.0331 2.04 73.1531 5.16 73.1531 9.32V20.6H73.9531V1.24ZM121.563 2.04V1.24H108.763V2.04H110.923C112.843 2.04 114.203 3.4 114.203 5.24C114.203 5.56 114.123 5.88 114.043 6.28L101.883 48.84L87.1625 4.76C87.0025 4.44 87.0025 4.12 87.0025 3.8C87.0025 2.68 87.8825 2.04 89.3225 2.04H93.1625V1.24H76.7625V2.04H78.6025C80.6825 2.04 81.9625 2.92 82.6025 4.76L100.283 57.96L114.923 6.28C115.723 3.48 117.563 2.04 120.443 2.04H121.563ZM145.406 0.199997C129.166 0.199997 119.966 10.84 119.966 29.16C119.966 47.48 129.326 58.04 145.406 58.04C161.646 58.04 170.846 47.4 170.846 29.08C170.846 10.76 161.486 0.199997 145.406 0.199997ZM130.206 49.72C126.446 44.68 124.606 37.8 124.606 29.16C124.606 11.96 132.606 0.999996 145.406 0.999996C158.126 0.999996 166.206 11.96 166.206 29.08C166.206 46.28 158.206 57.24 145.406 57.24C139.006 57.24 133.966 54.76 130.206 49.72ZM211.924 56.2H209.844C206.884 56.2 206.084 53.64 206.084 46.04V33.72C206.084 26.76 202.084 22.92 194.004 22.04C203.204 21.48 206.884 18.44 206.884 11.8C206.884 4.36 202.164 1.24 190.244 1.24H171.684V2.04H174.564C176.404 2.04 177.684 3.16 177.684 5V53.24C177.684 54.92 176.404 56.2 174.724 56.2H171.684V57H188.084V56.2H185.044C183.364 56.2 182.084 54.92 182.084 53.24V22.36H189.684C197.684 22.36 201.684 26.12 201.684 33.72V46.04C201.684 53.32 203.684 57 208.884 57H211.924V56.2ZM182.084 21.56V2.04H190.244C198.884 2.04 202.244 4.84 202.244 11.8C202.244 18.76 198.884 21.56 190.244 21.56H182.084ZM261.63 56.2H259.55C257.63 56.2 256.43 55.48 255.95 53.96L238.43 1.24H226.67V2.04H232.11C233.47 2.04 234.43 2.76 234.43 4.12C234.43 4.44 234.35 4.76 234.27 5.16L221.07 51.88C220.27 54.76 218.43 56.2 216.03 56.2H213.95V57H226.75V56.2H224.75C222.99 56.2 221.71 55 221.71 53.24C221.71 52.84 221.71 52.44 221.87 51.96L225.71 38.36H246.19L251.31 53.8C251.39 54.04 251.39 54.28 251.39 54.44C251.39 55.48 250.59 56.2 249.31 56.2H245.23V57H261.63V56.2ZM245.87 37.56H225.95L235.15 5.4L245.87 37.56ZM34.12 78.04V77.24H17.72V78.04H20.76C22.44 78.04 23.72 79.24 23.72 80.92V119.64C23.72 128.6 19.96 133.24 13.32 133.24C3.88 133.24 1 123.88 1 117.4V108.6H0.2V133H1V131.56C1 130.52 1.48 129.96 2.52 129.96C3.4 129.96 4.28 130.36 5.16 131.08C7.64 133.08 10.44 134.04 13.64 134.04C22.92 134.04 28.12 128.52 28.12 118.84V80.92C28.12 79.24 29.4 78.04 31.08 78.04H34.12ZM52.9281 78.04V77.24H36.5281V78.04H39.5681C41.2481 78.04 42.5281 79.24 42.5281 80.92V129.32C42.5281 131 41.2481 132.2 39.5681 132.2H36.5281V133H52.9281V132.2H49.8881C48.2081 132.2 46.9281 131 46.9281 129.32V80.92C46.9281 79.24 48.2081 78.04 49.8881 78.04H52.9281ZM100.156 78.04V77.24H87.3563V78.04H89.5163C91.4363 78.04 92.7963 79.4 92.7963 81.24C92.7963 81.56 92.7163 81.88 92.6363 82.28L80.4763 124.84L65.7563 80.76C65.5963 80.44 65.5963 80.12 65.5963 79.8C65.5963 78.68 66.4763 78.04 67.9163 78.04H71.7563V77.24H55.3563V78.04H57.1963C59.2763 78.04 60.5563 78.92 61.1963 80.76L78.8763 133.96L93.5163 82.28C94.3163 79.48 96.1563 78.04 99.0363 78.04H100.156ZM137.411 132.2H135.331C133.411 132.2 132.211 131.48 131.731 129.96L114.211 77.24H102.451V78.04H107.891C109.251 78.04 110.211 78.76 110.211 80.12C110.211 80.44 110.131 80.76 110.051 81.16L96.8513 127.88C96.0513 130.76 94.2113 132.2 91.8113 132.2H89.7313V133H102.531V132.2H100.531C98.7713 132.2 97.4913 131 97.4913 129.24C97.4913 128.84 97.4913 128.44 97.6513 127.96L101.491 114.36H121.971L127.091 129.8C127.171 130.04 127.171 130.28 127.171 130.44C127.171 131.48 126.371 132.2 125.091 132.2H121.011V133H137.411V132.2ZM121.651 113.56H101.731L110.931 81.4L121.651 113.56ZM185.409 77.24H172.609V78.04H174.529C176.849 78.04 178.609 79.72 178.609 82.28V124.44L149.649 77.24H139.809V78.04H142.849C144.529 78.04 145.809 79.24 145.809 80.76V127.96C145.809 130.52 144.049 132.2 141.729 132.2H139.809V133H152.609V132.2H150.689C148.369 132.2 146.609 130.52 146.609 127.96V80.76L179.409 134.04V82.28C179.409 79.72 181.169 78.04 183.489 78.04H185.409V77.24ZM204.178 78.04V77.24H187.778V78.04H190.818C192.498 78.04 193.778 79.24 193.778 80.92V129.32C193.778 131 192.498 132.2 190.818 132.2H187.778V133H204.178V132.2H201.138C199.458 132.2 198.178 131 198.178 129.32V80.92C198.178 79.24 199.458 78.04 201.138 78.04H204.178ZM244.606 108.6H243.806V123.08C243.806 128.2 240.126 132.2 235.006 132.2H217.006V98.36H236.206V97.56H217.006V78.04H233.726C237.886 78.04 241.006 81.08 241.006 85.32V96.6H241.806V77.24H206.606V78.04H209.646C211.326 78.04 212.606 79.24 212.606 80.92V129.32C212.606 131 211.326 132.2 209.646 132.2H206.606V133H244.606V108.6Z" fill="black"/>
</svg>
