<svg width="350" height="145" viewBox="0 0 350 145" fill="none" xmlns="http://www.w3.org/2000/svg">
<path d="M47.04 66.44C44.64 70.0133 41.68 72.84 38.16 74.92C34.64 77 30.8 78.04 26.64 78.04C22.9067 78.04 19.4667 77.3467 16.32 75.96C13.2267 74.52 10.56 72.52 8.32 69.96C6.08 67.4 4.32 64.36 3.04 60.84C1.81333 57.2667 1.2 53.3733 1.2 49.16C1.2 44.9467 1.81333 41.08 3.04 37.56C4.32 33.9867 6.08 30.92 8.32 28.36C10.56 25.8 13.2267 23.8 16.32 22.36C19.4667 20.92 22.9067 20.2 26.64 20.2C32.0267 20.2 37.0667 22.0933 41.76 25.88C42.4533 26.4667 43.0933 26.76 43.68 26.76C44.5867 26.76 45.04 26.1733 45.04 25V21.24H45.84V40.6H45.04V39.4C45.04 36.2533 44.5333 33.5333 43.52 31.24C42.56 28.8933 41.2533 26.9733 39.6 25.48C37.9467 23.9333 36.0533 22.8133 33.92 22.12C31.84 21.3733 29.6533 21 27.36 21C24.16 21 21.2267 21.6933 18.56 23.08C15.9467 24.4133 13.68 26.3067 11.76 28.76C9.89333 31.2133 8.42667 34.1733 7.36 37.64C6.34667 41.1067 5.84 44.9467 5.84 49.16C5.84 53.1067 6.32 56.7867 7.28 60.2C8.29333 63.6133 9.70667 66.6 11.52 69.16C13.3333 71.6667 15.52 73.64 18.08 75.08C20.64 76.52 23.4933 77.24 26.64 77.24C30.64 77.24 34.3467 76.2267 37.76 74.2C41.2267 72.12 44.08 69.3733 46.32 65.96L47.04 66.44ZM86.2031 40.6H85.4031V29.32C85.4031 27.24 84.7098 25.5067 83.3231 24.12C81.9365 22.7333 80.2031 22.04 78.1231 22.04H70.2031V73.16C70.2031 74.0667 70.4698 74.8133 71.0031 75.4C71.5898 75.9333 72.3365 76.2 73.2431 76.2H78.6031V77H57.4031V76.2H62.7631C63.6698 76.2 64.3898 75.9333 64.9231 75.4C65.5098 74.8133 65.8031 74.0667 65.8031 73.16V22.04H57.7231C55.6965 22.04 53.9898 22.76 52.6031 24.2C51.2698 25.5867 50.6031 27.3467 50.6031 29.48V40.6H49.8031V21.24H86.2031V40.6ZM112.453 41.96C123.599 43.0267 129.173 48.7867 129.173 59.24C129.173 65.32 127.493 69.8 124.133 72.68C120.773 75.56 115.573 77 108.533 77H89.0125V76.2H92.0525C93.1192 76.2 93.8658 75.9867 94.2925 75.56C94.7725 75.1333 95.0125 74.3867 95.0125 73.32V24.92C95.0125 23.8533 94.7725 23.1067 94.2925 22.68C93.8658 22.2533 93.1192 22.04 92.0525 22.04H89.0125V21.24H108.372C111.999 21.24 115.013 21.72 117.413 22.68C119.813 23.64 121.653 24.8667 122.933 26.36C124.213 27.8 124.906 29.4 125.013 31.16C125.173 32.8667 124.799 34.4933 123.893 36.04C123.039 37.5867 121.626 38.92 119.653 40.04C117.733 41.1067 115.333 41.7467 112.453 41.96ZM99.4125 41.56H108.372C112.533 41.56 115.493 40.8133 117.253 39.32C119.013 37.8267 119.893 35.32 119.893 31.8C119.893 28.28 119.013 25.7733 117.253 24.28C115.493 22.7867 112.533 22.04 108.372 22.04H99.4125V41.56ZM108.533 76.2C113.973 76.2 117.999 74.84 120.613 72.12C123.226 69.3467 124.533 65.0533 124.533 59.24C124.533 53.48 123.226 49.24 120.613 46.52C117.999 43.7467 113.973 42.36 108.533 42.36H99.4125V76.2H108.533ZM158.151 20.2C166.257 20.2 172.524 22.7067 176.951 27.72C181.377 32.7333 183.591 39.8533 183.591 49.08C183.591 53.6667 183.031 57.7467 181.911 61.32C180.791 64.8933 179.137 67.9333 176.951 70.44C174.817 72.8933 172.151 74.7867 168.951 76.12C165.804 77.4 162.204 78.04 158.151 78.04C150.044 78.04 143.777 75.5333 139.351 70.52C134.924 65.5067 132.711 58.3867 132.711 49.16C132.711 44.5733 133.271 40.4933 134.391 36.92C135.511 33.3467 137.137 30.3333 139.271 27.88C141.457 25.3733 144.124 23.48 147.271 22.2C150.471 20.8667 154.097 20.2 158.151 20.2ZM158.151 77.24C161.351 77.24 164.231 76.5733 166.791 75.24C169.351 73.9067 171.537 72.04 173.351 69.64C175.164 67.1867 176.551 64.2267 177.511 60.76C178.471 57.2933 178.951 53.4 178.951 49.08C178.951 44.8133 178.444 40.9467 177.431 37.48C176.471 34.0133 175.084 31.0533 173.271 28.6C171.511 26.1467 169.351 24.28 166.791 23C164.231 21.6667 161.351 21 158.151 21C154.951 21 152.071 21.6667 149.511 23C146.951 24.3333 144.764 26.2267 142.951 28.68C141.137 31.08 139.751 34.0133 138.791 37.48C137.831 40.9467 137.351 44.84 137.351 49.16C137.351 52.4667 137.697 55.8 138.391 59.16C139.084 62.4667 140.231 65.48 141.831 68.2C143.484 70.8667 145.644 73.0533 148.311 74.76C150.977 76.4133 154.257 77.24 158.151 77.24ZM205.169 21.24C210.876 21.24 214.983 22.0667 217.489 23.72C220.049 25.32 221.329 28.0133 221.329 31.8C221.329 35.5867 220.049 38.3067 217.489 39.96C214.983 41.56 210.876 42.36 205.169 42.36H196.209V73.24C196.209 74.1467 196.476 74.8667 197.009 75.4C197.596 75.9333 198.316 76.2 199.169 76.2H202.209V77H185.809V76.2H188.849C189.916 76.2 190.663 75.9867 191.089 75.56C191.569 75.1333 191.809 74.36 191.809 73.24V24.92C191.809 23 190.823 22.04 188.849 22.04H185.809V21.24H205.169ZM205.169 41.56C209.329 41.56 212.289 40.8133 214.049 39.32C215.809 37.8267 216.689 35.32 216.689 31.8C216.689 28.28 215.809 25.7733 214.049 24.28C212.289 22.7867 209.329 22.04 205.169 22.04H196.209V41.56H205.169ZM271.22 77H254.82V76.2H258.9C260.287 76.2 260.98 75.6133 260.98 74.44C260.98 74.1733 260.953 73.96 260.9 73.8L255.78 58.36H235.3L231.46 71.96C231.353 72.2267 231.3 72.4667 231.3 72.68C231.3 72.84 231.3 73.0267 231.3 73.24C231.3 74.1467 231.567 74.8667 232.1 75.4C232.687 75.9333 233.433 76.2 234.34 76.2H236.34V77H223.54V76.2H225.62C226.847 76.2 227.887 75.8533 228.74 75.16C229.593 74.4133 230.233 73.32 230.66 71.88L243.86 25.16C243.913 24.9467 243.94 24.76 243.94 24.6C243.993 24.44 244.02 24.28 244.02 24.12C244.02 23.4267 243.807 22.92 243.38 22.6C242.953 22.2267 242.393 22.04 241.7 22.04H236.26V21.24H248.02L265.54 73.96C266.02 75.4533 267.22 76.2 269.14 76.2H271.22V77ZM244.74 25.4L235.54 57.56H255.46L244.74 25.4Z" fill="black"/>
<path d="M4.08 142.2H7.76C8.88 142.2 9.76 141.987 10.4 141.56C11.04 141.133 11.6533 140.467 12.24 139.56L32 108.76L15.04 90.68C14.4 89.9333 13.7867 89.32 13.2 88.84C12.6667 88.3067 11.8933 88.04 10.88 88.04H9.28V87.24H25.44V88.04H21.28C20.1067 88.04 19.52 88.52 19.52 89.48C19.52 89.6933 19.52 89.9067 19.52 90.12C19.5733 90.3333 19.68 90.5467 19.84 90.76L39.92 113.4V90.92C39.92 90.0667 39.4933 89.3733 38.64 88.84C37.84 88.3067 37.0133 88.04 36.16 88.04H33.12V87.24H49.52V88.04H46.48C45.6267 88.04 44.8533 88.3067 44.16 88.84C43.4667 89.3733 43.12 90.0667 43.12 90.92V113.96L63.36 90.84C63.52 90.68 63.4933 90.44 63.28 90.12C63.12 89.8 62.8267 89.48 62.4 89.16C61.9733 88.84 61.4933 88.5733 60.96 88.36C60.4267 88.1467 59.92 88.04 59.44 88.04H57.28V87.24H70.08V88.04H68.96C68.2667 88.04 67.7067 88.0933 67.28 88.2C66.8533 88.3067 66.48 88.4667 66.16 88.68C65.8933 88.8933 65.6 89.1867 65.28 89.56C64.96 89.9333 64.56 90.4133 64.08 91L48.32 109L70.64 139.48C71.3333 140.44 71.9733 141.133 72.56 141.56C73.1467 141.933 74 142.12 75.12 142.12H77.2V142.92H63.2V142.12H67.76C68.4533 142.12 68.8 141.933 68.8 141.56C68.8 141.293 68.6933 140.973 68.48 140.6L46.56 111L43.12 115V139.32C43.12 140.173 43.4667 140.867 44.16 141.4C44.8533 141.933 45.6267 142.2 46.48 142.2H49.52V143H33.12V142.2H36.16C37.0133 142.2 37.84 141.933 38.64 141.4C39.4933 140.867 39.92 140.173 39.92 139.32V117.24L34.16 111.08L14.4 140.68C14.1867 141.053 14.08 141.373 14.08 141.64C14.08 142.013 14.4267 142.2 15.12 142.2H19.68V143H4.08V142.2ZM75.9906 88.04H77.9106C79.084 88.04 80.044 88.44 80.7906 89.24C81.5906 89.9867 81.9906 91 81.9906 92.28V144.04L114.791 90.76V137.96C114.791 139.24 114.391 140.28 113.591 141.08C112.844 141.827 111.884 142.2 110.711 142.2H108.791V143H121.591V142.2H119.671C118.497 142.2 117.511 141.827 116.711 141.08C115.964 140.28 115.591 139.24 115.591 137.96V90.76C115.591 90.0133 115.857 89.3733 116.391 88.84C116.977 88.3067 117.697 88.04 118.551 88.04H121.591V87.24H111.751L82.7906 134.44V92.28C82.7906 91 83.164 89.9867 83.9106 89.24C84.7106 88.44 85.6973 88.04 86.8706 88.04H88.7906V87.24H75.9906V88.04ZM147.399 107.96C158.546 109.027 164.119 114.787 164.119 125.24C164.119 131.32 162.439 135.8 159.079 138.68C155.719 141.56 150.519 143 143.479 143H123.959V142.2H126.999C128.066 142.2 128.813 141.987 129.239 141.56C129.719 141.133 129.959 140.387 129.959 139.32V90.92C129.959 89.8533 129.719 89.1067 129.239 88.68C128.813 88.2533 128.066 88.04 126.999 88.04H123.959V87.24H143.319C146.946 87.24 149.959 87.72 152.359 88.68C154.759 89.64 156.599 90.8667 157.879 92.36C159.159 93.8 159.853 95.4 159.959 97.16C160.119 98.8667 159.746 100.493 158.839 102.04C157.986 103.587 156.573 104.92 154.599 106.04C152.679 107.107 150.279 107.747 147.399 107.96ZM134.359 107.56H143.319C147.479 107.56 150.439 106.813 152.199 105.32C153.959 103.827 154.839 101.32 154.839 97.8C154.839 94.28 153.959 91.7733 152.199 90.28C150.439 88.7867 147.479 88.04 143.319 88.04H134.359V107.56ZM143.479 142.2C148.919 142.2 152.946 140.84 155.559 138.12C158.173 135.347 159.479 131.053 159.479 125.24C159.479 119.48 158.173 115.24 155.559 112.52C152.946 109.747 148.919 108.36 143.479 108.36H134.359V142.2H143.479ZM214.057 143H197.657V142.2H201.737C203.124 142.2 203.817 141.613 203.817 140.44C203.817 140.173 203.791 139.96 203.737 139.8L198.617 124.36H178.137L174.297 137.96C174.191 138.227 174.137 138.467 174.137 138.68C174.137 138.84 174.137 139.027 174.137 139.24C174.137 140.147 174.404 140.867 174.937 141.4C175.524 141.933 176.271 142.2 177.177 142.2H179.177V143H166.377V142.2H168.457C169.684 142.2 170.724 141.853 171.577 141.16C172.431 140.413 173.071 139.32 173.497 137.88L186.697 91.16C186.751 90.9467 186.777 90.76 186.777 90.6C186.831 90.44 186.857 90.28 186.857 90.12C186.857 89.4267 186.644 88.92 186.217 88.6C185.791 88.2267 185.231 88.04 184.537 88.04H179.097V87.24H190.857L208.377 139.96C208.857 141.453 210.057 142.2 211.977 142.2H214.057V143ZM187.577 91.4L178.377 123.56H198.297L187.577 91.4ZM256.491 88.04C255.638 88.04 254.918 88.3067 254.331 88.84C253.798 89.3733 253.531 90.0667 253.531 90.92V139.32C253.531 140.173 253.798 140.867 254.331 141.4C254.918 141.933 255.638 142.2 256.491 142.2H259.531V143H243.131V142.2H246.171C247.025 142.2 247.718 141.933 248.251 141.4C248.838 140.867 249.131 140.173 249.131 139.32V108.36H225.531V139.32C225.531 140.173 225.798 140.867 226.331 141.4C226.918 141.933 227.638 142.2 228.491 142.2H231.531V143H215.131V142.2H218.171C219.025 142.2 219.718 141.933 220.251 141.4C220.838 140.867 221.131 140.173 221.131 139.32V90.92C221.131 90.0667 220.838 89.3733 220.251 88.84C219.718 88.3067 219.025 88.04 218.171 88.04H215.131V87.24H231.531V88.04H228.491C227.638 88.04 226.918 88.3067 226.331 88.84C225.798 89.3733 225.531 90.0667 225.531 90.92V107.56H249.131V90.92C249.131 90.0667 248.838 89.3733 248.251 88.84C247.718 88.3067 247.025 88.04 246.171 88.04H243.131V87.24H259.531V88.04H256.491ZM261.928 88.04H263.848C265.021 88.04 265.981 88.44 266.728 89.24C267.528 89.9867 267.928 91 267.928 92.28V144.04L300.728 90.76V137.96C300.728 139.24 300.328 140.28 299.528 141.08C298.781 141.827 297.821 142.2 296.648 142.2H294.728V143H307.528V142.2H305.608C304.435 142.2 303.448 141.827 302.648 141.08C301.901 140.28 301.528 139.24 301.528 137.96V90.76C301.528 90.0133 301.795 89.3733 302.328 88.84C302.915 88.3067 303.635 88.04 304.488 88.04H307.528V87.24H297.688L268.728 134.44V92.28C268.728 91 269.101 89.9867 269.848 89.24C270.648 88.44 271.635 88.04 272.808 88.04H274.728V87.24H261.928V88.04ZM347.897 143H309.897V142.2H312.937C313.79 142.2 314.484 141.933 315.017 141.4C315.604 140.867 315.897 140.173 315.897 139.32V90.92C315.897 90.0667 315.604 89.3733 315.017 88.84C314.484 88.3067 313.79 88.04 312.937 88.04H309.897V87.24H345.097V106.6H344.297V95.32C344.297 93.1867 343.604 91.4533 342.217 90.12C340.83 88.7333 339.097 88.04 337.017 88.04H320.297V107.56H339.497V108.36H320.297V142.2H338.297C339.577 142.2 340.75 141.96 341.817 141.48C342.884 141 343.817 140.36 344.617 139.56C345.417 138.76 346.03 137.8 346.457 136.68C346.884 135.56 347.097 134.36 347.097 133.08V118.6H347.897V143Z" fill="black"/>
</svg>
