<svg width="269" height="37" viewBox="0 0 269 37" fill="none" xmlns="http://www.w3.org/2000/svg">
<path d="M22.75 1.15H0.75V1.65H2.65C3.7 1.65 4.5 2.35 4.5 3.5V33.55C4.5 34.75 3.7 35.5 2.65 35.5H0.75V36H12.5V35.5H9.1C8.05 35.5 7.25 34.75 7.25 33.55V24.35H20.75V23.85H7.25V1.65H17.7C20.3 1.65 22.25 3.55 22.25 6.2V13.25H22.75V1.15ZM40.1363 0.499998C29.9863 0.499998 24.2363 7.15 24.2363 18.6C24.2363 30.05 30.0863 36.65 40.1363 36.65C50.2863 36.65 56.0363 30 56.0363 18.55C56.0363 7.1 50.1863 0.499998 40.1363 0.499998ZM30.6363 31.45C28.2863 28.3 27.1363 24 27.1363 18.6C27.1363 7.85 32.1363 0.999998 40.1363 0.999998C48.0863 0.999998 53.1363 7.85 53.1363 18.55C53.1363 29.3 48.1363 36.15 40.1363 36.15C36.1363 36.15 32.9863 34.6 30.6363 31.45ZM81.7105 35.5H80.4105C78.5605 35.5 78.0605 33.9 78.0605 29.15V21.45C78.0605 17.1 75.5605 14.7 70.5105 14.15C76.2605 13.8 78.5605 11.9 78.5605 7.75C78.5605 3.1 75.6105 1.15 68.1605 1.15H56.5605V1.65H58.3605C59.5105 1.65 60.3105 2.35 60.3105 3.5V33.65C60.3105 34.7 59.5105 35.5 58.4605 35.5H56.5605V36H66.8105V35.5H64.9105C63.8605 35.5 63.0605 34.7 63.0605 33.65V14.35H67.8105C72.8105 14.35 75.3105 16.7 75.3105 21.45V29.15C75.3105 33.7 76.5605 36 79.8105 36H81.7105V35.5ZM63.0605 13.85V1.65H68.1605C73.5605 1.65 75.6605 3.4 75.6605 7.75C75.6605 12.1 73.5605 13.85 68.1605 13.85H63.0605ZM119.727 1.65V1.15H113.727L101.727 31.65L89.1266 1.15H82.9766V1.65H84.8766C85.9266 1.65 86.7266 2.35 86.7266 3.55V32.75C86.7266 34.5 85.6266 35.5 84.1766 35.5H82.9766V36H90.9766V35.5H89.7766C88.3266 35.5 87.2266 34.5 87.2266 32.75V3.7L100.477 36.05L113.227 3.75V33.55C113.227 34.75 112.427 35.5 111.377 35.5H109.477V36H119.727V35.5H117.827C116.777 35.5 115.977 34.75 115.977 33.55V3.5C115.977 2.35 116.777 1.65 117.827 1.65H119.727ZM136.132 0.499998C125.982 0.499998 120.232 7.15 120.232 18.6C120.232 30.05 126.082 36.65 136.132 36.65C146.282 36.65 152.032 30 152.032 18.55C152.032 7.1 146.182 0.499998 136.132 0.499998ZM126.632 31.45C124.282 28.3 123.132 24 123.132 18.6C123.132 7.85 128.132 0.999998 136.132 0.999998C144.082 0.999998 149.132 7.85 149.132 18.55C149.132 29.3 144.132 36.15 136.132 36.15C132.132 36.15 128.982 34.6 126.632 31.45ZM178.555 1.65V1.15H170.555V1.65H171.905C173.105 1.65 173.955 2.5 173.955 3.65C173.955 3.85 173.905 4.05 173.855 4.3L166.255 30.9L157.055 3.35C156.955 3.15 156.955 2.95 156.955 2.75C156.955 2.05 157.505 1.65 158.405 1.65H160.805V1.15H150.555V1.65H151.705C153.005 1.65 153.805 2.2 154.205 3.35L165.255 36.6L174.405 4.3C174.905 2.55 176.055 1.65 177.855 1.65H178.555ZM201.839 35.5H200.539C199.339 35.5 198.589 35.05 198.289 34.1L187.339 1.15H179.989V1.65H183.389C184.239 1.65 184.839 2.1 184.839 2.95C184.839 3.15 184.789 3.35 184.739 3.6L176.489 32.8C175.989 34.6 174.839 35.5 173.339 35.5H172.039V36H180.039V35.5H178.789C177.689 35.5 176.889 34.75 176.889 33.65C176.889 33.4 176.889 33.15 176.989 32.85L179.389 24.35H192.189L195.389 34C195.439 34.15 195.439 34.3 195.439 34.4C195.439 35.05 194.939 35.5 194.139 35.5H191.589V36H201.839V35.5ZM191.989 23.85H179.539L185.289 3.75L191.989 23.85ZM231.838 1.15H223.838V1.65H225.038C226.488 1.65 227.588 2.7 227.588 4.3V30.65L209.488 1.15H203.338V1.65H205.238C206.288 1.65 207.088 2.4 207.088 3.35V32.85C207.088 34.45 205.988 35.5 204.538 35.5H203.338V36H211.338V35.5H210.138C208.688 35.5 207.588 34.45 207.588 32.85V3.35L228.088 36.65V4.3C228.088 2.7 229.188 1.65 230.638 1.65H231.838V1.15ZM243.568 1.65V1.15H233.318V1.65H235.218C236.268 1.65 237.068 2.4 237.068 3.45V33.7C237.068 34.75 236.268 35.5 235.218 35.5H233.318V36H243.568V35.5H241.668C240.618 35.5 239.818 34.75 239.818 33.7V3.45C239.818 2.4 240.618 1.65 241.668 1.65H243.568ZM268.836 20.75H268.336V29.8C268.336 33 266.036 35.5 262.836 35.5H251.586V14.35H263.586V13.85H251.586V1.65H262.036C264.636 1.65 266.586 3.55 266.586 6.2V13.25H267.086V1.15H245.086V1.65H246.986C248.036 1.65 248.836 2.4 248.836 3.45V33.7C248.836 34.75 248.036 35.5 246.986 35.5H245.086V36H268.836V20.75Z" fill="black"/>
</svg>
