<svg width="300" height="37" viewBox="0 0 300 37" fill="none" xmlns="http://www.w3.org/2000/svg">
<path d="M20.6 24.35H17.25V33.65C17.25 34.1833 17.4167 34.6333 17.75 35C18.1167 35.3333 18.5667 35.5 19.1 35.5H21V36H10.7V35.5H12.6C13.1333 35.5 13.5667 35.3333 13.9 35C14.2667 34.6333 14.45 34.1833 14.45 33.65V24.35H11.1C7.16667 24.35 4.36667 23.3833 2.7 21.45C1.06667 19.4833 0.25 16.5333 0.25 12.6C0.25 8.63333 1.06667 5.75 2.7 3.95C4.36667 2.11666 7.05 1.18333 10.75 1.15H20.95C24.65 1.18333 27.3167 2.11666 28.95 3.95C30.6167 5.75 31.45 8.63333 31.45 12.6C31.45 14.5667 31.25 16.2833 30.85 17.75C30.4833 19.2167 29.8667 20.45 29 21.45C28.1333 22.4167 27 23.15 25.6 23.65C24.2333 24.1167 22.5667 24.35 20.6 24.35ZM14.45 23.85V2.85C14.3167 2.05 13.7167 1.65 12.65 1.65H10.85C8.15 1.65 6.18333 2.51666 4.95 4.25C3.75 5.98333 3.15 8.75 3.15 12.55C3.15 16.4833 3.76667 19.35 5 21.15C6.26667 22.95 8.21667 23.85 10.85 23.85H14.45ZM20.85 23.85C23.4833 23.85 25.4167 22.95 26.65 21.15C27.9167 19.35 28.55 16.4833 28.55 12.55C28.55 8.75 27.9333 5.98333 26.7 4.25C25.5 2.51666 23.55 1.65 20.85 1.65H19.05C17.9833 1.65 17.3833 2.05 17.25 2.85V23.85H20.85ZM49.6508 0.499998C54.7174 0.499998 58.6341 2.06666 61.4008 5.2C64.1674 8.33333 65.5508 12.7833 65.5508 18.55C65.5508 21.4167 65.2008 23.9667 64.5008 26.2C63.8008 28.4333 62.7674 30.3333 61.4008 31.9C60.0675 33.4333 58.4008 34.6167 56.4008 35.45C54.4341 36.25 52.1841 36.65 49.6508 36.65C44.5841 36.65 40.6674 35.0833 37.9008 31.95C35.1341 28.8167 33.7508 24.3667 33.7508 18.6C33.7508 15.7333 34.1008 13.1833 34.8008 10.95C35.5008 8.71667 36.5174 6.83333 37.8508 5.3C39.2174 3.73333 40.8841 2.55 42.8508 1.75C44.8508 0.916664 47.1174 0.499998 49.6508 0.499998ZM49.6508 36.15C51.6508 36.15 53.4508 35.7333 55.0508 34.9C56.6508 34.0667 58.0174 32.9 59.1508 31.4C60.2841 29.8667 61.1508 28.0167 61.7508 25.85C62.3508 23.6833 62.6508 21.25 62.6508 18.55C62.6508 15.8833 62.3341 13.4667 61.7008 11.3C61.1008 9.13333 60.2341 7.28333 59.1008 5.75C58.0008 4.21667 56.6508 3.05 55.0508 2.25C53.4508 1.41666 51.6508 0.999998 49.6508 0.999998C47.6508 0.999998 45.8508 1.41666 44.2508 2.25C42.6508 3.08333 41.2841 4.26666 40.1508 5.8C39.0174 7.3 38.1508 9.13333 37.5508 11.3C36.9508 13.4667 36.6508 15.9 36.6508 18.6C36.6508 20.6667 36.8674 22.75 37.3008 24.85C37.7341 26.9167 38.4508 28.8 39.4508 30.5C40.4841 32.1667 41.8341 33.5333 43.5008 34.6C45.1674 35.6333 47.2174 36.15 49.6508 36.15ZM79.0375 1.15C82.6042 1.15 85.1708 1.66667 86.7375 2.7C88.3375 3.7 89.1375 5.38333 89.1375 7.75C89.1375 10.1167 88.3375 11.8167 86.7375 12.85C85.1708 13.85 82.6042 14.35 79.0375 14.35H73.4375V33.65C73.4375 34.2167 73.6042 34.6667 73.9375 35C74.3042 35.3333 74.7542 35.5 75.2875 35.5H77.1875V36H66.9375V35.5H68.8375C69.5042 35.5 69.9708 35.3667 70.2375 35.1C70.5375 34.8333 70.6875 34.35 70.6875 33.65V3.45C70.6875 2.25 70.0708 1.65 68.8375 1.65H66.9375V1.15H79.0375ZM79.0375 13.85C81.6375 13.85 83.4875 13.3833 84.5875 12.45C85.6875 11.5167 86.2375 9.95 86.2375 7.75C86.2375 5.55 85.6875 3.98333 84.5875 3.05C83.4875 2.11666 81.6375 1.65 79.0375 1.65H73.4375V13.85H79.0375ZM125.469 1.65C124.936 1.65 124.486 1.81666 124.119 2.15C123.786 2.48333 123.619 2.93333 123.619 3.5V33.55C123.619 34.15 123.786 34.6333 124.119 35C124.486 35.3333 124.936 35.5 125.469 35.5H127.369V36H117.119V35.5H119.019C119.552 35.5 119.986 35.3333 120.319 35C120.686 34.6333 120.869 34.15 120.869 33.55V3.75L108.119 36.05L94.8691 3.7V32.75C94.8691 33.6167 95.1025 34.3 95.5691 34.8C96.0691 35.2667 96.6858 35.5 97.4191 35.5H98.6191V36H90.6191V35.5H91.8191C92.5525 35.5 93.1525 35.2667 93.6191 34.8C94.1191 34.3 94.3691 33.6167 94.3691 32.75V3.55C94.3691 2.95 94.1858 2.48333 93.8191 2.15C93.4858 1.81666 93.0525 1.65 92.5191 1.65H90.6191V1.15H96.7691L109.369 31.65L121.369 1.15H127.369V1.65H125.469ZM158.552 36H148.302V35.5H150.852C151.718 35.5 152.152 35.1333 152.152 34.4C152.152 34.2333 152.135 34.1 152.102 34L148.902 24.35H136.102L133.702 32.85C133.635 33.0167 133.602 33.1667 133.602 33.3C133.602 33.4 133.602 33.5167 133.602 33.65C133.602 34.2167 133.768 34.6667 134.102 35C134.468 35.3333 134.935 35.5 135.502 35.5H136.752V36H128.752V35.5H130.052C130.818 35.5 131.468 35.2833 132.002 34.85C132.535 34.3833 132.935 33.7 133.202 32.8L141.452 3.6C141.485 3.46667 141.502 3.35 141.502 3.25C141.535 3.15 141.552 3.05 141.552 2.95C141.552 2.51667 141.418 2.2 141.152 2C140.885 1.76667 140.535 1.65 140.102 1.65H136.702V1.15H144.052L155.002 34.1C155.302 35.0333 156.052 35.5 157.252 35.5H158.552V36ZM142.002 3.75L136.252 23.85H148.702L142.002 3.75ZM173.873 14.1C180.839 14.7667 184.323 18.3667 184.323 24.9C184.323 28.7 183.273 31.5 181.173 33.3C179.073 35.1 175.823 36 171.423 36H159.223V35.5H161.123C161.789 35.5 162.256 35.3667 162.523 35.1C162.823 34.8333 162.973 34.3667 162.973 33.7V3.45C162.973 2.78333 162.823 2.31667 162.523 2.05C162.256 1.78333 161.789 1.65 161.123 1.65H159.223V1.15H171.323C173.589 1.15 175.473 1.45 176.973 2.05C178.473 2.65 179.623 3.41667 180.423 4.35C181.223 5.25 181.656 6.25 181.723 7.35C181.823 8.41667 181.589 9.43333 181.023 10.4C180.489 11.3667 179.606 12.2 178.373 12.9C177.173 13.5667 175.673 13.9667 173.873 14.1ZM165.723 13.85H171.323C173.923 13.85 175.773 13.3833 176.873 12.45C177.973 11.5167 178.523 9.95 178.523 7.75C178.523 5.55 177.973 3.98333 176.873 3.05C175.773 2.11666 173.923 1.65 171.323 1.65H165.723V13.85ZM171.423 35.5C174.823 35.5 177.339 34.65 178.973 32.95C180.606 31.2167 181.423 28.5333 181.423 24.9C181.423 21.3 180.606 18.65 178.973 16.95C177.339 15.2167 174.823 14.35 171.423 14.35H165.723V35.5H171.423ZM215.534 36H205.284V35.5H207.834C208.701 35.5 209.134 35.1333 209.134 34.4C209.134 34.2333 209.117 34.1 209.084 34L205.884 24.35H193.084L190.684 32.85C190.617 33.0167 190.584 33.1667 190.584 33.3C190.584 33.4 190.584 33.5167 190.584 33.65C190.584 34.2167 190.751 34.6667 191.084 35C191.451 35.3333 191.917 35.5 192.484 35.5H193.734V36H185.734V35.5H187.034C187.801 35.5 188.451 35.2833 188.984 34.85C189.517 34.3833 189.917 33.7 190.184 32.8L198.434 3.6C198.467 3.46667 198.484 3.35 198.484 3.25C198.517 3.15 198.534 3.05 198.534 2.95C198.534 2.51667 198.401 2.2 198.134 2C197.867 1.76667 197.517 1.65 197.084 1.65H193.684V1.15H201.034L211.984 34.1C212.284 35.0333 213.034 35.5 214.234 35.5H215.534V36ZM198.984 3.75L193.234 23.85H205.684L198.984 3.75ZM242.055 1.65C241.522 1.65 241.072 1.81666 240.705 2.15C240.372 2.48333 240.205 2.91666 240.205 3.45V33.7C240.205 34.2333 240.372 34.6667 240.705 35C241.072 35.3333 241.522 35.5 242.055 35.5H243.955V36H233.705V35.5H235.605C236.138 35.5 236.572 35.3333 236.905 35C237.272 34.6667 237.455 34.2333 237.455 33.7V14.35H222.705V33.7C222.705 34.2333 222.872 34.6667 223.205 35C223.572 35.3333 224.022 35.5 224.555 35.5H226.455V36H216.205V35.5H218.105C218.638 35.5 219.072 35.3333 219.405 35C219.772 34.6667 219.955 34.2333 219.955 33.7V3.45C219.955 2.91666 219.772 2.48333 219.405 2.15C219.072 1.81666 218.638 1.65 218.105 1.65H216.205V1.15H226.455V1.65H224.555C224.022 1.65 223.572 1.81666 223.205 2.15C222.872 2.48333 222.705 2.91666 222.705 3.45V13.85H237.455V3.45C237.455 2.91666 237.272 2.48333 236.905 2.15C236.572 1.81666 236.138 1.65 235.605 1.65H233.705V1.15H243.955V1.65H242.055ZM245.453 1.65H246.653C247.386 1.65 247.986 1.9 248.453 2.4C248.953 2.86666 249.203 3.5 249.203 4.3V36.65L269.703 3.35V32.85C269.703 33.65 269.453 34.3 268.953 34.8C268.486 35.2667 267.886 35.5 267.153 35.5H265.953V36H273.953V35.5H272.753C272.02 35.5 271.403 35.2667 270.903 34.8C270.436 34.3 270.203 33.65 270.203 32.85V3.35C270.203 2.88333 270.37 2.48333 270.703 2.15C271.07 1.81666 271.52 1.65 272.053 1.65H273.953V1.15H267.803L249.703 30.65V4.3C249.703 3.5 249.936 2.86666 250.403 2.4C250.903 1.9 251.52 1.65 252.253 1.65H253.453V1.15H245.453V1.65ZM299.184 36H275.434V35.5H277.334C277.867 35.5 278.3 35.3333 278.634 35C279 34.6667 279.184 34.2333 279.184 33.7V3.45C279.184 2.91666 279 2.48333 278.634 2.15C278.3 1.81666 277.867 1.65 277.334 1.65H275.434V1.15H297.434V13.25H296.934V6.2C296.934 4.86667 296.5 3.78333 295.634 2.95C294.767 2.08333 293.684 1.65 292.384 1.65H281.934V13.85H293.934V14.35H281.934V35.5H293.184C293.984 35.5 294.717 35.35 295.384 35.05C296.05 34.75 296.634 34.35 297.134 33.85C297.634 33.35 298.017 32.75 298.284 32.05C298.55 31.35 298.684 30.6 298.684 29.8V20.75H299.184V36Z" fill="black"/>
</svg>
