<svg width="500" height="261" viewBox="0 0 500 261" fill="none" xmlns="http://www.w3.org/2000/svg">
<path d="M0.43 3.086V4.70599H6.586C10.636 4.70599 12.58 6.65 12.58 10.538V108.386C12.58 112.922 10.96 114.38 6.586 114.38H0.43V116H33.64V114.38H27.484C24.082 114.38 21.49 112.112 21.49 108.386V45.854H39.634C62.8 45.854 72.358 39.86 72.358 24.47C72.358 9.08 62.8 3.086 39.634 3.086H0.43ZM21.49 44.234V4.70599H39.634C56.32 4.70599 62.962 10.214 62.962 24.47C62.962 38.726 56.32 44.234 39.634 44.234H21.49ZM149.204 66.59H147.584V95.912C147.584 106.28 140.132 114.38 129.764 114.38H93.3142V45.854H132.194V44.234H93.3142V4.70599H127.172C135.596 4.70599 141.914 10.862 141.914 19.448V42.29H143.534V3.086H72.2542V4.70599H78.4102C81.8122 4.70599 84.4042 7.13599 84.4042 10.538V108.548C84.4042 111.95 81.8122 114.38 78.4102 114.38H72.2542V116H149.204V66.59ZM245.413 93.644C236.341 107.414 221.761 116.486 205.561 116.486C180.127 116.486 163.441 91.7 163.441 59.624C163.441 25.442 181.261 2.59999 207.019 2.59999C225.487 2.59999 242.659 14.264 242.821 39.86V42.29H244.441V3.086H242.821V10.7C242.821 13.13 241.849 14.264 240.067 14.264C238.771 14.264 237.475 13.616 236.179 12.482C226.783 4.86799 216.577 0.979994 205.561 0.979994C175.267 0.979994 154.045 25.442 154.045 59.624C154.045 93.806 175.105 118.106 205.561 118.106C222.247 118.106 237.313 109.034 246.871 94.616L245.413 93.644ZM326.177 3.086H252.467V42.29H254.087V19.772C254.087 11.186 260.243 4.70599 268.505 4.70599H284.867V108.224C284.867 111.95 282.437 114.38 278.711 114.38H267.857V116H310.787V114.38H299.933C296.207 114.38 293.777 111.95 293.777 108.224V4.70599H309.815C318.239 4.70599 324.557 11.024 324.557 19.448V42.29H326.177V3.086ZM383.382 0.979994C350.496 0.979994 331.866 22.526 331.866 59.624C331.866 96.722 350.82 118.106 383.382 118.106C416.268 118.106 434.898 96.56 434.898 59.462C434.898 22.364 415.944 0.979994 383.382 0.979994ZM352.602 101.258C344.988 91.052 341.262 77.12 341.262 59.624C341.262 24.794 357.462 2.59999 383.382 2.59999C409.14 2.59999 425.502 24.794 425.502 59.462C425.502 94.292 409.302 116.486 383.382 116.486C370.422 116.486 360.216 111.464 352.602 101.258ZM447.082 115.028C448.054 114.056 448.702 112.436 448.702 110.816C448.702 107.576 446.272 105.146 443.032 105.146C439.63 105.146 437.362 107.414 437.362 110.816C437.362 114.38 439.468 116.486 443.032 116.486C444.49 116.486 446.11 116 447.082 115.028ZM215.586 189.234H175.086V190.854H215.586V189.234ZM249.6 148.086V149.706H255.756C259.806 149.706 261.75 151.65 261.75 155.538V253.386C261.75 257.922 260.13 259.38 255.756 259.38H249.6V261H282.81V259.38H276.654C273.252 259.38 270.66 257.112 270.66 253.386V190.854H288.804C311.97 190.854 321.528 184.86 321.528 169.47C321.528 154.08 311.97 148.086 288.804 148.086H249.6ZM270.66 189.234V149.706H288.804C305.49 149.706 312.132 155.214 312.132 169.47C312.132 183.726 305.49 189.234 288.804 189.234H270.66ZM405.003 259.38H400.791C396.903 259.38 394.473 257.922 393.501 254.844L358.023 148.086H334.209V149.706H345.225C347.979 149.706 349.923 151.164 349.923 153.918C349.923 154.566 349.761 155.214 349.599 156.024L322.869 250.632C321.249 256.464 317.523 259.38 312.663 259.38H308.451V261H334.371V259.38H330.321C326.757 259.38 324.165 256.95 324.165 253.386C324.165 252.576 324.165 251.766 324.489 250.794L332.265 223.254H373.737L384.105 254.52C384.267 255.006 384.267 255.492 384.267 255.816C384.267 257.922 382.647 259.38 380.055 259.38H371.793V261H405.003V259.38ZM373.089 221.634H332.751L351.381 156.51L373.089 221.634ZM499.77 149.706V148.086H466.56V149.706H472.716C476.118 149.706 478.71 152.136 478.71 155.538V189.234H430.92V155.538C430.92 152.136 433.512 149.706 436.914 149.706H443.07V148.086H409.86V149.706H416.016C419.418 149.706 422.01 152.136 422.01 155.538V253.548C422.01 256.95 419.418 259.38 416.016 259.38H409.86V261H443.07V259.38H436.914C433.512 259.38 430.92 256.95 430.92 253.548V190.854H478.71V253.548C478.71 256.95 476.118 259.38 472.716 259.38H466.56V261H499.77V259.38H493.614C490.212 259.38 487.62 256.95 487.62 253.548V155.538C487.62 152.136 490.212 149.706 493.614 149.706H499.77Z" fill="black"/>
</svg>
