<svg width="544" height="545" viewBox="0 0 544 545" fill="none" xmlns="http://www.w3.org/2000/svg">
<g opacity="0.2">
<path d="M151.371 62.2496L151.55 62.5995L157.148 59.7383L156.969 59.3885L156.024 59.8713C155.185 60.3005 154.286 60.0098 153.875 59.2051C153.803 59.0652 153.767 58.9074 153.712 58.7146L149.516 37.3854L165.806 53.3709C165.948 53.475 166.019 53.615 166.091 53.7549C166.341 54.2447 166.099 54.7212 165.47 55.0431L163.791 55.9015L163.969 56.2513L171.141 52.5854L170.962 52.2356L170.157 52.6469C169.248 53.1118 168.491 53.0131 167.8 52.3516L148.177 33.0397L153.327 58.9113C153.603 60.3145 153.121 61.3555 151.861 61.9993L151.371 62.2496Z" fill="black"/>
<path d="M121.535 49.1248L127.891 59.2836L128.224 59.0752L124.452 53.0465C123.056 50.815 123.642 48.2701 125.807 46.9157L131.569 43.3107L144.884 64.5941C145.385 65.3934 145.177 66.1723 144.411 66.6516L142.179 68.0477L142.387 68.3808L150.215 63.4839L150.006 63.1508L148.741 63.9427C148.041 64.3803 147.216 64.2474 146.716 63.448L134.193 43.4303C133.693 42.6309 133.934 41.8312 134.633 41.3936L135.899 40.6018L135.691 40.2687L121.535 49.1248Z" fill="black"/>
<path d="M99.5702 65.8325L100.384 65.2154C101.136 64.6458 101.819 64.5717 102.458 65.0242L124.954 80.4608L129.557 76.9722L129.32 76.659L127.191 78.2728C126.658 78.6763 126.069 78.6793 125.666 78.147C125.571 78.0217 125.507 77.8728 125.42 77.6925L116.726 55.491C116.185 54.1265 116.478 53.0171 117.417 52.3051L118.232 51.6881L117.994 51.3749L112.984 55.1721L113.222 55.4852L114.005 54.8919C114.693 54.3698 115.55 54.4597 116.073 55.1486C116.191 55.3051 116.31 55.4617 116.39 55.697L118.921 62.159L110.906 68.2345L104.321 63.7103C104.219 63.6401 104.148 63.5462 104.1 63.4836C103.792 63.0765 103.891 62.5574 104.392 62.1777L105.989 60.9674L105.752 60.6542L99.3329 65.5193L99.5702 65.8325ZM111.268 68.4527L119.065 62.5434L125.004 77.8596L111.268 68.4527Z" fill="black"/>
<path d="M101.626 87.168C102.051 86.9932 102.595 86.657 103.335 86.3021L106.293 84.8825C108.304 84.114 109.464 84.2793 110.496 85.412C112.533 87.6484 111.953 91.1534 108.816 94.0109C105.098 97.3975 101.167 96.4079 98.4687 93.4454L96.9606 91.7899L96.6702 92.0545L103.073 99.0831L103.364 98.8185L102.755 98.1505C102.358 97.7149 102.321 97.3238 102.698 96.9798C102.96 96.7417 103.356 96.5933 103.855 96.6165C105.634 96.6438 107.396 95.8359 109.11 94.2749C112.798 90.9147 113.104 87.3412 110.273 84.2335C108.021 81.8203 105.168 82.772 103.316 83.7147L100.382 85.2189C95.4236 87.769 91.5172 87.448 88.8714 84.5436C85.9874 81.3778 86.2343 77.2732 89.7196 74.0982C93.7567 70.4205 98.1923 71.3224 102.611 76.1728L103.854 77.5379L104.145 77.2733L96.075 68.4148L95.7846 68.6794L96.8694 69.8702C97.2663 70.3059 97.2482 70.6944 96.8706 71.0384C96.6092 71.2765 96.242 71.3984 95.7715 71.3487C93.5856 71.1078 91.4326 71.9531 89.3704 73.8316C85.6237 77.2447 85.3401 81.5423 88.9384 85.4923C93.7009 90.7202 98.5246 88.6644 101.626 87.168Z" fill="black"/>
<path d="M76.6654 104.474L76.9335 104.187L71.7337 99.336C69.8951 97.6208 69.6915 94.9592 71.4068 93.1206L77.437 86.6568L89.589 97.9937L83.1567 104.888L83.444 105.156L89.8763 98.2617L96.8859 104.801L91.2845 110.805C89.8909 112.299 87.754 112.401 86.2314 110.981L82.1807 107.202L81.9127 107.489L88.8649 113.975L100.657 101.334L100.37 101.066L99.3516 102.158C98.7888 102.761 97.9291 102.819 97.3258 102.256L79.9453 86.0416C79.342 85.4788 79.3399 84.6171 79.9027 84.0138L80.9211 82.9222L80.6339 82.6541L67.9034 96.3L76.6654 104.474Z" fill="black"/>
<path d="M73.0222 133.923L76.8748 128.956L76.5643 128.715L75.9864 129.46C75.2882 130.361 74.1065 130.538 73.113 129.768L56.7521 117.078L83.7854 120.046L86.7471 116.228L86.4366 115.987L85.5216 117.166C85.016 117.818 84.165 117.954 83.5752 117.496L65.2584 103.29C64.265 102.52 64.1427 101.331 64.841 100.431L65.4189 99.6855L65.1085 99.4447L61.2559 104.412L61.5663 104.653L62.1442 103.908C62.8425 103.007 64.0242 102.83 65.0176 103.6L83.3344 117.807L52.7859 114.499L72.8722 130.078C73.8657 130.849 73.9879 132.037 73.2896 132.938L72.7117 133.683L73.0222 133.923Z" fill="black"/>
<path d="M37.5507 139.476L38.0949 138.611C38.681 137.68 39.1982 137.449 40.3643 137.44L60.4014 137.102L62.2414 147.453C62.5074 148.874 62.2994 150.09 61.6505 151.12L61.2318 151.785L61.5643 151.995L65.5205 145.711L65.188 145.501L64.4135 146.732C63.974 147.43 63.3657 147.511 62.9667 147.26C62.7007 147.092 62.4975 146.825 62.4655 146.434L60.4247 135.074L61.0527 134.077L67.9683 138.431C68.6665 138.87 68.8303 139.716 68.3907 140.414L67.5953 141.678L67.9278 141.887L72.2189 135.071L71.8864 134.862L71.091 136.125C70.6514 136.824 69.8178 137.042 69.1196 136.602L49.0045 123.938C48.3063 123.498 48.1425 122.652 48.5821 121.954L49.3775 120.691L49.045 120.481L44.7539 127.297L45.0864 127.507L45.8818 126.243C46.3214 125.545 47.155 125.327 47.8532 125.767L60.7202 133.867L60.0713 134.898L41.092 135.252C40.863 135.247 40.709 135.197 40.6093 135.134C40.443 135.029 40.4603 134.854 40.6487 134.555L41.8418 132.66L41.5093 132.451L37.2182 139.267L37.5507 139.476Z" fill="black"/>
<path d="M54.5106 166.558C58.043 159.407 55.3591 153.042 47.2926 149.057C39.226 145.072 32.5404 146.896 29.0428 153.977C25.5105 161.127 28.1943 167.493 36.2609 171.477C44.3274 175.462 51.013 173.638 54.5106 166.558ZM36.0124 149.094C39.0494 148.534 42.479 149.221 46.2833 151.1C53.8567 154.841 56.9425 160.748 54.1584 166.384C51.3916 171.984 44.8083 173.158 37.2701 169.434C29.6967 165.693 26.611 159.787 29.3951 154.151C30.7872 151.333 32.9754 149.653 36.0124 149.094Z" fill="black"/>
<path d="M37.507 207.474L37.8797 207.598L39.8686 201.635L39.4959 201.51L39.1603 202.517C38.8619 203.411 38.017 203.834 37.1598 203.548C37.0107 203.498 36.8741 203.411 36.7001 203.311L18.7617 191.033L41.5849 191.025C41.7588 191 41.9079 191.05 42.057 191.099C42.5788 191.273 42.7402 191.783 42.5164 192.454L41.9198 194.243L42.2925 194.367L44.8407 186.727L44.468 186.602L44.1821 187.459C43.8589 188.429 43.2501 188.888 42.2934 188.9L14.7614 188.871L36.5634 203.721C37.7436 204.529 38.1285 205.61 37.6811 206.952L37.507 207.474Z" fill="black"/>
<path d="M7.02291 219.016L18.6755 221.811L18.7671 221.429L11.852 219.77C9.29224 219.156 7.92729 216.93 8.52291 214.446L10.1082 207.837L34.5213 213.692C35.4382 213.912 35.8356 214.614 35.6248 215.492L35.0109 218.052L35.3929 218.144L37.5464 209.166L37.1643 209.074L36.8161 210.526C36.6237 211.328 35.9422 211.811 35.0252 211.591L12.064 206.084C11.1471 205.864 10.7588 205.124 10.9512 204.322L11.2995 202.87L10.9174 202.779L7.02291 219.016Z" fill="black"/>
<path d="M3.05799 246.327L3.20648 245.316C3.34355 244.383 3.77906 243.851 4.55189 243.727L31.4189 238.978L32.2584 233.264L31.8697 233.206L31.4813 235.85C31.3842 236.51 30.9659 236.926 30.3051 236.828C30.1496 236.806 29.9998 236.744 29.8111 236.676L8.05265 226.927C6.7104 226.333 6.14207 225.336 6.31341 224.17L6.4619 223.159L6.07319 223.102L5.15938 229.322L5.5481 229.379L5.69088 228.407C5.81653 227.552 6.49098 227.016 7.34615 227.141C7.5405 227.17 7.73486 227.198 7.95667 227.31L14.2907 230.147L12.8286 240.098L4.96088 241.484C4.83856 241.505 4.72194 241.488 4.6442 241.477C4.13887 241.403 3.84614 240.962 3.93752 240.34L4.2288 238.358L3.84008 238.301L2.66927 246.27L3.05799 246.327ZM13.2401 240L14.6622 230.321L29.6317 237.087L13.2401 240Z" fill="black"/>
<path d="M19.4742 260.109C19.6551 259.686 19.8078 259.065 20.0868 258.293L21.203 255.208C22.0989 253.251 23.0426 252.556 24.5725 252.641C27.5931 252.809 29.6348 255.716 29.399 259.953C29.1194 264.974 25.6214 267.022 21.6201 266.8L19.3841 266.675L19.3623 267.067L28.8554 267.596L28.8773 267.204L27.975 267.153C27.3866 267.121 27.0859 266.868 27.1143 266.358C27.1339 266.005 27.3127 265.621 27.6854 265.288C28.9735 264.061 29.6646 262.25 29.7934 259.936C30.0708 254.954 27.7849 252.19 23.5875 251.956C20.2902 251.812 18.9213 254.49 18.2607 256.46L17.2208 259.59C15.4702 264.883 12.4581 267.391 8.53529 267.173C4.25945 266.935 1.55959 263.833 1.82164 259.126C2.12519 253.673 5.92188 251.209 12.4729 251.574L14.3167 251.676L14.3385 251.284L2.37398 250.618L2.35214 251.01L3.96048 251.1C4.5489 251.133 4.80821 251.422 4.77982 251.932C4.76017 252.285 4.5836 252.63 4.21308 252.924C2.48471 254.284 1.54081 256.395 1.38577 259.181C1.10406 264.241 3.91287 267.506 9.24786 267.803C16.3089 268.196 18.3101 263.349 19.4742 260.109Z" fill="black"/>
<path d="M13.7909 289.944L13.7808 289.552L6.67194 289.734C4.15829 289.798 2.14818 288.042 2.08373 285.528L1.85715 276.691L18.4708 276.265L18.7125 285.691L19.1052 285.681L18.8636 276.255L28.4468 276.009L28.6573 284.218C28.7097 286.26 27.2565 287.83 25.1748 287.884L19.637 288.026L19.647 288.419L29.1518 288.175L28.7087 270.894L28.3159 270.904L28.3542 272.396C28.3753 273.221 27.8023 273.864 26.9775 273.886L3.21569 274.495C2.3909 274.516 1.78565 273.903 1.7645 273.078L1.72624 271.585L1.33348 271.595L1.81181 290.251L13.7909 289.944Z" fill="black"/>
<path d="M31.8264 313.51L31.0947 307.267L30.7045 307.313L30.8142 308.249C30.9469 309.381 30.228 310.335 28.9793 310.482L8.41493 312.892L29.7823 296.068L29.2198 291.268L28.8296 291.314L29.0033 292.797C29.0994 293.616 28.5872 294.309 27.8458 294.396L4.82306 297.094C3.57437 297.24 2.6543 296.478 2.52169 295.346L2.41194 294.41L2.02172 294.455L2.7534 300.699L3.14361 300.653L3.03386 299.717C2.90124 298.585 3.6201 297.631 4.86879 297.484L27.8915 294.786L3.77806 313.831L29.025 310.872C30.2737 310.726 31.1938 311.488 31.3264 312.62L31.4362 313.556L31.8264 313.51Z" fill="black"/>
<path d="M10.4083 342.324L10.1909 341.326C9.95676 340.251 10.1635 339.724 10.9895 338.901L25.0487 324.62L33.6141 330.716C34.7996 331.543 35.5027 332.556 35.7619 333.746L35.9292 334.514L36.3131 334.43L34.7328 327.175L34.3489 327.259L34.6583 328.679C34.8339 329.485 34.4568 329.969 33.9961 330.07C33.689 330.137 33.3568 330.088 33.0596 329.831L23.6443 323.157L23.3935 322.005L31.3783 320.266C32.1845 320.09 32.8941 320.579 33.0696 321.385L33.3874 322.844L33.7713 322.76L32.0572 314.891L31.6733 314.974L31.9911 316.433C32.1666 317.239 31.7246 317.979 30.9184 318.154L7.69328 323.213C6.88712 323.388 6.17751 322.9 6.00193 322.094L5.68421 320.635L5.30032 320.718L7.01436 328.588L7.39824 328.504L7.08052 327.046C6.90494 326.239 7.34699 325.5 8.15315 325.324L23.0096 322.088L23.2688 323.279L9.97545 336.829C9.80859 336.986 9.66339 337.058 9.54823 337.083C9.35628 337.125 9.24606 336.988 9.17081 336.643L8.69423 334.455L8.31034 334.538L10.0244 342.408L10.4083 342.324Z" fill="black"/>
<path d="M41.4847 349.765C38.9947 342.188 32.6199 339.527 24.0725 342.336C15.5252 345.145 12.0334 351.131 14.4989 358.633C16.989 366.21 23.3638 368.871 31.9111 366.062C40.4585 363.253 43.9502 357.267 41.4847 349.765ZM16.0501 350.266C17.8251 347.739 20.7529 345.825 24.784 344.501C32.8088 341.863 39.1489 343.915 41.1115 349.887C43.0618 355.822 39.1872 361.272 31.1997 363.897C23.1749 366.535 16.8348 364.483 14.8722 358.511C13.8909 355.525 14.2752 352.793 16.0501 350.266Z" fill="black"/>
<path d="M58.022 390.871L58.375 390.698L55.6157 385.05L55.2626 385.223L55.7283 386.176C56.1422 387.023 55.8352 387.916 55.0233 388.313C54.8821 388.382 54.7236 388.416 54.5299 388.467L33.1282 392.275L49.4061 376.278C49.5128 376.138 49.654 376.069 49.7952 376C50.2894 375.759 50.7615 376.009 51.0719 376.644L51.8997 378.339L52.2527 378.166L48.7174 370.93L48.3644 371.102L48.761 371.914C49.2094 372.832 49.097 373.586 48.4231 374.265L28.759 393.535L54.7196 388.855C56.1276 388.604 57.1597 389.106 57.7805 390.377L58.022 390.871Z" fill="black"/>
<path d="M44.3588 420.465L54.6309 414.294L54.4286 413.957L48.3327 417.619C46.0762 418.975 43.5424 418.343 42.2273 416.154L38.7273 410.327L60.2484 397.399C61.0567 396.914 61.8316 397.136 62.297 397.91L63.6525 400.167L63.9892 399.964L59.2349 392.05L58.8981 392.252L59.6669 393.532C60.0917 394.239 59.9439 395.061 59.1356 395.547L38.8944 407.706C38.0861 408.191 37.2909 407.936 36.866 407.229L36.0972 405.949L35.7604 406.151L44.3588 420.465Z" fill="black"/>
<path d="M60.6657 442.729L60.0635 441.903C59.5077 441.142 59.4459 440.457 59.9099 439.827L75.7514 417.613L72.3467 412.948L72.0293 413.18L73.6043 415.338C73.998 415.877 73.9903 416.467 73.4508 416.86C73.3239 416.953 73.1738 417.014 72.9919 417.098L50.6367 425.388C49.2626 425.904 48.1586 425.591 47.4638 424.639L46.8616 423.814L46.5443 424.046L50.2501 429.123L50.5674 428.892L49.9884 428.098C49.4788 427.4 49.5843 426.545 50.2825 426.036C50.4412 425.92 50.5998 425.804 50.8366 425.728L57.3434 423.314L63.2727 431.439L58.63 437.94C58.558 438.041 58.4627 438.111 58.3993 438.157C57.9867 438.458 57.4695 438.349 57.0989 437.841L55.9177 436.223L55.6003 436.454L60.3484 442.96L60.6657 442.729ZM63.4974 431.08L57.7302 423.178L73.1515 417.517L63.4974 431.08Z" fill="black"/>
<path d="M82.0355 441.059C81.8683 440.631 81.542 440.081 81.2006 439.335L79.8348 436.351C79.1028 434.327 79.2891 433.17 80.4404 432.159C82.7133 430.162 86.2072 430.806 89.0074 433.994C92.3262 437.773 91.2655 441.685 88.2546 444.33L86.5721 445.808L86.8313 446.103L93.9748 439.828L93.7155 439.533L93.0366 440.129C92.5938 440.518 92.2021 440.549 91.8651 440.165C91.6317 439.899 91.4905 439.5 91.5228 439.001C91.5823 437.223 90.8064 435.447 89.2767 433.706C85.9838 429.957 82.4165 429.586 79.258 432.361C76.8044 434.568 77.7043 437.438 78.6134 439.307L80.0641 442.268C82.5241 447.271 82.1323 451.171 79.1805 453.764C75.9629 456.59 71.8635 456.269 68.7521 452.727C65.1482 448.624 66.1303 444.205 71.0599 439.875L72.4472 438.657L72.188 438.362L63.1848 446.27L63.4441 446.565L64.6544 445.502C65.0971 445.113 65.4853 445.138 65.8223 445.522C66.0557 445.787 66.171 446.157 66.1127 446.626C65.8323 448.807 66.6384 450.975 68.4793 453.071C71.824 456.879 76.1157 457.241 80.1302 453.714C85.4436 449.047 83.4754 444.187 82.0355 441.059Z" fill="black"/>
<path d="M98.886 466.329L98.6036 466.056L93.6592 471.167C91.9109 472.974 89.2461 473.129 87.4389 471.381L81.0854 465.235L92.6404 453.29L99.4175 459.846L99.6907 459.564L92.9136 453.008L99.5789 446.118L105.481 451.827C106.949 453.247 107.012 455.386 105.564 456.882L101.713 460.864L101.995 461.137L108.606 454.304L96.1811 442.284L95.908 442.567L96.981 443.605C97.574 444.178 97.6161 445.039 97.0424 445.632L80.5157 462.716C79.942 463.309 79.0805 463.295 78.4875 462.722L77.4144 461.684L77.1412 461.966L90.5543 474.942L98.886 466.329Z" fill="black"/>
<path d="M128.265 470.505L123.368 466.563L123.122 466.869L123.857 467.46C124.744 468.175 124.9 469.36 124.112 470.339L111.128 486.467L114.585 459.492L110.821 456.462L110.574 456.768L111.737 457.704C112.38 458.222 112.5 459.075 112.032 459.656L97.4961 477.713C96.7077 478.692 95.5171 478.793 94.6295 478.078L93.895 477.487L93.6487 477.793L98.5453 481.735L98.7917 481.429L98.0572 480.838C97.1697 480.123 97.0138 478.938 97.8022 477.959L112.338 459.903L108.477 490.386L124.418 470.585C125.206 469.606 126.397 469.505 127.284 470.22L128.019 470.811L128.265 470.505Z" fill="black"/>
<path d="M133.174 506.071L132.319 505.512C131.399 504.909 131.177 504.387 131.189 503.221L131.214 483.181L141.597 481.529C143.023 481.289 144.234 481.519 145.253 482.186L145.91 482.617L146.125 482.288L139.914 478.219L139.699 478.548L140.915 479.344C141.605 479.797 141.675 480.406 141.417 480.801C141.245 481.063 140.974 481.262 140.582 481.287L129.187 483.121L128.201 482.475L132.68 475.64C133.132 474.95 133.981 474.801 134.671 475.253L135.919 476.072L136.135 475.743L129.398 471.329L129.182 471.658L130.431 472.476C131.121 472.928 131.324 473.766 130.872 474.456L117.846 494.338C117.394 495.028 116.545 495.177 115.855 494.725L114.606 493.906L114.391 494.235L121.128 498.649L121.343 498.32L120.094 497.502C119.404 497.05 119.201 496.212 119.653 495.522L127.986 482.804L129.005 483.472L129.015 502.454C129.006 502.683 128.953 502.836 128.888 502.935C128.78 503.099 128.606 503.079 128.31 502.885L126.437 501.658L126.221 501.986L132.958 506.4L133.174 506.071Z" fill="black"/>
<path d="M160.559 489.605C153.473 485.943 147.06 488.511 142.93 496.504C138.8 504.498 140.503 511.215 147.519 514.84C154.604 518.502 161.017 515.933 165.147 507.94C169.278 499.947 167.574 493.23 160.559 489.605ZM142.763 507.783C142.258 504.737 143.007 501.32 144.955 497.551C148.832 490.046 154.794 487.068 160.378 489.954C165.928 492.821 166.983 499.425 163.123 506.894C159.245 514.399 153.284 517.377 147.699 514.491C144.907 513.048 143.267 510.83 142.763 507.783Z" fill="black"/>
<path d="M201.16 507.347L201.291 506.976L195.365 504.88L195.234 505.25L196.234 505.604C197.123 505.919 197.53 506.771 197.229 507.623C197.176 507.771 197.087 507.906 196.984 508.078L184.383 525.791L184.788 502.972C184.766 502.797 184.819 502.649 184.871 502.501C185.055 501.983 185.567 501.83 186.234 502.066L188.011 502.695L188.142 502.325L180.549 499.639L180.418 500.009L181.27 500.31C182.233 500.651 182.682 501.268 182.677 502.225L182.149 529.752L197.392 508.222C198.221 507.057 199.308 506.692 200.642 507.163L201.16 507.347Z" fill="black"/>
<path d="M212.148 538.035L215.153 526.435L214.773 526.336L212.989 533.22C212.329 535.768 210.078 537.093 207.606 536.452L201.026 534.747L207.323 510.444C207.56 509.532 208.268 509.147 209.143 509.374L211.691 510.034L211.79 509.654L202.852 507.338L202.753 507.718L204.199 508.093C204.997 508.3 205.468 508.99 205.231 509.903L199.309 532.76C199.073 533.673 198.326 534.048 197.527 533.841L196.082 533.466L195.984 533.847L212.148 538.035Z" fill="black"/>
<path d="M239.382 542.494L238.374 542.327C237.444 542.173 236.92 541.728 236.809 540.953L232.548 514.004L226.85 513.061L226.786 513.449L229.421 513.885C230.08 513.994 230.488 514.42 230.379 515.079C230.353 515.234 230.289 515.383 230.218 515.57L220.076 537.148C219.458 538.48 218.451 539.03 217.288 538.837L216.28 538.671L216.216 539.058L222.418 540.085L222.482 539.697L221.513 539.537C220.66 539.395 220.136 538.711 220.277 537.859C220.309 537.665 220.341 537.471 220.457 537.251L223.408 530.97L233.331 532.612L234.574 540.503C234.594 540.626 234.574 540.742 234.562 540.82C234.478 541.324 234.033 541.608 233.413 541.506L231.436 541.179L231.372 541.566L239.318 542.881L239.382 542.494ZM233.24 532.199L223.589 530.601L230.625 515.757L233.24 532.199Z" fill="black"/>
<path d="M253.46 526.329C253.04 526.141 252.422 525.977 251.656 525.684L248.59 524.512C246.65 523.581 245.972 522.625 246.085 521.097C246.308 518.08 249.252 516.091 253.483 516.403C258.499 516.774 260.483 520.308 260.188 524.305L260.023 526.538L260.415 526.567L261.115 517.085L260.723 517.056L260.657 517.958C260.614 518.545 260.355 518.841 259.846 518.804C259.493 518.778 259.113 518.592 258.786 518.213C257.583 516.903 255.785 516.18 253.473 516.009C248.497 515.641 245.693 517.877 245.383 522.069C245.179 525.363 247.832 526.78 249.79 527.477L252.9 528.573C258.161 530.419 260.614 533.476 260.324 537.394C260.009 541.665 256.859 544.309 252.157 543.961C246.711 543.559 244.316 539.718 244.799 533.175L244.935 531.333L244.543 531.304L243.661 543.255L244.052 543.284L244.171 541.677C244.214 541.09 244.509 540.836 245.018 540.873C245.371 540.899 245.712 541.082 245.999 541.458C247.328 543.211 249.422 544.193 252.204 544.398C257.258 544.771 260.574 542.022 260.967 536.693C261.488 529.641 256.678 527.552 253.46 526.329Z" fill="black"/>
<path d="M283.188 532.552L282.795 532.555L282.848 539.666C282.867 542.18 281.075 544.158 278.56 544.177L269.721 544.244L269.596 527.625L279.025 527.554L279.022 527.161L269.593 527.232L269.521 517.646L277.732 517.584C279.775 517.569 281.318 519.05 281.334 521.133L281.376 526.672L281.768 526.669L281.697 517.162L264.41 517.292L264.413 517.685L265.906 517.673C266.731 517.667 267.364 518.252 267.371 519.077L267.549 542.846C267.556 543.671 266.931 544.265 266.106 544.271L264.613 544.282L264.616 544.675L283.278 544.535L283.188 532.552Z" fill="black"/>
<path d="M307.075 514.947L300.82 515.565L300.858 515.956L301.797 515.863C302.93 515.751 303.872 516.487 303.996 517.738L306.033 538.343L289.598 516.674L284.789 517.15L284.828 517.541L286.314 517.394C287.135 517.313 287.818 517.837 287.892 518.58L290.173 541.648C290.296 542.899 289.517 543.805 288.383 543.917L287.445 544.01L287.484 544.401L293.739 543.783L293.701 543.392L292.762 543.485C291.629 543.597 290.687 542.861 290.564 541.609L288.283 518.542L306.887 542.996L304.386 517.7C304.263 516.449 305.042 515.542 306.176 515.43L307.114 515.338L307.075 514.947Z" fill="black"/>
<path d="M335.498 536.883L334.496 537.082C333.417 537.297 332.893 537.081 332.085 536.24L318.061 521.924L324.311 513.471C325.16 512.3 326.186 511.616 327.38 511.378L328.151 511.225L328.074 510.839L320.791 512.288L320.868 512.673L322.294 512.39C323.103 512.229 323.58 512.615 323.672 513.077C323.734 513.385 323.679 513.717 323.417 514.009L316.573 523.302L315.417 523.532L313.823 515.517C313.662 514.708 314.163 514.007 314.972 513.846L316.437 513.555L316.36 513.169L308.461 514.741L308.537 515.126L310.002 514.835C310.811 514.674 311.542 515.129 311.703 515.938L316.34 539.251C316.501 540.061 316 540.761 315.191 540.922L313.726 541.213L313.803 541.599L321.702 540.028L321.626 539.642L320.161 539.933C319.352 540.094 318.621 539.639 318.46 538.83L315.494 523.917L316.688 523.68L329.996 537.216C330.15 537.386 330.219 537.532 330.242 537.648C330.28 537.841 330.142 537.948 329.795 538.017L327.598 538.454L327.675 538.84L335.574 537.268L335.498 536.883Z" fill="black"/>
<path d="M343.499 505.947C335.878 508.299 333.102 514.625 335.756 523.221C338.409 531.818 344.331 535.418 351.877 533.089C359.498 530.736 362.274 524.411 359.62 515.814C356.966 507.217 351.044 503.617 343.499 505.947ZM343.539 531.386C341.045 529.566 339.185 526.604 337.933 522.549C335.442 514.478 337.608 508.176 343.615 506.322C349.584 504.479 354.963 508.452 357.443 516.486C359.934 524.557 357.768 530.859 351.761 532.713C348.758 533.64 346.034 533.206 343.539 531.386Z" fill="black"/>
<path d="M384.898 490.157L384.732 489.801L379.035 492.457L379.201 492.813L380.163 492.365C381.017 491.967 381.905 492.29 382.287 493.109C382.353 493.251 382.384 493.41 382.431 493.605L385.852 515.072L370.152 498.507C370.014 498.398 369.947 498.255 369.881 498.113C369.649 497.614 369.907 497.147 370.548 496.848L372.258 496.051L372.092 495.695L364.792 499.099L364.958 499.455L365.777 499.073C366.703 498.641 367.455 498.767 368.122 499.453L387.033 519.463L382.823 493.422C382.598 492.01 383.118 490.987 384.4 490.389L384.898 490.157Z" fill="black"/>
<path d="M414.24 504.353L408.257 493.971L407.916 494.167L411.467 500.328C412.781 502.609 412.104 505.131 409.891 506.406L404.002 509.8L391.466 488.048C390.995 487.231 391.231 486.461 392.014 486.009L394.295 484.695L394.099 484.355L386.099 488.965L386.295 489.305L387.589 488.56C388.304 488.148 389.123 488.31 389.594 489.127L401.384 509.586C401.855 510.402 401.585 511.193 400.87 511.605L399.577 512.35L399.773 512.691L414.24 504.353Z" fill="black"/>
<path d="M436.795 488.452L435.96 489.039C435.188 489.581 434.502 489.631 433.88 489.155L411.958 472.914L407.232 476.234L407.457 476.555L409.644 475.02C410.19 474.636 410.779 474.654 411.163 475.201C411.253 475.329 411.312 475.48 411.392 475.664L419.276 498.166C419.767 499.549 419.434 500.647 418.47 501.324L417.634 501.911L417.86 502.233L423.004 498.62L422.778 498.298L421.974 498.863C421.267 499.36 420.414 499.239 419.917 498.531C419.804 498.371 419.691 498.21 419.62 497.972L417.324 491.422L425.555 485.641L431.971 490.401C432.07 490.475 432.138 490.571 432.183 490.635C432.477 491.053 432.359 491.569 431.844 491.93L430.205 493.082L430.431 493.403L437.021 488.774L436.795 488.452ZM425.2 485.41L417.195 491.033L411.814 475.512L425.2 485.41Z" fill="black"/>
<path d="M435.514 467.056C435.082 467.215 434.527 467.532 433.775 467.859L430.767 469.171C428.73 469.866 427.576 469.659 426.586 468.49C424.631 466.181 425.338 462.699 428.576 459.957C432.414 456.707 436.306 457.839 438.896 460.897L440.343 462.606L440.643 462.352L434.499 455.096L434.199 455.35L434.783 456.04C435.164 456.489 435.187 456.882 434.797 457.212C434.528 457.44 434.126 457.574 433.628 457.533C431.851 457.441 430.061 458.185 428.292 459.683C424.484 462.907 424.05 466.467 426.766 469.675C428.929 472.169 431.815 471.321 433.699 470.446L436.687 469.049C441.734 466.68 445.626 467.142 448.165 470.141C450.932 473.409 450.537 477.502 446.939 480.548C442.771 484.077 438.371 483.015 434.131 478.008L432.938 476.599L432.638 476.853L440.382 485.998L440.682 485.744L439.641 484.515C439.26 484.065 439.292 483.677 439.682 483.347C439.952 483.119 440.323 483.01 440.791 483.077C442.967 483.397 445.149 482.63 447.278 480.827C451.146 477.552 451.585 473.268 448.132 469.19C443.562 463.793 438.667 465.673 435.514 467.056Z" fill="black"/>
<path d="M461.085 450.666L460.806 450.943L465.827 455.979C467.602 457.76 467.709 460.427 465.929 462.202L459.668 468.444L447.935 456.674L454.613 450.017L454.335 449.739L447.657 456.396L440.889 449.607L446.704 443.809C448.151 442.367 450.29 442.342 451.761 443.817L455.672 447.74L455.95 447.463L449.237 440.73L436.995 452.935L437.272 453.213L438.329 452.159C438.914 451.576 439.775 451.55 440.357 452.134L457.139 468.967C457.722 469.552 457.693 470.413 457.108 470.995L456.051 472.05L456.329 472.328L469.545 459.152L461.085 450.666Z" fill="black"/>
<path d="M465.792 421.367L461.762 426.192L462.063 426.444L462.668 425.72C463.398 424.845 464.586 424.711 465.551 425.517L481.441 438.791L454.533 434.846L451.435 438.554L451.737 438.806L452.694 437.661C453.223 437.027 454.078 436.923 454.651 437.401L472.441 452.262C473.406 453.068 473.485 454.26 472.755 455.134L472.15 455.858L472.452 456.11L476.482 451.285L476.18 451.034L475.576 451.757C474.845 452.632 473.658 452.766 472.693 451.96L454.903 437.1L485.311 441.512L465.802 425.216C464.838 424.41 464.759 423.217 465.489 422.343L466.093 421.619L465.792 421.367Z" fill="black"/>
<path d="M501.441 417.103L500.866 417.948C500.247 418.857 499.721 419.069 498.556 419.036L478.52 418.648L477.056 408.237C476.841 406.807 477.093 405.6 477.779 404.594L478.221 403.944L477.897 403.723L473.715 409.86L474.04 410.081L474.859 408.88C475.323 408.198 475.934 408.139 476.324 408.404C476.583 408.581 476.777 408.855 476.795 409.248L478.423 420.674L477.759 421.648L471.006 417.046C470.324 416.582 470.191 415.73 470.655 415.049L471.496 413.815L471.171 413.594L466.636 420.25L466.961 420.471L467.802 419.237C468.266 418.555 469.107 418.367 469.789 418.832L489.432 432.216C490.114 432.681 490.247 433.532 489.782 434.214L488.942 435.448L489.267 435.669L493.802 429.013L493.477 428.792L492.636 430.026C492.172 430.707 491.331 430.895 490.649 430.431L478.084 421.869L478.77 420.863L497.749 421.196C497.978 421.209 498.13 421.265 498.227 421.332C498.39 421.442 498.366 421.616 498.167 421.909L496.906 423.759L497.231 423.981L501.766 417.325L501.441 417.103Z" fill="black"/>
<path d="M485.473 389.425C481.684 396.443 484.136 402.901 492.053 407.175C499.97 411.45 506.717 409.868 510.469 402.919C514.258 395.901 511.806 389.443 503.889 385.169C495.972 380.895 489.225 382.476 485.473 389.425ZM503.327 407.547C500.272 407.996 496.869 407.186 493.135 405.17C485.702 401.157 482.832 395.143 485.819 389.611C488.787 384.114 495.408 383.18 502.807 387.174C510.24 391.187 513.109 397.201 510.123 402.733C508.63 405.499 506.382 407.098 503.327 407.547Z" fill="black"/>
<path d="M503.947 349.151L503.579 349.013L501.376 354.9L501.744 355.038L502.116 354.045C502.446 353.161 503.306 352.77 504.152 353.087C504.299 353.142 504.433 353.234 504.603 353.339L522.085 366.259L499.276 365.441C499.102 365.46 498.955 365.405 498.807 365.349C498.292 365.157 498.149 364.642 498.397 363.979L499.058 362.213L498.69 362.076L495.867 369.619L496.235 369.756L496.552 368.91C496.91 367.953 497.535 367.516 498.491 367.539L526.004 368.565L504.754 352.935C503.604 352.085 503.259 350.99 503.754 349.666L503.947 349.151Z" fill="black"/>
<path d="M534.829 338.721L523.286 335.506L523.18 335.885L530.031 337.793C532.567 338.499 533.85 340.773 533.165 343.233L531.341 349.781L507.156 343.045C506.248 342.792 505.876 342.077 506.119 341.206L506.825 338.671L506.446 338.565L503.969 347.459L504.348 347.565L504.748 346.127C504.97 345.332 505.668 344.874 506.577 345.127L529.323 351.462C530.232 351.715 530.593 352.468 530.371 353.263L529.971 354.701L530.349 354.807L534.829 338.721Z" fill="black"/>
<path d="M539.781 311.572L539.596 312.577C539.425 313.504 538.971 314.02 538.194 314.116L511.172 317.889L510.126 323.569L510.513 323.64L510.997 321.013C511.118 320.356 511.551 319.956 512.208 320.077C512.362 320.106 512.51 320.173 512.696 320.247L534.087 330.778C535.407 331.42 535.939 332.437 535.725 333.596L535.54 334.601L535.927 334.672L537.065 328.49L536.679 328.419L536.501 329.385C536.344 330.235 535.651 330.746 534.801 330.59C534.607 330.554 534.414 330.519 534.197 330.399L527.97 327.334L529.791 317.443L537.704 316.343C537.827 316.326 537.943 316.347 538.02 316.361C538.522 316.454 538.799 316.904 538.685 317.523L538.322 319.493L538.709 319.564L540.167 311.643L539.781 311.572ZM529.376 317.526L527.605 327.147L512.89 319.844L529.376 317.526Z" fill="black"/>
<path d="M523.875 297.205C523.678 297.621 523.503 298.236 523.197 298.997L521.969 302.04C521.003 303.963 520.035 304.624 518.509 304.483C515.497 304.206 513.562 301.226 513.951 297.001C514.412 291.993 517.982 290.073 521.972 290.441L524.202 290.646L524.238 290.255L514.771 289.383L514.735 289.774L515.634 289.857C516.221 289.911 516.513 290.175 516.466 290.683C516.433 291.035 516.241 291.412 515.856 291.732C514.525 292.911 513.768 294.696 513.556 297.004C513.098 301.973 515.282 304.817 519.469 305.203C522.759 305.466 524.224 302.839 524.955 300.895L526.108 297.805C528.049 292.578 531.15 290.181 535.062 290.541C539.326 290.934 541.912 294.131 541.48 298.826C540.979 304.264 537.096 306.589 530.562 305.988L528.723 305.818L528.687 306.21L540.62 307.309L540.656 306.917L539.052 306.77C538.465 306.716 538.216 306.417 538.263 305.908C538.296 305.556 538.484 305.218 538.865 304.938C540.642 303.641 541.662 301.565 541.917 298.787C542.382 293.741 539.694 290.376 534.373 289.886C527.331 289.237 525.155 294.008 523.875 297.205Z" fill="black"/>
<path d="M530.635 267.593L530.63 267.986L537.741 268.061C540.256 268.088 542.201 269.916 542.174 272.43L542.081 281.27L525.462 281.094L525.562 271.665L525.169 271.661L525.069 281.09L515.484 280.988L515.571 272.777C515.592 270.734 517.101 269.218 519.183 269.24L524.723 269.299L524.727 268.906L515.22 268.805L515.037 286.091L515.43 286.095L515.445 284.603C515.454 283.778 516.05 283.155 516.875 283.164L540.643 283.416C541.468 283.424 542.051 284.059 542.042 284.884L542.026 286.377L542.419 286.381L542.617 267.72L530.635 267.593Z" fill="black"/>
<path d="M513.464 243.392L513.969 249.658L514.361 249.626L514.285 248.686C514.194 247.55 514.947 246.623 516.2 246.522L536.838 244.858L514.875 260.897L515.264 265.714L515.655 265.682L515.535 264.194C515.469 263.372 516.006 262.698 516.75 262.638L539.855 260.775C541.109 260.674 542 261.47 542.092 262.605L542.168 263.545L542.559 263.514L542.054 257.248L541.663 257.279L541.738 258.219C541.83 259.355 541.077 260.283 539.824 260.384L516.718 262.246L541.506 244.088L516.168 246.13C514.915 246.231 514.023 245.436 513.932 244.3L513.856 243.36L513.464 243.392Z" fill="black"/>
<path d="M535.912 215.37L536.093 216.376C536.288 217.458 536.062 217.978 535.207 218.771L520.64 232.533L512.301 226.131C511.146 225.261 510.48 224.223 510.264 223.024L510.125 222.251L509.738 222.321L511.055 229.629L511.441 229.559L511.184 228.128C511.037 227.316 511.432 226.846 511.896 226.763C512.205 226.707 512.535 226.767 512.823 227.035L521.99 234.046L522.199 235.206L514.157 236.655C513.345 236.801 512.653 236.287 512.507 235.475L512.242 234.006L511.856 234.075L513.284 242.002L513.67 241.932L513.406 240.463C513.259 239.651 513.728 238.928 514.54 238.782L537.933 234.567C538.745 234.421 539.436 234.935 539.583 235.747L539.847 237.217L540.234 237.147L538.806 229.22L538.419 229.29L538.684 230.759C538.83 231.571 538.362 232.295 537.55 232.441L522.586 235.136L522.37 233.938L536.145 220.877C536.318 220.726 536.466 220.66 536.582 220.639C536.775 220.604 536.88 220.745 536.943 221.093L537.34 223.297L537.726 223.227L536.299 215.301L535.912 215.37Z" fill="black"/>
<path d="M505.125 206.811C507.339 214.473 513.614 217.363 522.257 214.865C530.901 212.368 534.607 206.512 532.415 198.925C530.201 191.263 523.926 188.373 515.283 190.871C506.639 193.368 502.933 199.224 505.125 206.811ZM530.561 207.231C528.696 209.692 525.701 211.498 521.625 212.676C513.509 215.021 507.248 212.741 505.503 206.702C503.769 200.7 507.838 195.394 515.915 193.06C524.03 190.715 530.292 192.995 532.037 199.034C532.91 202.054 532.427 204.77 530.561 207.231Z" fill="black"/>
<path d="M490.088 165.132L489.729 165.291L492.281 171.036L492.641 170.876L492.21 169.907C491.827 169.045 492.166 168.164 492.992 167.797C493.135 167.733 493.295 167.705 493.49 167.661L515.016 164.63L498.169 180.028C498.058 180.163 497.914 180.227 497.77 180.291C497.268 180.514 496.805 180.247 496.518 179.601L495.752 177.877L495.393 178.037L498.664 185.397L499.023 185.237L498.656 184.412C498.241 183.478 498.381 182.728 499.079 182.074L519.428 163.529L493.315 167.266C491.899 167.466 490.885 166.927 490.311 165.635L490.088 165.132Z" fill="black"/>
<path d="M343.873 35.4068L343.757 35.7821L349.762 37.6421L349.878 37.2668L348.865 36.9529C347.964 36.6739 347.524 35.8383 347.791 34.9751C347.838 34.825 347.922 34.6865 348.017 34.5105L359.906 16.3118L360.406 39.1295C360.435 39.3028 360.388 39.453 360.342 39.6031C360.179 40.1285 359.673 40.3009 358.998 40.0916L357.196 39.5336L357.08 39.9089L364.774 42.292L364.89 41.9167L364.027 41.6493C363.051 41.3471 362.578 40.7483 362.545 39.7921L361.982 12.2659L347.604 34.3826C346.822 35.5799 345.75 35.9881 344.399 35.5696L343.873 35.4068Z" fill="black"/>
<path d="M504.814 136.052L494.325 141.847L494.515 142.191L500.739 138.752C503.043 137.479 505.553 138.202 506.787 140.438L510.074 146.387L488.099 158.527C487.274 158.983 486.507 158.733 486.07 157.942L484.797 155.638L484.453 155.828L488.918 163.91L489.262 163.72L488.54 162.413C488.141 161.691 488.319 160.874 489.144 160.419L509.812 149C510.638 148.545 511.423 148.829 511.822 149.551L512.544 150.858L512.888 150.668L504.814 136.052Z" fill="black"/>
<path d="M331.678 5.17721L329.135 16.8872L329.519 16.9706L331.028 10.0214C331.587 7.44903 333.783 6.03645 336.279 6.57846L342.921 8.02104L337.593 32.5545C337.392 33.476 336.7 33.8884 335.817 33.6966L333.244 33.1379L333.161 33.5219L342.183 35.4814L342.267 35.0975L340.808 34.7806C340.002 34.6055 339.504 33.9346 339.704 33.0132L344.716 9.93862C344.916 9.01718 345.647 8.61308 346.453 8.7882L347.912 9.10506L347.995 8.72113L331.678 5.17721Z" fill="black"/>
<path d="M489.323 113.212L489.895 114.059C490.423 114.84 490.46 115.526 489.974 116.14L473.338 137.765L476.572 142.55L476.897 142.33L475.401 140.116C475.028 139.563 475.057 138.974 475.61 138.6C475.74 138.512 475.892 138.457 476.077 138.38L498.718 130.905C500.11 130.438 501.202 130.791 501.862 131.768L502.434 132.614L502.759 132.394L499.24 127.186L498.914 127.406L499.464 128.22C499.948 128.936 499.812 129.787 499.095 130.27C498.933 130.38 498.77 130.49 498.531 130.557L491.941 132.734L486.309 124.4L491.184 118.072C491.26 117.973 491.358 117.907 491.423 117.863C491.846 117.577 492.359 117.705 492.711 118.226L493.833 119.886L494.158 119.666L489.649 112.992L489.323 113.212ZM486.072 124.751L491.549 132.856L475.933 137.956L486.072 124.751Z" fill="black"/>
<path d="M304.289 1.80214L305.302 1.92883C306.238 2.04578 306.779 2.46974 306.92 3.2397L312.247 29.9982L317.978 30.7145L318.026 30.3246L315.375 29.9933C314.712 29.9104 314.289 29.5011 314.371 28.8383C314.391 28.6824 314.449 28.5313 314.513 28.3413L323.791 6.37787C324.356 5.02313 325.341 4.43347 326.51 4.57966L327.524 4.70635L327.573 4.3165L321.335 3.53684L321.286 3.9267L322.261 4.04852C323.118 4.15572 323.669 4.81846 323.562 5.67614C323.538 5.87107 323.513 6.066 323.406 6.29016L320.706 12.6838L310.726 11.4363L309.171 3.6003C309.147 3.47847 309.162 3.36151 309.171 3.28354C309.235 2.77673 309.669 2.47459 310.292 2.55256L312.281 2.80107L312.329 2.41122L304.337 1.41229L304.289 1.80214ZM310.833 11.8457L320.541 13.059L314.098 28.1707L310.833 11.8457Z" fill="black"/>
<path d="M467.907 114.106C468.059 114.54 468.365 115.102 468.679 115.86L469.936 118.891C470.594 120.94 470.366 122.09 469.179 123.059C466.835 124.971 463.367 124.201 460.684 120.914C457.504 117.018 458.706 113.147 461.811 110.613L463.546 109.197L463.297 108.892L455.931 114.904L456.18 115.209L456.88 114.637C457.336 114.265 457.729 114.248 458.052 114.644C458.275 114.918 458.402 115.322 458.352 115.819C458.228 117.594 458.939 119.397 460.405 121.193C463.56 125.059 467.111 125.558 470.368 122.9C472.9 120.783 472.105 117.882 471.264 115.982L469.921 112.97C467.644 107.88 468.177 103.997 471.221 101.513C474.538 98.8052 478.624 99.2746 481.605 102.927C485.058 107.158 483.916 111.538 478.833 115.687L477.402 116.854L477.651 117.159L486.934 109.582L486.686 109.278L485.438 110.296C484.981 110.669 484.594 110.63 484.272 110.234C484.048 109.96 483.946 109.587 484.021 109.12C484.381 106.95 483.653 104.754 481.89 102.593C478.685 98.6666 474.409 98.1499 470.27 101.528C464.791 106 466.582 110.928 467.907 114.106Z" fill="black"/>
<path d="M290.863 18.5108C291.289 18.6826 291.914 18.8218 292.691 19.0841L295.8 20.1336C297.776 20.9872 298.491 21.9157 298.439 23.4471C298.336 26.4706 295.473 28.5744 291.232 28.4299C286.206 28.2585 284.083 24.8054 284.22 20.8003L284.296 18.5621L283.903 18.5487L283.579 28.0511L283.972 28.0644L284.003 27.1613C284.023 26.5723 284.269 26.2662 284.78 26.2836C285.133 26.2957 285.52 26.4661 285.862 26.8316C287.116 28.093 288.941 28.7449 291.258 28.8238C296.245 28.9938 298.959 26.649 299.102 22.4476C299.175 19.1479 296.468 17.837 294.484 17.219L291.333 16.2467C286.003 14.6105 283.431 11.6531 283.565 7.72651C283.71 3.44653 286.753 0.680513 291.465 0.84113C296.923 1.02718 299.469 4.76992 299.245 11.3273L299.182 13.1728L299.575 13.1862L299.983 1.21011L299.59 1.19672L299.536 2.80662C299.515 3.39561 299.231 3.66111 298.721 3.64371C298.367 3.63166 298.019 3.46255 297.717 3.09845C296.321 1.39976 294.189 0.501558 291.401 0.406527C286.336 0.233864 283.132 3.11233 282.95 8.45249C282.709 15.5203 287.598 17.4167 290.863 18.5108Z" fill="black"/>
<path d="M451.983 88.2426L452.255 88.5258L457.382 83.5972C459.194 81.8544 461.863 81.7957 463.606 83.6083L469.732 89.9807L457.752 101.499L451.217 94.7019L450.934 94.9742L457.469 101.771L450.559 108.416L444.867 102.496C443.452 101.024 443.466 98.8843 444.967 97.4411L448.96 93.6016L448.688 93.3184L441.834 99.9081L453.815 112.37L454.099 112.097L453.064 111.021C452.492 110.426 452.481 109.565 453.076 108.993L470.21 92.5186C470.805 91.9468 471.666 91.9915 472.238 92.5863L473.272 93.6625L473.555 93.3902L460.621 79.9374L451.983 88.2426Z" fill="black"/>
<path d="M260.911 13.472L261.304 13.4535L260.968 6.35017C260.85 3.83849 262.562 1.79102 265.074 1.67246L273.904 1.25562L274.688 17.8562L265.269 18.3009L265.287 18.6933L274.706 18.2487L275.158 27.8245L266.956 28.2117C264.915 28.308 263.314 26.8889 263.216 24.8089L262.955 19.2754L262.563 19.2939L263.011 28.7912L280.279 27.9761L280.26 27.5836L278.769 27.654C277.945 27.6929 277.289 27.1339 277.25 26.3097L276.129 2.56655C276.09 1.7424 276.69 1.12409 277.515 1.08518L279.006 1.01479L278.987 0.622336L260.346 1.50232L260.911 13.472Z" fill="black"/>
<path d="M422.774 83.0058L427.525 87.1224L427.782 86.8255L427.07 86.208C426.209 85.4619 426.096 84.2723 426.919 83.3221L440.478 67.6745L436.047 94.5067L439.699 97.6714L439.956 97.3745L438.828 96.3968C438.204 95.8564 438.115 94.9994 438.604 94.4353L453.784 76.917C454.607 75.9669 455.801 75.9094 456.662 76.6556L457.375 77.2731L457.632 76.9761L452.881 72.8595L452.624 73.1564L453.337 73.7739C454.198 74.52 454.311 75.7096 453.487 76.6598L438.307 94.178L443.269 63.8542L426.622 83.0649C425.799 84.015 424.605 84.0725 423.744 83.3263L423.032 82.7088L422.774 83.0058Z" fill="black"/>
<path d="M237.74 32.0103L243.966 31.1443L243.912 30.7552L242.978 30.8851C241.85 31.042 240.88 30.3439 240.707 29.0986L237.855 8.59093L255.135 29.591L259.921 28.9253L259.867 28.5362L258.388 28.7418C257.571 28.8555 256.867 28.3584 256.765 27.619L253.571 4.65968C253.398 3.41443 254.141 2.47816 255.269 2.32121L256.203 2.19132L256.149 1.80218L249.923 2.66814L249.977 3.05728L250.911 2.92738C252.039 2.77043 253.009 3.46855 253.182 4.7138L256.375 27.6731L236.816 3.97536L240.318 29.1528C240.491 30.398 239.749 31.3343 238.62 31.4912L237.686 31.6211L237.74 32.0103Z" fill="black"/>
<path d="M419.157 47.2848L419.991 47.8752C420.888 48.511 421.091 49.04 421.037 50.2049L420.286 70.2307L409.85 71.5059C408.417 71.6944 407.215 71.4206 406.221 70.7167L405.58 70.2626L405.353 70.5832L411.412 74.8748L411.639 74.5542L410.453 73.714C409.78 73.2372 409.732 72.6254 410.004 72.2406C410.186 71.9841 410.464 71.7958 410.856 71.785L422.31 70.3642L423.272 71.0454L418.549 77.7143C418.072 78.3876 417.218 78.5052 416.545 78.0284L415.327 77.1655L415.099 77.4861L421.672 82.1411L421.899 81.8205L420.681 80.9576C420.008 80.4808 419.835 79.6365 420.312 78.9632L434.05 59.5656C434.527 58.8923 435.38 58.7747 436.054 59.2515L437.272 60.1144L437.499 59.7938L430.926 55.1388L430.699 55.4594L431.918 56.3223C432.591 56.7991 432.763 57.6434 432.287 58.3167L423.499 70.7248L422.505 70.0208L423.182 51.0503C423.199 50.8219 423.258 50.6709 423.326 50.5747C423.44 50.4144 423.614 50.4411 423.902 50.6455L425.73 51.9398L425.957 51.6192L419.384 46.9642L419.157 47.2848Z" fill="black"/>
<path d="M208.471 11.2179L209.464 10.979C210.533 10.7218 211.065 10.9172 211.906 11.7252L226.486 25.4736L220.576 34.1684C219.774 35.3714 218.777 36.0962 217.593 36.3809L216.829 36.5646L216.92 36.9466L224.14 35.2105L224.048 34.8285L222.635 35.1684C221.833 35.3613 221.341 34.9947 221.23 34.5363C221.157 34.2308 221.198 33.8976 221.448 33.5949L227.919 24.038L229.065 23.7624L230.976 31.708C231.168 32.5102 230.695 33.2301 229.893 33.4231L228.441 33.7721L228.533 34.1541L236.364 32.271L236.272 31.889L234.821 32.2381C234.018 32.431 233.269 32.0049 233.077 31.2028L227.519 8.09193C227.326 7.28974 227.8 6.56977 228.602 6.37686L230.053 6.0278L229.961 5.6458L222.131 7.52892L222.222 7.91092L223.674 7.56185C224.476 7.36895 225.225 7.79497 225.418 8.59716L228.973 23.3804L227.789 23.6652L213.955 10.6668C213.794 10.5034 213.719 10.3597 213.692 10.2451C213.646 10.0542 213.78 9.94101 214.124 9.85833L216.301 9.33474L216.21 8.95274L208.379 10.8359L208.471 11.2179Z" fill="black"/>
<path d="M391.194 62.7487C398.142 66.6642 404.644 64.33 409.061 56.4917C413.478 48.6535 412.019 41.8787 405.139 38.0017C398.191 34.0862 391.689 36.4205 387.272 44.2587C382.855 52.0969 384.314 58.8718 391.194 62.7487ZM409.636 45.2262C410.03 48.2891 409.158 51.6764 407.075 55.373C402.928 62.7321 396.863 65.4925 391.387 62.4064C385.944 59.3396 385.13 52.7022 389.257 45.3774C393.404 38.0184 399.47 35.2579 404.946 38.344C407.684 39.8871 409.243 42.1633 409.636 45.2262Z" fill="black"/>
<path d="M201.702 42.4468C209.224 39.7942 211.747 33.3636 208.755 24.8787C205.762 16.3938 199.702 13.0318 192.255 15.6583C184.733 18.3109 182.21 24.7415 185.203 33.2264C188.195 41.7113 194.255 45.0733 201.702 42.4468ZM200.654 17.0289C203.218 18.749 205.194 21.635 206.606 25.6366C209.415 33.6028 207.5 39.9856 201.572 42.0763C195.68 44.154 190.148 40.3977 187.352 32.4685C184.542 24.5024 186.457 18.1195 192.385 16.0288C195.35 14.9834 198.089 15.3088 200.654 17.0289Z" fill="black"/>
</g>
</svg>
