<svg width="1153" height="145" viewBox="0 0 1153 145" fill="none" xmlns="http://www.w3.org/2000/svg">
<path fill-rule="evenodd" clip-rule="evenodd" d="M289.262 0H316.903V1.8169H312.757C307.747 1.8169 303.946 5.6324 303.946 11.4465V107.197L366.485 0H387.734V1.8169H381.17C377.542 1.8169 374.777 4.54225 374.777 7.99437V115.192C374.777 121.006 378.578 124.821 383.588 124.821H387.734V126.638H360.093V124.821H364.239C369.249 124.821 373.05 121.006 373.05 115.192V7.99437L302.219 129V11.4465C302.219 5.6324 298.418 1.8169 293.408 1.8169H289.262V0ZM187.133 63.9236C187.133 23.5438 206.344 0.0917829 240.255 0.0917829C273.833 0.0917829 293.378 23.3675 293.378 63.7473C293.378 104.127 274.167 127.579 240.255 127.579C206.678 127.579 187.133 104.303 187.133 63.9236ZM196.822 63.9236C196.822 82.9673 200.664 98.1318 208.515 109.241C216.367 120.349 226.891 125.816 240.255 125.816C266.983 125.816 283.689 101.658 283.689 63.7473C283.689 26.0124 266.816 1.85509 240.255 1.85509C213.527 1.85509 196.822 26.0124 196.822 63.9236ZM108.011 4.1474V2.38409H148.438C172.326 2.38409 182.182 8.90833 182.182 25.6598C182.182 42.4112 172.326 48.9355 148.438 48.9355H129.728V116.999C129.728 121.055 132.401 123.523 135.909 123.523H142.257V125.287H108.011V123.523H114.359C118.87 123.523 120.54 121.936 120.54 116.999V10.4953C120.54 6.26337 118.536 4.1474 114.359 4.1474H108.011ZM129.728 4.1474V47.1721H148.438C165.644 47.1721 172.493 41.1769 172.493 25.6598C172.493 10.1426 165.644 4.1474 148.438 4.1474H129.728ZM465.123 2.38409H399.972V45.0562H401.643V21.0752C401.643 10.4953 407.991 4.1474 418.014 4.1474H452.26L421.355 48.9355H432.548C448.418 48.9355 456.937 62.6893 456.937 87.3756C456.937 112.944 447.916 125.816 430.042 125.816C408.158 125.816 396.966 109.241 396.966 79.7934V71.5058H395.295V125.287H396.966V117.705C396.966 115.06 398.135 113.649 400.307 113.649C401.643 113.649 403.146 114.707 404.817 116.647C410.664 123.876 419.351 127.579 430.543 127.579C455.267 127.579 466.626 114.883 466.626 87.3756C466.626 61.1023 455.768 47.7011 434.051 47.1721L465.123 2.38409ZM545.814 25.6598C545.814 40.2952 538.464 46.6432 520.589 48.0538C543.81 50.3461 555.503 63.0419 555.503 86.1413C555.503 112.767 541.638 125.287 512.404 125.287H471.643V123.523H477.991C482.501 123.523 484.172 121.936 484.172 117.176V10.4953C484.172 5.73438 482.501 4.1474 477.991 4.1474H471.643V2.38409H512.07C535.958 2.38409 545.814 8.90833 545.814 25.6598ZM512.07 4.1474H493.36V47.1721H512.07C529.276 47.1721 536.125 41.1769 536.125 25.6598C536.125 10.1426 529.276 4.1474 512.07 4.1474ZM493.36 48.9355V123.523H512.404C534.956 123.523 545.814 111.533 545.814 86.1413C545.814 60.926 534.956 48.9355 512.404 48.9355H493.36ZM613.675 0.0917829C579.764 0.0917829 560.553 23.5438 560.553 63.9236C560.553 104.303 580.098 127.579 613.675 127.579C647.587 127.579 666.798 104.127 666.798 63.7473C666.798 23.3675 647.253 0.0917829 613.675 0.0917829ZM581.935 109.241C574.084 98.1318 570.242 82.9673 570.242 63.9236C570.242 26.0124 586.947 1.85509 613.675 1.85509C640.236 1.85509 657.109 26.0124 657.109 63.7473C657.109 101.658 640.403 125.816 613.675 125.816C600.311 125.816 589.787 120.349 581.935 109.241ZM827.602 125.816C844.307 125.816 859.342 115.941 868.697 100.953L870.201 102.011C860.344 117.705 844.809 127.579 827.602 127.579C796.197 127.579 774.48 101.129 774.48 63.9236C774.48 26.7178 796.364 0.0917829 827.602 0.0917829C838.962 0.0917829 849.486 4.32372 859.175 12.6113C860.512 13.8456 861.848 14.5509 863.184 14.5509C865.022 14.5509 866.024 13.3166 866.024 10.6716V2.38409H867.695V45.0562H866.024V42.4112C865.857 14.5509 848.15 1.85509 829.106 1.85509C802.544 1.85509 784.169 26.7178 784.169 63.9236C784.169 98.8371 801.375 125.816 827.602 125.816ZM951.979 2.38409H875.97V45.0562H877.641V20.5462C877.641 11.2006 883.989 4.1474 892.508 4.1474H909.381V116.823C909.381 120.878 906.875 123.523 903.033 123.523H891.84V125.287H936.109V123.523H924.917C921.074 123.523 918.569 120.878 918.569 116.823V4.1474H935.107C943.793 4.1474 950.309 11.0243 950.309 20.1935V45.0562H951.979V2.38409ZM1032.02 25.6598C1032.02 40.2952 1024.67 46.6432 1006.79 48.0538C1030.01 50.3461 1041.71 63.0419 1041.71 86.1413C1041.71 112.767 1027.84 125.287 998.606 125.287H957.845V123.523H964.193C968.704 123.523 970.374 121.936 970.374 117.176V10.4953C970.374 5.73438 968.704 4.1474 964.193 4.1474H957.845V2.38409H998.272C1022.16 2.38409 1032.02 8.90833 1032.02 25.6598ZM998.272 4.1474H979.562V47.1721H998.272C1015.48 47.1721 1022.33 41.1769 1022.33 25.6598C1022.33 10.1426 1015.48 4.1474 998.272 4.1474ZM979.562 48.9355V123.523H998.606C1021.16 123.523 1032.02 111.533 1032.02 86.1413C1032.02 60.926 1021.16 48.9355 998.606 48.9355H979.562ZM1099.88 0.0917829C1065.97 0.0917829 1046.75 23.5438 1046.75 63.9236C1046.75 104.303 1066.3 127.579 1099.88 127.579C1133.79 127.579 1153 104.127 1153 63.7473C1153 23.3675 1133.45 0.0917829 1099.88 0.0917829ZM1068.14 109.241C1060.29 98.1318 1056.44 82.9673 1056.44 63.9236C1056.44 26.0124 1073.15 1.85509 1099.88 1.85509C1126.44 1.85509 1143.31 26.0124 1143.31 63.7473C1143.31 101.658 1126.61 125.816 1099.88 125.816C1086.51 125.816 1075.99 120.349 1068.14 109.241ZM92.7139 2.78408V4.54739H86.3659C82.8578 4.54739 80.185 7.19236 80.185 10.8953V117.576C80.185 121.278 82.8578 123.923 86.3659 123.923H92.7139V125.687H58.4682V123.923H64.8162C68.3243 123.923 70.9971 121.278 70.9971 117.576V10.8953C70.9971 7.19236 68.3243 4.54739 64.8162 4.54739H59.3474H34.2457H32.0916H27.8977C24.3896 4.54739 21.7168 7.19236 21.7168 10.8953V47.5721V49.3354V117.576C21.7168 121.278 24.3896 123.923 27.8977 123.923H34.2457V125.687H0V123.923H6.34798C9.85607 123.923 12.5289 121.278 12.5289 117.576V10.8953C12.5289 7.19236 9.85607 4.54739 6.34798 4.54739H0V2.78408H32.0916H34.2457H59.3474H92.7139Z" fill="black"/>
<path d="M668.97 108.957H677.235C680.103 108.957 682.274 108.307 683.748 106.989C685.222 105.671 686.636 103.566 687.97 100.634C692.351 90.9547 695.757 79.0123 698.167 64.8271C700.557 50.6419 701.771 31.6168 701.771 14.3427C701.771 8.3814 699.123 5.41058 693.805 5.41058H685.222V3.87598H768.27V5.41058H757.236C755.803 5.41058 754.767 5.74504 754.09 6.39429C753.433 7.04355 753.094 8.08629 753.094 9.50284V100.772C753.094 106.222 755.862 108.957 761.379 108.957H771.655V141.951H769.604C769.604 139.334 769.126 135.419 768.15 130.225C767.174 125.031 765.103 120.702 761.937 117.279C760.403 115.666 758.392 114.328 755.882 113.265C753.373 112.203 748.932 111.672 746.064 111.672H694.423C691.674 111.672 686.895 112.203 684.385 113.265C681.876 114.328 679.864 115.666 678.331 117.279C675.164 120.702 673.093 125.031 672.117 130.225C671.141 135.419 670.663 139.334 670.663 141.951H668.97V108.957ZM744.092 108.858V5.41058H716.768C711.65 5.41058 708.264 7.14192 706.571 10.6243C704.878 14.1066 704.042 17.707 704.042 21.4452C704.042 33.3482 702.966 49.2647 700.816 62.5449C698.665 75.8251 696.315 86.1344 693.765 93.5123C693.467 94.5157 693.029 96.011 692.471 97.9784C691.913 99.9458 687.452 108.858 687.452 108.858H744.092Z" fill="black"/>
</svg>
