<svg width="1737" height="187" viewBox="0 0 1737 187" fill="none" xmlns="http://www.w3.org/2000/svg">
<path fill-rule="evenodd" clip-rule="evenodd" d="M443.178 0H485.443V2.6338H479.103C471.442 2.6338 465.631 8.1648 465.631 16.593V155.394L561.256 0H593.747V2.6338H583.709C578.162 2.6338 573.935 6.58451 573.935 11.5887V166.983C573.935 175.411 579.747 180.942 587.407 180.942H593.747V183.576H551.482V180.942H557.822C565.482 180.942 571.294 175.411 571.294 166.983V11.5887L462.989 187V16.593C462.989 8.1648 457.178 2.6338 449.517 2.6338H443.178V0ZM287.013 92.6653C287.013 34.1303 316.388 0.133993 368.24 0.133993C419.581 0.133993 449.467 33.8747 449.467 92.4098C449.467 150.945 420.092 184.941 368.24 184.941C316.898 184.941 287.013 151.2 287.013 92.6653ZM301.828 92.6653C301.828 120.271 307.703 142.254 319.708 158.357C331.713 174.461 347.805 182.385 368.24 182.385C409.109 182.385 434.652 147.366 434.652 92.4098C434.652 37.7089 408.853 2.69011 368.24 2.69011C327.371 2.69011 301.828 37.7089 301.828 92.6653ZM166.033 6.01306V3.45694H227.847C264.374 3.45694 279.444 12.9146 279.444 37.1977C279.444 61.4808 264.374 70.9384 227.847 70.9384H199.239V169.604C199.239 175.483 203.326 179.062 208.69 179.062H218.396V181.618H166.033V179.062H175.739C182.636 179.062 185.19 176.762 185.19 169.604V15.2151C185.19 9.08041 182.125 6.01306 175.739 6.01306H166.033ZM199.239 6.01306V68.3823H227.847C254.156 68.3823 264.629 59.6915 264.629 37.1977C264.629 14.7038 254.156 6.01306 227.847 6.01306H199.239ZM712.073 3.45694H612.455V65.3149H615.009V30.5518C615.009 15.2151 624.716 6.01306 640.041 6.01306H692.404L645.15 70.9384H662.264C686.53 70.9384 699.557 90.8761 699.557 126.662C699.557 163.725 685.763 182.385 658.432 182.385C624.971 182.385 607.857 158.357 607.857 115.67V103.657H605.303V181.618H607.857V170.627C607.857 166.793 609.645 164.748 612.966 164.748C615.009 164.748 617.308 166.281 619.862 169.093C628.802 179.573 642.085 184.941 659.199 184.941C697.002 184.941 714.371 166.537 714.371 126.662C714.371 88.5756 697.768 69.1491 664.563 68.3823L712.073 3.45694ZM835.453 37.1977C835.453 58.4134 824.214 67.6154 796.883 69.6603C832.388 72.9833 850.268 91.3873 850.268 124.872C850.268 163.47 829.068 181.618 784.367 181.618H722.042V179.062H731.749C738.645 179.062 741.2 176.762 741.2 169.86V15.2151C741.2 8.31357 738.645 6.01306 731.749 6.01306H722.042V3.45694H783.856C820.383 3.45694 835.453 12.9146 835.453 37.1977ZM783.856 6.01306H755.248V68.3823H783.856C810.166 68.3823 820.638 59.6915 820.638 37.1977C820.638 14.7038 810.166 6.01306 783.856 6.01306ZM755.248 70.9384V179.062H784.367C818.85 179.062 835.453 161.68 835.453 124.872C835.453 88.32 818.85 70.9384 784.367 70.9384H755.248ZM939.216 0.133993C887.364 0.133993 857.989 34.1303 857.989 92.6653C857.989 151.2 887.874 184.941 939.216 184.941C991.068 184.941 1020.44 150.945 1020.44 92.4098C1020.44 33.8747 990.557 0.133993 939.216 0.133993ZM890.684 158.357C878.679 142.254 872.804 120.271 872.804 92.6653C872.804 37.7089 898.347 2.69011 939.216 2.69011C979.829 2.69011 1005.63 37.7089 1005.63 92.4098C1005.63 147.366 980.085 182.385 939.216 182.385C918.781 182.385 902.689 174.461 890.684 158.357ZM1238.8 182.385C1264.34 182.385 1287.33 168.071 1301.63 146.344L1303.93 147.877C1288.86 170.627 1265.11 184.941 1238.8 184.941C1190.78 184.941 1157.57 146.599 1157.57 92.6653C1157.57 38.7313 1191.03 0.133993 1238.8 0.133993C1256.17 0.133993 1272.26 6.26867 1287.07 18.2824C1289.12 20.0717 1291.16 21.0941 1293.2 21.0941C1296.01 21.0941 1297.55 19.3049 1297.55 15.4707V3.45694H1300.1V65.3149H1297.55V61.4808C1297.29 21.0941 1270.22 2.69011 1241.1 2.69011C1200.48 2.69011 1172.39 38.7313 1172.39 92.6653C1172.39 143.276 1198.69 182.385 1238.8 182.385ZM1428.97 3.45694H1312.75V65.3149H1315.31V29.7849C1315.31 16.2375 1325.01 6.01306 1338.04 6.01306H1363.84V169.349C1363.84 175.228 1360.01 179.062 1354.13 179.062H1337.02V181.618H1404.71V179.062H1387.6C1381.72 179.062 1377.89 175.228 1377.89 169.349V6.01306H1403.18C1416.46 6.01306 1426.42 15.9819 1426.42 29.2737V65.3149H1428.97V3.45694ZM1551.36 37.1977C1551.36 58.4134 1540.12 67.6154 1512.79 69.6603C1548.29 72.9833 1566.17 91.3873 1566.17 124.872C1566.17 163.47 1544.97 181.618 1500.27 181.618H1437.94V179.062H1447.65C1454.55 179.062 1457.1 176.762 1457.1 169.86V15.2151C1457.1 8.31357 1454.55 6.01306 1447.65 6.01306H1437.94V3.45694H1499.76C1536.29 3.45694 1551.36 12.9146 1551.36 37.1977ZM1499.76 6.01306H1471.15V68.3823H1499.76C1526.07 68.3823 1536.54 59.6915 1536.54 37.1977C1536.54 14.7038 1526.07 6.01306 1499.76 6.01306ZM1471.15 70.9384V179.062H1500.27C1534.75 179.062 1551.36 161.68 1551.36 124.872C1551.36 88.32 1534.75 70.9384 1500.27 70.9384H1471.15ZM1655.12 0.133993C1603.27 0.133993 1573.89 34.1303 1573.89 92.6653C1573.89 151.2 1603.78 184.941 1655.12 184.941C1706.97 184.941 1736.35 150.945 1736.35 92.4098C1736.35 33.8747 1706.46 0.133993 1655.12 0.133993ZM1606.59 158.357C1594.58 142.254 1588.71 120.271 1588.71 92.6653C1588.71 37.7089 1614.25 2.69011 1655.12 2.69011C1695.73 2.69011 1721.53 37.7089 1721.53 92.4098C1721.53 147.366 1695.99 182.385 1655.12 182.385C1634.68 182.385 1618.59 174.461 1606.59 158.357ZM142.643 4.03578V6.59189H132.936C127.572 6.59189 123.485 10.4261 123.485 15.7939V170.439C123.485 175.807 127.572 179.641 132.936 179.641H142.643V182.197H90.2794V179.641H99.9858C105.35 179.641 109.437 175.807 109.437 170.439V15.7939C109.437 10.4261 105.35 6.59189 99.9858 6.59189H91.6238H53.2421H49.9484H43.5357C38.1717 6.59189 34.0848 10.4261 34.0848 15.7939V68.9611V71.5172V170.439C34.0848 175.807 38.1717 179.641 43.5357 179.641H53.2421V182.197H0.878906V179.641H10.5852C15.9493 179.641 20.0362 175.807 20.0362 170.439V15.7939C20.0362 10.4261 15.9493 6.59189 10.5852 6.59189H0.878906V4.03578H49.9484H53.2421H91.6238H142.643Z" fill="black"/>
</svg>
