<svg width="687" height="84" viewBox="0 0 687 84" fill="none" xmlns="http://www.w3.org/2000/svg">
<path fill-rule="evenodd" clip-rule="evenodd" d="M101.875 17.655C101.875 6.4865 107.484 0 117.384 0C127.187 0 132.893 6.4377 132.893 17.6062C132.893 28.7746 127.285 35.2611 117.384 35.2611C107.581 35.2611 101.875 28.8234 101.875 17.655ZM104.704 17.655C104.704 22.9222 105.826 27.1164 108.118 30.189C110.41 33.2615 113.483 34.7734 117.384 34.7734C125.188 34.7734 130.065 28.0919 130.065 17.6062C130.065 7.1693 125.139 0.487701 117.384 0.487701C109.581 0.487701 104.704 7.1693 104.704 17.655ZM1.36558 0.633999H20.3861L11.3148 13.0217C17.655 13.1681 20.825 16.8746 20.825 24.1414C20.825 31.7497 17.5086 35.2611 10.2906 35.2611C7.02296 35.2611 4.48689 34.2369 2.77992 32.2374C2.29222 31.7009 1.85328 31.4083 1.46312 31.4083C0.8291 31.4083 0.487706 31.7984 0.487706 32.53V34.6271H0V19.7521H0.487706V22.0443C0.487706 30.189 3.75533 34.7734 10.1443 34.7734C15.3627 34.7734 17.9963 31.2132 17.9963 24.1414C17.9963 17.3136 15.509 13.5095 10.8758 13.5095H7.60821L16.6308 1.1217H6.6328C3.70656 1.1217 1.85328 2.8775 1.85328 5.8037V12.4365H1.36558V0.633999ZM50.0889 34.1394H51.3569V34.6271H41.359V34.1394H43.8463C44.6266 34.1394 45.1143 33.7005 45.1143 33.0665C45.1143 32.9689 45.1143 32.8226 45.0655 32.6763L41.9442 23.2636H29.459L27.118 31.5546C27.0204 31.8472 27.0204 32.091 27.0204 32.3349C27.0204 33.4079 27.8008 34.1394 28.8737 34.1394H30.093V34.6271H22.2897V34.1394H23.5577C25.0208 34.1394 26.1426 33.2615 26.6303 31.5058L34.6774 3.0238C34.6857 2.9822 34.6941 2.942 34.7021 2.9029L34.7023 2.9023C34.7415 2.713 34.775 2.5514 34.775 2.3898C34.775 1.5607 34.1897 1.1217 33.3606 1.1217H30.0442V0.633999H37.2135L47.8942 32.7738C48.1869 33.7005 48.9184 34.1394 50.0889 34.1394ZM29.6053 22.7759H41.7491L35.2139 3.1701L29.6053 22.7759ZM78.7759 0.633999V1.1217H80.6292C81.8485 1.1217 82.4337 1.707 82.4337 2.8775V32.3349C82.4337 33.7005 81.946 34.1394 80.6292 34.1394H78.7759V34.6271H88.7739V34.1394H86.9206C85.8964 34.1394 85.1161 33.4566 85.1161 32.3349V13.5095H90.5784C97.5526 13.5095 100.43 11.7049 100.43 7.0717C100.43 2.4385 97.5526 0.633999 90.5784 0.633999H78.7759ZM85.1161 13.0217V1.1217H90.5784C95.6018 1.1217 97.6014 2.7799 97.6014 7.0717C97.6014 11.3635 95.6018 13.0217 90.5784 13.0217H85.1161ZM160.472 1.1217V0.633999H150.474V1.1217H152.328C153.352 1.1217 154.132 1.8533 154.132 2.8775V13.0217H139.745V2.8775C139.745 1.8533 140.525 1.1217 141.549 1.1217H143.403V0.633999H133.405V1.1217H135.258C136.282 1.1217 137.062 1.8533 137.062 2.8775V32.3837C137.062 33.4079 136.282 34.1394 135.258 34.1394H133.405V34.6271H143.403V34.1394H141.549C140.525 34.1394 139.745 33.4079 139.745 32.3837V13.5095H154.132V32.3837C154.132 33.4079 153.352 34.1394 152.328 34.1394H150.474V34.6271H160.472V34.1394H158.619C157.595 34.1394 156.815 33.4079 156.815 32.3837V2.8775C156.815 1.8533 157.595 1.1217 158.619 1.1217H160.472ZM191.177 1.1217V0.633999H202.979C209.954 0.633999 212.831 2.4385 212.831 7.0717C212.831 11.7049 209.954 13.5095 202.979 13.5095H197.517V32.3349C197.517 33.4566 198.297 34.1394 199.322 34.1394H201.175V34.6271H191.177V34.1394H193.03C194.347 34.1394 194.835 33.7005 194.835 32.3349V2.8775C194.835 1.707 194.249 1.1217 193.03 1.1217H191.177ZM197.517 1.1217V13.0217H202.979C208.003 13.0217 210.002 11.3635 210.002 7.0717C210.002 2.7799 208.003 1.1217 202.979 1.1217H197.517ZM229.785 0C219.885 0 214.276 6.4865 214.276 17.655C214.276 28.8234 219.982 35.2611 229.785 35.2611C239.686 35.2611 245.294 28.7746 245.294 17.6062C245.294 6.4377 239.588 0 229.785 0ZM220.519 30.189C218.227 27.1164 217.105 22.9222 217.105 17.655C217.105 7.1693 221.982 0.487701 229.785 0.487701C237.54 0.487701 242.466 7.1693 242.466 17.6062C242.466 28.0919 237.589 34.7734 229.785 34.7734C225.884 34.7734 222.811 33.2615 220.519 30.189ZM267.46 7.0717C267.46 11.1197 265.314 12.8754 260.095 13.2656C266.875 13.8996 270.288 17.4111 270.288 23.8C270.288 31.1644 266.241 34.6271 257.706 34.6271H245.806V34.1394H247.659C248.976 34.1394 249.463 33.7005 249.463 32.3837V2.8775C249.463 1.5607 248.976 1.1217 247.659 1.1217H245.806V0.633999H257.608C264.582 0.633999 267.46 2.4385 267.46 7.0717ZM257.608 1.1217H252.146V13.0217H257.608C262.632 13.0217 264.631 11.3635 264.631 7.0717C264.631 2.7799 262.632 1.1217 257.608 1.1217ZM252.146 13.5095V34.1394H257.706C264.29 34.1394 267.46 30.823 267.46 23.8C267.46 16.8259 264.29 13.5095 257.706 13.5095H252.146ZM297.925 34.1394H296.657C295.486 34.1394 294.755 33.7005 294.462 32.7738L283.781 0.633999H276.612V1.1217H279.928C280.757 1.1217 281.343 1.5607 281.343 2.3898C281.343 2.5513 281.309 2.7129 281.27 2.9021V2.9022V2.9023L281.261 2.9473L281.245 3.0238L273.198 31.5058C272.71 33.2615 271.589 34.1394 270.125 34.1394H268.857V34.6271H276.661V34.1394H275.441C274.368 34.1394 273.588 33.4079 273.588 32.3349C273.588 32.091 273.588 31.8472 273.686 31.5546L276.027 23.2636H288.512L291.633 32.6763C291.682 32.8226 291.682 32.9689 291.682 33.0665C291.682 33.7005 291.194 34.1394 290.414 34.1394H287.927V34.6271H297.925V34.1394ZM288.317 22.7759H276.173L281.782 3.1701L288.317 22.7759ZM295.487 0.633999H317.677V12.4365H317.19V5.5598C317.19 3.0238 315.288 1.1217 312.752 1.1217H307.923V32.2861C307.923 33.4079 308.655 34.1394 309.777 34.1394H313.044V34.6271H300.12V34.1394H303.388C304.509 34.1394 305.241 33.4079 305.241 32.2861V1.1217H300.315C297.828 1.1217 295.975 3.0725 295.975 5.6574V12.4365H295.487V0.633999ZM169.628 0.625198H161.722V1.1138H162.908C164.341 1.1138 165.428 2.1398 165.428 3.7032V35.3141L185.686 2.7749V31.601C185.686 33.1644 184.599 34.1904 183.166 34.1904H181.98V34.679H189.886V34.1904H188.7C187.267 34.1904 186.18 33.1644 186.18 31.601V2.7749C186.18 1.8466 186.97 1.1138 188.008 1.1138H189.886V0.625198H183.808L165.922 29.4512V3.7032C165.922 2.1398 167.009 1.1138 168.442 1.1138H169.628V0.625198ZM321.429 34.6185V34.1308H323.282C324.501 34.1308 325.087 33.5455 325.087 32.3751V2.9176C325.087 1.552 324.599 1.1131 323.282 1.1131H321.429V0.625401H331.427V1.1131H329.573C328.549 1.1131 327.769 1.7959 327.769 2.9176V21.7431H333.231C340.205 21.7431 343.083 23.5476 343.083 28.1808C343.083 32.814 340.205 34.6185 333.231 34.6185H321.429ZM327.769 22.2308V34.1308H333.231C338.255 34.1308 340.254 32.4726 340.254 28.1808C340.254 23.889 338.255 22.2308 333.231 22.2308H327.769ZM52.8471 0.968601V1.4564H54.7004C56.0172 1.4564 56.5049 1.8953 56.5049 3.2121V32.7183C56.5049 34.0351 56.0172 34.474 54.7004 34.474H52.8471V34.9618H58.7971H64.7471C73.282 34.9618 77.3299 31.499 77.3299 24.1347C77.3299 17.7457 73.8796 14.1388 67.1005 13.5048L64.6496 13.3564H59.1873V1.4564V1.411H60.0162H69.0428C71.6848 1.411 73.358 3.0034 73.358 5.6574V11.6731H73.7984V0.9687H59.1873V0.968601H52.8471ZM59.1881 13.8442V34.4742H64.748C71.332 34.4742 74.5021 31.1578 74.5021 24.1348C74.5021 17.1606 71.332 13.8442 64.748 13.8442H59.1881Z" fill="#828282"/>
<path fill-rule="evenodd" clip-rule="evenodd" d="M433.943 34.6702V35.1326H442.407V34.6702H440.979C439.709 34.6702 438.81 33.8842 438.81 32.8207C438.81 32.6675 438.846 32.5143 438.889 32.3348C438.897 32.2976 438.907 32.2593 438.916 32.2197L445.205 6.70186L451.123 33.0982C451.228 33.2831 451.228 33.468 451.228 33.653C451.228 34.3003 450.646 34.6702 449.694 34.6702H447.155V35.1326H458V34.6702H456.783C455.408 34.6702 454.561 34.1616 454.138 33.0982L445.766 1L438.334 32.2197C437.805 33.8379 436.588 34.6702 434.683 34.6702H433.943ZM378.905 28.6981C376.233 32.7529 371.94 35.4243 367.17 35.4243C359.68 35.4243 354.767 28.1256 354.767 18.6804C354.767 8.61498 360.014 1.88881 367.599 1.88881C373.037 1.88881 378.094 5.32345 378.141 12.8606V13.5761H378.618V2.03192H378.141V4.27398C378.141 4.98953 377.855 5.32345 377.33 5.32345C376.949 5.32345 376.567 5.13264 376.186 4.79872C373.419 2.55666 370.413 1.41178 367.17 1.41178C358.249 1.41178 352 8.61498 352 18.6804C352 28.7458 358.201 35.9013 367.17 35.9013C372.083 35.9013 376.52 33.2299 379.334 28.9843L378.905 28.6981ZM402.687 2.03192H380.982V13.5761H381.459V6.94537C381.459 4.41709 383.271 2.50896 385.704 2.50896H390.522V32.9914C390.522 34.0886 389.807 34.8041 388.71 34.8041H385.513V35.2812H398.155V34.8041H394.959C393.862 34.8041 393.146 34.0886 393.146 32.9914V2.50896H397.869C400.349 2.50896 402.21 4.36939 402.21 6.84996V13.5761H402.687V2.03192ZM404.362 18.6804C404.362 7.75632 409.848 1.41178 419.532 1.41178C429.12 1.41178 434.701 7.70862 434.701 18.6327C434.701 29.5567 429.215 35.9013 419.532 35.9013C409.943 35.9013 404.362 29.6045 404.362 18.6804ZM407.129 18.6804C407.129 23.8323 408.226 27.9348 410.468 30.9401C412.71 33.9455 415.715 35.4243 419.532 35.4243C427.164 35.4243 431.934 28.8889 431.934 18.6327C431.934 8.42417 427.116 1.88881 419.532 1.88881C411.899 1.88881 407.129 8.42417 407.129 18.6804Z" fill="#828282"/>
<path fill-rule="evenodd" clip-rule="evenodd" d="M330.875 65.655C330.875 54.4865 336.484 48 346.384 48C356.187 48 361.893 54.4377 361.893 65.6062C361.893 76.7746 356.285 83.2611 346.384 83.2611C336.581 83.2611 330.875 76.8234 330.875 65.655ZM333.704 65.655C333.704 70.9222 334.826 75.1164 337.118 78.189C339.41 81.2615 342.483 82.7734 346.384 82.7734C354.188 82.7734 359.065 76.0919 359.065 65.6062C359.065 55.1693 354.139 48.4877 346.384 48.4877C338.581 48.4877 333.704 55.1693 333.704 65.655ZM230.366 48.634H249.386L240.315 61.0217C246.655 61.1681 249.825 64.8746 249.825 72.1414C249.825 79.7497 246.509 83.2611 239.291 83.2611C236.023 83.2611 233.487 82.2369 231.78 80.2374C231.292 79.7009 230.853 79.4083 230.463 79.4083C229.829 79.4083 229.488 79.7984 229.488 80.53V82.6271H229V67.7521H229.488V70.0443C229.488 78.189 232.755 82.7734 239.144 82.7734C244.363 82.7734 246.996 79.2132 246.996 72.1414C246.996 65.3136 244.509 61.5095 239.876 61.5095H236.608L245.631 49.1217H235.633C232.707 49.1217 230.853 50.8775 230.853 53.8037V60.4365H230.366V48.634ZM279.089 82.1394H280.357V82.6271H270.359V82.1394H272.846C273.627 82.1394 274.114 81.7005 274.114 81.0665C274.114 80.9689 274.114 80.8226 274.065 80.6763L270.944 71.2636H258.459L256.118 79.5546C256.02 79.8472 256.02 80.091 256.02 80.3349C256.02 81.4079 256.801 82.1394 257.874 82.1394H259.093V82.6271H251.29V82.1394H252.558C254.021 82.1394 255.143 81.2615 255.63 79.5058L263.677 51.0238C263.686 50.9822 263.694 50.942 263.702 50.9029L263.702 50.9023C263.742 50.713 263.775 50.5514 263.775 50.3898C263.775 49.5607 263.19 49.1217 262.361 49.1217H259.044V48.634H266.214L276.894 80.7738C277.187 81.7005 277.918 82.1394 279.089 82.1394ZM258.605 70.7759H270.749L264.214 51.1701L258.605 70.7759ZM307.776 48.634V49.1217H309.629C310.849 49.1217 311.434 49.707 311.434 50.8775V80.3349C311.434 81.7005 310.946 82.1394 309.629 82.1394H307.776V82.6271H317.774V82.1394H315.921C314.896 82.1394 314.116 81.4566 314.116 80.3349V61.5095H319.578C326.553 61.5095 329.43 59.7049 329.43 55.0717C329.43 50.4385 326.553 48.634 319.578 48.634H307.776ZM314.116 61.0217V49.1217H319.578C324.602 49.1217 326.601 50.7799 326.601 55.0717C326.601 59.3635 324.602 61.0217 319.578 61.0217H314.116ZM389.472 49.1217V48.634H379.474V49.1217H381.328C382.352 49.1217 383.132 49.8533 383.132 50.8775V61.0217H368.745V50.8775C368.745 49.8533 369.525 49.1217 370.549 49.1217H372.403V48.634H362.405V49.1217H364.258C365.282 49.1217 366.062 49.8533 366.062 50.8775V80.3837C366.062 81.4079 365.282 82.1394 364.258 82.1394H362.405V82.6271H372.403V82.1394H370.549C369.525 82.1394 368.745 81.4079 368.745 80.3837V61.5095H383.132V80.3837C383.132 81.4079 382.352 82.1394 381.328 82.1394H379.474V82.6271H389.472V82.1394H387.619C386.595 82.1394 385.815 81.4079 385.815 80.3837V50.8775C385.815 49.8533 386.595 49.1217 387.619 49.1217H389.472ZM420.177 49.1217V48.634H431.979C438.954 48.634 441.831 50.4385 441.831 55.0717C441.831 59.7049 438.954 61.5095 431.979 61.5095H426.517V80.3349C426.517 81.4566 427.297 82.1394 428.322 82.1394H430.175V82.6271H420.177V82.1394H422.03C423.347 82.1394 423.835 81.7005 423.835 80.3349V50.8775C423.835 49.707 423.249 49.1217 422.03 49.1217H420.177ZM426.517 49.1217V61.0217H431.979C437.003 61.0217 439.002 59.3635 439.002 55.0717C439.002 50.7799 437.003 49.1217 431.979 49.1217H426.517ZM458.785 48C448.885 48 443.276 54.4865 443.276 65.655C443.276 76.8234 448.982 83.2611 458.785 83.2611C468.686 83.2611 474.294 76.7746 474.294 65.6062C474.294 54.4377 468.588 48 458.785 48ZM449.519 78.189C447.227 75.1164 446.105 70.9222 446.105 65.655C446.105 55.1693 450.982 48.4877 458.785 48.4877C466.54 48.4877 471.466 55.1693 471.466 65.6062C471.466 76.0919 466.589 82.7734 458.785 82.7734C454.884 82.7734 451.811 81.2615 449.519 78.189ZM496.46 55.0717C496.46 59.1197 494.314 60.8754 489.095 61.2656C495.875 61.8996 499.288 65.4111 499.288 71.8C499.288 79.1644 495.241 82.6271 486.706 82.6271H474.806V82.1394H476.659C477.976 82.1394 478.463 81.7005 478.463 80.3837V50.8775C478.463 49.5607 477.976 49.1217 476.659 49.1217H474.806V48.634H486.608C493.582 48.634 496.46 50.4385 496.46 55.0717ZM486.608 49.1217H481.146V61.0217H486.608C491.632 61.0217 493.631 59.3635 493.631 55.0717C493.631 50.7799 491.632 49.1217 486.608 49.1217ZM481.146 61.5095V82.1394H486.706C493.29 82.1394 496.46 78.823 496.46 71.8C496.46 64.8259 493.29 61.5095 486.706 61.5095H481.146ZM526.925 82.1394H525.657C524.486 82.1394 523.755 81.7005 523.462 80.7738L512.781 48.634H505.612V49.1217H508.928C509.757 49.1217 510.343 49.5607 510.343 50.3898C510.343 50.5513 510.309 50.7129 510.27 50.9021V50.9022V50.9023L510.261 50.9473L510.245 51.0238L502.198 79.5058C501.71 81.2615 500.589 82.1394 499.125 82.1394H497.857V82.6271H505.661V82.1394H504.441C503.368 82.1394 502.588 81.4079 502.588 80.3349C502.588 80.091 502.588 79.8472 502.686 79.5546L505.027 71.2636H517.512L520.633 80.6763C520.682 80.8226 520.682 80.9689 520.682 81.0665C520.682 81.7005 520.194 82.1394 519.414 82.1394H516.927V82.6271H526.925V82.1394ZM517.317 70.7759H505.173L510.782 51.1701L517.317 70.7759ZM524.487 48.634H546.677V60.4365H546.19V53.5598C546.19 51.0238 544.288 49.1217 541.752 49.1217H536.923V80.2861C536.923 81.4079 537.655 82.1394 538.777 82.1394H542.044V82.6271H529.12V82.1394H532.388C533.509 82.1394 534.241 81.4079 534.241 80.2861V49.1217H529.315C526.828 49.1217 524.975 51.0725 524.975 53.6574V60.4365H524.487V48.634ZM398.628 48.6252H390.722V49.1138H391.908C393.341 49.1138 394.428 50.1398 394.428 51.7032V83.3141L414.686 50.7749V79.601C414.686 81.1644 413.599 82.1904 412.166 82.1904H410.98V82.679H418.886V82.1904H417.7C416.267 82.1904 415.18 81.1644 415.18 79.601V50.7749C415.18 49.8466 415.97 49.1138 417.008 49.1138H418.886V48.6252H412.808L394.922 77.4512V51.7032C394.922 50.1398 396.009 49.1138 397.442 49.1138H398.628V48.6252ZM550.429 82.6185V82.1308H552.282C553.501 82.1308 554.087 81.5455 554.087 80.3751V50.9176C554.087 49.552 553.599 49.1131 552.282 49.1131H550.429V48.6254H560.427V49.1131H558.573C557.549 49.1131 556.769 49.7959 556.769 50.9176V69.7431H562.231C569.205 69.7431 572.083 71.5476 572.083 76.1808C572.083 80.814 569.205 82.6185 562.231 82.6185H550.429ZM556.769 70.2308V82.1308H562.231C567.255 82.1308 569.254 80.4726 569.254 76.1808C569.254 71.889 567.255 70.2308 562.231 70.2308H556.769ZM281.847 48.9686V49.4564H283.7C285.017 49.4564 285.505 49.8953 285.505 51.2121V80.7183C285.505 82.0351 285.017 82.474 283.7 82.474H281.847V82.9618H287.797H293.747C302.282 82.9618 306.33 79.499 306.33 72.1347C306.33 65.7457 302.88 62.1388 296.101 61.5048L293.65 61.3564H288.187V49.4564V49.411H289.016H298.043C300.685 49.411 302.358 51.0034 302.358 53.6574V59.6731H302.798V48.9687H288.187V48.9686H281.847ZM288.188 61.8442V82.4742H293.748C300.332 82.4742 303.502 79.1578 303.502 72.1348C303.502 65.1606 300.332 61.8442 293.748 61.8442H288.188Z" fill="#828282"/>
<path fill-rule="evenodd" clip-rule="evenodd" d="M662.943 82.6702V83.1326H671.407V82.6702H669.979C668.709 82.6702 667.81 81.8842 667.81 80.8207C667.81 80.6675 667.846 80.5143 667.889 80.3348C667.897 80.2976 667.907 80.2593 667.916 80.2197L674.205 54.7019L680.123 81.0982C680.228 81.2831 680.228 81.468 680.228 81.653C680.228 82.3003 679.646 82.6702 678.694 82.6702H676.155V83.1326H687V82.6702H685.783C684.408 82.6702 683.561 82.1616 683.138 81.0982L674.766 49L667.334 80.2197C666.805 81.8379 665.588 82.6702 663.683 82.6702H662.943ZM607.905 76.6981C605.233 80.7529 600.94 83.4243 596.17 83.4243C588.68 83.4243 583.767 76.1256 583.767 66.6804C583.767 56.615 589.014 49.8888 596.599 49.8888C602.037 49.8888 607.094 53.3235 607.141 60.8606V61.5761H607.618V50.0319H607.141V52.274C607.141 52.9895 606.855 53.3235 606.33 53.3235C605.949 53.3235 605.567 53.1326 605.186 52.7987C602.419 50.5567 599.413 49.4118 596.17 49.4118C587.249 49.4118 581 56.615 581 66.6804C581 76.7458 587.201 83.9013 596.17 83.9013C601.083 83.9013 605.52 81.2299 608.334 76.9843L607.905 76.6981ZM631.687 50.0319H609.982V61.5761H610.459V54.9454C610.459 52.4171 612.271 50.509 614.704 50.509H619.522V80.9914C619.522 82.0886 618.807 82.8041 617.71 82.8041H614.513V83.2812H627.155V82.8041H623.959C622.862 82.8041 622.146 82.0886 622.146 80.9914V50.509H626.869C629.349 50.509 631.21 52.3694 631.21 54.85V61.5761H631.687V50.0319ZM633.362 66.6804C633.362 55.7563 638.848 49.4118 648.532 49.4118C658.12 49.4118 663.701 55.7086 663.701 66.6327C663.701 77.5567 658.215 83.9013 648.532 83.9013C638.943 83.9013 633.362 77.6045 633.362 66.6804ZM636.129 66.6804C636.129 71.8323 637.226 75.9348 639.468 78.9401C641.71 81.9455 644.715 83.4243 648.532 83.4243C656.164 83.4243 660.934 76.8889 660.934 66.6327C660.934 56.4242 656.116 49.8888 648.532 49.8888C640.899 49.8888 636.129 56.4242 636.129 66.6804Z" fill="#828282"/>
</svg>
