<svg width="781" height="59" viewBox="0 0 781 59" fill="none" xmlns="http://www.w3.org/2000/svg">
<path d="M18.76 21.56C29.16 21.7733 34.36 27.8533 34.36 39.8C34.36 46.0933 32.9733 50.7067 30.2 53.64C27.4267 56.5733 23.0533 58.04 17.08 58.04C11.6933 58.04 7.58667 56.3867 4.76 53.08C3.96 52.1733 3.24 51.72 2.6 51.72C1.53333 51.72 1 52.3333 1 53.56V57H0.2V32.6H1V36.36C1 43.08 2.30667 48.2533 4.92 51.88C7.58667 55.4533 11.56 57.24 16.84 57.24C25.4267 57.24 29.72 51.4267 29.72 39.8C29.72 34.1467 28.7333 29.8267 26.76 26.84C24.7867 23.8533 21.88 22.36 18.04 22.36H12.68L27.48 2.04H11.08C8.68 2.04 6.76 2.73333 5.32 4.12C3.93333 5.45333 3.24 7.32 3.24 9.72V20.6H2.44V1.24H33.64L18.76 21.56ZM84.2825 57H67.8825V56.2H71.9625C73.3492 56.2 74.0425 55.6133 74.0425 54.44C74.0425 54.1733 74.0158 53.96 73.9625 53.8L68.8425 38.36H48.3625L44.5225 51.96C44.4158 52.2267 44.3625 52.4667 44.3625 52.68C44.3625 52.84 44.3625 53.0267 44.3625 53.24C44.3625 54.1467 44.6292 54.8667 45.1625 55.4C45.7492 55.9333 46.4958 56.2 47.4025 56.2H49.4025V57H36.6025V56.2H38.6825C39.9092 56.2 40.9492 55.8533 41.8025 55.16C42.6558 54.4133 43.2958 53.32 43.7225 51.88L56.9225 5.16C56.9758 4.94667 57.0025 4.76 57.0025 4.6C57.0558 4.44 57.0825 4.28 57.0825 4.12C57.0825 3.42666 56.8692 2.92 56.4425 2.6C56.0158 2.22666 55.4558 2.04 54.7625 2.04H49.3225V1.24H61.0825L78.6025 53.96C79.0825 55.4533 80.2825 56.2 82.2025 56.2H84.2825V57ZM57.8025 5.4L48.6025 37.56H68.5225L57.8025 5.4ZM124.716 20.6H123.916V9.32C123.916 8.25333 123.65 7.29333 123.116 6.44C122.583 5.53333 121.89 4.76 121.036 4.12C120.183 3.48 119.223 2.97333 118.156 2.6C117.143 2.22666 116.103 2.04 115.036 2.04H98.3163V21H106.956C113.57 21 118.743 22.44 122.476 25.32C126.21 28.2 128.076 32.7333 128.076 38.92C128.076 41.64 127.81 44.0933 127.276 46.28C126.796 48.4667 125.783 50.3333 124.236 51.88C122.743 53.4267 120.61 54.6267 117.836 55.48C115.063 56.3333 111.436 56.76 106.956 56.76H106.716V57H87.9163V56.2H90.9563C91.8096 56.2 92.5029 55.9333 93.0363 55.4C93.6229 54.8133 93.9163 54.04 93.9163 53.08V5C93.9163 4.09333 93.6229 3.37333 93.0363 2.84C92.5029 2.30666 91.8096 2.04 90.9563 2.04H87.9163V1.24H124.716V20.6ZM106.956 56.28C111.063 56.28 114.263 55.8533 116.556 55C118.903 54.1467 120.636 52.9467 121.756 51.4C122.93 49.8533 123.65 48.0133 123.916 45.88C124.183 43.7467 124.316 41.4267 124.316 38.92C124.316 36.36 123.943 34.0133 123.196 31.88C122.503 29.7467 121.436 27.9067 119.996 26.36C118.556 24.8133 116.743 23.6133 114.556 22.76C112.37 21.9067 109.836 21.48 106.956 21.48H98.3163V53.08C98.3163 54.04 98.5829 54.8133 99.1163 55.4C99.7029 55.9333 100.423 56.2 101.276 56.2H106.716V56.28H106.956ZM150.107 1.24C155.814 1.24 159.92 2.06667 162.427 3.72C164.987 5.32 166.267 8.01333 166.267 11.8C166.267 15.5867 164.987 18.3067 162.427 19.96C159.92 21.56 155.814 22.36 150.107 22.36H141.147V53.24C141.147 54.1467 141.414 54.8667 141.947 55.4C142.534 55.9333 143.254 56.2 144.107 56.2H147.147V57H130.747V56.2H133.787C134.854 56.2 135.6 55.9867 136.027 55.56C136.507 55.1333 136.747 54.36 136.747 53.24V4.92C136.747 3 135.76 2.04 133.787 2.04H130.747V1.24H150.107ZM150.107 21.56C154.267 21.56 157.227 20.8133 158.987 19.32C160.747 17.8267 161.627 15.32 161.627 11.8C161.627 8.28 160.747 5.77333 158.987 4.28C157.227 2.78666 154.267 2.04 150.107 2.04H141.147V21.56H150.107ZM195.198 0.199997C203.304 0.199997 209.571 2.70666 213.998 7.72C218.424 12.7333 220.638 19.8533 220.638 29.08C220.638 33.6667 220.078 37.7467 218.958 41.32C217.838 44.8933 216.184 47.9333 213.998 50.44C211.864 52.8933 209.198 54.7867 205.998 56.12C202.851 57.4 199.251 58.04 195.198 58.04C187.091 58.04 180.824 55.5333 176.398 50.52C171.971 45.5067 169.758 38.3867 169.758 29.16C169.758 24.5733 170.318 20.4933 171.438 16.92C172.558 13.3467 174.184 10.3333 176.318 7.88C178.504 5.37333 181.171 3.48 184.318 2.2C187.518 0.866663 191.144 0.199997 195.198 0.199997ZM195.198 57.24C198.398 57.24 201.278 56.5733 203.838 55.24C206.398 53.9067 208.584 52.04 210.398 49.64C212.211 47.1867 213.598 44.2267 214.558 40.76C215.518 37.2933 215.998 33.4 215.998 29.08C215.998 24.8133 215.491 20.9467 214.477 17.48C213.518 14.0133 212.131 11.0533 210.318 8.6C208.558 6.14666 206.398 4.28 203.838 3C201.278 1.66666 198.398 0.999996 195.198 0.999996C191.998 0.999996 189.118 1.66666 186.558 3C183.998 4.33333 181.811 6.22666 179.998 8.68C178.184 11.08 176.798 14.0133 175.838 17.48C174.878 20.9467 174.398 24.84 174.398 29.16C174.398 32.4667 174.744 35.8 175.438 39.16C176.131 42.4667 177.278 45.48 178.878 48.2C180.531 50.8667 182.691 53.0533 185.358 54.76C188.024 56.4133 191.304 57.24 195.198 57.24ZM264.216 2.04C263.363 2.04 262.643 2.30666 262.056 2.84C261.523 3.37333 261.256 4.06666 261.256 4.92V53.32C261.256 54.1733 261.523 54.8667 262.056 55.4C262.643 55.9333 263.363 56.2 264.216 56.2H267.256V57H250.856V56.2H253.896C254.75 56.2 255.443 55.9333 255.976 55.4C256.563 54.8667 256.856 54.1733 256.856 53.32V22.36H233.256V53.32C233.256 54.1733 233.523 54.8667 234.056 55.4C234.643 55.9333 235.363 56.2 236.216 56.2H239.256V57H222.856V56.2H225.896C226.75 56.2 227.443 55.9333 227.976 55.4C228.563 54.8667 228.856 54.1733 228.856 53.32V4.92C228.856 4.06666 228.563 3.37333 227.976 2.84C227.443 2.30666 226.75 2.04 225.896 2.04H222.856V1.24H239.256V2.04H236.216C235.363 2.04 234.643 2.30666 234.056 2.84C233.523 3.37333 233.256 4.06666 233.256 4.92V21.56H256.856V4.92C256.856 4.06666 256.563 3.37333 255.976 2.84C255.443 2.30666 254.75 2.04 253.896 2.04H250.856V1.24H267.256V2.04H264.216ZM269.653 2.04H271.573C272.746 2.04 273.706 2.44 274.453 3.24C275.253 3.98666 275.653 5 275.653 6.28V58.04L308.453 4.76V51.96C308.453 53.24 308.053 54.28 307.253 55.08C306.506 55.8267 305.546 56.2 304.373 56.2H302.453V57H315.253V56.2H313.333C312.16 56.2 311.173 55.8267 310.373 55.08C309.626 54.28 309.253 53.24 309.253 51.96V4.76C309.253 4.01333 309.52 3.37333 310.053 2.84C310.64 2.30666 311.36 2.04 312.213 2.04H315.253V1.24H305.413L276.453 48.44V6.28C276.453 5 276.826 3.98666 277.573 3.24C278.373 2.44 279.36 2.04 280.533 2.04H282.453V1.24H269.653V2.04ZM336.982 1.24C342.689 1.24 346.795 2.06667 349.302 3.72C351.862 5.32 353.142 8.01333 353.142 11.8C353.142 15.5867 351.862 18.3067 349.302 19.96C346.795 21.56 342.689 22.36 336.982 22.36H328.022V53.24C328.022 54.1467 328.289 54.8667 328.822 55.4C329.409 55.9333 330.129 56.2 330.982 56.2H334.022V57H317.622V56.2H320.662C321.729 56.2 322.475 55.9867 322.902 55.56C323.382 55.1333 323.622 54.36 323.622 53.24V4.92C323.622 3 322.635 2.04 320.662 2.04H317.622V1.24H336.982ZM336.982 21.56C341.142 21.56 344.102 20.8133 345.862 19.32C347.622 17.8267 348.502 15.32 348.502 11.8C348.502 8.28 347.622 5.77333 345.862 4.28C344.102 2.78666 341.142 2.04 336.982 2.04H328.022V21.56H336.982ZM382.073 0.199997C390.179 0.199997 396.446 2.70666 400.873 7.72C405.299 12.7333 407.513 19.8533 407.513 29.08C407.513 33.6667 406.953 37.7467 405.833 41.32C404.713 44.8933 403.059 47.9333 400.873 50.44C398.739 52.8933 396.073 54.7867 392.873 56.12C389.726 57.4 386.126 58.04 382.073 58.04C373.966 58.04 367.699 55.5333 363.273 50.52C358.846 45.5067 356.633 38.3867 356.633 29.16C356.633 24.5733 357.193 20.4933 358.313 16.92C359.433 13.3467 361.059 10.3333 363.193 7.88C365.379 5.37333 368.046 3.48 371.193 2.2C374.393 0.866663 378.019 0.199997 382.073 0.199997ZM382.073 57.24C385.273 57.24 388.153 56.5733 390.713 55.24C393.273 53.9067 395.459 52.04 397.273 49.64C399.086 47.1867 400.473 44.2267 401.433 40.76C402.393 37.2933 402.873 33.4 402.873 29.08C402.873 24.8133 402.366 20.9467 401.352 17.48C400.393 14.0133 399.006 11.0533 397.193 8.6C395.433 6.14666 393.273 4.28 390.713 3C388.153 1.66666 385.273 0.999996 382.073 0.999996C378.873 0.999996 375.993 1.66666 373.433 3C370.873 4.33333 368.686 6.22666 366.873 8.68C365.059 11.08 363.673 14.0133 362.713 17.48C361.753 20.9467 361.273 24.84 361.273 29.16C361.273 32.4667 361.619 35.8 362.313 39.16C363.006 42.4667 364.153 45.48 365.753 48.2C367.406 50.8667 369.566 53.0533 372.233 54.76C374.899 56.4133 378.179 57.24 382.073 57.24ZM433.171 21.96C444.318 23.0267 449.891 28.7867 449.891 39.24C449.891 45.32 448.211 49.8 444.851 52.68C441.491 55.56 436.291 57 429.251 57H409.731V56.2H412.771C413.838 56.2 414.585 55.9867 415.011 55.56C415.491 55.1333 415.731 54.3867 415.731 53.32V4.92C415.731 3.85333 415.491 3.10667 415.011 2.68C414.585 2.25333 413.838 2.04 412.771 2.04H409.731V1.24H429.091C432.718 1.24 435.731 1.72 438.131 2.68C440.531 3.64 442.371 4.86667 443.651 6.36C444.931 7.8 445.625 9.4 445.731 11.16C445.891 12.8667 445.518 14.4933 444.611 16.04C443.758 17.5867 442.345 18.92 440.371 20.04C438.451 21.1067 436.051 21.7467 433.171 21.96ZM420.131 21.56H429.091C433.251 21.56 436.211 20.8133 437.971 19.32C439.731 17.8267 440.611 15.32 440.611 11.8C440.611 8.28 439.731 5.77333 437.971 4.28C436.211 2.78666 433.251 2.04 429.091 2.04H420.131V21.56ZM429.251 56.2C434.691 56.2 438.718 54.84 441.331 52.12C443.945 49.3467 445.251 45.0533 445.251 39.24C445.251 33.48 443.945 29.24 441.331 26.52C438.718 23.7467 434.691 22.36 429.251 22.36H420.131V56.2H429.251ZM499.829 57H483.429V56.2H487.509C488.896 56.2 489.589 55.6133 489.589 54.44C489.589 54.1733 489.563 53.96 489.509 53.8L484.389 38.36H463.909L460.069 51.96C459.963 52.2267 459.909 52.4667 459.909 52.68C459.909 52.84 459.909 53.0267 459.909 53.24C459.909 54.1467 460.176 54.8667 460.709 55.4C461.296 55.9333 462.043 56.2 462.949 56.2H464.949V57H452.149V56.2H454.229C455.456 56.2 456.496 55.8533 457.349 55.16C458.203 54.4133 458.843 53.32 459.269 51.88L472.469 5.16C472.523 4.94667 472.549 4.76 472.549 4.6C472.603 4.44 472.629 4.28 472.629 4.12C472.629 3.42666 472.416 2.92 471.989 2.6C471.563 2.22666 471.003 2.04 470.309 2.04H464.869V1.24H476.629L494.149 53.96C494.629 55.4533 495.829 56.2 497.749 56.2H499.829V57ZM473.349 5.4L464.149 37.56H484.069L473.349 5.4ZM537.703 20.6H536.903V9.32C536.903 7.24 536.21 5.50666 534.823 4.12C533.436 2.73333 531.703 2.04 529.623 2.04H521.703V53.16C521.703 54.0667 521.97 54.8133 522.503 55.4C523.09 55.9333 523.836 56.2 524.743 56.2H530.103V57H508.903V56.2H514.263C515.17 56.2 515.89 55.9333 516.423 55.4C517.01 54.8133 517.303 54.0667 517.303 53.16V2.04H509.223C507.196 2.04 505.49 2.76 504.103 4.2C502.77 5.58667 502.103 7.34667 502.103 9.48V20.6H501.303V1.24H537.703V20.6ZM560.273 20.12C559.419 19.96 558.699 19.88 558.113 19.88C557.579 19.88 556.966 19.88 556.273 19.88H550.913V5C550.913 4.14667 551.179 3.45333 551.713 2.92C552.299 2.33333 553.019 2.04 553.873 2.04H556.913V1.24H540.513V2.04H543.553C544.619 2.04 545.366 2.28 545.793 2.76C546.273 3.18666 546.513 3.93333 546.513 5V53.24C546.513 54.3067 546.273 55.08 545.793 55.56C545.366 55.9867 544.619 56.2 543.553 56.2H540.513V57H556.673C562.646 57 566.966 55.56 569.633 52.68C572.299 49.7467 573.633 45.08 573.633 38.68C573.633 32.76 572.566 28.3333 570.433 25.4C568.299 22.4667 564.913 20.7067 560.273 20.12ZM556.673 20.68C560.886 20.68 563.979 22.12 565.953 25C567.979 27.88 568.993 32.4667 568.993 38.76C568.993 44.84 568.006 49.2667 566.033 52.04C564.113 54.8133 560.993 56.2 556.673 56.2H550.913V20.68H556.673ZM636.899 46.44C634.499 50.0133 631.539 52.84 628.019 54.92C624.499 57 620.659 58.04 616.499 58.04C612.766 58.04 609.326 57.3467 606.179 55.96C603.086 54.52 600.419 52.52 598.179 49.96C595.939 47.4 594.179 44.36 592.899 40.84C591.673 37.2667 591.059 33.3733 591.059 29.16C591.059 24.9467 591.673 21.08 592.899 17.56C594.179 13.9867 595.939 10.92 598.179 8.36C600.419 5.8 603.086 3.8 606.179 2.36C609.326 0.919997 612.766 0.199997 616.499 0.199997C621.886 0.199997 626.926 2.09333 631.619 5.88C632.313 6.46666 632.953 6.76 633.539 6.76C634.446 6.76 634.899 6.17333 634.899 5V1.24H635.699V20.6H634.899V19.4C634.899 16.2533 634.393 13.5333 633.379 11.24C632.419 8.89333 631.113 6.97333 629.459 5.48C627.806 3.93333 625.913 2.81333 623.779 2.12C621.699 1.37333 619.513 0.999996 617.219 0.999996C614.019 0.999996 611.086 1.69333 608.419 3.08C605.806 4.41333 603.539 6.30666 601.619 8.76C599.753 11.2133 598.286 14.1733 597.219 17.64C596.206 21.1067 595.699 24.9467 595.699 29.16C595.699 33.1067 596.179 36.7867 597.139 40.2C598.153 43.6133 599.566 46.6 601.379 49.16C603.193 51.6667 605.379 53.64 607.939 55.08C610.499 56.52 613.353 57.24 616.499 57.24C620.499 57.24 624.206 56.2267 627.619 54.2C631.086 52.12 633.939 49.3733 636.179 45.96L636.899 46.44ZM676.063 20.6H675.263V9.32C675.263 7.24 674.569 5.50666 673.183 4.12C671.796 2.73333 670.063 2.04 667.983 2.04H660.063V53.16C660.063 54.0667 660.329 54.8133 660.863 55.4C661.449 55.9333 662.196 56.2 663.103 56.2H668.463V57H647.263V56.2H652.623C653.529 56.2 654.249 55.9333 654.783 55.4C655.369 54.8133 655.663 54.0667 655.663 53.16V2.04H647.583C645.556 2.04 643.849 2.76 642.463 4.2C641.129 5.58667 640.463 7.34667 640.463 9.48V20.6H639.663V1.24H676.063V20.6ZM705.432 0.199997C713.539 0.199997 719.805 2.70666 724.232 7.72C728.659 12.7333 730.872 19.8533 730.872 29.08C730.872 33.6667 730.312 37.7467 729.192 41.32C728.072 44.8933 726.419 47.9333 724.232 50.44C722.099 52.8933 719.432 54.7867 716.232 56.12C713.085 57.4 709.485 58.04 705.432 58.04C697.325 58.04 691.059 55.5333 686.632 50.52C682.205 45.5067 679.992 38.3867 679.992 29.16C679.992 24.5733 680.552 20.4933 681.672 16.92C682.792 13.3467 684.419 10.3333 686.552 7.88C688.739 5.37333 691.405 3.48 694.552 2.2C697.752 0.866663 701.379 0.199997 705.432 0.199997ZM705.432 57.24C708.632 57.24 711.512 56.5733 714.072 55.24C716.632 53.9067 718.819 52.04 720.632 49.64C722.445 47.1867 723.832 44.2267 724.792 40.76C725.752 37.2933 726.232 33.4 726.232 29.08C726.232 24.8133 725.725 20.9467 724.712 17.48C723.752 14.0133 722.365 11.0533 720.552 8.6C718.792 6.14666 716.632 4.28 714.072 3C711.512 1.66666 708.632 0.999996 705.432 0.999996C702.232 0.999996 699.352 1.66666 696.792 3C694.232 4.33333 692.045 6.22666 690.232 8.68C688.419 11.08 687.032 14.0133 686.072 17.48C685.112 20.9467 684.632 24.84 684.632 29.16C684.632 32.4667 684.979 35.8 685.672 39.16C686.365 42.4667 687.512 45.48 689.112 48.2C690.765 50.8667 692.925 53.0533 695.592 54.76C698.259 56.4133 701.539 57.24 705.432 57.24ZM780.371 57H763.971V56.2H768.051C769.437 56.2 770.131 55.6133 770.131 54.44C770.131 54.1733 770.104 53.96 770.051 53.8L764.931 38.36L753.891 5.8L740.611 51.96C740.504 52.2267 740.451 52.4667 740.451 52.68C740.451 52.84 740.451 53.0267 740.451 53.24C740.451 54.1467 740.717 54.8667 741.251 55.4C741.837 55.9333 742.584 56.2 743.491 56.2H745.491V57H732.691V56.2H734.771C735.997 56.2 737.037 55.8533 737.891 55.16C738.744 54.4133 739.384 53.32 739.811 51.88L753.011 5.16C753.064 4.94667 753.091 4.76 753.091 4.6C753.144 4.44 753.171 4.28 753.171 4.12C753.171 3.42666 752.957 2.92 752.531 2.6C752.104 2.22666 751.544 2.04 750.851 2.04H745.411V1.24H757.171L774.691 53.96C775.171 55.4533 776.371 56.2 778.291 56.2H780.371V57Z" fill="black"/>
</svg>
