<svg width="299" height="2084" viewBox="0 0 299 2084" fill="none" xmlns="http://www.w3.org/2000/svg">
<path opacity="0.07" d="M108.424 1994.36C106.776 1998.89 105.54 2005.48 103.068 2013.72L93.18 2046.68C84.94 2067.69 75.464 2075.52 59.396 2075.52C27.672 2075.52 4.59998 2046.27 4.59998 2001.77C4.59997 1949.04 40.032 1925.55 82.056 1925.55L105.54 1925.55L105.54 1921.43L5.83598 1921.43L5.83598 1925.55L15.312 1925.55C21.492 1925.55 24.788 1928.02 24.788 1933.38C24.788 1937.09 23.14 1941.21 19.432 1944.92C6.65997 1958.51 0.479979 1977.88 0.47998 2002.18C0.479983 2054.51 26.024 2082.11 70.108 2082.11C104.716 2081.7 117.488 2052.86 123.256 2031.85L132.32 1998.48C147.564 1942.03 177.64 1914.02 218.84 1914.02C263.748 1914.02 293.824 1944.92 293.824 1994.36C293.824 2051.62 255.508 2079.64 186.704 2079.64L167.34 2079.64L167.34 2083.76L293 2083.76L293 2079.64L276.108 2079.64C269.928 2079.64 267.044 2076.76 267.044 2071.4C267.044 2067.69 268.692 2063.98 272.4 2060.69C289.704 2045.44 298.356 2022.78 298.356 1993.53C298.356 1940.38 267.044 1907.84 211.012 1907.84C136.852 1907.84 118.724 1959.75 108.424 1994.36ZM9.95597 1811.05L5.83598 1811.05L5.83598 1895.51L9.95598 1895.51L9.95598 1879.86C9.95598 1871.2 16.136 1864.61 24.788 1864.61L274.048 1864.61C282.7 1864.61 288.88 1871.2 288.88 1879.86L288.88 1895.51L293 1895.51L293 1811.05L288.88 1811.05L288.88 1826.71C288.88 1835.36 282.7 1841.95 274.048 1841.95L24.788 1841.95C16.136 1841.95 9.95597 1835.36 9.95597 1826.71L9.95597 1811.05ZM288.88 1591.31L288.88 1602.02C288.88 1617.27 275.696 1621.39 236.556 1621.39L173.108 1621.39C137.264 1621.39 117.488 1641.99 112.956 1683.6C110.072 1636.22 94.416 1617.27 60.22 1617.27C21.904 1617.27 5.83597 1641.57 5.83597 1702.96L5.83598 1798.55L9.95597 1798.55L9.95597 1783.71C9.95597 1774.24 15.724 1767.65 25.2 1767.65L273.636 1767.65C282.288 1767.65 288.88 1774.24 288.88 1782.89L288.88 1798.55L293 1798.55L293 1714.09L288.88 1714.09L288.88 1729.74C288.88 1738.39 282.288 1744.99 273.636 1744.99L114.604 1744.99L114.604 1705.85C114.604 1664.65 133.968 1644.05 173.108 1644.05L236.556 1644.05C274.048 1644.05 293 1633.75 293 1606.97L293 1591.31L288.88 1591.31ZM110.484 1744.99L9.95597 1744.99L9.95597 1702.96C9.95597 1658.47 24.376 1641.16 60.22 1641.16C96.064 1641.16 110.484 1658.47 110.484 1702.96L110.484 1744.99ZM0.479956 1449.86C0.47996 1533.5 55.276 1580.88 149.624 1580.88C243.972 1580.88 298.356 1532.67 298.356 1449.86C298.356 1366.23 243.56 1318.85 149.212 1318.85C54.864 1318.85 0.479953 1367.05 0.479956 1449.86ZM255.508 1528.14C229.552 1547.51 194.12 1556.98 149.624 1556.98C61.044 1556.98 4.59996 1515.78 4.59995 1449.86C4.59995 1384.35 61.044 1342.74 149.212 1342.74C237.792 1342.74 294.236 1383.94 294.236 1449.86C294.236 1482.82 281.464 1508.78 255.508 1528.14ZM9.95594 1100.3L5.83595 1100.3L5.83595 1166.22L9.95594 1166.22L9.95594 1155.1C9.95594 1145.21 16.96 1138.21 26.436 1138.21C28.084 1138.21 29.7319 1138.62 31.792 1139.03L250.976 1201.66L23.9639 1277.46C22.316 1278.29 20.668 1278.29 19.02 1278.29C13.252 1278.29 9.95595 1273.76 9.95595 1266.34L9.95595 1246.56L5.83595 1246.56L5.83596 1331.02L9.95595 1331.02L9.95595 1321.55C9.95595 1310.84 14.4879 1304.24 23.9639 1300.95L297.944 1209.9L31.792 1134.5C17.3719 1130.38 9.95594 1120.9 9.95594 1106.07L9.95594 1100.3ZM288.88 908.44L288.88 919.152C288.88 929.04 285.172 935.22 277.344 937.692L5.83594 1027.92L5.83595 1088.48L9.95594 1088.48L9.95594 1060.47C9.95594 1053.46 13.6639 1048.52 20.6679 1048.52C22.316 1048.52 23.9639 1048.93 26.024 1049.34L266.632 1117.32C281.464 1121.44 288.88 1130.92 288.88 1143.28L288.88 1153.99L293 1153.99L293 1088.07L288.88 1088.07L288.88 1098.37C288.88 1107.44 282.7 1114.03 273.636 1114.03C271.576 1114.03 269.516 1114.03 267.044 1113.2L197.004 1093.43L197.004 987.956L276.52 961.588C277.756 961.176 278.992 961.176 279.816 961.176C285.172 961.176 288.88 965.296 288.88 971.888L288.88 992.9L293 992.9L293 908.44L288.88 908.44ZM192.884 989.604L192.884 1092.19L27.2599 1044.81L192.884 989.604ZM288.88 688.854L288.88 699.566C288.88 714.81 275.696 718.93 236.556 718.93L173.108 718.93C137.264 718.93 117.488 739.53 112.956 781.142C110.072 733.762 94.4159 714.81 60.2199 714.81C21.9039 714.81 5.83593 739.118 5.83593 800.506L5.83594 896.09L9.95593 896.09L9.95593 881.258C9.95593 871.782 15.7239 865.19 25.1999 865.19L273.636 865.19C282.288 865.19 288.88 871.782 288.88 880.434L288.88 896.09L293 896.09L293 811.63L288.88 811.63L288.88 827.286C288.88 835.938 282.288 842.53 273.636 842.53L114.604 842.53L114.604 803.39C114.604 762.19 133.968 741.59 173.108 741.59L236.556 741.59C274.048 741.59 293 731.29 293 704.51L293 688.854L288.88 688.854ZM110.484 842.53L9.95593 842.53L9.95593 800.506C9.95593 756.01 24.3759 738.706 60.2199 738.706C96.0639 738.706 110.484 756.01 110.484 800.506L110.484 842.53ZM5.83592 443.582L5.83592 509.502L9.95592 509.502L9.95592 499.614C9.95591 487.666 18.6079 478.602 31.7919 478.602L248.916 478.602L5.83592 627.746L5.83593 678.422L9.95592 678.422L9.95592 662.766C9.95592 654.114 16.1359 647.522 23.9639 647.522L267.044 647.522C280.228 647.522 288.88 656.586 288.88 668.534L288.88 678.422L293 678.422L293 612.502L288.88 612.502L288.88 622.39C288.88 634.338 280.228 643.402 267.044 643.402L23.9639 643.402L298.356 474.482L31.7919 474.482C18.6079 474.482 9.95591 465.418 9.95591 453.47L9.95591 443.582L5.83592 443.582ZM5.83591 201.074L5.83591 265.758L9.95591 265.758L9.9559 255.458C9.9559 246.394 16.1359 241.038 24.3759 241.038C26.8479 241.038 29.3199 241.45 31.7919 242.274L187.116 302.426L23.9639 376.998C21.4919 378.234 19.4319 378.646 17.3719 378.646C12.8399 378.646 9.95591 375.35 9.95591 369.582L9.95591 348.158L5.83591 348.158L5.83592 431.382L9.95591 431.382L9.95591 423.142C9.95591 412.842 14.4879 405.838 23.5519 401.718L195.356 323.85L274.872 323.85C282.7 323.85 288.88 330.442 288.88 338.27L288.88 354.75L293 354.75L293 270.29L288.88 270.29L288.88 286.77C288.88 294.598 282.7 301.19 274.872 301.19L196.18 301.19L31.7919 237.742C17.3719 232.386 9.9559 221.674 9.9559 206.43L9.9559 201.074L5.83591 201.074ZM288.88 0.75236L288.88 11.4643C288.88 21.3523 285.172 27.5324 277.344 30.0044L5.8359 120.232L5.83591 180.796L9.9559 180.796L9.9559 152.78C9.9559 145.776 13.6639 140.832 20.6679 140.832C22.3159 140.832 23.9639 141.244 26.0239 141.656L266.632 209.636C281.464 213.756 288.88 223.232 288.88 235.592L288.88 246.304L293 246.304L293 180.384L288.88 180.384L288.88 190.684C288.88 199.748 282.7 206.34 273.636 206.34C271.576 206.34 269.516 206.34 267.044 205.516L197.004 185.74L197.004 80.2684L276.52 53.9004C277.756 53.4884 278.992 53.4884 279.816 53.4884C285.172 53.4884 288.88 57.6084 288.88 64.2004L288.88 85.2124L293 85.2124L293 0.75236L288.88 0.75236ZM192.884 81.9164L192.884 184.504L27.2599 137.124L192.884 81.9164Z" fill="black"/>
</svg>
