<svg width="77" height="59" viewBox="0 0 77 59" fill="none" xmlns="http://www.w3.org/2000/svg">
<path d="M4.68 7.08C1.72 11.64 0.2 19 0.2 29.16C0.2 49.64 5.88 58.04 19.24 58.04C32.52 58.04 38.28 49.4 38.28 29.08C38.28 8.84 32.52 0.199997 19.24 0.199997C12.6 0.199997 7.72 2.52 4.68 7.08ZM19.24 57.24C9.08 57.24 4.84 48.76 4.84 29.16C4.84 9.4 9.24 0.999996 19.24 0.999996C29.4 0.999996 33.64 9.48 33.64 29.08C33.64 48.84 29.24 57.24 19.24 57.24ZM76.5888 32.6H75.7888V49.08C75.7888 51.4 74.5888 52.6 72.1888 52.6H45.3888L64.4288 29.96C72.1888 20.76 74.4288 16.92 74.4288 11.4C74.4288 3.96 69.4688 0.199997 59.4688 0.199997C54.2688 0.199997 50.3488 1.48 47.6288 4.04C46.9088 4.76 46.2688 5.08 45.6288 5.08C44.5888 5.08 44.1088 4.52 44.1088 3.48V1.24H43.3088V20.6H44.1088V16.04C44.1088 7.64 49.3088 0.999996 58.3488 0.999996C65.9488 0.999996 69.7888 5.24 69.7888 13.8C69.7088 19.32 67.7088 24.76 63.3888 29.88L40.6688 57H76.5888V32.6Z" fill="black"/>
</svg>
