<svg width="852" height="126" viewBox="0 0 852 126" fill="none" xmlns="http://www.w3.org/2000/svg">
<path fill-rule="evenodd" clip-rule="evenodd" d="M97.8716 99.2598C88.1539 114.01 72.536 123.728 55.1829 123.728C27.9385 123.728 10.0648 97.1775 10.0648 62.8183C10.0648 26.2032 29.1532 1.73531 56.7447 1.73531C76.5273 1.73531 94.9216 14.2296 95.0951 41.6475V44.2505H96.8304V2.25591H95.0951V10.4119C95.0951 13.0148 94.0539 14.2296 92.1451 14.2296C90.7568 14.2296 89.3686 13.5354 87.9803 12.3207C77.9155 4.16474 66.983 0 55.1829 0C22.7326 0 0 26.2032 0 62.8183C0 99.4334 22.5591 125.463 55.1829 125.463C73.0566 125.463 89.195 115.745 99.4334 100.301L97.8716 99.2598ZM208.37 2.25591V3.99122H214.965C219.303 3.99122 221.385 6.07359 221.385 10.2383V115.051C221.385 119.91 219.65 121.472 214.965 121.472H208.37V123.207H243.944V121.472H237.35C233.706 121.472 230.929 119.042 230.929 115.051V48.0681H250.365C275.18 48.0681 285.418 41.6475 285.418 25.162C285.418 8.67656 275.18 2.25591 250.365 2.25591H208.37ZM230.929 46.3328V3.99122H250.365C268.239 3.99122 275.353 9.89127 275.353 25.162C275.353 40.4328 268.239 46.3328 250.365 46.3328H230.929ZM290.56 62.8183C290.56 23.0796 310.516 0 345.743 0C380.623 0 400.926 22.9061 400.926 62.6448C400.926 102.383 380.97 125.463 345.743 125.463C310.864 125.463 290.56 102.557 290.56 62.8183ZM300.625 62.8183C300.625 81.5597 304.616 96.4833 312.772 107.416C320.928 118.348 331.861 123.728 345.743 123.728C373.508 123.728 390.861 99.954 390.861 62.6448C390.861 25.5091 373.335 1.73531 345.743 1.73531C317.978 1.73531 300.625 25.5091 300.625 62.8183ZM453.59 47.2005C472.158 45.8122 479.793 39.5651 479.793 25.162C479.793 8.67656 469.555 2.25591 444.74 2.25591H402.746V3.99122H409.34C414.025 3.99122 415.76 5.553 415.76 10.2383V115.225C415.76 119.91 414.025 121.472 409.34 121.472H402.746V123.207H445.087C475.455 123.207 489.858 110.886 489.858 84.6832C489.858 61.9506 477.711 49.4564 453.59 47.2005ZM425.305 3.99122H444.74C462.614 3.99122 469.729 9.89127 469.729 25.162C469.729 40.4328 462.614 46.3328 444.74 46.3328H425.305V3.99122ZM425.305 121.472V48.0681H445.087C468.514 48.0681 479.793 59.8683 479.793 84.6832C479.793 109.672 468.514 121.472 445.087 121.472H425.305ZM583.679 121.472H588.191V123.207H552.617V121.472H561.467C564.243 121.472 565.979 119.91 565.979 117.654C565.979 117.307 565.979 116.786 565.805 116.266L554.699 82.7744H510.275L501.946 112.275C501.599 113.316 501.599 114.184 501.599 115.051C501.599 118.869 504.375 121.472 508.193 121.472H512.531V123.207H484.766V121.472H489.278C494.484 121.472 498.475 118.348 500.21 112.101L528.843 10.7589C528.872 10.6155 528.901 10.4767 528.928 10.342L528.932 10.3268C529.071 9.65307 529.19 9.07806 529.19 8.50303C529.19 5.553 527.108 3.99122 524.158 3.99122H512.358V2.25591H537.867L575.87 116.613C576.911 119.91 579.514 121.472 583.679 121.472ZM510.796 81.0391H554.005L530.752 11.2795L510.796 81.0391ZM593.393 2.25591V3.99122H599.987C604.325 3.99122 606.408 6.07359 606.408 10.2383V115.051C606.408 119.91 604.672 121.472 599.987 121.472H593.393V123.207H628.967V121.472H622.372C618.728 121.472 615.952 119.042 615.952 115.051V48.0681H635.387C660.202 48.0681 670.44 41.6475 670.44 25.162C670.44 8.67656 660.202 2.25591 635.387 2.25591H593.393ZM615.952 3.99122H635.387C653.261 3.99122 660.376 9.89127 660.376 25.162C660.376 40.4328 653.261 46.3328 635.387 46.3328H615.952V3.99122ZM173.616 2.27268H201.381V4.00799H197.216C192.216 4.00799 188.416 7.60492 188.366 13.0971L188.366 21.9446V113.396C188.366 118.949 192.184 122.593 197.217 122.593H201.381V124.328H173.616V122.593H177.781C182.781 122.593 186.582 118.995 186.631 113.502V104.656V13.2051C186.631 7.65214 182.813 4.00799 177.781 4.00799H173.616V2.27268ZM102.591 125.511V123.748H109.261C113.649 123.748 115.755 121.633 115.755 117.403L115.755 10.941C115.755 6.00567 114 4.41932 109.261 4.41932L102.591 4.41932V2.65673L138.574 2.65673V4.41932L131.904 4.41932C128.218 4.41932 125.409 6.88698 125.409 10.941L125.409 78.9778H145.069C170.17 78.9778 180.526 85.4994 180.526 102.244C180.526 118.989 170.17 125.511 145.069 125.511H102.591ZM125.409 80.7404L125.409 123.748H145.069C163.148 123.748 170.345 117.755 170.345 102.244C170.345 86.7333 163.148 80.7404 145.069 80.7404H125.409ZM770.087 2.30339V4.03869H763.493C759.849 4.03869 757.072 6.64166 757.072 10.2858V115.272C757.072 118.916 759.849 121.519 763.493 121.519H770.087V123.255H734.513V121.519H741.107C744.752 121.519 747.528 118.916 747.528 115.272V48.1156H696.336V115.272C696.336 118.916 699.113 121.519 702.757 121.519H709.351V123.255H673.777V121.519H680.372C684.016 121.519 686.792 118.916 686.792 115.272V10.2858C686.792 6.64166 684.016 4.03869 680.372 4.03869H673.777V2.30339H709.351V4.03869H702.757C699.113 4.03869 696.336 6.64166 696.336 10.2858V46.3803H747.528V10.2858C747.528 6.64166 744.752 4.03869 741.107 4.03869H734.513V2.30339H770.087ZM852 2.70437V4.42842H845.461C841.159 4.42842 839.095 6.49729 839.095 10.635V114.768C839.095 119.595 840.815 121.147 845.461 121.147H852V122.871H816.725V121.147H823.264C826.878 121.147 829.631 118.733 829.631 114.768V48.2194H812.164L802.398 81.0468L801.877 82.7821L793.547 112.282C793.2 113.324 793.2 114.191 793.2 115.059C793.2 118.877 795.977 121.48 799.795 121.48H804.133V123.215H776.368V121.48H780.88C786.086 121.48 790.077 118.356 791.812 112.109L810.117 48.2192C785.686 48.1775 775.6 41.7867 775.6 25.4619C775.6 9.08336 785.752 2.70437 810.359 2.70437H852ZM829.631 4.42842H810.359C792.635 4.42842 785.58 10.2902 785.58 25.4619C785.58 40.6335 792.635 46.4953 810.359 46.4953H829.631V4.42842Z" fill="#847A5B"/>
</svg>
