<svg width="1740" height="124" viewBox="0 0 1740 124" fill="none" xmlns="http://www.w3.org/2000/svg">
<path d="M97.96 98.56C92.86 106.153 86.57 112.16 79.09 116.58C71.61 121 63.45 123.21 54.61 123.21C46.6767 123.21 39.3667 121.737 32.68 118.79C26.1067 115.73 20.44 111.48 15.68 106.04C10.92 100.6 7.18 94.14 4.46 86.66C1.85333 79.0667 0.55 70.7933 0.55 61.84C0.55 52.8867 1.85333 44.67 4.46 37.19C7.18 29.5967 10.92 23.08 15.68 17.64C20.44 12.2 26.1067 7.95 32.68 4.89C39.3667 1.82999 46.6767 0.299994 54.61 0.299994C66.0567 0.299994 76.7667 4.32333 86.74 12.37C88.2133 13.6167 89.5733 14.24 90.82 14.24C92.7467 14.24 93.71 12.9933 93.71 10.5V2.51H95.41V43.65H93.71V41.1C93.71 34.4133 92.6333 28.6333 90.48 23.76C88.44 18.7733 85.6633 14.6933 82.15 11.52C78.6367 8.23333 74.6133 5.85333 70.08 4.37999C65.66 2.79333 61.0133 1.99999 56.14 1.99999C49.34 1.99999 43.1067 3.47333 37.44 6.42C31.8867 9.25333 27.07 13.2767 22.99 18.49C19.0233 23.7033 15.9067 29.9933 13.64 37.36C11.4867 44.7267 10.41 52.8867 10.41 61.84C10.41 70.2267 11.43 78.0467 13.47 85.3C15.6233 92.5533 18.6267 98.9 22.48 104.34C26.3333 109.667 30.98 113.86 36.42 116.92C41.86 119.98 47.9233 121.51 54.61 121.51C63.11 121.51 70.9867 119.357 78.24 115.05C85.6067 110.63 91.67 104.793 96.43 97.54L97.96 98.56ZM200.902 4.20999C199.088 4.20999 197.558 4.77666 196.312 5.90999C195.178 7.04332 194.612 8.51666 194.612 10.33V113.18C194.612 114.993 195.178 116.467 196.312 117.6C197.558 118.733 199.088 119.3 200.902 119.3H207.362V121H172.512V119.3H178.972C180.785 119.3 182.258 118.733 183.392 117.6C184.638 116.467 185.262 114.993 185.262 113.18V10.33C185.262 8.51666 184.638 7.04332 183.392 5.90999C182.258 4.77666 180.785 4.20999 178.972 4.20999H172.512V2.51H207.362V4.20999H200.902ZM150.412 43.14C160.272 44.3867 167.468 48.1267 172.002 54.36C176.535 60.5933 178.802 70 178.802 82.58C178.802 96.18 175.968 106.097 170.302 112.33C164.635 118.45 155.455 121.51 142.762 121.51H108.422V119.81H114.882C117.148 119.81 118.735 119.357 119.642 118.45C120.662 117.43 121.172 115.787 121.172 113.52V11.01C121.172 8.74333 120.662 7.15666 119.642 6.25C118.735 5.23 117.148 4.72 114.882 4.72H108.422V3.02H143.272V4.72H136.812C134.998 4.72 133.468 5.34333 132.222 6.58999C131.088 7.72333 130.522 9.19666 130.522 11.01V42.63H141.912C143.385 42.63 144.688 42.63 145.822 42.63C147.068 42.63 148.598 42.8 150.412 43.14ZM130.522 44.33V119.81H142.762C151.942 119.81 158.572 116.863 162.652 110.97C166.845 105.077 168.942 95.67 168.942 82.75C168.942 69.3767 166.788 59.63 162.482 53.51C158.288 47.39 151.715 44.33 142.762 44.33H130.522ZM260.499 2.51C272.625 2.51 281.352 4.26666 286.679 7.78C292.119 11.18 294.839 16.9033 294.839 24.95C294.839 32.9967 292.119 38.7767 286.679 42.29C281.352 45.69 272.625 47.39 260.499 47.39H241.459V113.01C241.459 114.937 242.025 116.467 243.159 117.6C244.405 118.733 245.935 119.3 247.749 119.3H254.209V121H219.359V119.3H225.819C228.085 119.3 229.672 118.847 230.579 117.94C231.599 117.033 232.109 115.39 232.109 113.01V10.33C232.109 6.24999 230.012 4.20999 225.819 4.20999H219.359V2.51H260.499ZM260.499 45.69C269.339 45.69 275.629 44.1033 279.369 40.93C283.109 37.7567 284.979 32.43 284.979 24.95C284.979 17.47 283.109 12.1433 279.369 8.96999C275.629 5.79666 269.339 4.20999 260.499 4.20999H241.459V45.69H260.499ZM356.316 0.299994C373.543 0.299994 386.86 5.62666 396.266 16.28C405.673 26.9333 410.376 42.0633 410.376 61.67C410.376 71.4167 409.186 80.0867 406.806 87.68C404.426 95.2733 400.913 101.733 396.266 107.06C391.733 112.273 386.066 116.297 379.266 119.13C372.58 121.85 364.93 123.21 356.316 123.21C339.09 123.21 325.773 117.883 316.366 107.23C306.96 96.5767 302.256 81.4467 302.256 61.84C302.256 52.0933 303.446 43.4233 305.826 35.83C308.206 28.2367 311.663 21.8333 316.196 16.62C320.843 11.2933 326.51 7.26999 333.196 4.54999C339.996 1.71666 347.703 0.299994 356.316 0.299994ZM356.316 121.51C363.116 121.51 369.236 120.093 374.676 117.26C380.116 114.427 384.763 110.46 388.616 105.36C392.47 100.147 395.416 93.8567 397.456 86.49C399.496 79.1233 400.516 70.85 400.516 61.67C400.516 52.6033 399.44 44.3867 397.286 37.02C395.246 29.6533 392.3 23.3633 388.446 18.15C384.706 12.9367 380.116 8.97 374.676 6.25C369.236 3.41666 363.116 1.99999 356.316 1.99999C349.516 1.99999 343.396 3.41666 337.956 6.25C332.516 9.08333 327.87 13.1067 324.016 18.32C320.163 23.42 317.216 29.6533 315.176 37.02C313.136 44.3867 312.116 52.66 312.116 61.84C312.116 68.8667 312.853 75.95 314.326 83.09C315.8 90.1167 318.236 96.52 321.636 102.3C325.15 107.967 329.74 112.613 335.406 116.24C341.073 119.753 348.043 121.51 356.316 121.51ZM464.901 46.54C488.588 48.8067 500.431 61.0467 500.431 83.26C500.431 96.18 496.861 105.7 489.721 111.82C482.581 117.94 471.531 121 456.571 121H415.091V119.3H421.551C423.818 119.3 425.404 118.847 426.311 117.94C427.331 117.033 427.841 115.447 427.841 113.18V10.33C427.841 8.06333 427.331 6.47667 426.311 5.57C425.404 4.66333 423.818 4.20999 421.551 4.20999H415.091V2.51H456.231C463.938 2.51 470.341 3.53 475.441 5.57C480.541 7.61 484.451 10.2167 487.171 13.39C489.891 16.45 491.364 19.85 491.591 23.59C491.931 27.2167 491.138 30.6733 489.211 33.96C487.398 37.2467 484.394 40.08 480.201 42.46C476.121 44.7267 471.021 46.0867 464.901 46.54ZM437.191 45.69H456.231C465.071 45.69 471.361 44.1033 475.101 40.93C478.841 37.7567 480.711 32.43 480.711 24.95C480.711 17.47 478.841 12.1433 475.101 8.96999C471.361 5.79666 465.071 4.20999 456.231 4.20999H437.191V45.69ZM456.571 119.3C468.131 119.3 476.688 116.41 482.241 110.63C487.794 104.737 490.571 95.6133 490.571 83.26C490.571 71.02 487.794 62.01 482.241 56.23C476.688 50.3367 468.131 47.39 456.571 47.39H437.191V119.3H456.571ZM606.55 121H571.7V119.3H580.37C583.316 119.3 584.79 118.053 584.79 115.56C584.79 114.993 584.733 114.54 584.62 114.2L573.74 81.39H530.22L522.06 110.29C521.833 110.857 521.72 111.367 521.72 111.82C521.72 112.16 521.72 112.557 521.72 113.01C521.72 114.937 522.286 116.467 523.42 117.6C524.666 118.733 526.253 119.3 528.18 119.3H532.43V121H505.23V119.3H509.65C512.256 119.3 514.466 118.563 516.28 117.09C518.093 115.503 519.453 113.18 520.36 110.12L548.41 10.84C548.523 10.3867 548.58 9.99 548.58 9.64999C548.693 9.30999 548.75 8.96999 548.75 8.63C548.75 7.15666 548.296 6.08 547.39 5.4C546.483 4.60666 545.293 4.20999 543.82 4.20999H532.26V2.51H557.25L594.48 114.54C595.5 117.713 598.05 119.3 602.13 119.3H606.55V121ZM550.28 11.35L530.73 79.69H573.06L550.28 11.35ZM649.971 2.51C662.098 2.51 670.825 4.26666 676.151 7.78C681.591 11.18 684.311 16.9033 684.311 24.95C684.311 32.9967 681.591 38.7767 676.151 42.29C670.825 45.69 662.098 47.39 649.971 47.39H630.931V113.01C630.931 114.937 631.498 116.467 632.631 117.6C633.878 118.733 635.408 119.3 637.221 119.3H643.681V121H608.831V119.3H615.291C617.558 119.3 619.145 118.847 620.051 117.94C621.071 117.033 621.581 115.39 621.581 113.01V10.33C621.581 6.24999 619.485 4.20999 615.291 4.20999H608.831V2.51H649.971ZM649.971 45.69C658.811 45.69 665.101 44.1033 668.841 40.93C672.581 37.7567 674.451 32.43 674.451 24.95C674.451 17.47 672.581 12.1433 668.841 8.96999C665.101 5.79666 658.811 4.20999 649.971 4.20999H630.931V45.69H649.971ZM777.239 4.20999C775.425 4.20999 773.895 4.77666 772.649 5.90999C771.515 7.04332 770.949 8.51666 770.949 10.33V113.18C770.949 114.993 771.515 116.467 772.649 117.6C773.895 118.733 775.425 119.3 777.239 119.3H783.699V121H748.849V119.3H755.309C757.122 119.3 758.595 118.733 759.729 117.6C760.975 116.467 761.599 114.993 761.599 113.18V47.39H711.449V113.18C711.449 114.993 712.015 116.467 713.149 117.6C714.395 118.733 715.925 119.3 717.739 119.3H724.199V121H689.349V119.3H695.809C697.622 119.3 699.095 118.733 700.229 117.6C701.475 116.467 702.099 114.993 702.099 113.18V10.33C702.099 8.51666 701.475 7.04332 700.229 5.90999C699.095 4.77666 697.622 4.20999 695.809 4.20999H689.349V2.51H724.199V4.20999H717.739C715.925 4.20999 714.395 4.77666 713.149 5.90999C712.015 7.04332 711.449 8.51666 711.449 10.33V45.69H761.599V10.33C761.599 8.51666 760.975 7.04332 759.729 5.90999C758.595 4.77666 757.122 4.20999 755.309 4.20999H748.849V2.51H783.699V4.20999H777.239ZM788.792 121H795.252C800.806 121 804.716 119.073 806.982 115.22C809.362 111.367 810.552 105.53 810.552 97.71V71.53C810.552 55.4367 819.052 47.39 836.052 47.39H852.202V113.01C852.202 114.823 851.579 116.353 850.332 117.6C849.199 118.733 847.726 119.3 845.912 119.3H839.452V121H874.302V119.3H867.842C866.029 119.3 864.499 118.733 863.252 117.6C862.119 116.353 861.552 114.823 861.552 113.01V10.5C861.552 8.57333 862.176 7.04332 863.422 5.90999C864.669 4.77666 866.256 4.20999 868.182 4.20999H874.302V2.51H834.862C822.169 2.51 813.102 4.26666 807.662 7.78C802.222 11.2933 799.502 17.0167 799.502 24.95C799.502 32.09 801.599 37.36 805.792 40.76C809.986 44.16 817.012 46.1433 826.872 46.71C809.759 48.5233 801.202 56.7967 801.202 71.53V97.71C801.202 105.757 800.636 111.367 799.502 114.54C798.482 117.713 796.386 119.3 793.212 119.3H788.792V121ZM834.862 45.69C825.682 45.69 819.109 44.1033 815.142 40.93C811.289 37.7567 809.362 32.43 809.362 24.95C809.362 17.47 811.289 12.1433 815.142 8.96999C819.109 5.79666 825.682 4.20999 834.862 4.20999H852.202V45.69H834.862ZM989.51 46.54C1013.2 48.8067 1025.04 61.0467 1025.04 83.26C1025.04 96.18 1021.47 105.7 1014.33 111.82C1007.19 117.94 996.14 121 981.18 121H939.7V119.3H946.16C948.427 119.3 950.014 118.847 950.92 117.94C951.94 117.033 952.45 115.447 952.45 113.18V10.33C952.45 8.06333 951.94 6.47667 950.92 5.57C950.014 4.66333 948.427 4.20999 946.16 4.20999H939.7V2.51H980.84C988.547 2.51 994.95 3.53 1000.05 5.57C1005.15 7.61 1009.06 10.2167 1011.78 13.39C1014.5 16.45 1015.97 19.85 1016.2 23.59C1016.54 27.2167 1015.75 30.6733 1013.82 33.96C1012.01 37.2467 1009 40.08 1004.81 42.46C1000.73 44.7267 995.63 46.0867 989.51 46.54ZM961.8 45.69H980.84C989.68 45.69 995.97 44.1033 999.71 40.93C1003.45 37.7567 1005.32 32.43 1005.32 24.95C1005.32 17.47 1003.45 12.1433 999.71 8.96999C995.97 5.79666 989.68 4.20999 980.84 4.20999H961.8V45.69ZM981.18 119.3C992.74 119.3 1001.3 116.41 1006.85 110.63C1012.4 104.737 1015.18 95.6133 1015.18 83.26C1015.18 71.02 1012.4 62.01 1006.85 56.23C1001.3 50.3367 992.74 47.39 981.18 47.39H961.8V119.3H981.18ZM1130.65 121H1095.8V119.3H1104.47C1107.42 119.3 1108.89 118.053 1108.89 115.56C1108.89 114.993 1108.83 114.54 1108.72 114.2L1097.84 81.39L1074.38 12.2L1046.16 110.29C1045.93 110.857 1045.82 111.367 1045.82 111.82C1045.82 112.16 1045.82 112.557 1045.82 113.01C1045.82 114.937 1046.39 116.467 1047.52 117.6C1048.77 118.733 1050.35 119.3 1052.28 119.3H1056.53V121H1029.33V119.3H1033.75C1036.36 119.3 1038.57 118.563 1040.38 117.09C1042.19 115.503 1043.55 113.18 1044.46 110.12L1072.51 10.84C1072.62 10.3867 1072.68 9.99 1072.68 9.64999C1072.79 9.30999 1072.85 8.96999 1072.85 8.63C1072.85 7.15666 1072.4 6.08 1071.49 5.4C1070.58 4.60666 1069.39 4.20999 1067.92 4.20999H1056.36V2.51H1081.35L1118.58 114.54C1119.6 117.713 1122.15 119.3 1126.23 119.3H1130.65V121ZM1238.24 121H1203.39V119.3H1212.06C1215.01 119.3 1216.48 118.053 1216.48 115.56C1216.48 114.993 1216.42 114.54 1216.31 114.2L1205.43 81.39H1161.91L1153.75 110.29C1153.52 110.857 1153.41 111.367 1153.41 111.82C1153.41 112.16 1153.41 112.557 1153.41 113.01C1153.41 114.937 1153.98 116.467 1155.11 117.6C1156.36 118.733 1157.94 119.3 1159.87 119.3H1164.12V121H1136.92V119.3H1141.34C1143.95 119.3 1146.16 118.563 1147.97 117.09C1149.78 115.503 1151.14 113.18 1152.05 110.12L1180.1 10.84C1180.21 10.3867 1180.27 9.99 1180.27 9.64999C1180.38 9.30999 1180.44 8.96999 1180.44 8.63C1180.44 7.15666 1179.99 6.08 1179.08 5.4C1178.17 4.60666 1176.98 4.20999 1175.51 4.20999H1163.95V2.51H1188.94L1226.17 114.54C1227.19 117.713 1229.74 119.3 1233.82 119.3H1238.24V121ZM1181.97 11.35L1162.42 79.69H1204.75L1181.97 11.35ZM1337.93 98.56C1332.83 106.153 1326.54 112.16 1319.06 116.58C1311.58 121 1303.42 123.21 1294.58 123.21C1286.65 123.21 1279.34 121.737 1272.65 118.79C1266.08 115.73 1260.41 111.48 1255.65 106.04C1250.89 100.6 1247.15 94.14 1244.43 86.66C1241.82 79.0667 1240.52 70.7933 1240.52 61.84C1240.52 52.8867 1241.82 44.67 1244.43 37.19C1247.15 29.5967 1250.89 23.08 1255.65 17.64C1260.41 12.2 1266.08 7.95 1272.65 4.89C1279.34 1.82999 1286.65 0.299994 1294.58 0.299994C1306.03 0.299994 1316.74 4.32333 1326.71 12.37C1328.18 13.6167 1329.54 14.24 1330.79 14.24C1332.72 14.24 1333.68 12.9933 1333.68 10.5V2.51H1335.38V43.65H1333.68V41.1C1333.68 34.4133 1332.6 28.6333 1330.45 23.76C1328.41 18.7733 1325.63 14.6933 1322.12 11.52C1318.61 8.23333 1314.58 5.85333 1310.05 4.37999C1305.63 2.79333 1300.98 1.99999 1296.11 1.99999C1289.31 1.99999 1283.08 3.47333 1277.41 6.42C1271.86 9.25333 1267.04 13.2767 1262.96 18.49C1258.99 23.7033 1255.88 29.9933 1253.61 37.36C1251.46 44.7267 1250.38 52.8867 1250.38 61.84C1250.38 70.2267 1251.4 78.0467 1253.44 85.3C1255.59 92.5533 1258.6 98.9 1262.45 104.34C1266.3 109.667 1270.95 113.86 1276.39 116.92C1281.83 119.98 1287.89 121.51 1294.58 121.51C1303.08 121.51 1310.96 119.357 1318.21 115.05C1325.58 110.63 1331.64 104.793 1336.4 97.54L1337.93 98.56ZM1423.7 121H1342.95V119.3H1349.41C1351.23 119.3 1352.7 118.733 1353.83 117.6C1355.08 116.467 1355.7 114.993 1355.7 113.18V10.33C1355.7 8.51666 1355.08 7.04332 1353.83 5.90999C1352.7 4.77666 1351.23 4.20999 1349.41 4.20999H1342.95V2.51H1417.75V43.65H1416.05V19.68C1416.05 15.1467 1414.58 11.4633 1411.63 8.63C1408.69 5.68333 1405 4.20999 1400.58 4.20999H1365.05V45.69H1405.85V47.39H1365.05V119.3H1403.3C1406.02 119.3 1408.52 118.79 1410.78 117.77C1413.05 116.75 1415.03 115.39 1416.73 113.69C1418.43 111.99 1419.74 109.95 1420.64 107.57C1421.55 105.19 1422 102.64 1422 99.92V69.15H1423.7V121ZM1516.67 4.20999C1514.86 4.20999 1513.33 4.77666 1512.08 5.90999C1510.95 7.04332 1510.38 8.51666 1510.38 10.33V113.18C1510.38 114.993 1510.95 116.467 1512.08 117.6C1513.33 118.733 1514.86 119.3 1516.67 119.3H1523.13V121H1488.28V119.3H1494.74C1496.56 119.3 1498.03 118.733 1499.16 117.6C1500.41 116.467 1501.03 114.993 1501.03 113.18V47.39H1450.88V113.18C1450.88 114.993 1451.45 116.467 1452.58 117.6C1453.83 118.733 1455.36 119.3 1457.17 119.3H1463.63V121H1428.78V119.3H1435.24C1437.06 119.3 1438.53 118.733 1439.66 117.6C1440.91 116.467 1441.53 114.993 1441.53 113.18V10.33C1441.53 8.51666 1440.91 7.04332 1439.66 5.90999C1438.53 4.77666 1437.06 4.20999 1435.24 4.20999H1428.78V2.51H1463.63V4.20999H1457.17C1455.36 4.20999 1453.83 4.77666 1452.58 5.90999C1451.45 7.04332 1450.88 8.51666 1450.88 10.33V45.69H1501.03V10.33C1501.03 8.51666 1500.41 7.04332 1499.16 5.90999C1498.03 4.77666 1496.56 4.20999 1494.74 4.20999H1488.28V2.51H1523.13V4.20999H1516.67ZM1624.28 121H1589.43V119.3H1599.12C1600.59 119.3 1601.33 118.903 1601.33 118.11C1601.33 117.543 1601.1 116.863 1600.65 116.07L1555.6 47.39H1550.33V113.18C1550.33 114.993 1550.89 116.467 1552.03 117.6C1553.27 118.733 1554.8 119.3 1556.62 119.3H1563.08V121H1528.23V119.3H1534.69C1536.5 119.3 1537.97 118.733 1539.11 117.6C1540.35 116.467 1540.98 114.993 1540.98 113.18V10.33C1540.98 8.51666 1540.35 7.04332 1539.11 5.90999C1537.97 4.77666 1536.5 4.20999 1534.69 4.20999H1528.23V2.51H1563.08V4.20999H1556.62C1554.8 4.20999 1553.27 4.77666 1552.03 5.90999C1550.89 7.04332 1550.33 8.51666 1550.33 10.33V45.69H1555.43L1592.32 12.03C1593.56 11.1233 1594.19 9.87666 1594.19 8.28999C1594.19 7.26999 1593.73 6.36333 1592.83 5.57C1592.03 4.66333 1590.73 4.20999 1588.92 4.20999H1582.63V2.51H1614.76V4.20999H1611.36C1606.03 4.20999 1601.1 6.30666 1596.57 10.5L1562.91 41.1L1610.34 113.69C1611.7 115.843 1613 117.317 1614.25 118.11C1615.61 118.903 1617.48 119.3 1619.86 119.3H1624.28V121ZM1685.77 0.299994C1703 0.299994 1716.31 5.62666 1725.72 16.28C1735.13 26.9333 1739.83 42.0633 1739.83 61.67C1739.83 71.4167 1738.64 80.0867 1736.26 87.68C1733.88 95.2733 1730.37 101.733 1725.72 107.06C1721.19 112.273 1715.52 116.297 1708.72 119.13C1702.03 121.85 1694.38 123.21 1685.77 123.21C1668.54 123.21 1655.23 117.883 1645.82 107.23C1636.41 96.5767 1631.71 81.4467 1631.71 61.84C1631.71 52.0933 1632.9 43.4233 1635.28 35.83C1637.66 28.2367 1641.12 21.8333 1645.65 16.62C1650.3 11.2933 1655.96 7.26999 1662.65 4.54999C1669.45 1.71666 1677.16 0.299994 1685.77 0.299994ZM1685.77 121.51C1692.57 121.51 1698.69 120.093 1704.13 117.26C1709.57 114.427 1714.22 110.46 1718.07 105.36C1721.92 100.147 1724.87 93.8567 1726.91 86.49C1728.95 79.1233 1729.97 70.85 1729.97 61.67C1729.97 52.6033 1728.89 44.3867 1726.74 37.02C1724.7 29.6533 1721.75 23.3633 1717.9 18.15C1714.16 12.9367 1709.57 8.97 1704.13 6.25C1698.69 3.41666 1692.57 1.99999 1685.77 1.99999C1678.97 1.99999 1672.85 3.41666 1667.41 6.25C1661.97 9.08333 1657.32 13.1067 1653.47 18.32C1649.62 23.42 1646.67 29.6533 1644.63 37.02C1642.59 44.3867 1641.57 52.66 1641.57 61.84C1641.57 68.8667 1642.31 75.95 1643.78 83.09C1645.25 90.1167 1647.69 96.52 1651.09 102.3C1654.6 107.967 1659.19 112.613 1664.86 116.24C1670.53 119.753 1677.5 121.51 1685.77 121.51Z" fill="#9E9987"/>
</svg>
