<svg width="1640" height="242" viewBox="0 0 1640 242" fill="none" xmlns="http://www.w3.org/2000/svg">
<path fill-rule="evenodd" clip-rule="evenodd" d="M188.302 190.973C169.605 219.352 139.557 238.048 106.17 238.048C53.7528 238.048 19.3644 186.966 19.3644 120.86C19.3644 50.4141 56.0899 3.33868 109.175 3.33868C147.236 3.33868 182.626 27.3772 182.96 80.1284V85.1365H186.299V4.34029H182.96V20.0321C182.96 25.0401 180.957 27.3772 177.284 27.3772C174.613 27.3772 171.942 26.0417 169.271 23.7046C149.907 8.01283 128.873 0 106.17 0C43.7368 0 0 50.4141 0 120.86C0 191.307 43.4029 241.387 106.17 241.387C140.559 241.387 171.608 222.69 191.307 192.976L188.302 190.973ZM400.898 4.34029V7.67897H413.585C421.932 7.67897 425.938 11.6854 425.938 19.6982V221.355C425.938 230.703 422.599 233.708 413.585 233.708H400.898V237.047H469.341V233.708H456.654C449.643 233.708 444.301 229.034 444.301 221.355V92.4816H481.694C529.437 92.4816 549.135 80.1284 549.135 48.4109C549.135 16.6934 529.437 4.34029 481.694 4.34029H400.898ZM481.694 89.1429H444.301V7.67897H481.694C516.082 7.67897 529.771 19.0305 529.771 48.4109C529.771 77.7913 516.082 89.1429 481.694 89.1429ZM601.764 206.665C617.456 227.698 638.49 238.048 665.199 238.048C718.618 238.048 752.005 192.308 752.005 120.527C752.005 49.0787 718.284 3.33868 665.199 3.33868C611.78 3.33868 578.393 49.0787 578.393 120.86C578.393 156.918 586.072 185.631 601.764 206.665ZM559.029 120.86C559.029 44.4045 597.424 0 665.199 0C732.307 0 771.369 44.0706 771.369 120.527C771.369 196.982 732.974 241.387 665.199 241.387C598.091 241.387 559.029 197.316 559.029 120.86ZM872.693 90.8122C908.417 88.1413 923.107 76.122 923.107 48.4109C923.107 16.6934 903.409 4.34029 855.666 4.34029H774.87V7.67897H787.557C796.571 7.67897 799.91 10.6838 799.91 19.6982V221.689C799.91 230.703 796.571 233.708 787.557 233.708H774.87V237.047H856.333C914.76 237.047 942.471 213.342 942.471 162.928C942.471 119.191 919.101 95.1525 872.693 90.8122ZM818.273 7.67897H855.666C890.054 7.67897 903.743 19.0305 903.743 48.4109C903.743 77.7913 890.054 89.1429 855.666 89.1429H818.273V7.67897ZM856.333 233.708H818.273V92.4816H856.333C901.406 92.4816 923.107 115.185 923.107 162.928C923.107 211.005 901.406 233.708 856.333 233.708ZM1122.98 233.708H1131.66V237.047H1063.22V233.708H1080.24C1085.59 233.708 1088.93 230.703 1088.93 226.363C1088.93 225.695 1088.93 224.693 1088.59 223.692L1067.22 159.255H981.753L965.728 216.013C965.06 218.016 965.06 219.685 965.06 221.355C965.06 228.7 970.402 233.708 977.747 233.708H986.094V237.047H932.675V233.708H941.355C951.371 233.708 959.05 227.698 962.389 215.679L1017.48 20.6999C1017.53 20.4132 1017.59 20.1365 1017.65 19.8678L1017.65 19.867C1017.92 18.5714 1018.14 17.4655 1018.14 16.3596C1018.14 10.6838 1014.14 7.67897 1008.46 7.67897H985.76V4.34029H1034.84L1107.96 224.36C1109.96 230.703 1114.97 233.708 1122.98 233.708ZM982.755 155.917H1065.89L1021.15 21.7014L982.755 155.917ZM1141.67 4.34029V7.67897H1154.36C1162.7 7.67897 1166.71 11.6854 1166.71 19.6982V221.355C1166.71 230.703 1163.37 233.708 1154.36 233.708H1141.67V237.047H1210.11V233.708H1197.42C1190.41 233.708 1185.07 229.034 1185.07 221.355V92.4816H1222.46C1270.21 92.4816 1289.91 80.1284 1289.91 48.4109C1289.91 16.6934 1270.21 4.34029 1222.46 4.34029H1141.67ZM1222.46 89.1429H1185.07V7.67897H1222.46C1256.85 7.67897 1270.54 19.0305 1270.54 48.4109C1270.54 77.7913 1256.85 89.1429 1222.46 89.1429ZM334.031 4.37273H387.45V7.71141H379.438C369.786 7.71141 362.456 14.679 362.411 25.3067V42.2209L362.41 218.17C362.41 228.853 369.756 235.865 379.438 235.865L387.451 235.865V239.203H334.032V235.865H342.045C351.699 235.865 359.029 228.894 359.072 218.262V201.355V25.4064C359.072 14.7227 351.727 7.71141 342.044 7.71141H334.031V4.37273ZM197.382 241.478V238.087L210.215 238.087C218.658 238.087 222.71 234.018 222.71 225.879L222.71 21.05C222.71 11.5546 219.333 8.50253 210.215 8.50253L197.382 8.50252V5.11135L266.613 5.11136V8.50253L253.78 8.50253C246.688 8.50253 241.285 13.2502 241.285 21.05V151.951L279.109 151.951C327.402 151.951 347.327 164.498 347.327 196.715C347.327 228.931 327.402 241.478 279.109 241.478H197.382ZM241.285 155.342L241.285 238.087H279.109C313.893 238.087 327.74 226.557 327.74 196.715C327.74 166.872 313.893 155.342 279.109 155.342L241.285 155.342ZM1481.62 4.43188V7.77056H1468.94C1461.92 7.77056 1456.58 12.7786 1456.58 19.7898V221.78C1456.58 228.791 1461.92 233.8 1468.94 233.8H1481.62V237.138H1413.18V233.8H1425.87C1432.88 233.8 1438.22 228.791 1438.22 221.78V92.5732H1339.73V221.78C1339.73 228.791 1345.07 233.8 1352.08 233.8H1364.77V237.138H1296.33V233.8H1309.01C1316.02 233.8 1321.37 228.791 1321.37 221.78V19.7898C1321.37 12.7786 1316.02 7.77056 1309.01 7.77056H1296.33V4.43188H1364.77V7.77056H1352.08C1345.07 7.77056 1339.73 12.7786 1339.73 19.7898V89.2345H1438.22V19.7898C1438.22 12.7786 1432.88 7.77056 1425.87 7.77056H1413.18V4.43188H1481.62ZM1639.22 5.20299V8.52H1626.64C1618.36 8.52 1614.39 12.5004 1614.39 20.4613V220.809C1614.39 230.097 1617.7 233.082 1626.64 233.082H1639.22V236.4H1571.35V233.082H1583.93C1590.89 233.082 1596.18 228.439 1596.18 220.809V92.7724H1562.58L1543.79 155.932L1542.79 159.27L1526.76 216.028C1526.09 218.031 1526.09 219.701 1526.09 221.37C1526.09 228.715 1531.43 233.723 1538.78 233.723H1547.13V237.062H1493.71V233.723H1502.39C1512.4 233.723 1520.08 227.713 1523.42 215.694L1558.64 92.772C1511.64 92.6919 1492.23 80.3963 1492.23 48.9877C1492.23 17.476 1511.76 5.20299 1559.1 5.20299H1639.22ZM1596.18 89.4554V8.52H1559.1C1525 8.52 1511.43 19.7979 1511.43 48.9877C1511.43 78.1775 1525 89.4554 1559.1 89.4554H1596.18Z" fill="black"/>
</svg>
