<svg width="1247" height="124" viewBox="0 0 1247 124" fill="none" xmlns="http://www.w3.org/2000/svg">
<path d="M97.96 98.56C92.86 106.153 86.57 112.16 79.09 116.58C71.61 121 63.45 123.21 54.61 123.21C46.6767 123.21 39.3667 121.737 32.68 118.79C26.1067 115.73 20.44 111.48 15.68 106.04C10.92 100.6 7.18 94.14 4.46 86.66C1.85333 79.0667 0.55 70.7933 0.55 61.84C0.55 52.8867 1.85333 44.67 4.46 37.19C7.18 29.5967 10.92 23.08 15.68 17.64C20.44 12.2 26.1067 7.95 32.68 4.89C39.3667 1.82999 46.6767 0.299994 54.61 0.299994C66.0567 0.299994 76.7667 4.32333 86.74 12.37C88.2133 13.6167 89.5733 14.24 90.82 14.24C92.7467 14.24 93.71 12.9933 93.71 10.5V2.51H95.41V43.65H93.71V41.1C93.71 34.4133 92.6333 28.6333 90.48 23.76C88.44 18.7733 85.6633 14.6933 82.15 11.52C78.6367 8.23333 74.6133 5.85333 70.08 4.37999C65.66 2.79333 61.0133 1.99999 56.14 1.99999C49.34 1.99999 43.1067 3.47333 37.44 6.42C31.8867 9.25333 27.07 13.2767 22.99 18.49C19.0233 23.7033 15.9067 29.9933 13.64 37.36C11.4867 44.7267 10.41 52.8867 10.41 61.84C10.41 70.2267 11.43 78.0467 13.47 85.3C15.6233 92.5533 18.6267 98.9 22.48 104.34C26.3333 109.667 30.98 113.86 36.42 116.92C41.86 119.98 47.9233 121.51 54.61 121.51C63.11 121.51 70.9867 119.357 78.24 115.05C85.6067 110.63 91.67 104.793 96.43 97.54L97.96 98.56ZM200.902 4.20999C199.088 4.20999 197.558 4.77666 196.312 5.90999C195.178 7.04332 194.612 8.51666 194.612 10.33V113.18C194.612 114.993 195.178 116.467 196.312 117.6C197.558 118.733 199.088 119.3 200.902 119.3H207.362V121H172.512V119.3H178.972C180.785 119.3 182.258 118.733 183.392 117.6C184.638 116.467 185.262 114.993 185.262 113.18V10.33C185.262 8.51666 184.638 7.04332 183.392 5.90999C182.258 4.77666 180.785 4.20999 178.972 4.20999H172.512V2.51H207.362V4.20999H200.902ZM150.412 43.14C160.272 44.3867 167.468 48.1267 172.002 54.36C176.535 60.5933 178.802 70 178.802 82.58C178.802 96.18 175.968 106.097 170.302 112.33C164.635 118.45 155.455 121.51 142.762 121.51H108.422V119.81H114.882C117.148 119.81 118.735 119.357 119.642 118.45C120.662 117.43 121.172 115.787 121.172 113.52V11.01C121.172 8.74333 120.662 7.15666 119.642 6.25C118.735 5.23 117.148 4.72 114.882 4.72H108.422V3.02H143.272V4.72H136.812C134.998 4.72 133.468 5.34333 132.222 6.58999C131.088 7.72333 130.522 9.19666 130.522 11.01V42.63H141.912C143.385 42.63 144.688 42.63 145.822 42.63C147.068 42.63 148.598 42.8 150.412 43.14ZM130.522 44.33V119.81H142.762C151.942 119.81 158.572 116.863 162.652 110.97C166.845 105.077 168.942 95.67 168.942 82.75C168.942 69.3767 166.788 59.63 162.482 53.51C158.288 47.39 151.715 44.33 142.762 44.33H130.522ZM260.499 2.51C272.625 2.51 281.352 4.26666 286.679 7.78C292.119 11.18 294.839 16.9033 294.839 24.95C294.839 32.9967 292.119 38.7767 286.679 42.29C281.352 45.69 272.625 47.39 260.499 47.39H241.459V113.01C241.459 114.937 242.025 116.467 243.159 117.6C244.405 118.733 245.935 119.3 247.749 119.3H254.209V121H219.359V119.3H225.819C228.085 119.3 229.672 118.847 230.579 117.94C231.599 117.033 232.109 115.39 232.109 113.01V10.33C232.109 6.24999 230.012 4.20999 225.819 4.20999H219.359V2.51H260.499ZM260.499 45.69C269.339 45.69 275.629 44.1033 279.369 40.93C283.109 37.7567 284.979 32.43 284.979 24.95C284.979 17.47 283.109 12.1433 279.369 8.96999C275.629 5.79666 269.339 4.20999 260.499 4.20999H241.459V45.69H260.499ZM397.796 4.20999C395.983 4.20999 394.453 4.77666 393.206 5.90999C392.073 7.04332 391.506 8.51666 391.506 10.33V113.18C391.506 114.993 392.073 116.467 393.206 117.6C394.453 118.733 395.983 119.3 397.796 119.3H404.256V121H369.406V119.3H375.866C377.68 119.3 379.153 118.733 380.286 117.6C381.533 116.467 382.156 114.993 382.156 113.18V10.33C382.156 8.51666 381.533 7.04332 380.286 5.90999C379.153 4.77666 377.68 4.20999 375.866 4.20999H369.406V2.51H404.256V4.20999H397.796ZM347.306 43.14C357.166 44.3867 364.363 48.1267 368.896 54.36C373.43 60.5933 375.696 70 375.696 82.58C375.696 96.18 372.863 106.097 367.196 112.33C361.53 118.45 352.35 121.51 339.656 121.51H305.316V119.81H311.776C314.043 119.81 315.63 119.357 316.536 118.45C317.556 117.43 318.066 115.787 318.066 113.52V11.01C318.066 8.74333 317.556 7.15666 316.536 6.25C315.63 5.23 314.043 4.72 311.776 4.72H305.316V3.02H340.166V4.72H333.706C331.893 4.72 330.363 5.34333 329.116 6.58999C327.983 7.72333 327.416 9.19666 327.416 11.01V42.63H338.806C340.28 42.63 341.583 42.63 342.716 42.63C343.963 42.63 345.493 42.8 347.306 43.14ZM327.416 44.33V119.81H339.656C348.836 119.81 355.466 116.863 359.546 110.97C363.74 105.077 365.836 95.67 365.836 82.75C365.836 69.3767 363.683 59.63 359.376 53.51C355.183 47.39 348.61 44.33 339.656 44.33H327.416ZM496.61 46.54C520.297 48.8067 532.14 61.0467 532.14 83.26C532.14 96.18 528.57 105.7 521.43 111.82C514.29 117.94 503.24 121 488.28 121H446.8V119.3H453.26C455.527 119.3 457.113 118.847 458.02 117.94C459.04 117.033 459.55 115.447 459.55 113.18V10.33C459.55 8.06333 459.04 6.47667 458.02 5.57C457.113 4.66333 455.527 4.20999 453.26 4.20999H446.8V2.51H487.94C495.647 2.51 502.05 3.53 507.15 5.57C512.25 7.61 516.16 10.2167 518.88 13.39C521.6 16.45 523.073 19.85 523.3 23.59C523.64 27.2167 522.847 30.6733 520.92 33.96C519.107 37.2467 516.103 40.08 511.91 42.46C507.83 44.7267 502.73 46.0867 496.61 46.54ZM468.9 45.69H487.94C496.78 45.69 503.07 44.1033 506.81 40.93C510.55 37.7567 512.42 32.43 512.42 24.95C512.42 17.47 510.55 12.1433 506.81 8.96999C503.07 5.79666 496.78 4.20999 487.94 4.20999H468.9V45.69ZM488.28 119.3C499.84 119.3 508.397 116.41 513.95 110.63C519.503 104.737 522.28 95.6133 522.28 83.26C522.28 71.02 519.503 62.01 513.95 56.23C508.397 50.3367 499.84 47.39 488.28 47.39H468.9V119.3H488.28ZM637.749 121H602.899V119.3H611.569C614.515 119.3 615.989 118.053 615.989 115.56C615.989 114.993 615.932 114.54 615.819 114.2L604.939 81.39L581.479 12.2L553.259 110.29C553.032 110.857 552.919 111.367 552.919 111.82C552.919 112.16 552.919 112.557 552.919 113.01C552.919 114.937 553.485 116.467 554.619 117.6C555.865 118.733 557.452 119.3 559.379 119.3H563.629V121H536.429V119.3H540.849C543.455 119.3 545.665 118.563 547.479 117.09C549.292 115.503 550.652 113.18 551.559 110.12L579.609 10.84C579.722 10.3867 579.779 9.99 579.779 9.64999C579.892 9.30999 579.949 8.96999 579.949 8.63C579.949 7.15666 579.495 6.08 578.589 5.4C577.682 4.60666 576.492 4.20999 575.019 4.20999H563.459V2.51H588.449L625.679 114.54C626.699 117.713 629.249 119.3 633.329 119.3H637.749V121ZM745.339 121H710.489V119.3H719.159C722.105 119.3 723.579 118.053 723.579 115.56C723.579 114.993 723.522 114.54 723.409 114.2L712.529 81.39H669.009L660.849 110.29C660.622 110.857 660.509 111.367 660.509 111.82C660.509 112.16 660.509 112.557 660.509 113.01C660.509 114.937 661.075 116.467 662.209 117.6C663.455 118.733 665.042 119.3 666.969 119.3H671.219V121H644.019V119.3H648.439C651.045 119.3 653.255 118.563 655.069 117.09C656.882 115.503 658.242 113.18 659.149 110.12L687.199 10.84C687.312 10.3867 687.369 9.99 687.369 9.64999C687.482 9.30999 687.539 8.96999 687.539 8.63C687.539 7.15666 687.085 6.08 686.179 5.4C685.272 4.60666 684.082 4.20999 682.609 4.20999H671.049V2.51H696.039L733.269 114.54C734.289 117.713 736.839 119.3 740.919 119.3H745.339V121ZM689.069 11.35L669.519 79.69H711.849L689.069 11.35ZM845.03 98.56C839.93 106.153 833.64 112.16 826.16 116.58C818.68 121 810.52 123.21 801.68 123.21C793.747 123.21 786.437 121.737 779.75 118.79C773.177 115.73 767.51 111.48 762.75 106.04C757.99 100.6 754.25 94.14 751.53 86.66C748.924 79.0667 747.62 70.7933 747.62 61.84C747.62 52.8867 748.924 44.67 751.53 37.19C754.25 29.5967 757.99 23.08 762.75 17.64C767.51 12.2 773.177 7.95 779.75 4.89C786.437 1.82999 793.747 0.299994 801.68 0.299994C813.127 0.299994 823.837 4.32333 833.81 12.37C835.284 13.6167 836.644 14.24 837.89 14.24C839.817 14.24 840.78 12.9933 840.78 10.5V2.51H842.48V43.65H840.78V41.1C840.78 34.4133 839.704 28.6333 837.55 23.76C835.51 18.7733 832.734 14.6933 829.22 11.52C825.707 8.23333 821.684 5.85333 817.15 4.37999C812.73 2.79333 808.084 1.99999 803.21 1.99999C796.41 1.99999 790.177 3.47333 784.51 6.42C778.957 9.25333 774.14 13.2767 770.06 18.49C766.094 23.7033 762.977 29.9933 760.71 37.36C758.557 44.7267 757.48 52.8867 757.48 61.84C757.48 70.2267 758.5 78.0467 760.54 85.3C762.694 92.5533 765.697 98.9 769.55 104.34C773.404 109.667 778.05 113.86 783.49 116.92C788.93 119.98 794.994 121.51 801.68 121.51C810.18 121.51 818.057 119.357 825.31 115.05C832.677 110.63 838.74 104.793 843.5 97.54L845.03 98.56ZM930.802 121H850.052V119.3H856.512C858.325 119.3 859.799 118.733 860.932 117.6C862.179 116.467 862.802 114.993 862.802 113.18V10.33C862.802 8.51666 862.179 7.04332 860.932 5.90999C859.799 4.77666 858.325 4.20999 856.512 4.20999H850.052V2.51H924.852V43.65H923.152V19.68C923.152 15.1467 921.679 11.4633 918.732 8.63C915.785 5.68333 912.102 4.20999 907.682 4.20999H872.152V45.69H912.952V47.39H872.152V119.3H910.402C913.122 119.3 915.615 118.79 917.882 117.77C920.149 116.75 922.132 115.39 923.832 113.69C925.532 111.99 926.835 109.95 927.742 107.57C928.649 105.19 929.102 102.64 929.102 99.92V69.15H930.802V121ZM1023.77 4.20999C1021.96 4.20999 1020.43 4.77666 1019.18 5.90999C1018.05 7.04332 1017.48 8.51666 1017.48 10.33V113.18C1017.48 114.993 1018.05 116.467 1019.18 117.6C1020.43 118.733 1021.96 119.3 1023.77 119.3H1030.23V121H995.382V119.3H1001.84C1003.66 119.3 1005.13 118.733 1006.26 117.6C1007.51 116.467 1008.13 114.993 1008.13 113.18V47.39H957.982V113.18C957.982 114.993 958.549 116.467 959.682 117.6C960.929 118.733 962.459 119.3 964.272 119.3H970.732V121H935.882V119.3H942.342C944.155 119.3 945.629 118.733 946.762 117.6C948.009 116.467 948.632 114.993 948.632 113.18V10.33C948.632 8.51666 948.009 7.04332 946.762 5.90999C945.629 4.77666 944.155 4.20999 942.342 4.20999H935.882V2.51H970.732V4.20999H964.272C962.459 4.20999 960.929 4.77666 959.682 5.90999C958.549 7.04332 957.982 8.51666 957.982 10.33V45.69H1008.13V10.33C1008.13 8.51666 1007.51 7.04332 1006.26 5.90999C1005.13 4.77666 1003.66 4.20999 1001.84 4.20999H995.382V2.51H1030.23V4.20999H1023.77ZM1131.38 121H1096.53V119.3H1106.22C1107.69 119.3 1108.43 118.903 1108.43 118.11C1108.43 117.543 1108.2 116.863 1107.75 116.07L1062.7 47.39H1057.43V113.18C1057.43 114.993 1057.99 116.467 1059.13 117.6C1060.37 118.733 1061.9 119.3 1063.72 119.3H1070.18V121H1035.33V119.3H1041.79C1043.6 119.3 1045.07 118.733 1046.21 117.6C1047.45 116.467 1048.08 114.993 1048.08 113.18V10.33C1048.08 8.51666 1047.45 7.04332 1046.21 5.90999C1045.07 4.77666 1043.6 4.20999 1041.79 4.20999H1035.33V2.51H1070.18V4.20999H1063.72C1061.9 4.20999 1060.37 4.77666 1059.13 5.90999C1057.99 7.04332 1057.43 8.51666 1057.43 10.33V45.69H1062.53L1099.42 12.03C1100.66 11.1233 1101.29 9.87666 1101.29 8.28999C1101.29 7.26999 1100.83 6.36333 1099.93 5.57C1099.13 4.66333 1097.83 4.20999 1096.02 4.20999H1089.73V2.51H1121.86V4.20999H1118.46C1113.13 4.20999 1108.2 6.30666 1103.67 10.5L1070.01 41.1L1117.44 113.69C1118.8 115.843 1120.1 117.317 1121.35 118.11C1122.71 118.903 1124.58 119.3 1126.96 119.3H1131.38V121ZM1192.87 0.299994C1210.1 0.299994 1223.41 5.62666 1232.82 16.28C1242.23 26.9333 1246.93 42.0633 1246.93 61.67C1246.93 71.4167 1245.74 80.0867 1243.36 87.68C1240.98 95.2733 1237.47 101.733 1232.82 107.06C1228.29 112.273 1222.62 116.297 1215.82 119.13C1209.13 121.85 1201.48 123.21 1192.87 123.21C1175.64 123.21 1162.33 117.883 1152.92 107.23C1143.51 96.5767 1138.81 81.4467 1138.81 61.84C1138.81 52.0933 1140 43.4233 1142.38 35.83C1144.76 28.2367 1148.22 21.8333 1152.75 16.62C1157.4 11.2933 1163.06 7.26999 1169.75 4.54999C1176.55 1.71666 1184.26 0.299994 1192.87 0.299994ZM1192.87 121.51C1199.67 121.51 1205.79 120.093 1211.23 117.26C1216.67 114.427 1221.32 110.46 1225.17 105.36C1229.02 100.147 1231.97 93.8567 1234.01 86.49C1236.05 79.1233 1237.07 70.85 1237.07 61.67C1237.07 52.6033 1235.99 44.3867 1233.84 37.02C1231.8 29.6533 1228.85 23.3633 1225 18.15C1221.26 12.9367 1216.67 8.97 1211.23 6.25C1205.79 3.41666 1199.67 1.99999 1192.87 1.99999C1186.07 1.99999 1179.95 3.41666 1174.51 6.25C1169.07 9.08333 1164.42 13.1067 1160.57 18.32C1156.72 23.42 1153.77 29.6533 1151.73 37.02C1149.69 44.3867 1148.67 52.66 1148.67 61.84C1148.67 68.8667 1149.41 75.95 1150.88 83.09C1152.35 90.1167 1154.79 96.52 1158.19 102.3C1161.7 107.967 1166.29 112.613 1171.96 116.24C1177.63 119.753 1184.6 121.51 1192.87 121.51Z" fill="#9E9987"/>
</svg>
