<svg width="75" height="59" viewBox="0 0 75 59" fill="none" xmlns="http://www.w3.org/2000/svg">
<path d="M4.68 7.08C1.72 11.64 0.2 19 0.2 29.16C0.2 49.64 5.88 58.04 19.24 58.04C32.52 58.04 38.28 49.4 38.28 29.08C38.28 8.84 32.52 0.199997 19.24 0.199997C12.6 0.199997 7.72 2.52 4.68 7.08ZM19.24 57.24C9.08 57.24 4.84 48.76 4.84 29.16C4.84 9.4 9.24 0.999996 19.24 0.999996C29.4 0.999996 33.64 9.48 33.64 29.08C33.64 48.84 29.24 57.24 19.24 57.24ZM74.1088 1.24H42.9088V20.6H43.7088V9.72C43.7088 4.92 46.7488 2.04 51.5488 2.04H67.9488L53.1488 22.36H58.5088C66.1088 22.36 70.1888 28.6 70.1888 39.8C70.1888 51.4 65.8688 57.24 57.3088 57.24C46.8288 57.24 41.4688 49.72 41.4688 36.36V32.6H40.6688V57H41.4688V53.56C41.4688 52.36 42.0288 51.72 43.0688 51.72C43.7088 51.72 44.4288 52.2 45.2288 53.08C48.0288 56.36 52.1888 58.04 57.5488 58.04C69.3888 58.04 74.8288 52.28 74.8288 39.8C74.8288 27.88 69.6288 21.8 59.2288 21.56L74.1088 1.24Z" fill="black"/>
</svg>
