<svg width="199" height="191" viewBox="0 0 199 191" fill="none" xmlns="http://www.w3.org/2000/svg">
<path d="M43.9463 0.787326V0H31.3902V0.787326H33.5091C35.3925 0.787326 36.7266 2.12578 36.7266 3.93664C36.7266 4.25157 36.6481 4.5665 36.5696 4.96016L24.6413 46.846L10.2018 3.46424C10.0449 3.14931 10.0449 2.83438 10.0449 2.51945C10.0449 1.41719 10.9081 0.787326 12.3207 0.787326H16.0875V0H0V0.787326H1.80494C3.8453 0.787326 5.10091 1.65338 5.72872 3.46424L23.0718 55.8215L37.4329 4.96016C38.2176 2.20452 40.0225 0.787326 42.8477 0.787326H43.9463Z" fill="#524827"/>
<path d="M79.6405 54.8767V30.8632H78.8557V45.1139C78.8557 50.3889 75.1673 54.0894 70.0664 54.0894H56.4902V3.77917C56.4902 1.88959 57.6673 0.787326 59.4722 0.787326H64.7301V0H46.2883V0.787326H49.2704C50.9184 0.787326 52.174 1.88959 52.174 3.77917V51.0975C52.174 52.9871 50.9184 54.0894 49.2704 54.0894H46.2883V54.8767H79.6405Z" fill="#524827"/>
<path d="M128.772 54.0894H126.732C124.849 54.0894 123.671 53.3808 123.201 51.8849L106.014 0H94.4785V0.787326H99.8148C101.149 0.787326 102.091 1.49592 102.091 2.83438C102.091 3.14931 102.012 3.46424 101.934 3.85791L88.9852 49.8378C88.2004 52.6722 86.3955 54.0894 84.0412 54.0894H82.0009V54.8767H94.5569V54.0894H92.595C90.8686 54.0894 89.613 52.9084 89.613 51.1763C89.613 50.7826 89.613 50.3889 89.7699 49.9165L93.5368 36.532H113.627L118.649 51.7274C118.727 51.9636 118.727 52.1998 118.727 52.3573C118.727 53.3808 117.943 54.0894 116.687 54.0894H112.685V54.8767H128.772V54.0894ZM113.313 35.7447H93.7722L102.797 4.0941L113.313 35.7447Z" fill="#524827"/>
<path d="M138.58 54.4043C139.051 53.9319 139.365 53.1446 139.365 52.3573C139.365 50.7826 138.188 49.6016 136.618 49.6016C134.97 49.6016 133.871 50.7039 133.871 52.3573C133.871 54.0894 134.892 55.1129 136.618 55.1129C137.324 55.1129 138.109 54.8767 138.58 54.4043Z" fill="#524827"/>
<path d="M61.9221 90.2467H42.3032V91.034H61.9221V90.2467Z" fill="#524827"/>
<path d="M95.8205 89.8531C94.9573 89.5381 93.7017 89.3019 92.1322 88.8295L85.8541 86.9399C81.8519 85.3653 80.3608 83.5544 80.3608 80.4838C80.3608 74.4214 85.9326 70.0124 94.408 70.0124C104.453 70.0124 108.926 76.7834 108.926 84.8142V89.3019H109.711V70.2486H108.926V72.0594C108.926 73.2404 108.455 73.8703 107.435 73.8703C106.729 73.8703 105.944 73.5554 105.238 72.8468C102.648 70.4061 98.9595 69.2251 94.3295 69.2251C84.3631 69.2251 79.1052 74.1065 79.1052 82.5309C79.1837 89.1445 84.677 91.5852 88.6792 92.6874L95.0358 94.4195C105.787 97.3327 111.123 103.08 111.123 110.953C111.123 119.535 105.238 125.283 95.8205 125.283C84.9124 125.283 79.5761 117.961 79.5761 104.812V101.112H78.7913V125.125H79.5761V121.897C79.5761 120.716 80.1254 120.165 81.1456 120.165C81.8519 120.165 82.5582 120.48 83.186 121.189C86.0896 124.495 90.4057 126.149 95.9775 126.149C106.101 126.149 112.3 120.165 112.3 109.457C112.3 95.2856 102.412 91.8214 95.8205 89.8531Z" fill="#524827"/>
<path d="M151.924 101.112H151.139V115.362C151.139 120.401 147.529 124.338 142.507 124.338H124.85V91.034H143.684V90.2467H124.85V71.0359H141.251C145.332 71.0359 148.392 74.0278 148.392 78.2006V89.3019H149.177V70.2486H114.648V71.0359H117.63C119.278 71.0359 120.534 72.2169 120.534 73.8703V121.504C120.534 123.157 119.278 124.338 117.63 124.338H114.648V125.125H151.924V101.112Z" fill="#524827"/>
<path d="M199 70.2486H186.444V71.0359H188.327C190.603 71.0359 192.33 72.6893 192.33 75.2088V116.701L163.921 70.2486H154.269V71.0359H157.251C158.899 71.0359 160.155 72.2169 160.155 73.7128V120.165C160.155 122.685 158.428 124.338 156.152 124.338H154.269V125.125H166.825V124.338H164.942C162.666 124.338 160.939 122.685 160.939 120.165V73.7128L193.114 126.149V75.2088C193.114 72.6893 194.841 71.0359 197.117 71.0359H199V70.2486Z" fill="#524827"/>
<path d="M121.517 189.189H119.477C117.279 189.189 116.337 188.559 115.082 186.591L93.1872 152.972L108.725 138.8C110.844 136.832 113.12 135.887 115.553 135.887H117.122V135.1H102.29V135.887H105.194C106.842 135.887 107.627 136.832 107.627 137.777C107.627 138.407 107.391 139.036 106.763 139.509L89.7342 155.098H87.38V138.721C87.38 137.068 88.6356 135.887 90.2836 135.887H93.2656V135.1H77.1781V135.887H80.1602C81.8082 135.887 83.0638 137.068 83.0638 138.721V186.355C83.0638 188.008 81.8082 189.189 80.1602 189.189H77.1781V189.976H93.2656V189.189H90.2836C88.6356 189.189 87.38 188.008 87.38 186.355V155.885H89.8127L110.609 187.693C110.844 188.087 110.923 188.402 110.923 188.638C110.923 189.032 110.609 189.189 109.902 189.189H105.429V189.976H121.517V189.189Z" fill="#524827"/>
<path d="M141.754 134.076C125.824 134.076 116.799 144.548 116.799 162.577C116.799 180.607 125.981 191 141.754 191C157.685 191 166.71 180.529 166.71 162.499C166.71 144.469 157.528 134.076 141.754 134.076ZM126.844 182.812C123.156 177.852 121.351 171.081 121.351 162.577C121.351 145.65 129.198 134.864 141.754 134.864C154.232 134.864 162.158 145.65 162.158 162.499C162.158 179.426 154.31 190.213 141.754 190.213C135.476 190.213 130.532 187.772 126.844 182.812Z" fill="#524827"/>
</svg>
