<svg width="1675" height="277" viewBox="0 0 1675 277" fill="none" xmlns="http://www.w3.org/2000/svg">
<path d="M214.262 9.3104V5.48628H153.076V9.3104H163.401C172.579 9.3104 179.08 15.8115 179.08 24.607C179.08 26.1366 178.697 27.6663 178.315 29.5783L120.188 233.022L49.824 22.3125C49.0592 20.7828 49.0592 19.2532 49.0592 17.7235C49.0592 12.3697 53.2657 9.3104 60.1492 9.3104H78.505V5.48628H0.110229V9.3104H8.90574C18.8485 9.3104 24.9671 13.517 28.0264 22.3125L112.54 276.618L182.522 29.5783C186.346 16.1938 195.141 9.3104 208.908 9.3104H214.262Z" fill="#524827"/>
<path d="M388.2 272.029V155.392H384.376V224.609C384.376 250.231 366.403 268.205 341.546 268.205H275.388V23.8421C275.388 14.6642 281.125 9.3104 289.92 9.3104H315.542V5.48628H225.675V9.3104H240.206C248.237 9.3104 254.356 14.6642 254.356 23.8421V253.673C254.356 262.851 248.237 268.205 240.206 268.205H225.675V272.029H388.2Z" fill="#524827"/>
<path d="M627.621 268.205H617.678C608.501 268.205 602.764 264.763 600.47 257.497L516.721 5.48628H460.506V9.3104H486.511C493.012 9.3104 497.601 12.7521 497.601 19.2532C497.601 20.7828 497.218 22.3125 496.836 24.2246L433.737 247.554C429.913 261.321 421.118 268.205 409.645 268.205H399.703V272.029H460.889V268.205H451.328C442.915 268.205 436.797 262.468 436.797 254.055C436.797 252.143 436.797 250.231 437.562 247.937L455.917 182.926H553.815L578.29 256.732C578.672 257.879 578.672 259.027 578.672 259.791C578.672 264.763 574.848 268.205 568.729 268.205H549.226V272.029H627.621V268.205ZM552.286 179.102H457.065L501.042 25.3718L552.286 179.102Z" fill="#524827"/>
<path d="M723.981 100.707C719.774 99.1776 713.655 98.0304 706.007 95.7359L675.414 86.558C655.911 78.9097 648.645 70.1142 648.645 55.2001C648.645 25.7542 675.796 4.33902 717.097 4.33902C766.046 4.33902 787.844 37.2266 787.844 76.2328V98.0304H791.668V5.48628H787.844V14.2818C787.844 20.018 785.549 23.0773 780.578 23.0773C777.136 23.0773 773.312 21.5476 769.87 18.1059C757.25 6.25108 739.277 0.514893 716.715 0.514893C668.148 0.514893 642.526 24.2246 642.526 65.1428C642.909 97.2656 669.678 109.12 689.181 114.474L720.156 122.887C772.547 137.037 798.551 164.953 798.551 203.194C798.551 244.877 769.87 272.793 723.981 272.793C670.825 272.793 644.821 237.229 644.821 173.366V155.392H640.997V272.029H644.821V256.35C644.821 250.613 647.498 247.937 652.469 247.937C655.911 247.937 659.353 249.466 662.412 252.908C676.561 268.969 697.594 277 724.745 277C774.077 277 804.287 247.937 804.287 195.928C804.287 127.094 756.103 110.268 723.981 100.707Z" fill="#524827"/>
<path d="M997.373 155.392H993.549V224.609C993.549 249.084 975.958 268.205 951.484 268.205H865.441V106.444H957.22V102.619H865.441V9.3104H945.365C965.251 9.3104 980.165 23.8421 980.165 44.1101V98.0304H983.989V5.48628H815.727V9.3104H830.259C838.289 9.3104 844.408 15.0466 844.408 23.0773V254.438C844.408 262.468 838.289 268.205 830.259 268.205H815.727V272.029H997.373V155.392Z" fill="#524827"/>
<path d="M1226.78 5.48628H1165.59V9.3104H1174.77C1185.86 9.3104 1194.27 17.3411 1194.27 29.5783V231.11L1055.84 5.48628H1008.8V9.3104H1023.33C1031.36 9.3104 1037.48 15.0466 1037.48 22.3125V247.937C1037.48 260.174 1029.07 268.205 1017.98 268.205H1008.8V272.029H1069.99V268.205H1060.81C1049.72 268.205 1041.31 260.174 1041.31 247.937V22.3125L1198.1 277V29.5783C1198.1 17.3411 1206.51 9.3104 1217.6 9.3104H1226.78V5.48628Z" fill="#524827"/>
<path d="M1454.16 268.205H1444.22C1433.51 268.205 1428.92 265.145 1422.81 255.585L1316.11 92.2942L1391.83 23.4597C1402.16 13.8994 1413.25 9.3104 1425.1 9.3104H1432.75V5.48628H1360.47V9.3104H1374.62C1382.65 9.3104 1386.48 13.8994 1386.48 18.4883C1386.48 21.5476 1385.33 24.607 1382.27 26.9014L1299.29 102.619H1287.81V23.0773C1287.81 15.0466 1293.93 9.3104 1301.96 9.3104H1316.49V5.48628H1238.1V9.3104H1252.63C1260.66 9.3104 1266.78 15.0466 1266.78 23.0773V254.438C1266.78 262.468 1260.66 268.205 1252.63 268.205H1238.1V272.029H1316.49V268.205H1301.96C1293.93 268.205 1287.81 262.468 1287.81 254.438V106.444H1299.67L1401.01 260.939C1402.16 262.851 1402.54 264.38 1402.54 265.528C1402.54 267.44 1401.01 268.205 1397.57 268.205H1375.77V272.029H1454.16V268.205Z" fill="#524827"/>
<path d="M1552.78 0.514893C1475.15 0.514893 1431.17 51.3759 1431.17 138.949C1431.17 226.521 1475.92 277 1552.78 277C1630.41 277 1674.39 226.139 1674.39 138.566C1674.39 50.9935 1629.65 0.514893 1552.78 0.514893ZM1480.12 237.229C1462.15 213.137 1453.35 180.249 1453.35 138.949C1453.35 56.7297 1491.6 4.33902 1552.78 4.33902C1613.59 4.33902 1652.21 56.7297 1652.21 138.566C1652.21 220.785 1613.97 273.176 1552.78 273.176C1522.19 273.176 1498.1 261.321 1480.12 237.229Z" fill="#524827"/>
</svg>
