<svg width="225" height="215" viewBox="0 0 225 215" fill="none" xmlns="http://www.w3.org/2000/svg">
<path d="M49.5587 0.886257V0H35.3991V0.886257H37.7885C39.9124 0.886257 41.4169 2.3929 41.4169 4.43129C41.4169 4.7858 41.3284 5.1403 41.2399 5.58343L27.7883 52.7324L11.5047 3.89953C11.3277 3.54504 11.3277 3.19053 11.3277 2.83603C11.3277 1.59527 12.3012 0.886257 13.8941 0.886257H18.142V0H0V0.886257H2.03545C4.33639 0.886257 5.75235 1.86114 6.46033 3.89953L26.0183 62.8357L42.2134 5.58343C43.0984 2.48152 45.1338 0.886257 48.3197 0.886257H49.5587Z" fill="black"/>
<path d="M89.8113 61.7722V34.7413H88.9263V50.7826C88.9263 56.7205 84.7669 60.886 79.0146 60.886H63.7045V4.25404C63.7045 2.12702 65.032 0.886257 67.0674 0.886257H72.9967V0H52.1998V0.886257H55.5627C57.4212 0.886257 58.8371 2.12702 58.8371 4.25404V57.5182C58.8371 59.6452 57.4212 60.886 55.5627 60.886H52.1998V61.7722H89.8113Z" fill="black"/>
<path d="M145.218 60.886H142.917C140.793 60.886 139.465 60.0883 138.934 58.4044L119.553 0H106.544V0.886257H112.562C114.067 0.886257 115.129 1.68389 115.129 3.19053C115.129 3.54504 115.04 3.89954 114.952 4.34267L100.349 56.1002C99.4645 59.2907 97.429 60.886 94.7741 60.886H92.4731V61.7722H106.633V60.886H104.42C102.473 60.886 101.057 59.5566 101.057 57.6068C101.057 57.1637 101.057 56.7205 101.234 56.1888L105.482 41.1224H128.138L133.802 58.2272C133.89 58.4931 133.89 58.7589 133.89 58.9362C133.89 60.0883 133.005 60.886 131.589 60.886H127.076V61.7722H145.218V60.886ZM127.784 40.2361H105.748L115.925 4.60854L127.784 40.2361Z" fill="black"/>
<path d="M156.278 61.2405C156.809 60.7087 157.163 59.8224 157.163 58.9362C157.163 57.1637 155.835 55.8343 154.065 55.8343C152.207 55.8343 150.968 57.0751 150.968 58.9362C150.968 60.886 152.118 62.0381 154.065 62.0381C154.862 62.0381 155.747 61.7722 156.278 61.2405Z" fill="black"/>
<path d="M69.8302 101.587H47.7058V102.473H69.8302V101.587Z" fill="black"/>
<path d="M108.058 101.143C107.084 100.789 105.668 100.523 103.898 99.9913L96.8185 97.8643C92.3051 96.0918 90.6237 94.0534 90.6237 90.597C90.6237 83.7728 96.907 78.8098 106.465 78.8098C117.792 78.8098 122.837 86.4316 122.837 95.4714V100.523H123.722V79.0756H122.837V81.114C122.837 82.4434 122.306 83.1524 121.155 83.1524C120.359 83.1524 119.474 82.7979 118.677 82.0003C115.757 79.2529 111.598 77.9235 106.376 77.9235C95.1371 77.9235 89.2077 83.4183 89.2077 92.9013C89.2962 100.346 95.4911 103.093 100.004 104.334L107.173 106.284C119.297 109.563 125.315 116.033 125.315 124.895C125.315 134.555 118.677 141.025 108.058 141.025C95.7565 141.025 89.7387 132.783 89.7387 117.982V113.817H88.8537V140.848H89.7387V137.214C89.7387 135.885 90.3582 135.264 91.5087 135.264C92.3051 135.264 93.1016 135.619 93.8096 136.417C97.084 140.139 101.951 142 108.235 142C119.651 142 126.642 135.264 126.642 123.211C126.642 107.259 115.492 103.359 108.058 101.143Z" fill="black"/>
<path d="M171.326 113.817H170.441V129.858C170.441 135.53 166.37 139.962 160.706 139.962H140.794V102.473H162.034V101.587H140.794V79.9619H159.29C163.892 79.9619 167.344 83.3297 167.344 88.0269V100.523H168.229V79.0756H129.29V79.9619H132.652C134.511 79.9619 135.927 81.2913 135.927 83.1524V136.771C135.927 138.632 134.511 139.962 132.652 139.962H129.29V140.848H171.326V113.817Z" fill="black"/>
<path d="M224.414 79.0756H210.255V79.9619H212.379C214.945 79.9619 216.892 81.823 216.892 84.6591V131.365L184.856 79.0756H173.971V79.9619H177.333C179.192 79.9619 180.608 81.2913 180.608 82.9752V135.264C180.608 138.1 178.661 139.962 176.094 139.962H173.971V140.848H188.13V139.962H186.006C183.44 139.962 181.493 138.1 181.493 135.264V82.9752L217.777 142V84.6591C217.777 81.823 219.724 79.9619 222.29 79.9619H224.414V79.0756Z" fill="black"/>
<path d="M137.036 212.962H134.735C132.257 212.962 131.195 212.253 129.779 210.037L105.088 172.194L122.611 156.241C125 154.025 127.566 152.962 130.31 152.962H132.08V152.076H115.354V152.962H118.628C120.487 152.962 121.372 154.025 121.372 155.089C121.372 155.798 121.106 156.507 120.398 157.039L101.194 174.587H98.5392V156.152C98.5392 154.291 99.9552 152.962 101.814 152.962H105.177V152.076H87.0345V152.962H90.3975C92.2559 152.962 93.6719 154.291 93.6719 156.152V209.771C93.6719 211.632 92.2559 212.962 90.3975 212.962H87.0345V213.848H105.177V212.962H101.814C99.9552 212.962 98.5392 211.632 98.5392 209.771V175.473H101.283L124.735 211.278C125 211.721 125.089 212.075 125.089 212.341C125.089 212.784 124.735 212.962 123.938 212.962H118.894V213.848H137.036V212.962Z" fill="black"/>
<path d="M159.858 150.924C141.893 150.924 131.715 162.711 131.715 183.006C131.715 203.301 142.07 215 159.858 215C177.823 215 188 203.213 188 182.917C188 162.622 177.646 150.924 159.858 150.924ZM143.043 205.783C138.884 200.199 136.848 192.578 136.848 183.006C136.848 163.952 145.698 151.81 159.858 151.81C173.929 151.81 182.867 163.952 182.867 182.917C182.867 201.972 174.017 214.114 159.858 214.114C152.778 214.114 147.203 211.366 143.043 205.783Z" fill="black"/>
</svg>
