<svg width="842" height="140" viewBox="0 0 842 140" fill="none" xmlns="http://www.w3.org/2000/svg">
<path d="M108.4 5.09599V3.17599H77.68V5.09599H82.864C87.472 5.09599 90.736 8.36 90.736 12.776C90.736 13.544 90.544 14.312 90.352 15.272L61.168 117.416L25.84 11.624C25.456 10.856 25.456 10.088 25.456 9.32C25.456 6.632 27.568 5.09599 31.024 5.09599H40.24V3.17599H0.88V5.09599H5.296C10.288 5.09599 13.36 7.20799 14.896 11.624L57.328 139.304L92.464 15.272C94.384 8.55199 98.8 5.09599 105.712 5.09599H108.4ZM195.73 137V78.44H193.81V113.192C193.81 126.056 184.786 135.08 172.306 135.08H139.09V12.392C139.09 7.78399 141.97 5.09599 146.386 5.09599H159.25V3.17599H114.13V5.09599H121.426C125.458 5.09599 128.53 7.78399 128.53 12.392V127.784C128.53 132.392 125.458 135.08 121.426 135.08H114.13V137H195.73ZM315.937 135.08H310.945C306.337 135.08 303.457 133.352 302.305 129.704L260.257 3.17599H232.033V5.09599H245.089C248.353 5.09599 250.657 6.82399 250.657 10.088C250.657 10.856 250.465 11.624 250.273 12.584L218.593 124.712C216.673 131.624 212.257 135.08 206.497 135.08H201.505V137H232.225V135.08H227.425C223.201 135.08 220.129 132.2 220.129 127.976C220.129 127.016 220.129 126.056 220.513 124.904L229.729 92.264H278.881L291.169 129.32C291.361 129.896 291.361 130.472 291.361 130.856C291.361 133.352 289.441 135.08 286.369 135.08H276.577V137H315.937V135.08ZM278.113 90.344H230.305L252.385 13.16L278.113 90.344ZM364.317 50.984C362.205 50.216 359.133 49.64 355.293 48.488L339.933 43.88C330.141 40.04 326.493 35.624 326.493 28.136C326.493 13.352 340.125 2.59999 360.861 2.59999C385.437 2.59999 396.381 19.112 396.381 38.696V49.64H398.301V3.17599H396.381V7.592C396.381 10.472 395.229 12.008 392.733 12.008C391.005 12.008 389.085 11.24 387.357 9.51199C381.021 3.55999 371.997 0.679993 360.669 0.679993C336.285 0.679993 323.421 12.584 323.421 33.128C323.613 49.256 337.053 55.208 346.845 57.896L362.397 62.12C388.701 69.224 401.757 83.24 401.757 102.44C401.757 123.368 387.357 137.384 364.317 137.384C337.629 137.384 324.573 119.528 324.573 87.464V78.44H322.653V137H324.573V129.128C324.573 126.248 325.917 124.904 328.413 124.904C330.141 124.904 331.869 125.672 333.405 127.4C340.509 135.464 351.069 139.496 364.701 139.496C389.469 139.496 404.637 124.904 404.637 98.792C404.637 64.232 380.445 55.784 364.317 50.984ZM501.58 78.44H499.66V113.192C499.66 125.48 490.828 135.08 478.54 135.08H435.34V53.864H481.42V51.944H435.34V5.09599H475.468C485.452 5.09599 492.94 12.392 492.94 22.568V49.64H494.86V3.17599H410.38V5.09599H417.676C421.708 5.09599 424.78 7.97599 424.78 12.008V128.168C424.78 132.2 421.708 135.08 417.676 135.08H410.38V137H501.58V78.44ZM616.758 3.17599H586.038V5.09599H590.646C596.214 5.09599 600.438 9.128 600.438 15.272V116.456L530.934 3.17599H507.318V5.09599H514.614C518.646 5.09599 521.718 7.97599 521.718 11.624V124.904C521.718 131.048 517.494 135.08 511.926 135.08H507.318V137H538.038V135.08H533.43C527.862 135.08 523.638 131.048 523.638 124.904V11.624L602.358 139.496V15.272C602.358 9.128 606.582 5.09599 612.15 5.09599H616.758V3.17599ZM730.923 135.08H725.931C720.555 135.08 718.25 133.544 715.179 128.744L661.611 46.76L699.627 12.2C704.811 7.4 710.379 5.09599 716.331 5.09599H720.171V3.17599H683.883V5.09599H690.987C695.019 5.09599 696.939 7.4 696.939 9.70399C696.939 11.24 696.363 12.776 694.827 13.928L653.163 51.944H647.403V12.008C647.403 7.97599 650.475 5.09599 654.507 5.09599H661.803V3.17599H622.443V5.09599H629.739C633.771 5.09599 636.843 7.97599 636.843 12.008V128.168C636.843 132.2 633.771 135.08 629.739 135.08H622.443V137H661.803V135.08H654.507C650.475 135.08 647.403 132.2 647.403 128.168V53.864H653.355L704.235 131.432C704.811 132.392 705.003 133.16 705.003 133.736C705.003 134.696 704.235 135.08 702.507 135.08H691.563V137H730.923V135.08ZM780.436 0.679993C741.46 0.679993 719.38 26.216 719.38 70.184C719.38 114.152 741.844 139.496 780.436 139.496C819.412 139.496 841.492 113.96 841.492 69.992C841.492 26.024 819.028 0.679993 780.436 0.679993ZM743.956 119.528C734.932 107.432 730.516 90.92 730.516 70.184C730.516 28.904 749.716 2.59999 780.436 2.59999C810.964 2.59999 830.356 28.904 830.356 69.992C830.356 111.272 811.156 137.576 780.436 137.576C765.076 137.576 752.98 131.624 743.956 119.528Z" fill="black"/>
</svg>
