<svg width="1920" height="327" viewBox="0 0 1920 327" fill="none" xmlns="http://www.w3.org/2000/svg">
<path d="M222.899 10.4761V5.95609H150.579V10.4761H162.783C173.631 10.4761 181.315 18.1601 181.315 28.5561C181.315 30.3641 180.863 32.1721 180.411 34.4321L111.707 274.896L28.5393 25.8441C27.6353 24.0361 27.6353 22.2281 27.6353 20.4201C27.6353 14.0921 32.6073 10.4761 40.7433 10.4761H62.4393V5.95609H-30.2207V10.4761H-19.8247C-8.0727 10.4761 -0.840698 15.4481 2.7753 25.8441L102.667 326.424L185.383 34.4321C189.903 18.6121 200.299 10.4761 216.571 10.4761H222.899Z" fill="black"/>
<path d="M428.489 321V183.14H423.969V264.952C423.969 295.236 402.725 316.48 373.345 316.48H295.149V27.6521C295.149 16.8041 301.929 10.4761 312.325 10.4761H342.609V5.95609H236.389V10.4761H253.565C263.057 10.4761 270.289 16.8041 270.289 27.6521V299.304C270.289 310.152 263.057 316.48 253.565 316.48H236.389V321H428.489Z" fill="black"/>
<path d="M711.476 316.48H699.724C688.876 316.48 682.096 312.412 679.384 303.824L580.396 5.95609H513.952V10.4761H544.688C552.372 10.4761 557.796 14.5441 557.796 22.2281C557.796 24.0361 557.344 25.8441 556.892 28.1041L482.312 292.072C477.792 308.344 467.396 316.48 453.836 316.48H442.084V321H514.404V316.48H503.104C493.16 316.48 485.928 309.7 485.928 299.756C485.928 297.496 485.928 295.236 486.832 292.524L508.528 215.684H624.24L653.168 302.92C653.62 304.276 653.62 305.632 653.62 306.536C653.62 312.412 649.1 316.48 641.868 316.48H618.816V321H711.476V316.48ZM622.432 211.164H509.884L561.864 29.4601L622.432 211.164Z" fill="black"/>
<path d="M825.369 118.504C820.397 116.696 813.165 115.34 804.125 112.628L767.965 101.78C744.913 92.7401 736.325 82.3441 736.325 64.7161C736.325 29.9121 768.417 4.60007 817.233 4.60007C875.089 4.60007 900.853 43.4721 900.853 89.5761V115.34H905.373V5.95609H900.853V16.3521C900.853 23.1321 898.141 26.7481 892.265 26.7481C888.197 26.7481 883.677 24.9401 879.609 20.8721C864.693 6.86006 843.449 0.0800781 816.781 0.0800781C759.377 0.0800781 729.093 28.1041 729.093 76.4681C729.545 114.436 761.185 128.448 784.237 134.776L820.849 144.72C882.773 161.444 913.509 194.44 913.509 239.64C913.509 288.908 879.609 321.904 825.369 321.904C762.541 321.904 731.805 279.868 731.805 204.384V183.14H727.285V321H731.805V302.468C731.805 295.688 734.969 292.524 740.845 292.524C744.913 292.524 748.981 294.332 752.597 298.4C769.321 317.384 794.181 326.876 826.273 326.876C884.581 326.876 920.289 292.524 920.289 231.052C920.289 149.692 863.337 129.804 825.369 118.504Z" fill="black"/>
<path d="M1148.51 183.14H1143.99V264.952C1143.99 293.88 1123.2 316.48 1094.27 316.48H992.571V125.284H1101.05V120.764H992.571V10.4761H1087.04C1110.54 10.4761 1128.17 27.6521 1128.17 51.6081V115.34H1132.69V5.95609H933.811V10.4761H950.987C960.479 10.4761 967.711 17.2561 967.711 26.7481V300.208C967.711 309.7 960.479 316.48 950.987 316.48H933.811V321H1148.51V183.14Z" fill="black"/>
<path d="M1419.66 5.95609H1347.34V10.4761H1358.19C1371.29 10.4761 1381.24 19.9681 1381.24 34.4321V272.636L1217.61 5.95609H1162.02V10.4761H1179.19C1188.69 10.4761 1195.92 17.2561 1195.92 25.8441V292.524C1195.92 306.988 1185.97 316.48 1172.87 316.48H1162.02V321H1234.34V316.48H1223.49C1210.38 316.48 1200.44 306.988 1200.44 292.524V25.8441L1385.76 326.876V34.4321C1385.76 19.9681 1395.7 10.4761 1408.81 10.4761H1419.66V5.95609Z" fill="black"/>
<path d="M1688.42 316.48H1676.67C1664.01 316.48 1658.59 312.864 1651.36 301.564L1525.25 108.56L1614.74 27.2001C1626.95 15.9001 1640.06 10.4761 1654.07 10.4761H1663.11V5.95609H1577.68V10.4761H1594.41C1603.9 10.4761 1608.42 15.9001 1608.42 21.3241C1608.42 24.9401 1607.06 28.5561 1603.44 31.2681L1505.36 120.764H1491.8V26.7481C1491.8 17.2561 1499.03 10.4761 1508.53 10.4761H1525.7V5.95609H1433.04V10.4761H1450.22C1459.71 10.4761 1466.94 17.2561 1466.94 26.7481V300.208C1466.94 309.7 1459.71 316.48 1450.22 316.48H1433.04V321H1525.7V316.48H1508.53C1499.03 316.48 1491.8 309.7 1491.8 300.208V125.284H1505.81L1625.59 307.892C1626.95 310.152 1627.4 311.96 1627.4 313.316C1627.4 315.576 1625.59 316.48 1621.53 316.48H1595.76V321H1688.42V316.48Z" fill="black"/>
<path d="M1804.98 0.0800781C1713.23 0.0800781 1661.25 60.1961 1661.25 163.704C1661.25 267.212 1714.13 326.876 1804.98 326.876C1896.74 326.876 1948.72 266.76 1948.72 163.252C1948.72 59.7441 1895.84 0.0800781 1804.98 0.0800781ZM1719.1 279.868C1697.86 251.392 1687.46 212.52 1687.46 163.704C1687.46 66.5241 1732.66 4.60007 1804.98 4.60007C1876.85 4.60007 1922.5 66.5241 1922.5 163.252C1922.5 260.432 1877.3 322.356 1804.98 322.356C1768.82 322.356 1740.35 308.344 1719.1 279.868Z" fill="black"/>
</svg>
