<svg width="842" height="140" viewBox="0 0 842 140" fill="none" xmlns="http://www.w3.org/2000/svg">
<path d="M108.4 5.09599V3.17599H77.6799V5.09599H82.8639C87.4719 5.09599 90.7359 8.36 90.7359 12.776C90.7359 13.544 90.5439 14.312 90.3519 15.272L61.1679 117.416L25.8399 11.624C25.4559 10.856 25.4559 10.088 25.4559 9.31999C25.4559 6.63199 27.5679 5.09599 31.0239 5.09599H40.2399V3.17599H0.879883V5.09599H5.29588C10.2879 5.09599 13.3599 7.20799 14.8959 11.624L57.3279 139.304L92.4639 15.272C94.3839 8.552 98.7999 5.09599 105.712 5.09599H108.4Z" fill="#D3CEBC"/>
<path d="M195.73 137V78.44H193.81V113.192C193.81 126.056 184.786 135.08 172.306 135.08H139.09V12.392C139.09 7.78399 141.97 5.09599 146.386 5.09599H159.25V3.17599H114.13V5.09599H121.426C125.458 5.09599 128.53 7.78399 128.53 12.392V127.784C128.53 132.392 125.458 135.08 121.426 135.08H114.13V137H195.73Z" fill="#D3CEBC"/>
<path d="M315.937 135.08H310.945C306.337 135.08 303.457 133.352 302.305 129.704L260.257 3.17599H232.033V5.09599H245.089C248.353 5.09599 250.657 6.82399 250.657 10.088C250.657 10.856 250.465 11.624 250.273 12.584L218.593 124.712C216.673 131.624 212.257 135.08 206.497 135.08H201.505V137H232.225V135.08H227.425C223.201 135.08 220.129 132.2 220.129 127.976C220.129 127.016 220.129 126.056 220.513 124.904L229.729 92.264H278.881L291.169 129.32C291.361 129.896 291.361 130.472 291.361 130.856C291.361 133.352 289.441 135.08 286.369 135.08H276.577V137H315.937V135.08ZM278.113 90.344H230.305L252.385 13.16L278.113 90.344Z" fill="#D3CEBC"/>
<path d="M364.316 50.984C362.204 50.216 359.132 49.64 355.292 48.488L339.932 43.88C330.14 40.04 326.492 35.624 326.492 28.136C326.492 13.352 340.124 2.59999 360.86 2.59999C385.436 2.59999 396.38 19.112 396.38 38.696V49.64H398.3V3.17599H396.38V7.592C396.38 10.472 395.228 12.008 392.732 12.008C391.004 12.008 389.084 11.24 387.356 9.51199C381.02 3.55999 371.996 0.679993 360.668 0.679993C336.284 0.679993 323.42 12.584 323.42 33.128C323.612 49.256 337.052 55.208 346.844 57.896L362.396 62.12C388.7 69.224 401.756 83.24 401.756 102.44C401.756 123.368 387.356 137.384 364.316 137.384C337.628 137.384 324.572 119.528 324.572 87.464V78.44H322.652V137H324.572V129.128C324.572 126.248 325.916 124.904 328.412 124.904C330.14 124.904 331.868 125.672 333.404 127.4C340.508 135.464 351.068 139.496 364.7 139.496C389.468 139.496 404.636 124.904 404.636 98.792C404.636 64.232 380.444 55.784 364.316 50.984Z" fill="#D3CEBC"/>
<path d="M501.58 78.44H499.66V113.192C499.66 125.48 490.828 135.08 478.54 135.08H435.34V53.864H481.42V51.944H435.34V5.09599H475.468C485.452 5.09599 492.94 12.392 492.94 22.568V49.64H494.86V3.17599H410.38V5.09599H417.676C421.708 5.09599 424.78 7.97599 424.78 12.008V128.168C424.78 132.2 421.708 135.08 417.676 135.08H410.38V137H501.58V78.44Z" fill="#D3CEBC"/>
<path d="M616.757 3.17599H586.037V5.09599H590.645C596.213 5.09599 600.437 9.128 600.437 15.272V116.456L530.933 3.17599H507.317V5.09599H514.613C518.645 5.09599 521.717 7.97599 521.717 11.624V124.904C521.717 131.048 517.493 135.08 511.925 135.08H507.317V137H538.037V135.08H533.429C527.861 135.08 523.637 131.048 523.637 124.904V11.624L602.357 139.496V15.272C602.357 9.128 606.581 5.09599 612.149 5.09599H616.757V3.17599Z" fill="#D3CEBC"/>
<path d="M730.922 135.08H725.93C720.554 135.08 718.25 133.544 715.178 128.744L661.61 46.76L699.626 12.2C704.81 7.4 710.378 5.09599 716.33 5.09599H720.17V3.17599H683.882V5.09599H690.986C695.018 5.09599 696.938 7.4 696.938 9.70399C696.938 11.24 696.362 12.776 694.826 13.928L653.162 51.944H647.402V12.008C647.402 7.97599 650.474 5.09599 654.506 5.09599H661.802V3.17599H622.442V5.09599H629.738C633.77 5.09599 636.842 7.97599 636.842 12.008V128.168C636.842 132.2 633.77 135.08 629.738 135.08H622.442V137H661.802V135.08H654.506C650.474 135.08 647.402 132.2 647.402 128.168V53.864H653.354L704.234 131.432C704.81 132.392 705.002 133.16 705.002 133.736C705.002 134.696 704.234 135.08 702.506 135.08H691.562V137H730.922V135.08Z" fill="#D3CEBC"/>
<path d="M780.436 0.679993C741.46 0.679993 719.38 26.216 719.38 70.184C719.38 114.152 741.844 139.496 780.436 139.496C819.412 139.496 841.492 113.96 841.492 69.992C841.492 26.024 819.028 0.679993 780.436 0.679993ZM743.956 119.528C734.932 107.432 730.516 90.92 730.516 70.184C730.516 28.904 749.716 2.59999 780.436 2.59999C810.964 2.59999 830.356 28.904 830.356 69.992C830.356 111.272 811.156 137.576 780.436 137.576C765.076 137.576 752.98 131.624 743.956 119.528Z" fill="#D3CEBC"/>
</svg>
