<svg width="598" height="31" viewBox="0 0 598 31" fill="none" xmlns="http://www.w3.org/2000/svg">
<path d="M10.374 11.394C15.834 11.506 18.564 14.698 18.564 20.97C18.564 24.274 17.836 26.696 16.38 28.236C14.924 29.776 12.628 30.546 9.492 30.546C6.664 30.546 4.508 29.678 3.024 27.942C2.604 27.466 2.226 27.228 1.89 27.228C1.33 27.228 1.05 27.55 1.05 28.194V30H0.63V17.19H1.05V19.164C1.05 22.692 1.736 25.408 3.108 27.312C4.508 29.188 6.594 30.126 9.366 30.126C13.874 30.126 16.128 27.074 16.128 20.97C16.128 18.002 15.61 15.734 14.574 14.166C13.538 12.598 12.012 11.814 9.996 11.814H7.182L14.952 1.146H6.342C5.082 1.146 4.074 1.51 3.318 2.238C2.59 2.938 2.226 3.918 2.226 5.178V10.89H1.806V0.725999H18.186L10.374 11.394ZM44.7733 30H36.1633V29.58H38.3053C39.0333 29.58 39.3973 29.272 39.3973 28.656C39.3973 28.516 39.3833 28.404 39.3553 28.32L36.6673 20.214H25.9153L23.8993 27.354C23.8433 27.494 23.8153 27.62 23.8153 27.732C23.8153 27.816 23.8153 27.914 23.8153 28.026C23.8153 28.502 23.9553 28.88 24.2353 29.16C24.5433 29.44 24.9353 29.58 25.4113 29.58H26.4613V30H19.7413V29.58H20.8333C21.4773 29.58 22.0233 29.398 22.4713 29.034C22.9193 28.642 23.2553 28.068 23.4793 27.312L30.4093 2.784C30.4373 2.672 30.4513 2.574 30.4513 2.49C30.4793 2.406 30.4933 2.322 30.4933 2.238C30.4933 1.874 30.3813 1.608 30.1573 1.44C29.9333 1.244 29.6393 1.146 29.2753 1.146H26.4193V0.725999H32.5933L41.7913 28.404C42.0433 29.188 42.6733 29.58 43.6813 29.58H44.7733V30ZM30.8713 2.91L26.0413 19.794H36.4993L30.8713 2.91ZM67.681 1.146C67.233 1.146 66.855 1.286 66.547 1.566C66.267 1.846 66.127 2.21 66.127 2.658V28.068C66.127 28.516 66.267 28.88 66.547 29.16C66.855 29.44 67.233 29.58 67.681 29.58H69.277V30H60.667V29.58H62.263C62.711 29.58 63.075 29.44 63.355 29.16C63.663 28.88 63.817 28.516 63.817 28.068V2.658C63.817 2.21 63.663 1.846 63.355 1.566C63.075 1.286 62.711 1.146 62.263 1.146H52.981C52.533 1.146 52.155 1.286 51.847 1.566C51.567 1.846 51.427 2.21 51.427 2.658V28.068C51.427 28.516 51.567 28.88 51.847 29.16C52.155 29.44 52.533 29.58 52.981 29.58H54.577V30H45.967V29.58H47.563C48.011 29.58 48.375 29.44 48.655 29.16C48.963 28.88 49.117 28.516 49.117 28.068V2.658C49.117 2.21 48.963 1.846 48.655 1.566C48.375 1.286 48.011 1.146 47.563 1.146H45.967V0.725999H69.277V1.146H67.681ZM71.382 1.146H72.39C73.006 1.146 73.51 1.356 73.902 1.776C74.322 2.168 74.532 2.7 74.532 3.372V30.546L91.752 2.574V27.354C91.752 28.026 91.542 28.572 91.122 28.992C90.73 29.384 90.226 29.58 89.61 29.58H88.602V30H95.322V29.58H94.314C93.698 29.58 93.18 29.384 92.76 28.992C92.368 28.572 92.172 28.026 92.172 27.354V2.574C92.172 2.182 92.312 1.846 92.592 1.566C92.9 1.286 93.278 1.146 93.726 1.146H95.322V0.725999H90.156L74.952 25.506V3.372C74.952 2.7 75.148 2.168 75.54 1.776C75.96 1.356 76.478 1.146 77.094 1.146H78.102V0.725999H71.382V1.146ZM120.632 24.456C119.372 26.332 117.818 27.816 115.97 28.908C114.122 30 112.106 30.546 109.922 30.546C107.962 30.546 106.156 30.182 104.504 29.454C102.88 28.698 101.48 27.648 100.304 26.304C99.1275 24.96 98.2035 23.364 97.5315 21.516C96.8875 19.64 96.5655 17.596 96.5655 15.384C96.5655 13.172 96.8875 11.142 97.5315 9.294C98.2035 7.418 99.1275 5.808 100.304 4.464C101.48 3.12 102.88 2.07 104.504 1.314C106.156 0.557999 107.962 0.179998 109.922 0.179998C112.75 0.179998 115.396 1.174 117.86 3.162C118.224 3.47 118.56 3.624 118.868 3.624C119.344 3.624 119.582 3.316 119.582 2.7V0.725999H120.002V10.89H119.582V10.26C119.582 8.608 119.316 7.18 118.784 5.976C118.28 4.744 117.594 3.736 116.726 2.952C115.858 2.14 114.864 1.552 113.744 1.188C112.652 0.795998 111.504 0.599998 110.3 0.599998C108.62 0.599998 107.08 0.963998 105.68 1.692C104.308 2.392 103.118 3.386 102.11 4.674C101.13 5.962 100.36 7.516 99.7995 9.336C99.2675 11.156 99.0015 13.172 99.0015 15.384C99.0015 17.456 99.2535 19.388 99.7575 21.18C100.29 22.972 101.032 24.54 101.984 25.884C102.936 27.2 104.084 28.236 105.428 28.992C106.772 29.748 108.27 30.126 109.922 30.126C112.022 30.126 113.968 29.594 115.76 28.53C117.58 27.438 119.078 25.996 120.254 24.204L120.632 24.456ZM146.82 30H138.21V29.58H140.352C141.08 29.58 141.444 29.272 141.444 28.656C141.444 28.516 141.43 28.404 141.402 28.32L138.714 20.214H127.962L125.946 27.354C125.89 27.494 125.862 27.62 125.862 27.732C125.862 27.816 125.862 27.914 125.862 28.026C125.862 28.502 126.002 28.88 126.282 29.16C126.59 29.44 126.982 29.58 127.458 29.58H128.508V30H121.788V29.58H122.88C123.524 29.58 124.07 29.398 124.518 29.034C124.966 28.642 125.302 28.068 125.526 27.312L132.456 2.784C132.484 2.672 132.498 2.574 132.498 2.49C132.526 2.406 132.54 2.322 132.54 2.238C132.54 1.874 132.428 1.608 132.204 1.44C131.98 1.244 131.686 1.146 131.322 1.146H128.466V0.725999H134.64L143.838 28.404C144.09 29.188 144.72 29.58 145.728 29.58H146.82V30ZM132.918 2.91L128.088 19.794H138.546L132.918 2.91ZM166.704 10.89H166.284V4.968C166.284 3.876 165.92 2.966 165.192 2.238C164.464 1.51 163.554 1.146 162.462 1.146H158.304V27.984C158.304 28.46 158.444 28.852 158.724 29.16C159.032 29.44 159.424 29.58 159.9 29.58H162.714V30H151.584V29.58H154.398C154.874 29.58 155.252 29.44 155.532 29.16C155.84 28.852 155.994 28.46 155.994 27.984V1.146H151.752C150.688 1.146 149.792 1.524 149.064 2.28C148.364 3.008 148.014 3.932 148.014 5.052V10.89H147.594V0.725999H166.704V10.89ZM178.553 10.638C178.105 10.554 177.727 10.512 177.419 10.512C177.139 10.512 176.817 10.512 176.453 10.512H173.639V2.7C173.639 2.252 173.779 1.888 174.059 1.608C174.367 1.3 174.745 1.146 175.193 1.146H176.789V0.725999H168.179V1.146H169.775C170.335 1.146 170.727 1.272 170.951 1.524C171.203 1.748 171.329 2.14 171.329 2.7V28.026C171.329 28.586 171.203 28.992 170.951 29.244C170.727 29.468 170.335 29.58 169.775 29.58H168.179V30H176.663C179.799 30 182.067 29.244 183.467 27.732C184.867 26.192 185.567 23.742 185.567 20.382C185.567 17.274 185.007 14.95 183.887 13.41C182.767 11.87 180.989 10.946 178.553 10.638ZM176.663 10.932C178.875 10.932 180.499 11.688 181.535 13.2C182.599 14.712 183.131 17.12 183.131 20.424C183.131 23.616 182.613 25.94 181.577 27.396C180.569 28.852 178.931 29.58 176.663 29.58H173.639V10.932H176.663ZM211.235 24.456C209.975 26.332 208.421 27.816 206.573 28.908C204.725 30 202.709 30.546 200.525 30.546C198.565 30.546 196.759 30.182 195.107 29.454C193.483 28.698 192.083 27.648 190.907 26.304C189.731 24.96 188.807 23.364 188.135 21.516C187.491 19.64 187.169 17.596 187.169 15.384C187.169 13.172 187.491 11.142 188.135 9.294C188.807 7.418 189.731 5.808 190.907 4.464C192.083 3.12 193.483 2.07 195.107 1.314C196.759 0.557999 198.565 0.179998 200.525 0.179998C203.353 0.179998 205.999 1.174 208.463 3.162C208.827 3.47 209.163 3.624 209.471 3.624C209.947 3.624 210.185 3.316 210.185 2.7V0.725999H210.605V10.89H210.185V10.26C210.185 8.608 209.919 7.18 209.387 5.976C208.883 4.744 208.197 3.736 207.329 2.952C206.461 2.14 205.467 1.552 204.347 1.188C203.255 0.795998 202.107 0.599998 200.903 0.599998C199.223 0.599998 197.683 0.963998 196.283 1.692C194.911 2.392 193.721 3.386 192.713 4.674C191.733 5.962 190.963 7.516 190.403 9.336C189.871 11.156 189.605 13.172 189.605 15.384C189.605 17.456 189.857 19.388 190.361 21.18C190.893 22.972 191.635 24.54 192.587 25.884C193.539 27.2 194.687 28.236 196.031 28.992C197.375 29.748 198.873 30.126 200.525 30.126C202.625 30.126 204.571 29.594 206.363 28.53C208.183 27.438 209.681 25.996 210.857 24.204L211.235 24.456ZM212.476 30H214.072C215.444 30 216.41 29.524 216.97 28.572C217.558 27.62 217.852 26.178 217.852 24.246V17.778C217.852 13.802 219.952 11.814 224.152 11.814H228.142V28.026C228.142 28.474 227.988 28.852 227.68 29.16C227.4 29.44 227.036 29.58 226.588 29.58H224.992V30H233.602V29.58H232.006C231.558 29.58 231.18 29.44 230.872 29.16C230.592 28.852 230.452 28.474 230.452 28.026V2.7C230.452 2.224 230.606 1.846 230.914 1.566C231.222 1.286 231.614 1.146 232.09 1.146H233.602V0.725999H223.858C220.722 0.725999 218.482 1.16 217.138 2.028C215.794 2.896 215.122 4.31 215.122 6.27C215.122 8.034 215.64 9.336 216.676 10.176C217.712 11.016 219.448 11.506 221.884 11.646C217.656 12.094 215.542 14.138 215.542 17.778V24.246C215.542 26.234 215.402 27.62 215.122 28.404C214.87 29.188 214.352 29.58 213.568 29.58H212.476V30ZM223.858 11.394C221.59 11.394 219.966 11.002 218.986 10.218C218.034 9.434 217.558 8.118 217.558 6.27C217.558 4.422 218.034 3.106 218.986 2.322C219.966 1.538 221.59 1.146 223.858 1.146H228.142V11.394H223.858ZM271.473 1.146C271.025 1.146 270.647 1.286 270.339 1.566C270.059 1.846 269.919 2.21 269.919 2.658V28.068C269.919 28.516 270.059 28.88 270.339 29.16C270.647 29.44 271.025 29.58 271.473 29.58H273.069V30H264.459V29.58H266.055C266.503 29.58 266.867 29.44 267.147 29.16C267.455 28.88 267.609 28.516 267.609 28.068V11.814H255.219V28.068C255.219 28.516 255.359 28.88 255.639 29.16C255.947 29.44 256.325 29.58 256.773 29.58H258.369V30H249.759V29.58H251.355C251.803 29.58 252.167 29.44 252.447 29.16C252.755 28.88 252.909 28.516 252.909 28.068V2.658C252.909 2.21 252.755 1.846 252.447 1.566C252.167 1.286 251.803 1.146 251.355 1.146H249.759V0.725999H258.369V1.146H256.773C256.325 1.146 255.947 1.286 255.639 1.566C255.359 1.846 255.219 2.21 255.219 2.658V11.394H267.609V2.658C267.609 2.21 267.455 1.846 267.147 1.566C266.867 1.286 266.503 1.146 266.055 1.146H264.459V0.725999H273.069V1.146H271.473ZM299.275 30H290.665V29.58H292.807C293.535 29.58 293.899 29.272 293.899 28.656C293.899 28.516 293.885 28.404 293.857 28.32L291.169 20.214H280.417L278.401 27.354C278.345 27.494 278.317 27.62 278.317 27.732C278.317 27.816 278.317 27.914 278.317 28.026C278.317 28.502 278.457 28.88 278.737 29.16C279.045 29.44 279.437 29.58 279.913 29.58H280.963V30H274.243V29.58H275.335C275.979 29.58 276.525 29.398 276.973 29.034C277.421 28.642 277.757 28.068 277.981 27.312L284.911 2.784C284.939 2.672 284.953 2.574 284.953 2.49C284.981 2.406 284.995 2.322 284.995 2.238C284.995 1.874 284.883 1.608 284.659 1.44C284.435 1.244 284.141 1.146 283.777 1.146H280.921V0.725999H287.095L296.293 28.404C296.545 29.188 297.175 29.58 298.183 29.58H299.275V30ZM285.373 2.91L280.543 19.794H291.001L285.373 2.91ZM344.207 1.146C343.759 1.146 343.381 1.286 343.073 1.566C342.793 1.846 342.653 2.224 342.653 2.7V27.942C342.653 28.446 342.793 28.852 343.073 29.16C343.381 29.44 343.759 29.58 344.207 29.58H345.803V30H337.193V29.58H338.789C339.237 29.58 339.601 29.44 339.881 29.16C340.189 28.852 340.343 28.446 340.343 27.942V2.91L329.633 30.042L318.503 2.868V27.27C318.503 27.998 318.699 28.572 319.091 28.992C319.511 29.384 320.029 29.58 320.645 29.58H321.653V30H314.933V29.58H315.941C316.557 29.58 317.061 29.384 317.453 28.992C317.873 28.572 318.083 27.998 318.083 27.27V2.742C318.083 2.238 317.929 1.846 317.621 1.566C317.341 1.286 316.977 1.146 316.529 1.146H314.933V0.725999H320.099L330.683 26.346L340.763 0.725999H345.803V1.146H344.207ZM371.996 30H363.386V29.58H365.528C366.256 29.58 366.62 29.272 366.62 28.656C366.62 28.516 366.606 28.404 366.578 28.32L363.89 20.214H353.138L351.122 27.354C351.066 27.494 351.038 27.62 351.038 27.732C351.038 27.816 351.038 27.914 351.038 28.026C351.038 28.502 351.178 28.88 351.458 29.16C351.766 29.44 352.158 29.58 352.634 29.58H353.684V30H346.964V29.58H348.056C348.7 29.58 349.246 29.398 349.694 29.034C350.142 28.642 350.478 28.068 350.702 27.312L357.632 2.784C357.66 2.672 357.674 2.574 357.674 2.49C357.702 2.406 357.716 2.322 357.716 2.238C357.716 1.874 357.604 1.608 357.38 1.44C357.156 1.244 356.862 1.146 356.498 1.146H353.642V0.725999H359.816L369.014 28.404C369.266 29.188 369.896 29.58 370.904 29.58H371.996V30ZM358.094 2.91L353.264 19.794H363.722L358.094 2.91ZM396.626 24.456C395.366 26.332 393.812 27.816 391.964 28.908C390.116 30 388.1 30.546 385.916 30.546C383.956 30.546 382.15 30.182 380.498 29.454C378.874 28.698 377.474 27.648 376.298 26.304C375.122 24.96 374.198 23.364 373.526 21.516C372.882 19.64 372.56 17.596 372.56 15.384C372.56 13.172 372.882 11.142 373.526 9.294C374.198 7.418 375.122 5.808 376.298 4.464C377.474 3.12 378.874 2.07 380.498 1.314C382.15 0.557999 383.956 0.179998 385.916 0.179998C388.744 0.179998 391.39 1.174 393.854 3.162C394.218 3.47 394.554 3.624 394.862 3.624C395.338 3.624 395.576 3.316 395.576 2.7V0.725999H395.996V10.89H395.576V10.26C395.576 8.608 395.31 7.18 394.778 5.976C394.274 4.744 393.588 3.736 392.72 2.952C391.852 2.14 390.858 1.552 389.738 1.188C388.646 0.795998 387.498 0.599998 386.294 0.599998C384.614 0.599998 383.074 0.963998 381.674 1.692C380.302 2.392 379.112 3.386 378.104 4.674C377.124 5.962 376.354 7.516 375.794 9.336C375.262 11.156 374.996 13.172 374.996 15.384C374.996 17.456 375.248 19.388 375.752 21.18C376.284 22.972 377.026 24.54 377.978 25.884C378.93 27.2 380.078 28.236 381.422 28.992C382.766 29.748 384.264 30.126 385.916 30.126C388.016 30.126 389.962 29.594 391.754 28.53C393.574 27.438 395.072 25.996 396.248 24.204L396.626 24.456ZM417.186 10.89H416.766V4.968C416.766 3.876 416.402 2.966 415.674 2.238C414.946 1.51 414.036 1.146 412.944 1.146H408.786V27.984C408.786 28.46 408.926 28.852 409.206 29.16C409.514 29.44 409.906 29.58 410.382 29.58H413.196V30H402.066V29.58H404.88C405.356 29.58 405.734 29.44 406.014 29.16C406.322 28.852 406.476 28.46 406.476 27.984V1.146H402.234C401.17 1.146 400.274 1.524 399.546 2.28C398.846 3.008 398.496 3.932 398.496 5.052V10.89H398.076V0.725999H417.186V10.89ZM438.611 30H418.661V29.58H420.257C420.705 29.58 421.069 29.44 421.349 29.16C421.657 28.88 421.811 28.516 421.811 28.068V2.658C421.811 2.21 421.657 1.846 421.349 1.566C421.069 1.286 420.705 1.146 420.257 1.146H418.661V0.725999H437.141V10.89H436.721V4.968C436.721 3.848 436.357 2.938 435.629 2.238C434.901 1.51 433.991 1.146 432.899 1.146H424.121V11.394H434.201V11.814H424.121V29.58H433.571C434.243 29.58 434.859 29.454 435.419 29.202C435.979 28.95 436.469 28.614 436.889 28.194C437.309 27.774 437.631 27.27 437.855 26.682C438.079 26.094 438.191 25.464 438.191 24.792V17.19H438.611V30ZM450.03 0.725999C453.026 0.725999 455.182 1.16 456.498 2.028C457.842 2.868 458.514 4.282 458.514 6.27C458.514 8.258 457.842 9.686 456.498 10.554C455.182 11.394 453.026 11.814 450.03 11.814H445.326V28.026C445.326 28.502 445.466 28.88 445.746 29.16C446.054 29.44 446.432 29.58 446.88 29.58H448.476V30H439.866V29.58H441.462C442.022 29.58 442.414 29.468 442.638 29.244C442.89 29.02 443.016 28.614 443.016 28.026V2.658C443.016 1.65 442.498 1.146 441.462 1.146H439.866V0.725999H450.03ZM450.03 11.394C452.214 11.394 453.768 11.002 454.692 10.218C455.616 9.434 456.078 8.118 456.078 6.27C456.078 4.422 455.616 3.106 454.692 2.322C453.768 1.538 452.214 1.146 450.03 1.146H445.326V11.394H450.03ZM470.259 11.814H459.759V11.394H470.259V11.814ZM495.26 30H486.65V29.58H489.044C489.408 29.58 489.59 29.482 489.59 29.286C489.59 29.146 489.534 28.978 489.422 28.782L478.292 11.814H476.99V28.068C476.99 28.516 477.13 28.88 477.41 29.16C477.718 29.44 478.096 29.58 478.544 29.58H480.14V30H471.53V29.58H473.126C473.574 29.58 473.938 29.44 474.218 29.16C474.526 28.88 474.68 28.516 474.68 28.068V2.658C474.68 2.21 474.526 1.846 474.218 1.566C473.938 1.286 473.574 1.146 473.126 1.146H471.53V0.725999H480.14V1.146H478.544C478.096 1.146 477.718 1.286 477.41 1.566C477.13 1.846 476.99 2.21 476.99 2.658V11.394H478.25L487.364 3.078C487.672 2.854 487.826 2.546 487.826 2.154C487.826 1.902 487.714 1.678 487.49 1.482C487.294 1.258 486.972 1.146 486.524 1.146H484.97V0.725999H492.908V1.146H492.068C490.752 1.146 489.534 1.664 488.414 2.7L480.098 10.26L491.816 28.194C492.152 28.726 492.474 29.09 492.782 29.286C493.118 29.482 493.58 29.58 494.168 29.58H495.26V30ZM521.331 30H512.721V29.58H514.863C515.591 29.58 515.955 29.272 515.955 28.656C515.955 28.516 515.941 28.404 515.913 28.32L513.225 20.214L507.429 3.12L500.457 27.354C500.401 27.494 500.373 27.62 500.373 27.732C500.373 27.816 500.373 27.914 500.373 28.026C500.373 28.502 500.513 28.88 500.793 29.16C501.101 29.44 501.493 29.58 501.969 29.58H503.019V30H496.299V29.58H497.391C498.035 29.58 498.581 29.398 499.029 29.034C499.477 28.642 499.813 28.068 500.037 27.312L506.967 2.784C506.995 2.672 507.009 2.574 507.009 2.49C507.037 2.406 507.051 2.322 507.051 2.238C507.051 1.874 506.939 1.608 506.715 1.44C506.491 1.244 506.197 1.146 505.833 1.146H502.977V0.725999H509.151L518.349 28.404C518.601 29.188 519.231 29.58 520.239 29.58H521.331V30ZM547.912 30H539.302V29.58H541.444C542.172 29.58 542.536 29.272 542.536 28.656C542.536 28.516 542.522 28.404 542.494 28.32L539.806 20.214H529.054L527.038 27.354C526.982 27.494 526.954 27.62 526.954 27.732C526.954 27.816 526.954 27.914 526.954 28.026C526.954 28.502 527.094 28.88 527.374 29.16C527.682 29.44 528.074 29.58 528.55 29.58H529.6V30H522.88V29.58H523.972C524.616 29.58 525.162 29.398 525.61 29.034C526.058 28.642 526.394 28.068 526.618 27.312L533.548 2.784C533.576 2.672 533.59 2.574 533.59 2.49C533.618 2.406 533.632 2.322 533.632 2.238C533.632 1.874 533.52 1.608 533.296 1.44C533.072 1.244 532.778 1.146 532.414 1.146H529.558V0.725999H535.732L544.93 28.404C545.182 29.188 545.812 29.58 546.82 29.58H547.912V30ZM534.01 2.91L529.18 19.794H539.638L534.01 2.91ZM572.542 24.456C571.282 26.332 569.728 27.816 567.88 28.908C566.032 30 564.016 30.546 561.832 30.546C559.872 30.546 558.066 30.182 556.414 29.454C554.79 28.698 553.39 27.648 552.214 26.304C551.038 24.96 550.114 23.364 549.442 21.516C548.798 19.64 548.476 17.596 548.476 15.384C548.476 13.172 548.798 11.142 549.442 9.294C550.114 7.418 551.038 5.808 552.214 4.464C553.39 3.12 554.79 2.07 556.414 1.314C558.066 0.557999 559.872 0.179998 561.832 0.179998C564.66 0.179998 567.306 1.174 569.77 3.162C570.134 3.47 570.47 3.624 570.778 3.624C571.254 3.624 571.492 3.316 571.492 2.7V0.725999H571.912V10.89H571.492V10.26C571.492 8.608 571.226 7.18 570.694 5.976C570.19 4.744 569.504 3.736 568.636 2.952C567.768 2.14 566.774 1.552 565.654 1.188C564.562 0.795998 563.414 0.599998 562.21 0.599998C560.53 0.599998 558.99 0.963998 557.59 1.692C556.218 2.392 555.028 3.386 554.02 4.674C553.04 5.962 552.27 7.516 551.71 9.336C551.178 11.156 550.912 13.172 550.912 15.384C550.912 17.456 551.164 19.388 551.668 21.18C552.2 22.972 552.942 24.54 553.894 25.884C554.846 27.2 555.994 28.236 557.338 28.992C558.682 29.748 560.18 30.126 561.832 30.126C563.932 30.126 565.878 29.594 567.67 28.53C569.49 27.438 570.988 25.996 572.164 24.204L572.542 24.456ZM597.848 24.456C596.588 26.332 595.034 27.816 593.186 28.908C591.338 30 589.322 30.546 587.138 30.546C585.178 30.546 583.372 30.182 581.72 29.454C580.096 28.698 578.696 27.648 577.52 26.304C576.344 24.96 575.42 23.364 574.748 21.516C574.104 19.64 573.782 17.596 573.782 15.384C573.782 13.172 574.104 11.142 574.748 9.294C575.42 7.418 576.344 5.808 577.52 4.464C578.696 3.12 580.096 2.07 581.72 1.314C583.372 0.557999 585.178 0.179998 587.138 0.179998C589.966 0.179998 592.612 1.174 595.076 3.162C595.44 3.47 595.776 3.624 596.084 3.624C596.56 3.624 596.798 3.316 596.798 2.7V0.725999H597.218V10.89H596.798V10.26C596.798 8.608 596.532 7.18 596 5.976C595.496 4.744 594.81 3.736 593.942 2.952C593.074 2.14 592.08 1.552 590.96 1.188C589.868 0.795998 588.72 0.599998 587.516 0.599998C585.836 0.599998 584.296 0.963998 582.896 1.692C581.524 2.392 580.334 3.386 579.326 4.674C578.346 5.962 577.576 7.516 577.016 9.336C576.484 11.156 576.218 13.172 576.218 15.384C576.218 17.456 576.47 19.388 576.974 21.18C577.506 22.972 578.248 24.54 579.2 25.884C580.152 27.2 581.3 28.236 582.644 28.992C583.988 29.748 585.486 30.126 587.138 30.126C589.238 30.126 591.184 29.594 592.976 28.53C594.796 27.438 596.294 25.996 597.47 24.204L597.848 24.456Z" fill="#010101"/>
</svg>
